<svg width="22" height="18" viewBox="0 0 22 18" fill="none" xmlns="http://www.w3.org/2000/svg">
<path d="M21.1468 15.6755C20.7433 15.266 15.8536 13.3165 14.9664 12.9487C14.0838 12.5874 13.7317 11.5862 13.7317 11.5862C13.7317 11.5862 13.3344 11.8126 13.3344 11.1767C13.3344 10.5399 13.7317 11.5862 14.129 9.13078C14.129 9.13078 15.2312 8.81201 15.0123 6.17598H14.7475C14.7475 6.17598 15.4096 3.35767 14.7475 2.40379C14.083 1.4499 13.8228 0.813977 12.3638 0.357909C10.9071 -0.0973548 11.4368 -0.00662309 10.3789 0.0399471C9.31954 0.0857144 8.43773 0.676674 8.43773 0.993834C8.43773 0.993834 7.7756 1.0396 7.5123 1.3126C7.24745 1.5856 6.80655 2.85745 6.80655 3.17541C6.80655 3.49337 7.027 5.63239 7.24745 6.08525L6.98493 6.17357C6.76448 8.81041 7.86674 9.12998 7.86674 9.12998C8.26402 11.5854 8.6613 10.5391 8.6613 11.1759C8.6613 11.8118 8.26402 11.5854 8.26402 11.5854C8.26402 11.5854 7.91114 12.5858 7.02933 12.9479C6.14753 13.3117 1.25242 15.266 0.85436 15.6747C0.45708 16.0922 0.501482 18 0.501482 18H21.4981C21.4981 18 21.5472 16.0906 21.1452 15.6739L21.1468 15.6755ZM11.873 7.5498C11.563 7.34907 11.2631 6.57825 11.2631 6.23299V6.04349C11.1813 5.95838 10.816 5.96641 10.7412 6.04349V6.23299C10.7412 6.57825 10.4413 7.34907 10.1312 7.5498C9.81964 7.75053 8.87708 7.74009 8.50784 7.36031C8.13938 6.98052 8.09965 6.02503 8.00695 5.93108C7.91503 5.83473 7.86284 5.78254 7.86284 5.78254L7.88621 5.45012C7.88621 5.45012 8.54056 5.28392 9.20892 5.28392C9.87729 5.28392 10.6134 5.68779 10.6134 5.68779C10.7941 5.62838 11.2249 5.62115 11.3901 5.68779C11.3901 5.68779 12.1262 5.28472 12.7946 5.28472C13.4629 5.28472 14.1188 5.45173 14.1188 5.45173L14.1406 5.78415L13.9965 5.93269C13.9046 6.02743 13.8641 6.98293 13.4956 7.36191C13.1295 7.7417 12.1854 7.75294 11.8738 7.5514L11.873 7.5498Z" fill="white"/>
</svg>
