<svg width="390" height="1062" viewBox="0 0 390 1062" fill="none" xmlns="http://www.w3.org/2000/svg">
<g opacity="0.5">
<path opacity="0.1" d="M180.974 173.607C103.135 154.544 99.9802 395.051 108.133 517.688C143.788 833.633 213.224 652.147 211.994 448.479C210.764 244.812 307.374 510.489 347.131 285.24C393.232 24.0541 278.273 197.436 180.974 173.607Z" stroke="white" stroke-width="0.901858"/>
<path opacity="0.1" d="M181.842 184.191C104.277 157.165 98.2646 397.202 104.954 520.599C136.832 840.005 208.383 665.744 209.575 462.074C210.767 258.404 304.16 533.818 346.571 312.779C395.748 56.4758 278.798 217.974 181.842 184.191Z" stroke="white" stroke-width="0.901858"/>
<path opacity="0.1" d="M182.583 194.858C105.386 159.901 96.5244 399.176 101.743 523.183C129.804 845.661 203.384 678.836 206.996 475.413C210.608 271.989 300.67 556.804 345.683 340.245C397.877 89.1358 279.078 238.554 182.583 194.858Z" stroke="white" stroke-width="0.901858"/>
<path opacity="0.1" d="M183.197 205.594C106.463 162.749 94.7619 400.971 98.503 525.437C122.713 850.593 198.231 691.409 204.26 488.479C210.288 285.55 296.909 579.418 344.469 367.602C399.617 121.994 279.114 259.149 183.197 205.594Z" stroke="white" stroke-width="0.901858"/>
<path opacity="0.1" d="M183.683 216.386C107.505 165.706 92.979 402.584 95.2383 527.357C115.568 854.796 192.933 703.446 201.37 501.257C209.807 299.069 292.882 601.633 342.931 394.819C400.964 155.01 278.905 279.736 183.683 216.386Z" stroke="white" stroke-width="0.901858"/>
<path opacity="0.1" d="M184.04 227.222C108.511 168.768 91.1781 404.013 91.9527 528.942C108.378 858.264 187.494 714.932 198.33 513.732C209.166 312.531 288.593 623.422 341.07 421.862C401.919 188.145 278.451 300.289 184.04 227.222Z" stroke="white" stroke-width="0.901858"/>
<path opacity="0.1" d="M184.268 238.087C109.48 171.931 89.3613 405.257 88.6503 530.189C101.15 860.993 181.923 725.855 195.144 525.887C208.364 325.919 284.047 644.758 338.889 448.697C402.479 221.357 277.753 320.783 184.268 238.087Z" stroke="white" stroke-width="0.901858"/>
<path opacity="0.1" d="M184.367 248.97C110.412 175.191 87.5309 406.314 85.335 531.097C93.8949 862.98 176.224 736.2 191.815 537.708C207.405 339.216 279.251 665.615 336.39 475.293C402.644 254.606 276.812 341.193 184.367 248.97Z" stroke="white" stroke-width="0.901858"/>
<path opacity="0.1" d="M184.337 259.856C111.303 178.545 85.6889 407.182 82.011 531.665C86.6202 864.223 170.407 745.954 188.347 549.181C206.287 352.407 274.21 685.968 333.576 501.616C402.414 287.852 275.629 361.494 184.337 259.856Z" stroke="white" stroke-width="0.901858"/>
<path opacity="0.1" d="M184.177 270.732C112.155 181.988 83.8378 407.862 78.6822 531.892C79.3352 864.72 164.477 755.107 184.745 560.292C205.014 365.476 268.93 705.793 330.451 527.635C401.788 321.054 274.205 381.661 184.177 270.732Z" stroke="white" stroke-width="0.901858"/>
<path opacity="0.1" d="M183.888 281.585C112.964 185.516 81.9797 408.351 75.3528 531.778C72.0488 864.469 158.441 763.647 181.014 571.027C203.586 378.406 263.417 725.064 327.019 553.318C400.769 354.171 272.543 401.671 183.888 281.585Z" stroke="white" stroke-width="0.901858"/>
<path opacity="0.1" d="M183.471 292.401C113.733 189.125 80.1179 408.65 72.0278 531.322C64.7707 863.472 152.309 771.562 177.158 581.372C202.006 391.182 257.68 743.758 323.285 578.633C399.357 387.163 270.644 421.497 183.471 292.401Z" stroke="white" stroke-width="0.901858"/>
<path opacity="0.1" d="M182.925 303.169C114.457 192.81 78.2527 408.757 68.7092 530.526C57.5079 861.73 146.086 778.845 173.18 591.317C200.274 403.788 251.722 761.854 319.251 603.551C397.553 419.992 268.51 441.117 182.925 303.169Z" stroke="white" stroke-width="0.901858"/>
<path opacity="0.1" d="M182.25 313.874C115.136 196.568 76.3864 408.675 65.4011 529.391C50.2692 859.246 139.779 785.487 169.086 600.849C198.393 416.21 245.553 779.329 314.922 628.04C395.358 452.616 266.144 460.507 182.25 313.874Z" stroke="white" stroke-width="0.901858"/>
<path opacity="0.1" d="M181.451 324.503C115.771 200.392 74.5242 408.399 62.1105 527.917C43.0665 856.021 133.398 791.477 164.882 609.954C196.366 428.43 239.181 796.159 310.307 652.07C392.779 484.994 263.55 479.642 181.451 324.503Z" stroke="white" stroke-width="0.901858"/>
<path opacity="0.1" d="M180.523 335.045C116.359 204.28 72.6644 407.935 58.8374 526.108C35.9045 852.061 126.949 796.811 160.571 618.624C194.194 440.437 232.611 812.329 305.406 675.614C389.815 517.089 260.728 498.5 180.523 335.045Z" stroke="white" stroke-width="0.901858"/>
<path opacity="0.1" d="M179.473 345.484C116.902 208.225 70.8132 407.279 55.5898 523.963C28.796 847.368 120.441 801.48 156.162 626.846C191.883 452.212 225.855 827.813 300.231 698.64C386.473 548.86 257.685 517.057 179.473 345.484Z" stroke="white" stroke-width="0.901858"/>
<path opacity="0.1" d="M178.298 355.809C117.398 212.224 68.97 406.434 52.3687 521.488C21.7466 841.95 113.882 805.48 151.657 634.612C189.432 463.744 218.918 842.597 294.785 721.123C382.754 580.269 254.423 535.291 178.298 355.809Z" stroke="white" stroke-width="0.901858"/>
<path opacity="0.1" d="M177.001 366.008C117.845 216.271 67.1379 405.401 49.179 518.684C14.7658 835.814 107.278 808.805 147.062 641.911C186.845 475.018 211.81 856.661 289.074 743.034C378.665 611.279 250.946 553.18 177.001 366.008Z" stroke="white" stroke-width="0.901858"/>
<path opacity="0.1" d="M175.583 376.069C118.243 220.362 65.3183 404.182 46.0236 515.555C7.86133 828.967 100.638 811.452 142.382 648.736C184.125 486.021 204.537 869.989 283.105 764.347C374.208 641.851 247.258 570.703 175.583 376.069Z" stroke="white" stroke-width="0.901858"/>
<path opacity="0.1" d="M174.048 385.976C118.594 224.489 63.5162 402.775 42.9093 512.104C1.04441 821.415 93.9733 813.416 137.625 655.076C181.277 496.736 197.113 882.562 276.889 785.034C369.392 671.947 243.365 587.835 174.048 385.976Z" stroke="white" stroke-width="0.901858"/>
<path opacity="0.1" d="M172.395 395.721C118.894 228.651 61.7309 401.186 39.8369 508.337C-5.67957 813.17 87.2877 814.697 132.796 660.926C178.303 507.155 189.543 894.368 270.429 805.073C364.221 701.531 239.271 604.559 172.395 395.721Z" stroke="white" stroke-width="0.901858"/>
<path opacity="0.1" d="M170.627 405.291C119.145 232.842 59.9657 399.414 36.8111 504.257C-12.3015 804.241 80.5911 815.292 127.899 666.277C175.207 517.262 181.837 905.391 263.735 824.437C358.7 730.568 234.979 620.853 170.627 405.291Z" stroke="white" stroke-width="0.901858"/>
<path opacity="0.1" d="M168.747 414.674C119.346 237.055 58.2225 397.463 33.8357 499.869C-18.8131 794.639 73.8914 815.201 122.942 671.123C171.993 527.046 174.004 915.618 256.816 843.104C352.839 759.022 230.497 636.698 168.747 414.674Z" stroke="white" stroke-width="0.901858"/>
</g>
</svg>
