<svg width="1543" height="1455" viewBox="0 0 1543 1455" fill="none" xmlns="http://www.w3.org/2000/svg">
<g opacity="0.5">
<path opacity="0.1" d="M776.633 291.007C504.447 232.793 456.183 520.935 466.074 672.283C543.346 1068.83 816.779 881.781 843.859 636.007C870.94 390.233 1171.42 753.875 1346.7 500.685C1549.95 207.1 1116.87 363.775 776.633 291.007Z" stroke="white" stroke-width="1.63733"/>
<path opacity="0.1" d="M778.066 304.143C508.078 236.466 449.787 522.748 454.39 674.349C517.775 1073.36 797.57 895.959 833.211 651.279C868.853 406.6 1156.46 780.507 1340.47 533.589C1553.84 247.276 1115.55 388.741 778.066 304.143Z" stroke="white" stroke-width="1.63733"/>
<path opacity="0.1" d="M779.04 317.322C511.578 240.263 443.332 524.336 442.641 676.006C492.063 1076.98 777.878 909.457 822.037 666.171C866.195 422.885 1140.57 806.601 1333.09 566.255C1556.33 287.564 1113.37 413.646 779.04 317.322Z" stroke="white" stroke-width="1.63733"/>
<path opacity="0.1" d="M779.553 330.526C514.944 244.18 436.825 525.699 430.842 677.251C466.239 1079.71 757.727 922.26 810.349 680.663C862.972 439.066 1123.79 832.125 1324.58 598.644C1557.41 327.913 1110.32 438.459 779.553 330.526Z" stroke="white" stroke-width="1.63733"/>
<path opacity="0.1" d="M779.606 343.74C518.171 248.212 430.274 526.833 419.006 678.084C440.336 1081.53 737.141 934.352 798.163 694.739C859.185 455.126 1106.13 857.047 1314.95 630.716C1557.08 368.275 1106.4 463.151 779.606 343.74Z" stroke="white" stroke-width="1.63733"/>
<path opacity="0.1" d="M779.197 356.948C521.255 252.354 423.688 527.738 407.148 678.504C414.385 1082.45 716.146 945.718 785.493 708.381C854.84 471.043 1087.61 881.338 1304.19 662.432C1555.34 408.602 1101.62 487.691 779.197 356.948Z" stroke="white" stroke-width="1.63733"/>
<path opacity="0.1" d="M778.327 370.134C524.193 256.602 417.075 528.412 395.283 678.509C388.418 1082.46 694.767 956.345 772.355 721.572C849.943 486.799 1068.25 904.968 1292.34 693.754C1552.19 448.843 1096 512.05 778.327 370.134Z" stroke="white" stroke-width="1.63733"/>
<path opacity="0.1" d="M776.998 383.281C526.98 260.949 410.442 528.856 383.425 678.101C362.467 1081.57 673.03 966.219 758.764 734.297C844.498 502.375 1048.08 927.907 1279.41 724.643C1547.64 488.95 1089.52 536.197 776.998 383.281Z" stroke="white" stroke-width="1.63733"/>
<path opacity="0.1" d="M775.211 396.374C529.615 265.391 403.797 529.067 371.588 677.279C336.562 1079.77 650.962 975.328 744.738 746.54C838.514 517.751 1027.12 950.129 1265.4 755.062C1541.7 528.873 1082.21 560.104 775.211 396.374Z" stroke="white" stroke-width="1.63733"/>
<path opacity="0.1" d="M772.967 409.397C532.092 269.922 397.149 529.047 359.787 676.044C310.736 1077.07 628.589 983.662 730.293 758.285C831.996 532.909 1005.4 971.606 1250.34 784.973C1534.37 568.565 1074.06 583.74 772.967 409.397Z" stroke="white" stroke-width="1.63733"/>
<path opacity="0.1" d="M770.271 422.333C534.41 274.537 390.506 528.795 348.037 674.398C285.02 1073.46 605.939 991.21 715.446 769.52C824.953 547.83 982.937 992.311 1234.25 814.341C1525.65 607.977 1065.1 607.079 770.271 422.333Z" stroke="white" stroke-width="1.63733"/>
<path opacity="0.1" d="M767.126 435.167C536.567 279.229 383.877 528.31 336.352 672.342C259.446 1068.96 583.041 997.962 700.218 780.228C817.395 562.495 959.77 1012.22 1217.14 843.128C1515.57 647.06 1055.32 630.089 767.126 435.167Z" stroke="white" stroke-width="1.63733"/>
<path opacity="0.1" d="M763.534 447.883C538.557 283.994 377.268 527.595 324.745 669.881C234.044 1063.58 559.92 1003.91 684.624 790.4C809.328 576.889 935.922 1031.31 1199.03 871.301C1504.12 685.768 1044.75 652.745 763.534 447.883Z" stroke="white" stroke-width="1.63733"/>
<path opacity="0.1" d="M759.499 460.468C540.379 288.827 370.687 526.65 313.23 667.016C208.845 1057.31 536.604 1009.05 668.684 800.022C800.764 590.993 911.421 1049.55 1179.96 898.827C1491.33 724.053 1033.4 675.019 759.499 460.468Z" stroke="white" stroke-width="1.63733"/>
<path opacity="0.1" d="M755.03 472.902C542.034 293.719 364.144 525.475 301.824 663.75C183.881 1050.16 513.125 1013.37 652.419 809.08C791.714 604.788 886.3 1066.93 1159.93 925.668C1477.22 761.868 1021.27 696.882 755.03 472.902Z" stroke="white" stroke-width="1.63733"/>
<path opacity="0.1" d="M750.127 485.175C543.514 298.667 357.645 524.073 290.537 660.09C159.18 1042.15 489.508 1016.87 635.847 817.566C782.186 618.26 860.586 1083.42 1138.98 951.795C1461.79 799.168 1008.39 718.309 750.127 485.175Z" stroke="white" stroke-width="1.63733"/>
<path opacity="0.1" d="M744.801 497.267C544.823 303.662 351.2 522.444 279.386 656.036C134.776 1033.28 465.784 1019.55 618.99 825.468C772.196 631.39 834.314 1099.01 1117.13 977.174C1445.08 835.906 994.773 739.273 744.801 497.267Z" stroke="white" stroke-width="1.63733"/>
<path opacity="0.1" d="M739.055 509.167C545.956 308.701 344.816 520.592 268.383 651.596C110.696 1023.56 441.981 1021.39 601.867 832.777C761.752 644.164 807.514 1113.66 1094.41 1001.78C1427.08 872.039 980.429 759.749 739.055 509.167Z" stroke="white" stroke-width="1.63733"/>
<path opacity="0.1" d="M732.898 520.859C546.912 313.776 338.5 518.519 257.542 646.775C86.9685 1013.01 418.128 1022.4 584.499 839.484C750.87 656.566 780.218 1127.38 1070.85 1025.57C1407.84 907.522 965.38 779.712 732.898 520.859Z" stroke="white" stroke-width="1.63733"/>
<path opacity="0.1" d="M726.335 532.329C547.69 318.882 332.259 516.226 246.874 641.58C63.6233 1001.64 394.254 1022.58 566.907 845.582C739.56 668.581 752.459 1140.13 1046.46 1048.53C1387.38 942.312 949.641 799.139 726.335 532.329Z" stroke="white" stroke-width="1.63733"/>
<path opacity="0.1" d="M719.378 543.563C548.29 324.01 326.104 513.716 236.396 636.013C40.6912 989.459 370.389 1021.93 549.114 851.06C727.84 680.193 724.274 1151.9 1021.3 1070.62C1365.71 976.366 933.237 818.003 719.378 543.563Z" stroke="white" stroke-width="1.63733"/>
<path opacity="0.1" d="M712.032 554.547C548.711 329.158 320.039 510.994 226.118 630.086C18.197 976.486 346.561 1020.44 531.141 855.915C715.72 691.39 695.694 1162.69 995.374 1091.82C1342.86 1009.64 916.182 836.284 712.032 554.547Z" stroke="white" stroke-width="1.63733"/>
<path opacity="0.1" d="M704.307 565.268C548.952 334.316 314.073 508.061 216.053 623.803C-3.83061 962.735 322.799 1018.12 513.008 860.14C703.217 702.156 666.756 1172.47 968.726 1112.1C1318.87 1042.1 898.501 853.958 704.307 565.268Z" stroke="white" stroke-width="1.63733"/>
<path opacity="0.1" d="M696.212 575.713C549.012 339.48 308.213 504.922 206.213 617.172C-25.365 948.225 299.133 1014.98 494.74 863.729C690.346 712.48 637.493 1181.23 941.386 1131.44C1293.76 1073.71 880.213 871.005 696.212 575.713Z" stroke="white" stroke-width="1.63733"/>
</g>
</svg>
