<svg width="97" height="117" viewBox="0 0 97 117" fill="none" xmlns="http://www.w3.org/2000/svg">
<path fill-rule="evenodd" clip-rule="evenodd" d="M79.447 11.2679C74.7691 11.6574 72.109 12.4713 67.0575 15.1696C57.1594 20.3532 50.8943 25.9913 49.4459 30.8135C49.1274 31.9651 48.9602 33.2421 49.1223 33.6064C49.3251 34.2214 49.5478 33.9763 50.6099 32.0521C51.2858 30.8277 52.6126 28.9984 53.5062 28.0291C56.9513 24.4023 68.2954 17.823 75.701 15.1899C80.2614 13.5479 82.2957 12.4771 82.5487 11.6107C82.7108 11.1505 81.99 11.0741 79.447 11.2679Z" fill="white"/>
<path fill-rule="evenodd" clip-rule="evenodd" d="M59.7491 7.56808C56.0259 8.75928 52.4998 10.6508 48.0619 13.8694C35.45 22.9952 31.1548 31.5929 33.7455 42.2542C34.8226 46.5981 36.8726 50.5615 42.7391 59.7846C48.6563 69.0824 50.7846 73.2287 52.1279 77.9896C53.8143 84.0857 53.641 90.2033 51.5823 96.7892C50.2545 100.993 48.0007 104.91 44.1765 109.473C42.3401 111.659 40.9758 113.556 41.0519 113.827C41.204 114.367 43.5012 113.395 45.7702 111.815C48.5542 109.878 50.7662 107.261 52.9932 103.143C58.8204 92.4195 59.0299 80.6071 53.4835 69.4134C52.4429 67.3766 49.2706 62.0159 46.3384 57.519C40.4344 48.3637 39.0417 45.8157 37.7398 41.8042C36.1218 36.8916 37.1122 30.4426 40.1685 25.963C42.9782 21.9388 50.1728 15.7658 58.5955 10.2242C60.935 8.68376 62.8932 7.34275 62.9524 7.23565C63.2617 6.67518 62.2816 6.81881 59.7491 7.56808Z" fill="white"/>
</svg>
