<svg width="222" height="206" viewBox="0 0 222 206" fill="none" xmlns="http://www.w3.org/2000/svg">
<path fill-rule="evenodd" clip-rule="evenodd" d="M174.692 37.2052C174.046 37.981 169.393 44.1785 164.337 51.0619C154.383 64.515 150.851 71.159 153.362 71.3209C155.07 71.4864 164.635 60.8484 171.563 51.0275C177.517 42.6971 179.519 37.404 177.159 36.4067C176.31 36.0333 175.434 36.3092 174.683 37.2029L174.692 37.2052Z" fill="white"/>
<path fill-rule="evenodd" clip-rule="evenodd" d="M106.792 19.3764C105.256 20.2056 104.731 27.0712 105.011 41.0042C105.15 50.0185 106.279 57.2453 107.78 59.5449C108.831 61.0675 108.968 61.1039 109.65 60.192C110.086 59.6521 110.511 57.7953 110.726 56.1744C111.241 50.9845 111.054 23.3555 110.402 21.4293C109.832 19.7439 108.003 18.67 106.795 19.3679L106.792 19.3764Z" fill="white"/>
<path fill-rule="evenodd" clip-rule="evenodd" d="M130.846 36.9058C128.704 39.1784 127.423 56.4882 129.33 56.9991C129.875 57.145 130.602 56.61 131.112 55.7978C132.609 53.2066 135.55 40.8668 135.139 38.8591C134.634 36.3882 132.292 35.3227 130.846 36.9058Z" fill="white"/>
<path fill-rule="evenodd" clip-rule="evenodd" d="M65.8 44.9402C64.0513 45.2015 64.4524 47.7904 66.6787 50.6494C69.322 54.1311 78.6226 61.878 79.9578 61.7978C81.8426 61.573 81.0365 59.6785 76.9877 54.3605C71.5466 47.4288 68.2077 44.6366 65.8 44.9402Z" fill="white"/>
<path fill-rule="evenodd" clip-rule="evenodd" d="M175.33 88.4456C165.612 91.7536 162.991 93.0946 163.72 94.4578C164.287 95.3394 173.156 94.6508 178.317 93.3332C182.801 92.1261 188.107 89.7529 188.345 88.8677C188.582 87.9824 187.032 85.5965 186.078 85.341C185.67 85.2315 180.773 86.6198 175.321 88.4433L175.33 88.4456Z" fill="white"/>
<path fill-rule="evenodd" clip-rule="evenodd" d="M26.296 61.933C23.6146 63.769 26.7274 65.7708 45.0008 73.8055C53.0116 77.4116 61.746 80.1899 64.0759 79.9384C65.9607 79.7136 65.9535 78.1061 64.0846 76.3646C62.0115 74.5684 36.998 63.6329 31.3461 62.1185C28.6223 61.3887 27.033 61.3277 26.2875 61.9307L26.296 61.933Z" fill="white"/>
<path fill-rule="evenodd" clip-rule="evenodd" d="M156.366 116.199C154.812 117.097 154.688 118.377 156.166 119.941C157.795 121.764 170.09 127.321 184.125 132.687C194.728 136.696 195.341 136.86 196.869 136.029C200.595 134.108 199.294 132.154 192.381 129.353C181.07 124.716 159.437 116.146 158.483 115.891C157.87 115.727 156.962 115.848 156.358 116.197L156.366 116.199Z" fill="white"/>
<path fill-rule="evenodd" clip-rule="evenodd" d="M51.811 100.143C42.7785 100.35 39.6253 101.768 41.3201 104.703C42.018 105.912 42.4947 106.04 46.1914 105.862C50.8463 105.65 61.4671 103.022 61.8089 102.019C62.2918 100.761 58.0467 99.9889 51.8025 100.14L51.811 100.143Z" fill="white"/>
<path fill-rule="evenodd" clip-rule="evenodd" d="M67.7074 123.078C61.3328 125.895 39.8435 139.395 39.442 140.893C38.8947 142.936 40.6238 143.837 43.7307 143.137C50.1173 141.637 72.4532 126.612 73.3837 123.139C73.7851 121.641 71.1695 121.597 67.7074 123.078Z" fill="white"/>
<path fill-rule="evenodd" clip-rule="evenodd" d="M145.441 142.821C144.985 144.524 150.039 152.082 154 155.551C157.402 158.653 161.85 160.574 162.215 159.212C162.671 157.51 157.348 150.683 151.527 145.474C147.331 141.795 145.906 141.121 145.45 142.824L145.441 142.821Z" fill="white"/>
<path fill-rule="evenodd" clip-rule="evenodd" d="M89.1306 143.05C85.8105 147.27 82.652 153.065 81.455 157.26C80.4928 160.578 80.5195 161.023 81.7452 161.352C84.1285 161.99 87.5083 157.276 90.3582 149.364C91.6706 145.556 92.7738 141.983 92.6973 141.452C92.5722 139.739 91.35 140.215 89.1306 143.05Z" fill="white"/>
<path fill-rule="evenodd" clip-rule="evenodd" d="M118.995 148.134C118.668 148.265 118.172 149.3 117.862 150.458C117.314 152.5 117.586 185.261 118.228 187.768C118.436 188.627 119.144 189.254 120.065 189.355C121.482 189.516 121.728 189.144 122.554 185.789C123.489 182.026 123.713 163.484 122.992 155.554C122.467 150.159 120.808 147.087 118.995 148.134Z" fill="white"/>
</svg>
