<svg width="74" height="81" viewBox="0 0 74 81" fill="none" xmlns="http://www.w3.org/2000/svg">
<path fill-rule="evenodd" clip-rule="evenodd" d="M49.8929 9.82312C50.0461 10.3078 49.6485 11.6218 48.3453 14.8894C46.3391 19.8734 45.9768 22.0457 46.6297 25.5168C47.5762 30.7607 52.2991 35.1213 57.8311 35.8752C60.692 36.2734 65.9548 35.9676 68.6361 35.2686C71.1675 34.5825 72.3466 34.8896 72.643 36.312C72.7987 37.2196 72.7617 37.31 71.4594 38.4292C68.355 41.0294 64.4105 47.6457 62.7976 52.9666C61.2185 58.1958 61.2122 63.1902 62.7917 68.4434C63.8853 72.1262 65.2797 74.7407 67.2979 76.9386C68.9632 78.7107 69.0245 79.3335 67.5296 79.6354C63.8586 80.3471 58.8339 70.9715 58.3098 62.4546C57.9932 57.0467 58.4473 54.7362 60.9344 48.5779C62.2924 45.2623 63.4858 42.692 64.2008 41.719C64.8062 40.8418 65.272 40.048 65.2488 39.933C65.2132 39.8481 63.8963 39.801 62.3371 39.8305C58.4296 39.9178 55.9616 39.5047 53.1278 38.3441C48.9692 36.6408 45.8042 33.5512 44.1133 29.5143C42.4224 25.4774 42.4534 20.251 43.9539 16.5015L44.5582 15.0261L41.2585 16.5579C35.8373 19.0531 31.7181 19.5812 27.6646 18.3077C23.4182 16.9904 19.8495 13.7706 17.8945 9.52008C17.2886 8.25221 16.7291 7.21432 16.6743 7.26221C16.6195 7.3101 15.9416 8.19279 15.1595 9.24378C13.2816 11.8541 10.3182 14.3675 7.85167 15.5725C4.78194 17.0579 0.444616 17.0785 1.03796 15.6299C1.29695 14.9975 2.38418 14.3177 5.61607 12.7893C9.11023 11.1262 11.8498 8.48204 14.6374 3.99394C16.2415 1.45117 16.5892 1.2029 17.8238 1.70855C18.7271 2.07854 18.9118 2.40033 19.3806 4.17464C20.0885 6.99627 21.1901 9.2095 22.8361 11.1144C27.6749 16.6515 33.8588 16.93 42.3337 11.9583C47.7483 8.79235 48.2699 8.54891 48.9926 8.8449C49.384 9.00522 49.8096 9.42564 49.8971 9.81308L49.8929 9.82312Z" fill="white" stroke="white" stroke-width="1.83227"/>
</svg>
