<svg width="54" height="94" viewBox="0 0 54 94" fill="none" xmlns="http://www.w3.org/2000/svg">
<path fill-rule="evenodd" clip-rule="evenodd" d="M27.1869 92.3701C27.0423 90.6729 38.8928 75.7963 44.7619 70.2705C45.8866 69.2113 47.7794 67.2021 48.9336 65.8511C51.2305 63.222 52.7417 62.4398 53.4567 63.5436C54.098 64.5481 53.6671 65.1489 47.3944 71.9324C43.883 75.6896 36.8349 84.0553 33.0575 88.9429C31.0427 91.502 29.1529 93.693 28.8221 93.7745C28.0668 94.0035 27.2355 93.3204 27.188 92.3766L27.1869 92.3701Z" fill="white"/>
<path fill-rule="evenodd" clip-rule="evenodd" d="M0.149014 66.8382C0.098141 66.5294 0.220179 65.9795 0.415013 65.7078C0.996772 64.8966 3.8823 63.2806 6.04092 62.5572C7.11832 62.1941 9.47176 61.199 11.265 60.3468C13.0582 59.4946 15.3285 58.4862 16.3485 58.082C17.3685 57.6777 19.3987 56.8101 20.9272 56.1331C25.9695 53.9257 26.6111 53.6614 27.5815 53.4476C29.2966 53.084 30.6391 54.6379 29.7116 55.9313C29.5168 56.2029 27.5247 57.1385 25.3395 58.0283C20.9117 59.7667 19.7453 60.2456 16.027 61.9481C14.6496 62.6002 11.6633 63.9121 9.39303 64.9205C7.09214 65.907 4.5084 67.102 3.58024 67.5721C1.78703 68.4243 0.358424 68.1299 0.149014 66.8382Z" fill="white"/>
<path fill-rule="evenodd" clip-rule="evenodd" d="M6.04782 35.9076C6.53416 34.0255 10.1807 33.5057 20.4972 33.8985C24.0418 34.0299 29.2558 33.9911 32.0813 33.7922C35.7241 33.5363 37.4022 33.604 37.8366 34.0083C38.6814 34.7937 37.9528 36.0038 36.4794 36.2161C33.8923 36.5917 25.8471 36.9586 22.5406 36.8183C20.6216 36.7632 17.4012 36.8179 15.3838 36.9647C8.39162 37.4551 7.2546 37.4568 6.56199 36.9601C6.20229 36.7021 5.96295 36.2118 6.04399 35.9048L6.04782 35.9076Z" fill="white"/>
<path fill-rule="evenodd" clip-rule="evenodd" d="M35.759 51.3041C35.6942 50.2551 42.4552 47.2348 43.4157 47.9235C44.315 48.5684 44.373 49.6994 43.5282 50.3684C43.1565 50.6929 41.5448 51.3565 39.8852 51.8931C36.8585 52.8169 35.8555 52.6886 35.7618 51.3002L35.759 51.3041Z" fill="white"/>
<path fill-rule="evenodd" clip-rule="evenodd" d="M2.99952 3.24846C2.57985 1.99141 3.41957 0.820517 4.73152 0.897976C5.28605 0.884242 7.16346 1.50624 8.8716 2.22708C10.6076 2.9737 12.9968 3.95697 14.1827 4.39602C16.5412 5.35729 17.1422 5.97367 16.791 7.03714C16.208 8.80356 14.3987 8.59547 8.02878 5.93959C6.09581 5.14443 4.25468 4.41509 3.94775 4.33405C3.62161 4.27979 3.21969 3.7656 3.00226 3.24462L2.99952 3.24846Z" fill="white"/>
<path fill-rule="evenodd" clip-rule="evenodd" d="M21.898 9.74921C22.0369 8.66674 23.114 8.11812 24.7464 8.37901C25.4234 8.45309 29.1583 9.90308 33.0291 11.5432C36.8779 13.214 40.9763 14.9246 42.1096 15.3723C44.3544 16.2983 44.8319 16.7798 44.6873 17.9914C44.6132 18.6684 44.3818 18.8617 43.659 18.9808C42.7019 19.1115 38.3254 17.4737 32.3962 14.7688C30.7702 14.0547 28.0282 12.9981 26.2704 12.4676C22.442 11.2693 21.7399 10.8585 21.9007 9.74543L21.898 9.74921Z" fill="white"/>
</svg>
