<svg width="75" height="80" viewBox="0 0 75 80" fill="none" xmlns="http://www.w3.org/2000/svg">
<path fill-rule="evenodd" clip-rule="evenodd" d="M24.8686 8.87067C24.704 9.35152 25.0699 10.6746 26.2945 13.9726C28.1808 19.0031 28.491 21.1835 27.7552 24.6379C26.6834 29.8577 21.8575 34.104 16.3089 34.7252C13.4394 35.0547 8.18535 34.623 5.52162 33.86C3.00737 33.1135 1.82125 33.3923 1.49082 34.8072C1.31346 35.7109 1.3483 35.8021 2.62344 36.9521C5.6647 39.626 9.44961 46.3348 10.9346 51.6928C12.3881 56.9583 12.2747 61.9514 10.5699 67.1653C9.38844 70.8208 7.93183 73.4012 5.86156 75.5501C4.15438 77.2818 4.07812 77.903 5.56544 78.2407C9.21831 79.04 14.4661 69.7874 15.1939 61.2855C15.64 55.8867 15.2413 53.566 12.9024 47.3499C11.6241 44.0028 10.4927 41.4046 9.80118 40.4148C9.21693 39.5233 8.77028 38.7186 8.79625 38.6042C8.83383 38.5202 10.1515 38.5047 11.7095 38.5715C15.6138 38.7523 18.091 38.3985 20.9517 37.306C25.15 35.7027 28.388 32.6898 30.1751 28.6946C31.9622 24.6994 32.0564 19.4737 30.6461 15.6894L30.0773 14.1999L33.3394 15.8103C38.6992 18.4346 42.8047 19.0611 46.8874 17.8851C51.1642 16.6698 54.809 13.5364 56.8652 9.33391C57.5013 8.08092 58.0855 7.05673 58.1391 7.10591C58.1927 7.1551 58.8493 8.05376 59.606 9.12318C61.4209 11.7777 64.3232 14.3614 66.7602 15.6251C69.7935 17.1835 74.1291 17.308 73.5706 15.8456C73.3268 15.2072 72.2562 14.5015 69.0618 12.8963C65.6085 11.1499 62.933 8.44091 60.2537 3.88735C58.711 1.3069 58.3692 1.05037 57.1229 1.52632C56.211 1.87457 56.0187 2.19185 55.5075 3.95442C54.7322 6.75829 53.5779 8.94451 51.8868 10.8094C46.9168 16.2291 40.728 16.3595 32.3746 11.1863C27.0374 7.89154 26.5217 7.63568 25.7922 7.91428C25.397 8.06519 24.9615 8.47529 24.8648 8.86052L24.8686 8.87067Z" fill="white" stroke="white" stroke-width="1.83227"/>
</svg>
