<svg width="81" height="117" viewBox="0 0 81 117" fill="none" xmlns="http://www.w3.org/2000/svg">
<path fill-rule="evenodd" clip-rule="evenodd" d="M67.9249 113.745C66.9871 111.83 44.6865 103.496 34.8283 101.345C32.9389 100.932 29.6134 99.9949 27.5044 99.2882C23.3458 97.9457 21.2201 98.0795 21.1636 99.7247C21.1223 101.216 21.9717 101.583 33.0731 104.824C39.2619 106.595 52.2145 111.035 59.4168 113.848C63.2275 115.297 66.6669 116.431 67.0744 116.306C68.0326 116.065 68.4849 114.796 67.928 113.753L67.9249 113.745Z" fill="white"/>
<path fill-rule="evenodd" clip-rule="evenodd" d="M80.5009 68.9277C80.3566 68.5635 79.8715 68.0519 79.4874 67.8857C78.3405 67.3897 74.2027 67.5137 71.4199 68.1275C70.0297 68.4317 66.8628 68.8795 64.3893 69.1197C61.9158 69.36 58.8296 69.7398 57.4745 69.9629C56.1193 70.186 53.3814 70.5623 51.3049 70.8201C44.4712 71.6984 43.6125 71.828 42.4332 72.2235C40.3583 72.9379 39.9181 75.4703 41.7466 76.2612C42.1307 76.4273 44.8713 76.1485 47.7898 75.6961C53.6618 74.7101 55.2221 74.4729 60.3096 73.9054C62.2079 73.7182 66.258 73.203 69.3442 72.8231C72.4491 72.4 75.9919 72.0185 77.2908 71.9253C79.7644 71.685 81.1081 70.4489 80.5009 68.9277Z" fill="white"/>
<path fill-rule="evenodd" clip-rule="evenodd" d="M54.2486 39.5288C52.5145 37.822 48.2659 39.6128 37.4461 46.6786C33.7263 49.1027 28.1051 52.4191 24.9444 54.0254C20.8698 56.0969 19.1122 57.2504 18.9063 57.9641C18.5055 59.3512 20.0668 60.1807 21.785 59.4596C24.8037 58.1965 33.6749 53.4088 37.1334 51.1286C39.1577 49.8335 42.6493 47.8182 44.9091 46.6763C52.7297 42.6994 53.9512 41.9688 54.3747 40.9897C54.5946 40.4811 54.5357 39.8007 54.251 39.5234L54.2486 39.5288Z" fill="white"/>
<path fill-rule="evenodd" clip-rule="evenodd" d="M32.2757 75.1896C31.6697 74.0221 22.4677 75.1348 21.8805 76.4926C21.3306 77.7639 21.9968 79.0153 23.3343 79.1892C23.9423 79.298 26.0996 78.9723 28.2265 78.4793C32.0699 77.5215 33.0638 76.7378 32.2703 75.1873L32.2757 75.1896Z" fill="white"/>
<path fill-rule="evenodd" clip-rule="evenodd" d="M36.4861 2.51239C36.1269 0.8929 34.4715 0.17701 33.1133 1.10511C32.5093 1.44752 30.8948 3.32427 29.5257 5.19809C28.1434 7.11752 26.2123 9.71163 25.2222 10.9467C23.3099 13.4974 23.0619 14.5461 24.1238 15.4613C25.8872 16.9817 27.6951 15.5931 32.8214 8.63993C34.384 6.54153 35.8903 4.57293 36.1675 4.28827C36.4827 4.01998 36.5829 3.20925 36.4807 2.51004L36.4861 2.51239Z" fill="white"/>
<path fill-rule="evenodd" clip-rule="evenodd" d="M20.3891 21.6613C19.5429 20.589 18.0335 20.6939 16.4494 22.0252C15.7705 22.5408 12.6957 26.5025 9.59752 30.7559C6.5426 35.028 3.24557 39.5036 2.31749 40.714C0.504615 43.1537 0.302207 43.978 1.23777 45.1853C1.75329 45.8642 2.12614 45.9227 2.97858 45.585C4.08998 45.1088 7.73254 40.5322 12.3543 33.8104C13.6396 31.9967 15.902 29.0965 17.447 27.3951C20.7843 23.6432 21.2733 22.7501 20.3838 21.659L20.3891 21.6613Z" fill="white"/>
</svg>
