<svg width="65" height="77" viewBox="0 0 65 77" fill="none" xmlns="http://www.w3.org/2000/svg">
<path fill-rule="evenodd" clip-rule="evenodd" d="M27.0489 5.15616C28.4099 6.68714 28.286 7.49599 26.1472 10.6595C22.9183 15.4352 10.1459 31.1996 7.55034 33.5792C6.95312 34.1151 5.19509 33.8662 2.99526 32.9427C1.58515 32.3182 0.631863 31.1569 0.746337 30.1537C0.872171 29.0642 2.80987 25.2949 6.7645 18.4728C8.48945 15.5045 11.32 10.5535 12.9942 7.45174C16.2739 1.4889 17.4598 0.0824544 19.0888 0.244176C20.1783 0.370008 25.9345 3.88587 27.0489 5.15616ZM19.0138 3.48227C18.754 3.58853 16.8531 6.67798 14.7671 10.3888C12.6682 14.0491 9.33542 19.8821 7.30527 23.3018C5.27271 26.7251 3.62355 29.6506 3.62264 29.7909C3.59993 29.9635 4.13579 30.5607 4.80156 31.1048L6.00416 32.1058L8.09938 29.0068C10.105 26.0404 11.9255 23.6952 20.648 12.8092C22.9576 9.94905 24.8088 7.489 24.8211 7.26238C24.8352 6.7551 19.4781 3.2742 19.0126 3.47628L19.0138 3.48227Z" fill="url(#paint0_linear_448_4086)"/>
<path fill-rule="evenodd" clip-rule="evenodd" d="M52.3724 28.197C55.4405 31.7278 56.1653 33.1575 55.6698 34.6548C55.3609 35.6676 53.681 36.693 40.4643 44.2117C22.9899 54.0669 19.837 55.4642 19.7504 53.2914C19.7209 52.8486 19.2626 51.928 18.7163 51.2767C18.116 50.6359 17.5411 49.4016 17.3304 48.6013C16.8073 46.0395 17.7201 45.1062 28.3618 37.9138C33.5689 34.3816 39.464 30.187 41.4823 28.5916C46.183 24.905 46.9736 24.4999 48.5399 24.9012C49.2511 25.1001 49.8115 25.2441 49.822 25.2981C49.8542 25.3199 50.9791 26.6442 52.376 28.1994L52.3724 28.197ZM41.9649 32.3947C39.0792 34.5782 33.1414 38.6969 28.7913 41.5869C23.953 44.8516 20.8075 47.1414 20.6749 47.6155C20.5318 48.0356 20.5246 49.1583 20.6263 50.1197L20.8201 51.8482L21.6876 51.2601C24.5724 49.217 33.207 44.0974 41.942 39.2387C47.4592 36.1512 51.9812 33.5705 51.9708 33.5165C51.8768 33.0301 48.5194 29.1627 47.9495 28.8244C47.39 28.5401 46.3281 29.1377 41.9649 32.3947Z" fill="url(#paint1_linear_448_4086)"/>
<path fill-rule="evenodd" clip-rule="evenodd" d="M63.3596 64.1651C64.5298 68.48 64.965 71.4575 64.5072 72.1346C63.8096 73.1664 62.5666 73.4066 56.2865 73.7233C48.5917 74.117 44.3032 74.5534 34.0979 75.8808C29.8625 76.447 25.7519 76.8209 24.8672 76.7396C23.3785 76.5788 23.3462 76.557 22.9543 75.3994C22.5406 74.274 22.2962 68.5125 22.645 67.9966C22.7322 67.8676 25.8127 67.2723 29.4928 66.7013C39.3217 65.1663 48.408 63.2702 52.4649 61.9256C57.974 60.101 60.8315 59.4959 61.6376 60.0409C62.0567 60.3243 62.7901 62.0887 63.3632 64.1675L63.3596 64.1651ZM54.9459 63.8849C48.7516 65.9509 38.8423 68.2302 31.5378 69.3054L25.5025 70.1634L25.611 71.7402C25.67 72.6258 25.7944 73.4147 25.9234 73.5019C26.0201 73.5673 31.4785 73.0762 37.973 72.4347C44.4929 71.7634 52.4677 71.0944 55.6883 70.9174C58.9064 70.744 61.6312 70.613 61.7957 70.5781C62.1522 70.5372 60.3116 62.8978 59.8602 62.5926C59.6667 62.4618 57.45 63.0304 54.9483 63.8813L54.9459 63.8849Z" fill="url(#paint2_linear_448_4086)"/>
<defs>
<linearGradient id="paint0_linear_448_4086" x1="51.1256" y1="21.1907" x2="-109" y2="88" gradientUnits="userSpaceOnUse">
<stop stop-color="white"/>
<stop offset="1" stop-color="#999999"/>
</linearGradient>
<linearGradient id="paint1_linear_448_4086" x1="51.1256" y1="21.1907" x2="-109" y2="88" gradientUnits="userSpaceOnUse">
<stop stop-color="white"/>
<stop offset="1" stop-color="#999999"/>
</linearGradient>
<linearGradient id="paint2_linear_448_4086" x1="51.1256" y1="21.1907" x2="-109" y2="88" gradientUnits="userSpaceOnUse">
<stop stop-color="white"/>
<stop offset="1" stop-color="#999999"/>
</linearGradient>
</defs>
</svg>
