<svg width="16" height="150" viewBox="0 0 16 150" fill="none" xmlns="http://www.w3.org/2000/svg">
<path fill-rule="evenodd" clip-rule="evenodd" d="M11.5 131.5V130C11.5 128.067 9.933 126.5 8 126.5C6.067 126.5 4.5 128.067 4.5 130V141.5C4.5 143.433 6.067 145 8 145C9.5349 145 11.0279 141.875 11.5 140.5C13.0012 140.747 14.472 141.7 15.75 142.5C14.6337 145.573 11.459 149.5 8 149.5C3.58172 149.5 0 145.918 0 141.5V130C0 125.582 3.58172 122 8 122C12.4183 122 16 125.582 16 130V132.793L11.5 131.5ZM2.28737 139.877C2.49345 139.897 2.6438 140.081 2.62319 140.287C2.54582 141.061 2.66339 142.676 3.39794 144.145C4.12197 145.593 5.43759 146.892 7.78737 147.127C7.99345 147.147 8.1438 147.331 8.12319 147.537C8.10258 147.743 7.91882 147.894 7.71274 147.873C5.06245 147.608 3.54473 146.115 2.72711 144.48C1.92002 142.866 1.78762 141.106 1.87691 140.213C1.89752 140.007 2.08129 139.856 2.28737 139.877Z" fill="url(#paint0_linear_1261_1122)"/>
<path fill-rule="evenodd" clip-rule="evenodd" d="M8 81.5C12.4183 81.5 16 85.0817 16 89.5V101C16 105.418 12.4183 109 8 109C3.58172 109 0 105.418 0 101V89.5C0 85.0817 3.58172 81.5 8 81.5ZM4.5 101V89.5C4.5 87.567 6.067 86 8 86C9.933 86 11.5 87.567 11.5 89.5V101C11.5 102.933 9.933 104.5 8 104.5C6.067 104.5 4.5 102.933 4.5 101ZM13.75 92.3749C13.5429 92.3749 13.375 92.5428 13.375 92.7499C13.375 94.4523 13.399 95.9245 13.4199 97.1979C13.4281 97.7032 13.4359 98.1772 13.4414 98.6218C13.461 100.194 13.4525 101.391 13.3461 102.333C13.24 103.273 13.0398 103.923 12.7013 104.422C12.3656 104.917 11.8678 105.302 11.0929 105.659C10.9048 105.746 10.8228 105.969 10.9095 106.157C10.9963 106.345 11.2191 106.427 11.4072 106.34C12.2572 105.948 12.8844 105.489 13.3221 104.843C13.757 104.202 13.9787 103.415 14.0914 102.417C14.2037 101.422 14.2108 100.181 14.1913 98.6124C14.1858 98.1632 14.178 97.6865 14.1697 97.1794C14.1489 95.9079 14.125 94.4457 14.125 92.7499C14.125 92.5428 13.9571 92.3749 13.75 92.3749ZM3.37418 92.0249C3.36041 92.2316 3.18172 92.3879 2.97507 92.3742C2.76842 92.3604 2.61207 92.1817 2.62584 91.9751C2.64442 91.6965 2.66036 91.4171 2.6762 91.1394C2.71269 90.5 2.74864 89.8701 2.81487 89.2822C2.91038 88.4346 3.07268 87.6269 3.41297 86.9293C3.7582 86.2216 4.28289 85.635 5.08083 85.2317C5.86976 84.833 6.90247 84.625 8.24995 84.625C8.45706 84.625 8.62495 84.7929 8.62495 85C8.62495 85.2071 8.45706 85.375 8.24995 85.375C6.97246 85.375 6.0677 85.5733 5.41915 85.9011C4.7796 86.2243 4.36681 86.6846 4.08704 87.2582C3.80234 87.8418 3.65214 88.5498 3.56015 89.3662C3.49632 89.9328 3.46234 90.5288 3.42649 91.1576C3.41039 91.4399 3.39391 91.7291 3.37418 92.0249Z" fill="url(#paint1_linear_1261_1122)"/>
<path fill-rule="evenodd" clip-rule="evenodd" d="M8 0C12.4183 0 16 3.58172 16 8V19.5C16 23.9183 12.4183 27.5 8 27.5C3.58172 27.5 0 23.9183 0 19.5V8C0 3.58172 3.58172 0 8 0ZM4.5 19.5V8C4.5 6.067 6.067 4.5 8 4.5C9.933 4.5 11.5 6.067 11.5 8V19.5C11.5 21.433 9.933 23 8 23C6.067 23 4.5 21.433 4.5 19.5ZM13.75 10.8749C13.5429 10.8749 13.375 11.0428 13.375 11.2499C13.375 12.9523 13.399 14.4245 13.4199 15.6979C13.4281 16.2032 13.4359 16.6772 13.4414 17.1218C13.461 18.6942 13.4525 19.8907 13.3461 20.8329C13.24 21.7725 13.0398 22.423 12.7013 22.9223C12.3656 23.4174 11.8678 23.8018 11.0929 24.1594C10.9048 24.2462 10.8228 24.469 10.9095 24.6571C10.9963 24.8451 11.2191 24.9272 11.4072 24.8404C12.2572 24.4481 12.8844 23.9887 13.3221 23.3432C13.757 22.7018 13.9787 21.9148 14.0914 20.917C14.2037 19.9217 14.2108 18.6806 14.1913 17.1124C14.1858 16.6632 14.178 16.1865 14.1697 15.6794C14.1489 14.4079 14.125 12.9457 14.125 11.2499C14.125 11.0428 13.9571 10.8749 13.75 10.8749ZM3.37418 10.5249C3.36041 10.7316 3.18172 10.8879 2.97507 10.8742C2.76842 10.8604 2.61207 10.6817 2.62584 10.4751C2.64442 10.1965 2.66036 9.91705 2.6762 9.63942C2.71269 8.99996 2.74864 8.37005 2.81487 7.78223C2.91038 6.93457 3.07268 6.12694 3.41297 5.42934C3.7582 4.72161 4.28289 4.13504 5.08083 3.73173C5.86976 3.33297 6.90247 3.125 8.24995 3.125C8.45706 3.125 8.62495 3.29289 8.62495 3.5C8.62495 3.70711 8.45706 3.875 8.24995 3.875C6.97246 3.875 6.0677 4.07328 5.41915 4.40109C4.7796 4.72434 4.36681 5.18464 4.08704 5.75816C3.80234 6.34181 3.65214 7.04981 3.56015 7.86621C3.49632 8.43277 3.46234 9.0288 3.42649 9.65758C3.41039 9.93991 3.39391 10.2291 3.37418 10.5249Z" fill="url(#paint2_linear_1261_1122)"/>
<path fill-rule="evenodd" clip-rule="evenodd" d="M8 40.5C12.4183 40.5 16 44.0817 16 48.5V60C16 64.4183 12.4183 68 8 68C3.58172 68 0 64.4183 0 60V48.5C0 44.0817 3.58172 40.5 8 40.5ZM4.5 60V48.5C4.5 46.567 6.067 45 8 45C9.933 45 11.5 46.567 11.5 48.5V60C11.5 61.933 9.933 63.5 8 63.5C6.067 63.5 4.5 61.933 4.5 60ZM13.75 51.3749C13.5429 51.3749 13.375 51.5428 13.375 51.7499C13.375 53.4523 13.399 54.9245 13.4199 56.1979C13.4281 56.7032 13.4359 57.1772 13.4414 57.6218C13.461 59.1942 13.4525 60.3907 13.3461 61.3329C13.24 62.2725 13.0398 62.923 12.7013 63.4223C12.3656 63.9174 11.8678 64.3018 11.0929 64.6594C10.9048 64.7462 10.8228 64.969 10.9095 65.1571C10.9963 65.3451 11.2191 65.4272 11.4072 65.3404C12.2572 64.9481 12.8844 64.4887 13.3221 63.8432C13.757 63.2018 13.9787 62.4148 14.0914 61.417C14.2037 60.4217 14.2108 59.1806 14.1913 57.6124C14.1858 57.1632 14.178 56.6865 14.1697 56.1794C14.1489 54.9079 14.125 53.4457 14.125 51.7499C14.125 51.5428 13.9571 51.3749 13.75 51.3749ZM3.37418 51.0249C3.36041 51.2316 3.18172 51.3879 2.97507 51.3742C2.76842 51.3604 2.61207 51.1817 2.62584 50.9751C2.64442 50.6965 2.66036 50.417 2.6762 50.1394C2.71269 49.5 2.74864 48.8701 2.81487 48.2822C2.91038 47.4346 3.07268 46.6269 3.41297 45.9293C3.7582 45.2216 4.28289 44.635 5.08083 44.2317C5.86976 43.833 6.90247 43.625 8.24995 43.625C8.45706 43.625 8.62495 43.7929 8.62495 44C8.62495 44.2071 8.45706 44.375 8.24995 44.375C6.97246 44.375 6.0677 44.5733 5.41915 44.9011C4.7796 45.2243 4.36681 45.6846 4.08704 46.2582C3.80234 46.8418 3.65214 47.5498 3.56015 48.3662C3.49632 48.9328 3.46234 49.5288 3.42649 50.1576C3.41039 50.4399 3.39391 50.7291 3.37418 51.0249Z" fill="url(#paint3_linear_1261_1122)"/>
<path fill-rule="evenodd" clip-rule="evenodd" d="M8.25 129.575C7.14542 129.575 6.25 128.68 6.25 127.575V105.075C6.25 103.97 7.14542 103.075 8.25 103.075C9.35458 103.075 10.25 103.97 10.25 105.075V127.575C10.25 128.68 9.35458 129.575 8.25 129.575ZM8 117.575C7.58578 117.575 7.25 117.239 7.25 116.825V105.325C7.25 104.911 7.58578 104.575 8 104.575C8.41422 104.575 8.75 104.911 8.75 105.325V116.825C8.75 117.239 8.41422 117.575 8 117.575Z" fill="url(#paint4_linear_1261_1122)"/>
<path fill-rule="evenodd" clip-rule="evenodd" d="M8.25 48.075C7.14542 48.075 6.25 47.1795 6.25 46.075V23.575C6.25 22.4704 7.14542 21.575 8.25 21.575C9.35458 21.575 10.25 22.4704 10.25 23.575V46.075C10.25 47.1795 9.35458 48.075 8.25 48.075ZM8 36.075C7.58578 36.075 7.25 35.7392 7.25 35.325V23.825C7.25 23.4107 7.58578 23.075 8 23.075C8.41422 23.075 8.75 23.4107 8.75 23.825V35.325C8.75 35.7392 8.41422 36.075 8 36.075Z" fill="url(#paint5_linear_1261_1122)"/>
<path fill-rule="evenodd" clip-rule="evenodd" d="M8 88.5C6.89542 88.5 6 87.6046 6 86.5V64C6 62.8954 6.89542 62 8 62C9.10458 62 10 62.8954 10 64V86.5C10 87.6046 9.10458 88.5 8 88.5ZM7.75 76.5C7.33578 76.5 7 76.1642 7 75.75V64.25C7 63.8358 7.33578 63.5 7.75 63.5C8.16422 63.5 8.5 63.8358 8.5 64.25V75.75C8.5 76.1642 8.16422 76.5 7.75 76.5Z" fill="url(#paint6_linear_1261_1122)"/>
<defs>
<linearGradient id="paint0_linear_1261_1122" x1="0.4" y1="3.11458" x2="32.7845" y2="6.95687" gradientUnits="userSpaceOnUse">
<stop stop-color="#59140A"/>
<stop offset="0.18" stop-color="#8A0000"/>
<stop offset="0.315" stop-color="#6F0B0B"/>
<stop offset="0.491919" stop-color="#972626"/>
<stop offset="0.615" stop-color="#621510"/>
<stop offset="0.785" stop-color="#660E0E"/>
<stop offset="0.955" stop-color="#401010"/>
</linearGradient>
<linearGradient id="paint1_linear_1261_1122" x1="0.4" y1="3.11458" x2="32.7845" y2="6.95687" gradientUnits="userSpaceOnUse">
<stop stop-color="#59140A"/>
<stop offset="0.18" stop-color="#8A0000"/>
<stop offset="0.315" stop-color="#6F0B0B"/>
<stop offset="0.491919" stop-color="#972626"/>
<stop offset="0.615" stop-color="#621510"/>
<stop offset="0.785" stop-color="#660E0E"/>
<stop offset="0.955" stop-color="#401010"/>
</linearGradient>
<linearGradient id="paint2_linear_1261_1122" x1="0.4" y1="3.11458" x2="32.7845" y2="6.95687" gradientUnits="userSpaceOnUse">
<stop stop-color="#59140A"/>
<stop offset="0.18" stop-color="#8A0000"/>
<stop offset="0.315" stop-color="#6F0B0B"/>
<stop offset="0.491919" stop-color="#972626"/>
<stop offset="0.615" stop-color="#621510"/>
<stop offset="0.785" stop-color="#660E0E"/>
<stop offset="0.955" stop-color="#401010"/>
</linearGradient>
<linearGradient id="paint3_linear_1261_1122" x1="0.4" y1="3.11458" x2="32.7845" y2="6.95687" gradientUnits="userSpaceOnUse">
<stop stop-color="#59140A"/>
<stop offset="0.18" stop-color="#8A0000"/>
<stop offset="0.315" stop-color="#6F0B0B"/>
<stop offset="0.491919" stop-color="#972626"/>
<stop offset="0.615" stop-color="#621510"/>
<stop offset="0.785" stop-color="#660E0E"/>
<stop offset="0.955" stop-color="#401010"/>
</linearGradient>
<linearGradient id="paint4_linear_1261_1122" x1="0.4" y1="3.11458" x2="32.7845" y2="6.95687" gradientUnits="userSpaceOnUse">
<stop stop-color="#59140A"/>
<stop offset="0.18" stop-color="#8A0000"/>
<stop offset="0.315" stop-color="#6F0B0B"/>
<stop offset="0.491919" stop-color="#972626"/>
<stop offset="0.615" stop-color="#621510"/>
<stop offset="0.785" stop-color="#660E0E"/>
<stop offset="0.955" stop-color="#401010"/>
</linearGradient>
<linearGradient id="paint5_linear_1261_1122" x1="0.4" y1="3.11458" x2="32.7845" y2="6.95687" gradientUnits="userSpaceOnUse">
<stop stop-color="#59140A"/>
<stop offset="0.18" stop-color="#8A0000"/>
<stop offset="0.315" stop-color="#6F0B0B"/>
<stop offset="0.491919" stop-color="#972626"/>
<stop offset="0.615" stop-color="#621510"/>
<stop offset="0.785" stop-color="#660E0E"/>
<stop offset="0.955" stop-color="#401010"/>
</linearGradient>
<linearGradient id="paint6_linear_1261_1122" x1="0.4" y1="3.11458" x2="32.7845" y2="6.95687" gradientUnits="userSpaceOnUse">
<stop stop-color="#59140A"/>
<stop offset="0.18" stop-color="#8A0000"/>
<stop offset="0.315" stop-color="#6F0B0B"/>
<stop offset="0.491919" stop-color="#972626"/>
<stop offset="0.615" stop-color="#621510"/>
<stop offset="0.785" stop-color="#660E0E"/>
<stop offset="0.955" stop-color="#401010"/>
</linearGradient>
</defs>
</svg>
