<svg width="16" height="150" viewBox="0 0 16 150" fill="none" xmlns="http://www.w3.org/2000/svg">
<path fill-rule="evenodd" clip-rule="evenodd" d="M4.5 131.5V130C4.5 128.067 6.067 126.5 8 126.5C9.933 126.5 11.5 128.067 11.5 130V141.5C11.5 143.433 9.933 145 8 145C6.4651 145 4.97207 141.875 4.5 140.5C2.99883 140.747 1.52803 141.7 0.25 142.5C1.36634 145.573 4.54104 149.5 8 149.5C12.4183 149.5 16 145.918 16 141.5V130C16 125.582 12.4183 122 8 122C3.58172 122 0 125.582 0 130V132.793L4.5 131.5ZM13.7126 139.877C13.5066 139.897 13.3562 140.081 13.3768 140.287C13.4542 141.061 13.3366 142.676 12.6021 144.145C11.878 145.593 10.5624 146.892 8.21263 147.127C8.00655 147.147 7.8562 147.331 7.87681 147.537C7.89742 147.743 8.08118 147.894 8.28726 147.873C10.9376 147.608 12.4553 146.115 13.2729 144.48C14.08 142.866 14.2124 141.106 14.1231 140.213C14.1025 140.007 13.9187 139.856 13.7126 139.877Z" fill="url(#paint0_linear_1261_1128)"/>
<path fill-rule="evenodd" clip-rule="evenodd" d="M8 81.5C3.58172 81.5 0 85.0817 0 89.5V101C0 105.418 3.58172 109 8 109C12.4183 109 16 105.418 16 101V89.5C16 85.0817 12.4183 81.5 8 81.5ZM11.5 101V89.5C11.5 87.567 9.933 86 8 86C6.067 86 4.5 87.567 4.5 89.5V101C4.5 102.933 6.067 104.5 8 104.5C9.933 104.5 11.5 102.933 11.5 101ZM2.25004 92.3749C2.45715 92.3749 2.62504 92.5428 2.62504 92.7499C2.62504 94.4523 2.60096 95.9245 2.58014 97.1979C2.57188 97.7032 2.56413 98.1772 2.5586 98.6218C2.53904 100.194 2.54754 101.391 2.65391 102.333C2.76 103.273 2.96015 103.923 3.29867 104.422C3.6344 104.917 4.13222 105.302 4.90712 105.659C5.09516 105.746 5.17724 105.969 5.09045 106.157C5.00366 106.345 4.78086 106.427 4.59282 106.34C3.74275 105.948 3.1156 105.489 2.67791 104.843C2.24301 104.202 2.0213 103.415 1.90864 102.417C1.79628 101.422 1.78915 100.181 1.80866 98.6124C1.81424 98.1632 1.82204 97.6865 1.83033 97.1794C1.85113 95.9079 1.87504 94.4457 1.87504 92.7499C1.87504 92.5428 2.04293 92.3749 2.25004 92.3749ZM12.6258 92.0249C12.6396 92.2316 12.8183 92.3879 13.0249 92.3742C13.2316 92.3604 13.3879 92.1817 13.3742 91.9751C13.3556 91.6965 13.3396 91.4171 13.3238 91.1394C13.2873 90.5 13.2514 89.8701 13.1851 89.2822C13.0896 88.4346 12.9273 87.6269 12.587 86.9293C12.2418 86.2216 11.7171 85.635 10.9192 85.2317C10.1302 84.833 9.09753 84.625 7.75005 84.625C7.54294 84.625 7.37505 84.7929 7.37505 85C7.37505 85.2071 7.54294 85.375 7.75005 85.375C9.02754 85.375 9.9323 85.5733 10.5809 85.9011C11.2204 86.2243 11.6332 86.6846 11.913 87.2582C12.1977 87.8418 12.3479 88.5498 12.4398 89.3662C12.5037 89.9328 12.5377 90.5288 12.5735 91.1576C12.5896 91.4399 12.6061 91.7291 12.6258 92.0249Z" fill="url(#paint1_linear_1261_1128)"/>
<path fill-rule="evenodd" clip-rule="evenodd" d="M8 0C3.58172 0 0 3.58172 0 8V19.5C0 23.9183 3.58172 27.5 8 27.5C12.4183 27.5 16 23.9183 16 19.5V8C16 3.58172 12.4183 0 8 0ZM11.5 19.5V8C11.5 6.067 9.933 4.5 8 4.5C6.067 4.5 4.5 6.067 4.5 8V19.5C4.5 21.433 6.067 23 8 23C9.933 23 11.5 21.433 11.5 19.5ZM2.25004 10.8749C2.45715 10.8749 2.62504 11.0428 2.62504 11.2499C2.62504 12.9523 2.60096 14.4245 2.58014 15.6979C2.57188 16.2032 2.56413 16.6772 2.5586 17.1218C2.53904 18.6942 2.54754 19.8907 2.65391 20.8329C2.76 21.7725 2.96015 22.423 3.29867 22.9223C3.6344 23.4174 4.13222 23.8018 4.90712 24.1594C5.09516 24.2462 5.17724 24.469 5.09045 24.6571C5.00366 24.8451 4.78086 24.9272 4.59282 24.8404C3.74275 24.4481 3.1156 23.9887 2.67791 23.3432C2.24301 22.7018 2.0213 21.9148 1.90864 20.917C1.79628 19.9217 1.78915 18.6806 1.80866 17.1124C1.81424 16.6632 1.82204 16.1865 1.83033 15.6794C1.85113 14.4079 1.87504 12.9457 1.87504 11.2499C1.87504 11.0428 2.04293 10.8749 2.25004 10.8749ZM12.6258 10.5249C12.6396 10.7316 12.8183 10.8879 13.0249 10.8742C13.2316 10.8604 13.3879 10.6817 13.3742 10.4751C13.3556 10.1965 13.3396 9.91705 13.3238 9.63942C13.2873 8.99996 13.2514 8.37005 13.1851 7.78223C13.0896 6.93457 12.9273 6.12694 12.587 5.42934C12.2418 4.72161 11.7171 4.13504 10.9192 3.73173C10.1302 3.33297 9.09753 3.125 7.75005 3.125C7.54294 3.125 7.37505 3.29289 7.37505 3.5C7.37505 3.70711 7.54294 3.875 7.75005 3.875C9.02754 3.875 9.9323 4.07328 10.5809 4.40109C11.2204 4.72434 11.6332 5.18464 11.913 5.75816C12.1977 6.34181 12.3479 7.04981 12.4398 7.86621C12.5037 8.43277 12.5377 9.0288 12.5735 9.65758C12.5896 9.93991 12.6061 10.2291 12.6258 10.5249Z" fill="url(#paint2_linear_1261_1128)"/>
<path fill-rule="evenodd" clip-rule="evenodd" d="M8 40.5C3.58172 40.5 0 44.0817 0 48.5V60C0 64.4183 3.58172 68 8 68C12.4183 68 16 64.4183 16 60V48.5C16 44.0817 12.4183 40.5 8 40.5ZM11.5 60V48.5C11.5 46.567 9.933 45 8 45C6.067 45 4.5 46.567 4.5 48.5V60C4.5 61.933 6.067 63.5 8 63.5C9.933 63.5 11.5 61.933 11.5 60ZM2.25004 51.3749C2.45715 51.3749 2.62504 51.5428 2.62504 51.7499C2.62504 53.4523 2.60096 54.9245 2.58014 56.1979C2.57188 56.7032 2.56413 57.1772 2.5586 57.6218C2.53904 59.1942 2.54754 60.3907 2.65391 61.3329C2.76 62.2725 2.96015 62.923 3.29867 63.4223C3.6344 63.9174 4.13222 64.3018 4.90712 64.6594C5.09516 64.7462 5.17724 64.969 5.09045 65.1571C5.00366 65.3451 4.78086 65.4272 4.59282 65.3404C3.74275 64.9481 3.1156 64.4887 2.67791 63.8432C2.24301 63.2018 2.0213 62.4148 1.90864 61.417C1.79628 60.4217 1.78915 59.1806 1.80866 57.6124C1.81424 57.1632 1.82204 56.6865 1.83033 56.1794C1.85113 54.9079 1.87504 53.4457 1.87504 51.7499C1.87504 51.5428 2.04293 51.3749 2.25004 51.3749ZM12.6258 51.0249C12.6396 51.2316 12.8183 51.3879 13.0249 51.3742C13.2316 51.3604 13.3879 51.1817 13.3742 50.9751C13.3556 50.6965 13.3396 50.4171 13.3238 50.1394C13.2873 49.5 13.2514 48.8701 13.1851 48.2822C13.0896 47.4346 12.9273 46.6269 12.587 45.9293C12.2418 45.2216 11.7171 44.635 10.9192 44.2317C10.1302 43.833 9.09753 43.625 7.75005 43.625C7.54294 43.625 7.37505 43.7929 7.37505 44C7.37505 44.2071 7.54294 44.375 7.75005 44.375C9.02754 44.375 9.9323 44.5733 10.5809 44.9011C11.2204 45.2243 11.6332 45.6846 11.913 46.2582C12.1977 46.8418 12.3479 47.5498 12.4398 48.3662C12.5037 48.9328 12.5377 49.5288 12.5735 50.1576C12.5896 50.4399 12.6061 50.7291 12.6258 51.0249Z" fill="url(#paint3_linear_1261_1128)"/>
<path fill-rule="evenodd" clip-rule="evenodd" d="M7.75 129.575C8.85458 129.575 9.75 128.68 9.75 127.575V105.075C9.75 103.97 8.85458 103.075 7.75 103.075C6.64542 103.075 5.75 103.97 5.75 105.075V127.575C5.75 128.68 6.64542 129.575 7.75 129.575ZM8 117.575C8.41422 117.575 8.75 117.239 8.75 116.825V105.325C8.75 104.911 8.41422 104.575 8 104.575C7.58578 104.575 7.25 104.911 7.25 105.325V116.825C7.25 117.239 7.58578 117.575 8 117.575Z" fill="url(#paint4_linear_1261_1128)"/>
<path fill-rule="evenodd" clip-rule="evenodd" d="M7.75 48.075C8.85458 48.075 9.75 47.1795 9.75 46.075V23.575C9.75 22.4704 8.85458 21.575 7.75 21.575C6.64542 21.575 5.75 22.4704 5.75 23.575V46.075C5.75 47.1795 6.64542 48.075 7.75 48.075ZM8 36.075C8.41422 36.075 8.75 35.7392 8.75 35.325V23.825C8.75 23.4107 8.41422 23.075 8 23.075C7.58578 23.075 7.25 23.4107 7.25 23.825V35.325C7.25 35.7392 7.58578 36.075 8 36.075Z" fill="url(#paint5_linear_1261_1128)"/>
<path fill-rule="evenodd" clip-rule="evenodd" d="M8 88.5C9.10458 88.5 10 87.6046 10 86.5V64C10 62.8954 9.10458 62 8 62C6.89542 62 6 62.8954 6 64V86.5C6 87.6046 6.89542 88.5 8 88.5ZM8.25 76.5C8.66422 76.5 9 76.1642 9 75.75V64.25C9 63.8358 8.66422 63.5 8.25 63.5C7.83578 63.5 7.5 63.8358 7.5 64.25V75.75C7.5 76.1642 7.83578 76.5 8.25 76.5Z" fill="url(#paint6_linear_1261_1128)"/>
<defs>
<linearGradient id="paint0_linear_1261_1128" x1="15.6" y1="3.11458" x2="-16.7845" y2="6.95687" gradientUnits="userSpaceOnUse">
<stop stop-color="#59140A"/>
<stop offset="0.18" stop-color="#8A0000"/>
<stop offset="0.315" stop-color="#6F0B0B"/>
<stop offset="0.491919" stop-color="#972626"/>
<stop offset="0.615" stop-color="#621510"/>
<stop offset="0.785" stop-color="#660E0E"/>
<stop offset="0.955" stop-color="#401010"/>
</linearGradient>
<linearGradient id="paint1_linear_1261_1128" x1="15.6" y1="3.11458" x2="-16.7845" y2="6.95687" gradientUnits="userSpaceOnUse">
<stop stop-color="#59140A"/>
<stop offset="0.18" stop-color="#8A0000"/>
<stop offset="0.315" stop-color="#6F0B0B"/>
<stop offset="0.491919" stop-color="#972626"/>
<stop offset="0.615" stop-color="#621510"/>
<stop offset="0.785" stop-color="#660E0E"/>
<stop offset="0.955" stop-color="#401010"/>
</linearGradient>
<linearGradient id="paint2_linear_1261_1128" x1="15.6" y1="3.11458" x2="-16.7845" y2="6.95687" gradientUnits="userSpaceOnUse">
<stop stop-color="#59140A"/>
<stop offset="0.18" stop-color="#8A0000"/>
<stop offset="0.315" stop-color="#6F0B0B"/>
<stop offset="0.491919" stop-color="#972626"/>
<stop offset="0.615" stop-color="#621510"/>
<stop offset="0.785" stop-color="#660E0E"/>
<stop offset="0.955" stop-color="#401010"/>
</linearGradient>
<linearGradient id="paint3_linear_1261_1128" x1="15.6" y1="3.11458" x2="-16.7845" y2="6.95687" gradientUnits="userSpaceOnUse">
<stop stop-color="#59140A"/>
<stop offset="0.18" stop-color="#8A0000"/>
<stop offset="0.315" stop-color="#6F0B0B"/>
<stop offset="0.491919" stop-color="#972626"/>
<stop offset="0.615" stop-color="#621510"/>
<stop offset="0.785" stop-color="#660E0E"/>
<stop offset="0.955" stop-color="#401010"/>
</linearGradient>
<linearGradient id="paint4_linear_1261_1128" x1="15.6" y1="3.11458" x2="-16.7845" y2="6.95687" gradientUnits="userSpaceOnUse">
<stop stop-color="#59140A"/>
<stop offset="0.18" stop-color="#8A0000"/>
<stop offset="0.315" stop-color="#6F0B0B"/>
<stop offset="0.491919" stop-color="#972626"/>
<stop offset="0.615" stop-color="#621510"/>
<stop offset="0.785" stop-color="#660E0E"/>
<stop offset="0.955" stop-color="#401010"/>
</linearGradient>
<linearGradient id="paint5_linear_1261_1128" x1="15.6" y1="3.11458" x2="-16.7845" y2="6.95687" gradientUnits="userSpaceOnUse">
<stop stop-color="#59140A"/>
<stop offset="0.18" stop-color="#8A0000"/>
<stop offset="0.315" stop-color="#6F0B0B"/>
<stop offset="0.491919" stop-color="#972626"/>
<stop offset="0.615" stop-color="#621510"/>
<stop offset="0.785" stop-color="#660E0E"/>
<stop offset="0.955" stop-color="#401010"/>
</linearGradient>
<linearGradient id="paint6_linear_1261_1128" x1="15.6" y1="3.11458" x2="-16.7845" y2="6.95687" gradientUnits="userSpaceOnUse">
<stop stop-color="#59140A"/>
<stop offset="0.18" stop-color="#8A0000"/>
<stop offset="0.315" stop-color="#6F0B0B"/>
<stop offset="0.491919" stop-color="#972626"/>
<stop offset="0.615" stop-color="#621510"/>
<stop offset="0.785" stop-color="#660E0E"/>
<stop offset="0.955" stop-color="#401010"/>
</linearGradient>
</defs>
</svg>
