<svg width="18" height="18" viewBox="0 0 18 18" fill="none" xmlns="http://www.w3.org/2000/svg">
<g filter="url(#filter0_ddd_1261_1129)">
<path d="M9.28378 13.281C12.9472 13.281 15.9277 10.302 15.9277 6.64049C15.9277 2.97895 12.9474 0 9.28378 0C5.62014 0 2.63982 2.97895 2.63982 6.64049C2.63982 10.302 5.62014 13.281 9.28378 13.281Z" fill="url(#paint0_linear_1261_1129)"/>
<path d="M2.93595 6.63956C2.93595 6.7129 2.93778 6.78623 2.93961 6.85957C2.94512 7.00258 2.95429 7.14375 2.96896 7.2831C3.01482 7.75429 3.11571 8.21264 3.26063 8.64716C3.34685 8.90934 3.45141 9.16419 3.57064 9.40987C3.7339 9.74722 3.92835 10.0681 4.14847 10.3688C4.21084 10.4568 4.27688 10.5411 4.34475 10.6254C4.62725 10.9756 4.94643 11.2946 5.2968 11.5788C5.38118 11.6467 5.46556 11.7108 5.55361 11.7732C5.85445 11.9932 6.17547 12.1875 6.51299 12.3507C6.7588 12.4699 7.01378 12.5744 7.2761 12.6605C7.71268 12.8072 8.16761 12.9062 8.63904 12.9521C8.77846 12.9667 8.9197 12.9759 9.06279 12.9814C9.13616 12.9832 9.20954 12.9851 9.28292 12.9851C9.35629 12.9851 9.42966 12.9832 9.50304 12.9814C9.64612 12.9759 9.78737 12.9667 9.92862 12.9521C10.4001 12.9044 10.8568 12.8054 11.2916 12.6605C11.5539 12.5744 11.8089 12.4699 12.0547 12.3507C12.3922 12.1857 12.7132 11.9932 13.0141 11.7732C13.1021 11.7108 13.1865 11.6448 13.2709 11.577C13.6212 11.2946 13.9404 10.9756 14.2229 10.6254C14.2908 10.5411 14.3568 10.4568 14.4192 10.3688C14.6393 10.0681 14.8319 9.74722 14.997 9.40987C15.1163 9.16419 15.2208 8.90934 15.307 8.64716C15.4519 8.21264 15.5528 7.75429 15.5987 7.2831C15.6134 7.14375 15.6225 7.00258 15.628 6.85957C15.6299 6.78623 15.6317 6.7129 15.6317 6.63956C15.6317 6.56622 15.6299 6.49289 15.628 6.41955C15.6225 6.27654 15.6134 6.13537 15.5987 5.99603C15.5528 5.52484 15.4538 5.06831 15.307 4.63379C15.2208 4.37161 15.1163 4.11676 14.997 3.87108C14.8319 3.53373 14.6393 3.21288 14.4192 2.9122C14.3568 2.82419 14.2908 2.73802 14.2247 2.65552C13.9404 2.30534 13.6212 1.98448 13.269 1.70397C13.1865 1.6343 13.1003 1.57013 13.0141 1.50779C12.7132 1.28778 12.3922 1.09344 12.0547 0.930263C11.8089 0.81109 11.5539 0.706584 11.2916 0.620413C10.8568 0.475572 10.3982 0.374735 9.92678 0.328899C9.78737 0.314231 9.64612 0.305064 9.50304 0.299563C9.42966 0.29773 9.35629 0.295898 9.28292 0.295898C9.20954 0.295898 9.13616 0.29773 9.06279 0.299563C8.92154 0.305064 8.78029 0.314231 8.64088 0.328899C8.16944 0.374735 7.71268 0.473739 7.2761 0.620413C7.01378 0.706584 6.7588 0.81109 6.51299 0.930263C6.17363 1.09344 5.85261 1.28778 5.55177 1.50596C5.46556 1.57013 5.37934 1.6343 5.2968 1.70214C4.94643 1.98449 4.62724 2.30534 4.34292 2.65552C4.27504 2.73802 4.21084 2.82236 4.14664 2.91037C3.92835 3.21105 3.7339 3.5319 3.57064 3.87108C3.45141 4.11676 3.34685 4.37161 3.26063 4.63379C3.11388 5.07014 3.01482 5.52667 2.96896 5.99786C2.95429 6.1372 2.94512 6.27654 2.93961 6.41955C2.93778 6.49289 2.93595 6.56622 2.93595 6.63956Z" fill="url(#paint1_radial_1261_1129)"/>
<path opacity="0.4" d="M2.93962 6.41979C2.94512 6.27678 2.95429 6.13744 2.96897 5.9981L3.38537 6.41429L4.33925 5.46091L3.38537 4.50936L3.26063 4.63403C3.34685 4.37185 3.45141 4.11701 3.57065 3.87133L4.33925 3.10312L4.14664 2.91061C4.21085 2.8226 4.27505 2.73827 4.34292 2.65576L4.56488 2.8776L5.51876 1.92422L5.2968 1.70238C5.37935 1.63454 5.46556 1.57037 5.55178 1.5062L5.74439 1.69871L6.513 0.930505C6.75881 0.811332 7.01379 0.706826 7.2761 0.620655L7.15136 0.745329L8.10341 1.69871L9.05729 0.745329L8.64088 0.32914C8.7803 0.314473 8.92154 0.305305 9.06279 0.299805L9.28292 0.519818L9.50304 0.299805C9.64612 0.305305 9.78737 0.314473 9.92678 0.32914L9.51038 0.745329L10.4643 1.69871L11.4163 0.745329L11.2916 0.620655C11.5539 0.706826 11.8089 0.811332 12.0547 0.930505L12.8233 1.69871L13.0141 1.50804C13.1003 1.57037 13.1865 1.63454 13.269 1.70421L13.0489 1.92422L14.0028 2.8776L14.2247 2.65576C14.2908 2.73827 14.3568 2.82444 14.4192 2.91244L14.2284 3.10312L14.997 3.87133C15.1163 4.11701 15.2208 4.37185 15.307 4.63403L15.1823 4.50936L14.2284 5.46091L15.1823 6.41429L15.5987 5.99627C15.6134 6.13561 15.6225 6.27678 15.6281 6.41979L15.4079 6.6398L15.6281 6.85981C15.6225 7.00282 15.6134 7.144 15.5987 7.28334L15.1823 6.86715L14.2284 7.8187L15.1823 8.77208L15.307 8.6474C15.2208 8.90958 15.1163 9.16443 14.997 9.41011L14.2284 10.1783L14.4192 10.369C14.3568 10.457 14.2908 10.5413 14.2229 10.6257L14.0028 10.4038L13.0489 11.3572L13.2709 11.5772C13.1865 11.6451 13.1021 11.7111 13.0141 11.7734L12.8233 11.5827L12.0547 12.3509C11.8089 12.4701 11.5539 12.5746 11.2916 12.6608L11.4163 12.5361L10.4643 11.5827L9.51038 12.5361L9.92862 12.9523C9.78737 12.967 9.64612 12.9761 9.50304 12.9816L9.28292 12.7616L9.06279 12.9816C8.91971 12.9761 8.77846 12.967 8.63905 12.9523L9.05729 12.5361L8.10341 11.5827L7.15136 12.5361L7.2761 12.6608C7.01379 12.5746 6.75881 12.4701 6.513 12.3509L5.74439 11.5827L5.55361 11.7734C5.46556 11.7111 5.38118 11.6469 5.2968 11.5791L5.51876 11.3572L4.56488 10.4038L4.34476 10.6257C4.27688 10.5413 4.21084 10.457 4.14847 10.369L4.33925 10.1783L3.57065 9.41011C3.45141 9.16443 3.34685 8.90958 3.26063 8.6474L3.38537 8.77208L4.33925 7.8187L3.38537 6.86715L2.96897 7.28334C2.95429 7.144 2.94512 7.00282 2.93962 6.85981L3.15975 6.6398L2.93962 6.41979ZM3.61284 4.28201L4.56488 5.23539L5.51876 4.28201L4.56488 3.33046L3.61284 4.28201ZM7.87778 4.28201L6.9239 3.33046L5.97185 4.28201L6.9239 5.23539L7.87778 4.28201ZM5.97185 6.6398L6.9239 7.59318L7.87778 6.6398L6.9239 5.68825L5.97185 6.6398ZM7.15136 5.46091L8.10341 6.41429L9.05729 5.46091L8.10341 4.50936L7.15136 5.46091ZM8.33087 6.6398L9.28292 7.59318L10.2368 6.6398L9.28292 5.68825L8.33087 6.6398ZM9.2831 5.23539L10.237 4.28201L9.2831 3.33046L8.33105 4.28201L9.2831 5.23539ZM9.51038 5.46091L10.4643 6.41429L11.4163 5.46091L10.4643 4.50936L9.51038 5.46091ZM10.6899 6.6398L11.6438 7.59318L12.5958 6.6398L11.6438 5.68825L10.6899 6.6398ZM11.6438 5.23539L12.5958 4.28201L11.6438 3.33046L10.6899 4.28201L11.6438 5.23539ZM11.8694 5.46091L12.8233 6.41429L13.7753 5.46091L12.8233 4.50936L11.8694 5.46091ZM11.8694 7.8187L12.8233 8.77208L13.7753 7.8187L12.8233 6.86715L11.8694 7.8187ZM11.6438 8.04604L10.6899 8.99759L11.6438 9.95097L12.5958 8.99759L11.6438 8.04604ZM11.4163 7.8187L10.4624 6.86715L9.51038 7.8187L10.4624 8.77208L11.4163 7.8187ZM9.2831 8.04604L8.33105 8.99759L9.2831 9.95097L10.237 8.99759L9.2831 8.04604ZM9.05729 7.8187L8.10341 6.86715L7.15136 7.8187L8.10341 8.77208L9.05729 7.8187ZM6.9239 8.04604L5.97185 8.99759L6.9239 9.95097L7.87778 8.99759L6.9239 8.04604ZM6.69827 7.8187L5.74439 6.86715L4.79235 7.8187L5.74439 8.77208L6.69827 7.8187ZM6.69827 5.46091L5.74439 4.50936L4.79235 5.46091L5.74439 6.41429L6.69827 5.46091ZM4.79235 3.10312L5.74439 4.0565L6.69827 3.10312L5.74439 2.14974L4.79235 3.10312ZM6.9239 0.97084L5.97185 1.92422L6.9239 2.8776L7.87778 1.92422L6.9239 0.97084ZM7.15136 3.10312L8.10341 4.0565L9.05729 3.10312L8.10341 2.14974L7.15136 3.10312ZM9.2831 0.97084L8.33105 1.92422L9.2831 2.8776L10.237 1.92422L9.2831 0.97084ZM9.51038 3.10312L10.4643 4.0565L11.4163 3.10312L10.4643 2.14974L9.51038 3.10312ZM11.6438 0.97084L10.6899 1.92422L11.6438 2.8776L12.5958 1.92422L11.6438 0.97084ZM12.8233 2.14974L11.8694 3.10312L12.8233 4.0565L13.7753 3.10312L12.8233 2.14974ZM14.9548 4.28201L14.0028 3.33046L13.0489 4.28201L14.0028 5.23539L14.9548 4.28201ZM14.9548 6.6398L14.0028 5.68825L13.0489 6.6398L14.0028 7.59318L14.9548 6.6398ZM14.9548 8.99759L14.0028 8.04604L13.0489 8.99759L14.0028 9.95097L14.9548 8.99759ZM13.7753 10.1783L12.8233 9.22494L11.8694 10.1783L12.8233 11.1299L13.7753 10.1783ZM11.6438 12.3088L12.5958 11.3572L11.6438 10.4038L10.6899 11.3572L11.6438 12.3088ZM11.4163 10.1783L10.4643 9.22494L9.51038 10.1783L10.4643 11.1299L11.4163 10.1783ZM9.2831 12.3088L10.237 11.3572L9.2831 10.4038L8.33105 11.3572L9.2831 12.3088ZM9.05729 10.1783L8.10341 9.22494L7.15136 10.1783L8.10341 11.1299L9.05729 10.1783ZM6.9239 12.3088L7.87778 11.3572L6.9239 10.4038L5.97185 11.3572L6.9239 12.3088ZM5.74439 11.1299L6.69827 10.1783L5.74439 9.22494L4.79235 10.1783L5.74439 11.1299ZM3.61284 8.99759L4.56488 9.95097L5.51876 8.99759L4.56488 8.04604L3.61284 8.99759ZM4.56488 7.59318L5.51876 6.6398L4.56488 5.68825L3.61284 6.6398L4.56488 7.59318Z" fill="black"/>
</g>
<defs>
<filter id="filter0_ddd_1261_1129" x="0.639771" y="0" width="17.288" height="17.2808" filterUnits="userSpaceOnUse" color-interpolation-filters="sRGB">
<feFlood flood-opacity="0" result="BackgroundImageFix"/>
<feColorMatrix in="SourceAlpha" type="matrix" values="0 0 0 0 0 0 0 0 0 0 0 0 0 0 0 0 0 0 127 0" result="hardAlpha"/>
<feOffset dy="2"/>
<feGaussianBlur stdDeviation="1"/>
<feComposite in2="hardAlpha" operator="out"/>
<feColorMatrix type="matrix" values="0 0 0 0 0 0 0 0 0 0 0 0 0 0 0 0 0 0 0.25 0"/>
<feBlend mode="normal" in2="BackgroundImageFix" result="effect1_dropShadow_1261_1129"/>
<feColorMatrix in="SourceAlpha" type="matrix" values="0 0 0 0 0 0 0 0 0 0 0 0 0 0 0 0 0 0 127 0" result="hardAlpha"/>
<feOffset dy="2"/>
<feGaussianBlur stdDeviation="1"/>
<feComposite in2="hardAlpha" operator="out"/>
<feColorMatrix type="matrix" values="0 0 0 0 0 0 0 0 0 0 0 0 0 0 0 0 0 0 0.25 0"/>
<feBlend mode="normal" in2="effect1_dropShadow_1261_1129" result="effect2_dropShadow_1261_1129"/>
<feColorMatrix in="SourceAlpha" type="matrix" values="0 0 0 0 0 0 0 0 0 0 0 0 0 0 0 0 0 0 127 0" result="hardAlpha"/>
<feOffset dy="2"/>
<feGaussianBlur stdDeviation="1"/>
<feComposite in2="hardAlpha" operator="out"/>
<feColorMatrix type="matrix" values="0 0 0 0 0 0 0 0 0 0 0 0 0 0 0 0 0 0 0.25 0"/>
<feBlend mode="normal" in2="effect2_dropShadow_1261_1129" result="effect3_dropShadow_1261_1129"/>
<feBlend mode="normal" in="SourceGraphic" in2="effect3_dropShadow_1261_1129" result="shape"/>
</filter>
<linearGradient id="paint0_linear_1261_1129" x1="0.217262" y1="6.64046" x2="20.9212" y2="6.64046" gradientUnits="userSpaceOnUse">
<stop stop-color="#404042"/>
<stop offset="0.0822" stop-color="#6B6B6D"/>
<stop offset="0.2666" stop-color="#D7D7D7"/>
<stop offset="0.3324" stop-color="white"/>
<stop offset="0.5015" stop-color="white"/>
<stop offset="0.5307" stop-color="white"/>
<stop offset="0.5782" stop-color="white"/>
<stop offset="0.6278" stop-color="#D6D6D6"/>
<stop offset="0.6912" stop-color="#A9A9A9"/>
<stop offset="0.7549" stop-color="#838384"/>
<stop offset="0.818" stop-color="#666667"/>
<stop offset="0.8803" stop-color="#515153"/>
<stop offset="0.9414" stop-color="#444446"/>
<stop offset="1" stop-color="#404042"/>
</linearGradient>
<radialGradient id="paint1_radial_1261_1129" cx="0" cy="0" r="1" gradientUnits="userSpaceOnUse" gradientTransform="translate(12.4712 3.24049) rotate(180) scale(11.6482 11.6422)">
<stop stop-color="white"/>
<stop offset="1" stop-color="#6F7072"/>
</radialGradient>
</defs>
</svg>
