<svg width="610" height="1461" viewBox="0 0 610 1461" fill="none" xmlns="http://www.w3.org/2000/svg">
<g opacity="0.3">
<path fill-rule="evenodd" clip-rule="evenodd" d="M640.884 289.357C681.213 236.698 723.67 163.65 789.998 163.771C858.692 163.895 889.932 252.67 947.655 289.913C992.706 318.98 1061.02 312.316 1090.07 357.377C1119.1 402.414 1078.36 463.216 1092.67 514.856C1114.51 593.662 1233.77 661.26 1194.1 732.771C1155.36 802.608 1035.53 726.778 960.28 753.52C897.583 775.801 869.052 886.125 804.178 871.336C736.456 855.897 749.719 745.035 701.932 694.626C662.796 653.342 583.044 661.539 557.238 610.844C531.47 560.223 560.464 499.783 574.767 444.811C589.239 389.189 605.939 334.987 640.884 289.357Z" stroke="white" stroke-width="1.38854"/>
<path opacity="0.95875" fill-rule="evenodd" clip-rule="evenodd" d="M646.791 297.145C688.933 245.926 733.914 174.405 800.197 176.84C868.845 179.361 896.968 269.173 953.356 308.408C997.365 339.029 1065.87 334.753 1093.33 380.801C1120.77 426.824 1077.94 486.167 1090.44 538.274C1109.51 617.795 1226.33 689.513 1184.19 759.596C1143.04 828.039 1025.93 748.073 949.793 772.173C886.357 792.251 853.993 901.513 789.675 884.469C722.533 866.676 739.657 756.344 693.659 704.298C655.987 661.674 575.998 667.082 551.977 615.517C527.991 564.028 559.076 504.637 575.289 450.197C591.694 395.114 610.275 341.528 646.791 297.145Z" stroke="white" stroke-width="1.38854"/>
<path opacity="0.9175" fill-rule="evenodd" clip-rule="evenodd" d="M652.423 305.135C696.327 255.417 743.776 185.509 809.934 190.256C878.453 195.172 903.424 285.91 958.408 327.089C1001.32 359.228 1069.93 357.345 1095.77 404.323C1121.59 451.276 1076.71 509.088 1087.38 561.599C1103.67 641.738 1217.92 717.49 1173.36 786.059C1129.84 853.024 1015.6 769.019 938.662 790.447C874.564 808.3 838.407 916.365 774.722 897.087C708.242 876.962 729.206 767.295 685.052 713.675C648.892 669.762 568.762 672.376 546.555 620.004C524.381 567.709 557.52 509.439 575.623 455.598C593.94 401.121 614.38 348.216 652.423 305.135Z" stroke="white" stroke-width="1.38854"/>
<path opacity="0.87625" fill-rule="evenodd" clip-rule="evenodd" d="M657.773 313.316C703.385 265.161 753.245 196.952 819.197 204.004C887.502 211.309 909.291 302.863 962.805 345.936C1004.57 379.552 1073.2 380.065 1097.39 427.916C1121.55 475.742 1074.68 531.952 1083.52 584.804C1097 665.462 1208.53 745.155 1161.6 812.128C1115.78 877.533 1004.54 789.593 926.9 808.322C862.218 823.927 822.311 930.665 759.339 909.176C693.601 886.743 718.38 777.874 676.124 722.746C641.518 677.598 561.346 677.413 540.981 624.298C520.645 571.261 555.798 514.183 575.768 461.007C595.975 407.203 618.249 355.044 657.773 313.316Z" stroke="white" stroke-width="1.38854"/>
<path opacity="0.835" fill-rule="evenodd" clip-rule="evenodd" d="M662.833 321.679C710.098 275.145 762.309 208.717 827.974 218.067C895.983 227.751 914.564 320.01 966.541 364.924C1007.11 399.978 1075.68 402.886 1098.18 451.552C1120.66 500.191 1071.86 554.732 1078.84 607.86C1089.5 688.939 1198.19 772.476 1148.95 837.77C1100.87 901.536 992.763 809.767 914.522 825.776C849.334 839.114 805.727 944.394 743.542 920.72C678.628 896.007 707.191 788.069 666.885 731.5C633.875 685.171 553.759 682.189 535.259 628.396C516.787 574.681 553.91 518.865 575.725 466.418C597.797 413.352 621.878 362.002 662.833 321.679Z" stroke="white" stroke-width="1.38854"/>
<path opacity="0.79375" fill-rule="evenodd" clip-rule="evenodd" d="M667.599 330.213C716.459 285.357 770.956 220.792 836.255 232.428C903.885 244.48 919.234 337.331 969.613 384.031C1008.93 420.48 1077.36 425.779 1098.15 475.2C1118.92 524.595 1068.24 577.399 1073.37 630.738C1081.19 712.14 1186.89 799.419 1135.41 862.955C1085.13 925.004 980.294 829.519 901.541 842.787C835.928 853.842 788.673 957.536 727.353 931.706C663.34 904.743 695.653 797.867 657.346 739.926C625.973 692.474 546.009 686.697 529.399 632.291C512.812 577.964 551.861 523.478 575.492 471.825C599.403 419.56 625.261 369.082 667.599 330.213Z" stroke="white" stroke-width="1.38854"/>
<path opacity="0.7525" fill-rule="evenodd" clip-rule="evenodd" d="M672.064 338.909C722.46 295.785 779.177 233.161 844.03 247.069C911.198 261.474 923.298 354.804 972.016 403.234C1010.04 441.033 1078.24 448.717 1097.29 498.833C1116.33 548.923 1063.84 599.926 1067.1 653.412C1072.07 735.037 1174.67 825.952 1121 887.653C1068.58 947.909 967.143 848.823 887.975 859.335C822.016 868.093 771.171 970.075 710.79 942.121C647.757 912.94 683.78 807.257 647.518 748.014C617.821 699.496 538.107 690.932 523.405 635.98C508.725 581.107 549.651 528.016 575.071 477.219C600.791 425.821 628.396 376.276 672.064 338.909Z" stroke="white" stroke-width="1.38854"/>
<path opacity="0.71125" fill-rule="evenodd" clip-rule="evenodd" d="M676.223 347.755C728.093 306.416 786.961 245.81 851.289 261.973C917.914 278.712 926.749 372.408 973.747 422.509C1010.43 461.612 1078.32 471.671 1095.61 522.422C1112.89 573.146 1058.65 622.286 1060.04 675.853C1062.16 757.602 1161.52 852.042 1105.73 911.832C1051.25 970.222 953.326 867.656 873.84 875.399C807.615 881.85 753.242 981.995 693.873 951.951C631.897 920.588 671.586 816.227 637.414 755.754C609.429 706.229 530.062 694.889 517.287 639.456C504.531 584.105 547.285 532.475 574.462 482.596C601.961 432.127 631.277 383.576 676.223 347.755Z" stroke="white" stroke-width="1.38854"/>
<path opacity="0.67" fill-rule="evenodd" clip-rule="evenodd" d="M680.071 356.741C733.352 317.237 794.299 258.723 858.024 277.121C924.023 296.175 929.583 390.122 974.804 441.833C1010.1 482.192 1077.6 494.615 1093.11 545.938C1108.6 597.233 1052.68 644.451 1052.2 698.034C1051.47 779.807 1147.47 877.657 1089.63 935.464C1033.14 991.917 938.861 885.996 859.153 890.96C792.743 895.096 734.908 993.282 676.624 961.184C615.78 927.677 659.087 824.765 627.047 763.137C600.806 712.666 521.884 698.562 511.051 642.718C500.235 586.955 544.765 536.849 573.666 487.948C602.909 438.47 633.902 390.971 680.071 356.741Z" stroke="white" stroke-width="1.38854"/>
<path opacity="0.62875" fill-rule="evenodd" clip-rule="evenodd" d="M683.602 365.855C738.23 328.236 801.182 271.883 864.226 292.494C929.52 313.84 931.798 407.924 975.187 461.182C1009.05 502.748 1076.08 517.519 1089.78 569.352C1103.48 621.157 1045.94 666.394 1043.6 719.928C1040.01 801.626 1132.54 902.767 1072.72 958.519C1014.29 1012.97 923.764 903.82 843.931 905.999C777.418 907.815 716.191 1003.92 659.063 969.811C599.426 934.201 646.298 832.862 616.428 770.154C591.965 718.797 513.583 701.948 504.706 645.76C495.842 589.653 542.093 541.131 572.683 493.27C603.635 444.842 636.267 398.454 683.602 365.855Z" stroke="white" stroke-width="1.38854"/>
<path opacity="0.5875" fill-rule="evenodd" clip-rule="evenodd" d="M686.814 375.088C742.721 339.397 807.601 285.276 869.888 308.075C934.397 331.687 933.39 425.793 974.894 480.532C1007.29 523.255 1073.76 540.356 1085.64 592.636C1097.52 644.887 1038.45 688.089 1034.23 741.508C1027.8 823.032 1116.74 927.34 1055.01 980.97C994.717 1033.35 908.055 921.106 828.194 920.498C761.658 919.991 697.115 1013.9 641.211 977.819C582.854 940.149 633.234 840.508 605.57 776.795C582.914 724.616 505.168 705.042 498.258 648.578C491.357 592.196 539.274 545.318 571.516 498.553C604.139 451.235 638.37 406.014 686.814 375.088Z" stroke="white" stroke-width="1.38854"/>
<path opacity="0.54625" fill-rule="evenodd" clip-rule="evenodd" d="M689.701 384.426C746.819 350.709 813.549 298.885 875.002 323.844C938.648 349.693 934.358 443.706 973.926 499.861C1004.81 543.687 1070.64 563.098 1080.7 615.761C1090.75 668.395 1030.2 709.509 1024.12 762.748C1014.85 843.998 1100.09 951.346 1036.52 1002.79C974.444 1053.03 891.751 937.834 811.961 934.438C745.483 931.61 677.701 1023.21 623.091 985.199C566.084 945.515 619.911 847.694 594.487 783.054C573.667 730.116 496.651 707.84 491.715 651.17C486.786 594.582 536.31 549.404 570.164 503.793C604.419 457.642 640.207 413.643 689.701 384.426Z" stroke="white" stroke-width="1.38854"/>
<path opacity="0.505" fill-rule="evenodd" clip-rule="evenodd" d="M692.261 393.86C750.521 362.157 819.019 312.693 879.563 339.781C942.268 367.836 934.699 461.642 972.284 519.143C1001.62 564.021 1066.73 585.718 1074.94 638.699C1083.15 691.652 1021.2 730.627 1013.27 783.623C1001.17 864.499 1082.62 974.757 1017.29 1023.95C953.496 1071.99 874.874 953.982 795.251 947.804C728.912 942.657 657.975 1031.84 604.725 991.942C549.137 950.293 606.345 854.41 583.193 788.922C564.232 735.29 488.041 710.34 485.086 653.531C482.135 596.806 533.205 553.384 568.631 508.982C604.475 464.055 641.777 421.332 692.261 393.86Z" stroke="white" stroke-width="1.38854"/>
<path opacity="0.46375" fill-rule="evenodd" clip-rule="evenodd" d="M694.49 403.378C753.821 373.727 824.003 326.684 883.565 355.868C945.253 386.094 934.415 479.579 969.969 538.357C997.719 584.231 1062.04 608.187 1068.4 661.423C1074.75 714.63 1011.48 751.42 1001.7 804.106C986.785 884.51 1064.34 997.544 997.333 1044.43C931.899 1090.21 857.444 969.531 778.085 960.578C711.966 953.119 637.959 1039.77 586.134 998.04C532.034 954.477 592.553 860.648 571.701 794.392C554.623 740.131 479.349 712.537 478.379 655.66C477.409 598.866 529.964 557.254 566.917 514.115C604.308 470.466 643.078 429.071 694.49 403.378Z" stroke="white" stroke-width="1.38854"/>
<path opacity="0.4225" fill-rule="evenodd" clip-rule="evenodd" d="M696.385 412.967C756.715 385.405 828.496 340.84 887.003 372.085C947.599 404.446 933.504 497.496 966.986 557.478C993.118 604.293 1056.56 630.479 1061.06 683.904C1065.55 737.301 1001.03 771.86 989.426 824.172C971.711 904.008 1045.27 1019.68 976.672 1064.2C909.679 1107.67 839.481 984.463 760.483 972.746C694.665 962.984 617.679 1047 567.342 1003.49C514.795 958.061 578.552 866.401 560.025 799.458C544.851 744.634 470.586 714.43 471.601 657.554C472.614 600.761 526.589 561.007 565.025 519.185C603.917 476.867 644.108 436.85 696.385 412.967Z" stroke="white" stroke-width="1.38854"/>
<path opacity="0.38125" fill-rule="evenodd" clip-rule="evenodd" d="M697.944 422.617C759.199 397.177 832.492 355.144 889.873 388.412C949.303 422.868 931.969 515.369 963.337 576.484C987.819 624.182 1050.31 652.566 1052.94 706.116C1055.57 759.637 989.882 791.923 976.456 843.799C955.965 922.967 1025.44 1041.13 955.333 1083.23C886.864 1124.34 821.009 998.758 742.467 984.291C677.03 972.238 597.159 1053.52 548.371 1008.27C497.441 961.041 564.359 871.663 548.179 804.114C534.928 748.793 461.762 716.016 464.761 659.21C467.756 602.486 523.085 564.641 562.958 524.185C603.302 483.251 644.866 444.661 697.944 422.617Z" stroke="white" stroke-width="1.38854"/>
<path opacity="0.34" fill-rule="evenodd" clip-rule="evenodd" d="M699.166 432.315C761.272 409.028 835.987 369.579 892.172 404.83C950.362 441.338 929.812 533.178 959.028 595.351C981.83 643.874 1043.29 674.422 1044.05 728.031C1044.81 781.611 978.038 811.585 962.809 862.96C939.568 941.365 1004.88 1061.89 933.343 1101.51C863.481 1140.21 802.048 1012.4 724.06 995.201C659.083 980.872 576.424 1059.31 529.245 1012.39C479.995 963.414 549.99 876.425 536.178 808.353C524.866 752.604 452.888 717.293 457.868 660.626C462.841 604.042 519.457 568.15 560.717 529.111C602.466 489.609 645.35 452.493 699.166 432.315Z" stroke="white" stroke-width="1.38854"/>
<path opacity="0.29875" fill-rule="evenodd" clip-rule="evenodd" d="M700.049 442.05C762.929 420.945 838.975 384.128 893.896 421.317C950.777 459.834 927.034 550.901 954.062 614.055C975.157 663.345 1035.52 696.019 1034.4 749.622C1033.29 803.195 965.514 830.821 948.501 881.634C922.538 959.18 983.604 1081.91 910.728 1119.01C839.558 1155.24 782.624 1025.37 705.283 1005.46C640.845 988.874 555.5 1064.38 509.987 1015.84C462.476 965.176 535.465 880.684 524.036 812.171C514.677 756.061 443.975 718.259 450.93 661.8C457.874 605.424 515.708 571.531 558.306 533.955C601.407 495.935 645.562 460.338 700.049 442.05Z" stroke="white" stroke-width="1.38854"/>
<path opacity="0.2575" fill-rule="evenodd" clip-rule="evenodd" d="M700.591 451.81C764.169 432.912 841.454 398.771 895.044 437.855C950.546 478.333 923.639 568.516 948.447 632.575C967.808 682.571 1026.99 717.332 1024.01 770.863C1021.02 824.365 952.327 849.609 933.551 899.797C904.897 976.39 961.642 1101.17 887.516 1135.71C815.125 1169.44 762.758 1037.66 686.159 1015.06C622.34 996.234 534.411 1068.72 490.62 1018.62C444.906 966.326 520.799 884.432 511.769 815.562C504.373 759.16 435.034 718.914 443.955 662.732C452.862 606.633 511.844 574.778 555.727 538.712C600.129 502.219 645.499 468.185 700.591 451.81Z" stroke="white" stroke-width="1.38854"/>
<path opacity="0.21625" fill-rule="evenodd" clip-rule="evenodd" d="M700.792 461.583C764.992 444.915 843.421 413.492 895.614 454.423C949.669 496.813 919.631 586.002 942.188 650.888C959.793 701.529 1017.73 738.334 1012.88 791.729C1008.03 845.094 938.492 867.925 917.976 917.427C886.667 992.973 939.022 1119.66 863.736 1151.59C790.212 1182.77 742.476 1049.24 666.712 1023.99C603.589 1002.94 513.184 1072.32 471.167 1020.72C427.306 966.862 506.011 887.667 499.39 818.524C493.967 761.897 426.075 719.256 436.951 663.42C447.811 607.666 507.869 577.889 552.984 543.376C598.632 508.455 645.162 476.025 700.792 461.583Z" stroke="white" stroke-width="1.38854"/>
<path opacity="0.175" fill-rule="evenodd" clip-rule="evenodd" d="M700.652 471.357C765.394 456.94 844.872 428.273 895.605 471C948.148 515.252 915.016 603.338 935.295 668.971C951.122 720.196 1007.74 759.001 1001.02 812.193C994.317 865.357 924.026 885.747 901.795 934.503C867.868 1008.91 915.771 1137.35 839.416 1166.63C764.849 1195.23 721.801 1060.11 646.965 1032.23C584.615 1009 491.844 1075.17 451.654 1022.14C409.699 966.784 491.12 890.384 486.916 821.051C483.473 764.27 417.11 719.286 429.928 663.863C442.727 608.522 503.787 580.859 550.079 547.942C596.919 514.635 644.552 483.849 700.652 471.357Z" stroke="white" stroke-width="1.38854"/>
<path opacity="0.13375" fill-rule="evenodd" clip-rule="evenodd" d="M700.171 481.12C765.377 468.971 845.807 443.096 895.018 487.567C945.985 533.625 909.798 620.502 927.774 686.803C941.804 738.549 997.029 779.305 988.466 832.231C979.907 885.129 908.947 903.053 885.028 951.004C848.525 1024.18 891.916 1154.21 814.586 1180.81C739.066 1206.79 700.76 1070.26 626.943 1039.78C565.441 1014.38 470.417 1077.28 432.102 1022.88C392.105 966.091 476.143 892.579 474.361 823.142C472.902 766.275 408.149 719.002 422.894 664.061C437.616 609.2 499.605 583.685 547.017 552.403C594.991 520.752 643.669 491.646 700.171 481.12Z" stroke="white" stroke-width="1.38854"/>
<path opacity="0.0925" fill-rule="evenodd" clip-rule="evenodd" d="M699.35 490.86C764.94 480.994 846.224 457.942 893.853 504.104C943.181 551.912 903.985 637.473 919.636 704.361C931.851 756.565 985.62 799.224 975.215 851.819C964.816 904.385 893.273 919.822 867.695 966.909C828.661 1038.77 867.487 1170.23 789.276 1194.12C712.895 1217.44 679.378 1079.66 606.669 1046.62C546.091 1019.1 448.93 1078.64 412.537 1022.93C374.546 964.785 461.098 894.25 461.741 824.793C462.267 767.91 399.204 718.406 415.857 664.013C432.485 609.699 495.326 586.363 543.802 556.755C592.85 526.797 642.515 499.409 699.35 490.86Z" stroke="white" stroke-width="1.38854"/>
<path opacity="0.05125" fill-rule="evenodd" clip-rule="evenodd" d="M698.189 500.566C764.083 492.995 846.123 472.794 892.111 520.589C939.741 570.091 897.583 654.231 910.89 721.625C921.276 774.223 973.523 818.733 961.289 870.932C949.061 923.104 877.024 936.035 849.818 982.2C808.3 1052.65 842.514 1185.39 763.517 1206.53C686.369 1227.18 657.68 1088.31 586.169 1052.75C526.589 1023.13 427.409 1079.25 392.982 1022.31C357.044 962.866 446.005 895.395 449.071 826.003C451.582 769.173 390.285 717.498 408.826 663.719C427.339 610.019 490.957 588.89 540.436 560.992C590.5 532.764 641.091 507.126 698.189 500.566Z" stroke="white" stroke-width="1.38854"/>
<path opacity="0.01" fill-rule="evenodd" clip-rule="evenodd" d="M696.69 510.224C762.809 504.958 845.503 487.632 889.796 537.004C935.669 588.137 890.599 670.755 901.547 738.572C910.091 791.501 960.753 837.807 946.704 889.548C932.663 941.261 860.218 951.669 831.418 996.857C787.466 1065.82 817.027 1199.67 737.34 1218.04C659.519 1235.98 635.694 1096.2 565.467 1058.17C506.957 1026.48 405.879 1079.1 373.461 1021C339.619 960.338 430.88 896.012 436.366 826.77C440.859 770.062 381.403 716.279 401.809 663.18C422.186 610.159 486.502 591.263 536.924 565.109C587.943 538.645 639.398 514.788 696.69 510.224Z" stroke="white" stroke-width="1.38854"/>
</g>
</svg>
