<svg width="679" height="1857" viewBox="0 0 679 1857" fill="none" xmlns="http://www.w3.org/2000/svg">
<g opacity="0.45">
<path opacity="0.1" d="M161.658 1112.32C326.379 888.279 83.7204 726.073 -58.1989 672.975C-451.121 580.631 -392.943 906.457 -180.184 1031.98C32.5743 1157.5 -421.966 1281.98 -263.269 1545.54C-79.2539 1851.15 -44.2438 1392.37 161.658 1112.32Z" stroke="white" stroke-width="1.72983"/>
<path opacity="0.1" d="M149.104 1108.23C321.543 890.079 84.6938 719.503 -55.286 661.485C-444.746 555.484 -397.975 883.142 -189.726 1016.01C18.5222 1148.89 -440.086 1257.42 -290.684 1526.36C-117.446 1838.21 -66.4459 1380.93 149.104 1108.23Z" stroke="white" stroke-width="1.72983"/>
<path opacity="0.1" d="M136.7 1103.71C316.648 891.709 85.8959 712.971 -51.9737 650.103C-437.497 530.575 -402.19 859.665 -198.705 999.724C4.77943 1139.78 -457.337 1232.25 -317.412 1506.24C-155.163 1823.94 -88.2351 1368.72 136.7 1103.71Z" stroke="white" stroke-width="1.72983"/>
<path opacity="0.1" d="M124.462 1098.76C311.699 893.167 87.3253 706.485 -48.2663 638.844C-429.383 505.934 -405.582 836.056 -207.11 983.131C-8.63731 1130.21 -473.699 1206.49 -343.421 1485.2C-192.359 1808.37 -109.585 1355.76 124.462 1098.76Z" stroke="white" stroke-width="1.72983"/>
<path opacity="0.1" d="M112.404 1093.39C306.702 894.452 88.9802 700.053 -44.1682 627.721C-420.414 481.591 -408.149 812.343 -214.93 966.255C-21.7116 1120.17 -489.152 1180.17 -368.681 1463.26C-228.989 1791.5 -130.469 1342.06 112.404 1093.39Z" stroke="white" stroke-width="1.72983"/>
<path opacity="0.1" d="M100.541 1087.6C301.664 895.562 90.8585 693.683 -39.6843 616.748C-410.601 457.576 -409.887 788.554 -222.157 949.116C-34.4276 1109.68 -503.678 1153.33 -393.159 1440.45C-265.008 1773.37 -150.863 1327.64 100.541 1087.6Z" stroke="white" stroke-width="1.72983"/>
<path opacity="0.1" d="M88.8869 1081.39C296.589 896.495 92.958 687.382 -34.8203 605.938C-399.956 433.918 -410.793 764.72 -228.782 931.735C-46.7698 1098.75 -517.257 1126 -416.826 1416.8C-300.372 1753.99 -170.741 1312.51 88.8869 1081.39Z" stroke="white" stroke-width="1.72983"/>
<path opacity="0.1" d="M77.4567 1074.79C291.485 897.25 95.2761 681.158 -29.582 595.304C-388.492 410.646 -410.867 740.868 -234.795 914.134C-58.7232 1087.4 -529.875 1098.21 -439.654 1392.34C-335.039 1733.39 -190.079 1296.71 77.4567 1074.79Z" stroke="white" stroke-width="1.72983"/>
<path opacity="0.1" d="M66.264 1067.79C286.358 897.827 97.81 675.019 -23.9758 584.86C-376.223 387.789 -410.109 717.029 -240.191 896.334C-70.2731 1075.64 -541.516 1070 -461.614 1367.1C-368.965 1711.6 -208.854 1280.23 66.264 1067.79Z" stroke="white" stroke-width="1.72983"/>
<path opacity="0.1" d="M55.3225 1060.4C281.214 898.224 100.557 668.972 -18.0085 574.617C-363.163 365.373 -408.519 693.23 -244.962 878.356C-81.4055 1063.48 -552.164 1041.4 -482.68 1341.11C-402.11 1688.63 -227.042 1263.12 55.3225 1060.4Z" stroke="white" stroke-width="1.72983"/>
<path opacity="0.1" d="M44.6455 1052.63C276.059 898.442 103.513 663.024 -11.6873 564.589C-349.329 343.427 -406.099 669.501 -249.103 860.222C-92.1068 1050.94 -561.808 1012.45 -502.826 1314.4C-434.434 1664.51 -244.622 1245.37 44.6455 1052.63Z" stroke="white" stroke-width="1.72983"/>
<path opacity="0.1" d="M34.2469 1044.5C270.901 898.48 106.675 657.184 -5.01909 554.788C-334.737 321.977 -402.852 645.871 -252.608 841.955C-102.363 1038.04 -570.435 983.177 -522.027 1287C-465.895 1639.29 -261.571 1227.03 34.2469 1044.5Z" stroke="white" stroke-width="1.72983"/>
<path opacity="0.1" d="M24.1375 1036.01C265.743 898.337 110.039 651.457 1.98619 545.226C-319.406 301.049 -398.784 622.369 -255.474 823.577C-112.164 1024.79 -578.036 953.621 -540.26 1258.95C-496.457 1612.98 -277.87 1208.1 24.1375 1036.01Z" stroke="white" stroke-width="1.72983"/>
<path opacity="0.1" d="M14.3296 1027.17C260.593 898.015 113.6 645.851 9.31993 535.913C-303.355 280.669 -393.898 599.023 -257.697 805.11C-121.497 1011.2 -584.602 923.817 -557.505 1230.27C-526.084 1585.62 -293.5 1188.62 14.3296 1027.17Z" stroke="white" stroke-width="1.72983"/>
<path opacity="0.1" d="M4.83812 1018C255.459 897.513 117.356 640.373 16.9762 526.863C-286.6 260.862 -388.199 575.862 -259.273 786.577C-130.348 997.292 -590.121 893.803 -573.736 1201.02C-554.736 1557.25 -308.438 1168.6 4.83812 1018Z" stroke="white" stroke-width="1.72983"/>
<path opacity="0.1" d="M-4.32941 1008.5C250.344 896.832 121.298 635.029 24.9416 518.085C-269.167 241.652 -381.696 552.914 -260.204 768C-138.711 983.086 -594.592 863.614 -588.938 1171.22C-582.382 1527.89 -322.671 1148.08 -4.32941 1008.5Z" stroke="white" stroke-width="1.72983"/>
<path opacity="0.1" d="M-13.1577 998.682C245.257 895.974 125.427 629.826 33.2106 509.591C-251.071 223.062 -374.395 530.207 -260.483 749.402C-146.57 968.597 -598.004 833.288 -603.089 1140.9C-608.985 1497.59 -336.176 1127.07 -13.1577 998.682Z" stroke="white" stroke-width="1.72983"/>
<path opacity="0.1" d="M-21.6392 988.565C240.203 894.938 129.734 624.77 41.7699 501.39C-232.339 205.114 -366.307 507.768 -260.114 730.805C-153.921 953.842 -600.358 802.861 -616.175 1110.11C-634.515 1466.37 -348.942 1105.6 -21.6392 988.565Z" stroke="white" stroke-width="1.72983"/>
<path opacity="0.1" d="M-29.7625 978.159C235.188 893.726 134.215 619.868 50.6102 493.493C-212.992 187.831 -357.441 485.626 -259.096 712.233C-160.751 938.84 -601.647 772.37 -628.178 1078.88C-658.94 1434.28 -360.95 1083.7 -29.7625 978.159Z" stroke="white" stroke-width="1.72983"/>
<path opacity="0.1" d="M-37.5185 967.474C230.217 892.34 138.863 615.125 59.7198 485.909C-193.054 171.234 -347.808 463.806 -257.432 693.707C-167.055 923.608 -601.873 741.853 -639.084 1047.25C-682.232 1401.36 -372.188 1061.39 -37.5185 967.474Z" stroke="white" stroke-width="1.72983"/>
<path opacity="0.1" d="M-44.895 956.527C225.299 890.782 143.676 610.547 69.0905 478.648C-172.547 155.343 -337.418 442.336 -255.12 675.251C-172.822 908.166 -601.032 711.347 -648.878 1015.26C-704.358 1367.65 -382.638 1038.71 -44.895 956.527Z" stroke="white" stroke-width="1.72983"/>
<path opacity="0.1" d="M-51.8859 945.328C220.438 889.053 148.645 606.14 78.7079 471.718C-151.5 140.177 -326.285 421.241 -252.166 656.887C-178.047 892.532 -599.127 680.889 -657.551 982.943C-725.295 1333.19 -392.291 1015.67 -51.8859 945.328Z" stroke="white" stroke-width="1.72983"/>
<path opacity="0.1" d="M-58.4817 933.892C215.641 887.155 153.765 601.909 88.5612 465.128C-129.935 125.755 -314.424 400.548 -248.574 638.637C-182.724 876.725 -596.161 650.515 -665.09 950.347C-745.017 1298.01 -401.135 992.312 -58.4817 933.892Z" stroke="white" stroke-width="1.72983"/>
<path opacity="0.1" d="M-64.6744 922.232C210.912 885.091 159.029 597.859 98.6386 458.886C-107.881 112.094 -301.847 380.281 -244.346 620.523C-186.846 860.765 -592.136 620.264 -671.488 917.507C-763.499 1262.17 -409.157 968.659 -64.6744 922.232Z" stroke="white" stroke-width="1.72983"/>
</g>
</svg>
