<svg width="30" height="30" viewBox="0 0 30 30" fill="none" xmlns="http://www.w3.org/2000/svg">
<path fill-rule="evenodd" clip-rule="evenodd" d="M15 0C6.71573 0 0 6.71573 0 15C0 23.2843 6.71573 30 15 30C23.2843 30 30 23.2843 30 15C30 6.71573 23.2843 0 15 0ZM11.7022 7.0483C12.5555 7.00947 12.8282 6.99997 15.0009 6.99997H14.9984C17.1717 6.99997 17.4434 7.00947 18.2967 7.0483C19.1484 7.0873 19.7301 7.22214 20.2401 7.41997C20.7668 7.62414 21.2118 7.89748 21.6568 8.34248C22.1018 8.78716 22.3751 9.23349 22.5801 9.75966C22.7768 10.2683 22.9118 10.8497 22.9518 11.7014C22.9901 12.5547 23.0001 12.8274 23.0001 15.0001C23.0001 17.1727 22.9901 17.4447 22.9518 18.2981C22.9118 19.1494 22.7768 19.7309 22.5801 20.2398C22.3751 20.7658 22.1018 21.2121 21.6568 21.6568C21.2123 22.1018 20.7666 22.3758 20.2406 22.5801C19.7316 22.778 19.1496 22.9128 18.2979 22.9518C17.4446 22.9906 17.1727 23.0001 14.9999 23.0001C12.8273 23.0001 12.5548 22.9906 11.7015 22.9518C10.85 22.9128 10.2685 22.778 9.75948 22.5801C9.23365 22.3758 8.78731 22.1018 8.3428 21.6568C7.89796 21.2121 7.62463 20.7658 7.42013 20.2396C7.22246 19.7309 7.08762 19.1496 7.04846 18.2979C7.00979 17.4446 7.00012 17.1727 7.00012 15.0001C7.00012 12.8274 7.01012 12.5545 7.04829 11.7012C7.08662 10.8498 7.22162 10.2683 7.41996 9.7595C7.62496 9.23349 7.8983 8.78716 8.3433 8.34248C8.78797 7.89765 9.23431 7.62431 9.76048 7.41997C10.2692 7.22214 10.8505 7.0873 11.7022 7.0483Z" fill="white"/>
<path fill-rule="evenodd" clip-rule="evenodd" d="M14.2831 8.44145C14.4225 8.44124 14.5724 8.4413 14.7341 8.44137L15.0008 8.44145C17.1368 8.44145 17.39 8.44912 18.2335 8.48745C19.0135 8.52312 19.4368 8.65346 19.7188 8.76296C20.0922 8.90796 20.3583 9.08129 20.6382 9.3613C20.9182 9.6413 21.0915 9.90797 21.2368 10.2813C21.3463 10.563 21.4769 10.9863 21.5124 11.7663C21.5507 12.6097 21.559 12.863 21.559 14.998C21.559 17.133 21.5507 17.3864 21.5124 18.2297C21.4767 19.0097 21.3463 19.4331 21.2368 19.7147C21.0918 20.0881 20.9182 20.3539 20.6382 20.6337C20.3582 20.9137 20.0923 21.0871 19.7188 21.2321C19.4372 21.3421 19.0135 21.4721 18.2335 21.5078C17.3901 21.5461 17.1368 21.5544 15.0008 21.5544C12.8646 21.5544 12.6114 21.5461 11.7681 21.5078C10.9881 21.4718 10.5647 21.3414 10.2826 21.2319C9.90923 21.0869 9.64256 20.9136 9.36256 20.6336C9.08256 20.3536 8.90922 20.0876 8.76389 19.7141C8.65439 19.4324 8.52388 19.0091 8.48838 18.2291C8.45005 17.3857 8.44238 17.1324 8.44238 14.996C8.44238 12.8597 8.45005 12.6077 8.48838 11.7643C8.52405 10.9843 8.65439 10.561 8.76389 10.279C8.90889 9.90563 9.08256 9.63897 9.36256 9.35896C9.64256 9.07896 9.90923 8.90562 10.2826 8.76029C10.5646 8.65029 10.9881 8.52029 11.7681 8.48445C12.5061 8.45112 12.7921 8.44112 14.2831 8.43945V8.44145ZM19.2715 9.76962C18.7415 9.76962 18.3115 10.1991 18.3115 10.7293C18.3115 11.2593 18.7415 11.6893 19.2715 11.6893C19.8015 11.6893 20.2315 11.2593 20.2315 10.7293C20.2315 10.1993 19.8015 9.76929 19.2715 9.76929V9.76962ZM10.8926 14.9997C10.8926 12.7309 12.732 10.8914 15.0008 10.8914C17.2696 10.8914 19.1087 12.7309 19.1087 14.9997C19.1087 17.2686 17.2698 19.1073 15.001 19.1073C12.7321 19.1073 10.8926 17.2686 10.8926 14.9997Z" fill="white"/>
<path d="M15.0007 12.3335C16.4734 12.3335 17.6674 13.5273 17.6674 15.0002C17.6674 16.4729 16.4734 17.6669 15.0007 17.6669C13.5278 17.6669 12.334 16.4729 12.334 15.0002C12.334 13.5273 13.5278 12.3335 15.0007 12.3335Z" fill="white"/>
</svg>
