<svg width="14" height="14" viewBox="0 0 14 14" fill="none" xmlns="http://www.w3.org/2000/svg">
<path d="M7.6849 0.333252C8.4349 0.335252 8.81557 0.339252 9.14423 0.348585L9.27357 0.353252C9.4229 0.358585 9.57023 0.365252 9.74823 0.373252C10.4576 0.406585 10.9416 0.518585 11.3662 0.683252C11.8062 0.852585 12.1769 1.08192 12.5476 1.45192C12.8867 1.78507 13.149 2.18823 13.3162 2.63325C13.4809 3.05792 13.5929 3.54192 13.6262 4.25192C13.6342 4.42925 13.6409 4.57659 13.6462 4.72659L13.6502 4.85592C13.6602 5.18392 13.6642 5.56459 13.6656 6.31459L13.6662 6.81192V7.68525C13.6679 8.17152 13.6627 8.65779 13.6509 9.14392L13.6469 9.27325C13.6416 9.42325 13.6349 9.57059 13.6269 9.74792C13.5936 10.4579 13.4802 10.9413 13.3162 11.3666C13.149 11.8116 12.8867 12.2148 12.5476 12.5479C12.2144 12.887 11.8112 13.1494 11.3662 13.3166C10.9416 13.4813 10.4576 13.5933 9.74823 13.6266L9.27357 13.6466L9.14423 13.6506C8.81557 13.6599 8.4349 13.6646 7.6849 13.6659L7.18756 13.6666H6.3149C5.82841 13.6683 5.34191 13.6632 4.85557 13.6513L4.72623 13.6473C4.56797 13.6413 4.40975 13.6344 4.25157 13.6266C3.54223 13.5933 3.05823 13.4813 2.6329 13.3166C2.18812 13.1493 1.78519 12.887 1.45223 12.5479C1.11286 12.2148 0.850305 11.8117 0.682899 11.3666C0.518232 10.9419 0.406232 10.4579 0.372899 9.74792L0.352899 9.27325L0.349565 9.14392C0.337276 8.6578 0.33172 8.17153 0.332899 7.68525V6.31459C0.331053 5.82832 0.335943 5.34205 0.347565 4.85592L0.352232 4.72659C0.357565 4.57659 0.364232 4.42925 0.372232 4.25192C0.405565 3.54192 0.517565 3.05859 0.682232 2.63325C0.850028 2.18805 1.11305 1.78488 1.4529 1.45192C1.78567 1.11295 2.18836 0.850634 2.6329 0.683252C3.05823 0.518585 3.54157 0.406585 4.25157 0.373252C4.4289 0.365252 4.5769 0.358585 4.72623 0.353252L4.85557 0.349252C5.34169 0.337407 5.82796 0.332295 6.31423 0.333919L7.6849 0.333252ZM6.99957 3.66659C6.11551 3.66659 5.26766 4.01777 4.64254 4.6429C4.01742 5.26802 3.66623 6.11586 3.66623 6.99992C3.66623 7.88397 4.01742 8.73182 4.64254 9.35694C5.26766 9.98206 6.11551 10.3333 6.99957 10.3333C7.88362 10.3333 8.73147 9.98206 9.35659 9.35694C9.98171 8.73182 10.3329 7.88397 10.3329 6.99992C10.3329 6.11586 9.98171 5.26802 9.35659 4.6429C8.73147 4.01777 7.88362 3.66659 6.99957 3.66659ZM6.99957 4.99992C7.26221 4.99988 7.52229 5.05156 7.76496 5.15203C8.00763 5.2525 8.22813 5.39978 8.41388 5.58547C8.59962 5.77116 8.74698 5.99161 8.84753 6.23424C8.94808 6.47688 8.99986 6.73694 8.9999 6.99959C8.99994 7.26223 8.94825 7.52231 8.84779 7.76498C8.74732 8.00765 8.60003 8.22815 8.41435 8.4139C8.22866 8.59964 8.00821 8.747 7.76557 8.84755C7.52294 8.9481 7.26288 8.99988 7.00023 8.99992C6.4698 8.99992 5.96109 8.78921 5.58602 8.41413C5.21095 8.03906 5.00023 7.53035 5.00023 6.99992C5.00023 6.46949 5.21095 5.96078 5.58602 5.5857C5.96109 5.21063 6.4698 4.99992 7.00023 4.99992M10.5002 2.66659C10.2792 2.66659 10.0673 2.75438 9.91098 2.91066C9.7547 3.06694 9.6669 3.2789 9.6669 3.49992C9.6669 3.72093 9.7547 3.93289 9.91098 4.08917C10.0673 4.24545 10.2792 4.33325 10.5002 4.33325C10.7212 4.33325 10.9332 4.24545 11.0895 4.08917C11.2458 3.93289 11.3336 3.72093 11.3336 3.49992C11.3336 3.2789 11.2458 3.06694 11.0895 2.91066C10.9332 2.75438 10.7212 2.66659 10.5002 2.66659Z" fill="white"/>
</svg>
