<svg width="144" height="108" viewBox="0 0 144 108" fill="none" xmlns="http://www.w3.org/2000/svg">
<g opacity="0.4">
<path d="M54.062 47.3164C54.4626 47.5189 55.0088 47.7482 55.2223 47.9498C55.4302 48.1466 55.915 48.4581 55.9424 48.4753C55.9206 48.4475 55.571 47.9938 55.1959 47.2485C54.8217 46.5043 54.4588 45.4056 54.4361 45.3367C54.5061 45.4265 56.1625 47.5763 57.0772 48.3683C58.0108 49.1775 59.2382 50.1492 59.705 51.0387C60.1718 51.9291 61.3453 54.398 61.5457 55.1393C61.746 55.8817 60.9192 53.7367 60.4118 53.4941C59.9053 53.2514 59.4111 53.2237 58.7715 52.981C58.4133 52.8454 57.2501 51.6864 57.2501 51.6864L57.5573 52.5769C57.5573 52.5769 56.8098 51.7811 56.6369 51.2278C56.4631 50.6747 56.2097 49.9333 56.2097 49.9333C56.2097 49.9333 55.2498 48.4361 54.6762 48.1123C54.1017 47.7883 53.8616 47.7883 53.5555 47.411C53.2579 47.044 53.0481 46.5272 53.0358 46.4957C53.0651 46.5234 53.6718 47.1186 54.062 47.3164ZM61.7857 60.1573C61.8395 60.0626 62.0531 59.968 62.0531 59.968C62.0531 59.968 62.1995 60.0225 62.5596 60.2919C62.9196 60.5614 62.9196 60.9799 62.9196 60.9799C62.9196 60.9799 62.5992 60.805 62.3867 60.6837C62.1731 60.5614 61.7327 60.4266 61.7327 60.4266C61.7327 60.4266 61.7327 60.2518 61.7857 60.1573ZM64.5562 47.925C64.5562 47.925 64.7698 48.246 64.8888 48.6492C65.0466 49.1737 65.1203 49.8129 65.1344 49.854C65.1609 49.9304 64.5014 49.3811 64.0781 48.8622C63.7776 48.4943 63.6756 48.1103 63.6756 48.1103L64.5562 47.925ZM69.8788 82.5255C68.3632 80.7695 66.7379 79.5713 66.6378 79.4988C66.7219 79.5388 67.8955 80.1245 68.847 80.7083C69.8032 81.2968 71.1602 82.2141 71.2442 82.2704C71.1223 82.15 67.9749 79.0698 66.7124 78.079C64.6186 76.4328 62.604 75.3942 62.604 75.3942C62.604 75.3942 62.982 74.8936 64.0393 75.1467C65.364 75.4639 65.9745 75.0885 65.9745 75.0885C65.9745 75.0885 63.3599 74.5764 60.6924 73.6591C58.1591 72.7879 55.4142 71.2668 55.4142 71.2668C55.4142 71.2668 56.0321 71.0604 57.9267 71.4111C59.4461 71.692 61.6969 72.5614 61.6969 72.5614C61.6969 72.5614 59.9383 70.5378 56.6 69.9837C54.0893 69.5662 53.462 69.8825 49.104 65.9432C46.6662 63.741 45.8006 60.3674 45.7742 60.2632C45.8082 60.3359 46.4743 61.7527 47.4495 63.0005C48.659 64.5473 50.9542 66.375 50.9542 66.375C50.9542 66.375 48.0373 63.0302 46.9346 60.2967C45.2989 56.2428 47.4675 54.0024 47.4675 54.0024C47.4675 54.0024 46.5074 54.4333 45.9736 55.7288C45.7856 56.1855 45.5021 57.3607 45.5021 57.3607C45.5021 57.3607 45.1316 55.9839 45.8158 54.5689C46.4026 53.3555 47.7528 52.2129 47.7528 52.2129C47.7528 52.2129 45.76 52.1135 44.8973 53.3996C44.3143 54.269 43.8882 55.3237 43.8882 55.3237C43.8882 55.3237 43.4298 53.2916 45.142 51.5441C47.2795 49.361 50.7586 50.2925 50.7586 50.2925C50.7586 50.2925 49.6559 50.3756 48.4634 50.5896C46.7408 50.8992 45.8725 51.93 45.8205 51.995C45.9008 51.9501 47.5724 51.0349 50.3315 51.5565C51.4351 51.7648 52.999 52.6533 52.999 52.6533C52.999 52.6533 50.7935 52.8396 49.6644 53.4759C47.7973 54.5278 47.7433 56.646 47.7433 56.646C47.7433 56.646 48.6165 54.869 50.1718 54.4199C51.9455 53.9078 53.4931 53.988 53.4931 53.988C53.4931 53.988 52.5728 54.5278 52.2468 55.6285C51.9719 56.5563 52.2118 57.8461 52.2118 57.8461C52.2118 57.8461 52.7495 55.9639 54.1603 56.0661C54.1603 56.0661 56.3609 56.0661 57.6281 58.1155C58.8952 60.1658 58.882 61.1241 58.882 61.1241L58.7488 61.3534C58.7488 61.3534 59.0426 62.4588 59.8298 63.0798C60.6168 63.6999 61.0836 64.0238 61.3898 63.9292C61.6969 63.8346 62.3772 63.0933 63.0972 62.5534C63.8182 62.0136 64.6318 61.4881 64.6318 61.4881L65.4312 58.4279C65.4065 58.4575 65.0107 58.9467 64.7782 59.1818C64.5382 59.4244 64.1111 59.7206 64.1111 59.7206C64.1111 59.7206 64.1782 58.3448 64.1253 57.9273C64.0714 57.5088 63.8314 56.5514 63.8314 56.5514C63.8314 56.5514 64.129 56.2744 64.045 56.0794C63.8578 55.6476 63.5697 55.338 63.5914 54.8786C63.5914 54.8786 63.6178 54.3931 64.592 53.2734C64.9785 52.8291 65.2715 52.318 65.4851 51.8021C65.846 50.9298 65.9801 50.0422 65.9528 49.4298C65.8989 48.2421 65.2479 47.3307 64.7564 46.5568C64.49 46.1373 64.2727 45.7666 64.0658 45.3864C63.9419 45.159 63.822 44.9278 63.6982 44.6813C63.3646 44.0211 62.7646 42.7256 62.5511 41.7281C62.3375 40.7296 62.4443 40.338 61.7507 38.7328C61.0997 37.2281 60.3202 36.3988 60.2719 36.349C60.2975 36.417 60.8077 37.7382 60.9901 38.3555C61.1734 38.9785 61.3954 40.1068 61.403 40.1487C61.3642 40.0963 60.1094 38.4089 59.2694 36.6558C58.4152 34.8758 58.0759 34.4345 57.6017 32.8121C56.2673 28.2528 57.1217 24.9394 57.1217 24.9394C57.1217 24.9394 55.383 26.3105 55.6986 31.6112C55.93 35.4958 57.3351 38.302 57.3351 38.302C57.3351 38.302 56.4007 37.6007 55.521 36.4848C54.9625 35.7777 54.1328 34.3274 54.1328 34.3274C54.1452 34.3819 54.2396 35.7118 54.8538 37.0064C55.2365 37.8147 56.1588 39.3586 56.1871 39.4065C56.1408 39.371 54.6629 38.2198 53.7067 36.2335C53.0906 34.9532 52.3989 33.2841 52.3989 33.2841C52.3989 33.2841 52.3725 34.7946 52.7759 36.0166C53.1266 37.0809 54.0232 38.493 54.0601 38.5513C53.9827 38.4874 51.4956 36.4121 50.0962 34.0933C45.9537 27.2353 47.5704 22.8175 47.5704 22.8175C47.5704 22.8175 45.8272 24.7627 46.2003 30.9997C46.4318 34.8663 48.1034 37.3848 48.1034 37.3848C48.1034 37.3848 46.4498 37.0475 44.7952 36.5344C43.2192 36.0462 41.8245 35.5084 41.6969 35.4596C41.8755 35.5551 44.5392 36.9558 45.2224 37.4115C45.915 37.874 46.9411 38.8303 46.9818 38.8675C46.9355 38.8485 45.2941 38.1548 42.8345 38.302C40.34 38.45 38.5257 39.4752 38.5257 39.4752C38.5257 39.4752 40.3664 39.1648 41.9803 39.4208C43.5952 39.6777 44.6488 40.3523 44.6488 40.3523C44.6488 40.3523 40.2266 40.1842 37.0045 42.6453C33.1322 45.6033 32.6485 50.8199 32.6041 50.9775C32.6494 50.8781 34.0733 47.4396 36.2627 45.4056C37.6631 44.1043 39.3951 43.637 39.4481 43.616C39.4055 43.6513 36.5472 45.5134 34.9465 48.2469C32.8686 51.7944 33.1067 52.2568 32.691 53.3365C32.193 54.6311 31.9577 54.506 31.2906 56.0976C30.6321 57.6702 31.6733 60.0808 31.6733 60.0808C31.6733 60.0808 31.5203 59.1569 31.9841 57.4734C32.3045 56.3127 32.8922 56.2027 32.8922 56.2027C32.8922 56.2027 33.2031 57.7428 32.7401 59.1818C31.3955 63.3665 34.0648 66.763 34.1225 66.8423C34.1131 66.7936 33.8021 65.3366 33.9212 64.0592C34.0497 62.6748 34.3484 62.2476 34.3484 62.2476C34.3484 62.2476 34.3549 64.6667 35.4756 69.3608C36.3109 72.8634 39.7438 76.1949 39.7438 76.1949C39.7438 76.1949 38.1091 73.3783 37.6451 71.627C37.1113 69.612 37.3654 68.9652 37.3654 68.9652C37.3654 68.9652 37.972 71.242 40.7444 75.5109C43.1247 79.1778 47.6565 81.4335 47.734 81.4717C47.6885 81.4306 46.2466 80.1159 45.5588 78.6904C44.8113 77.1437 45.1373 76.1682 45.1373 76.1682C45.1392 76.1682 46.499 76.8159 48.2102 78.4965C49.8212 80.0787 50.8247 82.6507 50.8247 82.6507C50.8247 82.6507 51.4247 80.2496 50.5979 79.5418C50.7237 79.6383 52.7373 81.1965 53.546 82.3812C54.4239 83.6653 54.8094 85.259 54.8094 85.259C54.8094 85.259 54.8566 83.8717 54.4712 82.795C54.0979 81.7517 53.4752 81.122 53.4752 81.122C53.4752 81.122 55.4973 82.1061 57.0413 83.5278C58.5352 84.9035 59.3629 85.8475 59.3629 85.8475C59.3629 85.8475 59.6653 87.165 59.9318 87.8481C60.1983 88.5323 60.6783 89.9166 60.6783 89.9166C60.6783 89.9166 60.5724 88.0823 60.4827 87.7048C60.3967 87.3389 60.2275 86.7866 60.2171 86.7532C60.2568 86.8135 61.2055 88.2562 61.5854 89.1618C61.7195 89.479 62.0229 90.1001 61.8878 91.8227C61.7223 93.9571 61.5598 94.5408 61.5598 94.5408C61.5598 94.5408 62.0805 93.9103 62.3687 92.5068C62.5643 91.5533 62.5378 90.852 62.5378 90.852C62.5378 90.852 63.4581 92.3091 63.511 94.6957C63.5772 97.6632 62.9243 99.3496 62.9243 99.3496C62.9243 99.3496 64.1867 99.574 65.8989 97.4749C64.8463 99.3475 64.627 99.5922 63.2937 100.564C61.9595 101.535 58.847 102.919 58.847 102.919C58.847 102.919 59.3799 102.937 59.9498 102.902C60.5186 102.865 60.8748 102.812 60.8748 102.812C60.8748 102.812 57.3229 106.973 51.0922 104.61C46.823 102.992 46.2891 101.561 45.8272 99.3944C45.0532 95.7696 49.206 94.5027 49.206 94.5027C49.206 94.5027 48.984 94.2514 48.0685 94.4664C47.7433 94.5438 47.0876 94.9078 47.0678 94.9183C47.0885 94.8772 47.7793 93.5377 48.1516 90.0809C48.5078 86.781 47.2643 85.3364 46.0529 84.3351C44.1367 82.7529 41.335 83.0491 41.335 83.0491C41.335 83.0491 45.5909 84.209 46.7286 87.1583C47.6508 89.5468 46.1597 91.259 46.1597 91.259C46.1597 91.259 45.4926 90.0828 44.7631 88.7548C44.2963 87.9055 43.5357 87.123 43.5357 87.123C43.5357 87.123 43.9495 88.2017 44.0431 89.0788C44.1367 89.9549 44.1895 90.8051 44.1895 90.8051C44.1895 90.8051 43.2957 89.011 40.0943 87.3656C36.9242 85.7357 31.7441 84.5061 31.7441 84.5061C31.7441 84.5061 38.2432 86.7226 41.2509 89.7121C43.855 92.3004 44.0829 93.0581 44.0431 94.5408C44.0233 95.2775 43.289 99.1881 41.781 96.6791C41.0373 95.4428 40.8011 92.5851 40.8011 92.5851C40.8011 92.5851 40.3079 95.8631 41.3217 98.0034C42.3356 100.143 42.8516 100.719 42.8516 100.719C42.8516 100.719 42.5312 100.701 41.8018 100.737C41.0723 100.773 40.4505 100.971 40.4505 100.971C40.4505 100.971 41.559 100.932 42.2884 101.085C43.3817 101.314 43.5905 101.523 43.5905 101.523C43.5905 101.523 46.8939 105.365 51.7857 106.498C55.4595 107.349 59.5501 107.131 63.0443 105.365C68.5938 102.56 70.7283 96.7327 70.7283 96.7327C70.7283 96.7327 70.8351 97.5553 70.7283 98.5001C70.6253 99.4144 70.4845 99.9619 70.476 99.9954C70.5101 99.9141 71.6118 97.2839 71.7951 94.6555C71.9823 91.9851 71.8755 90.6896 71.8755 90.6896C71.8755 90.6905 72.2752 90.9418 72.3649 92.0204C72.466 93.2587 72.4358 94.925 72.4358 94.925C72.4358 94.925 74.6865 88.0956 69.8788 82.5255Z" fill="#FFF9E1"/>
<path d="M58.4582 51.9094C58.4582 51.9094 58.0558 51.5564 57.9757 51.2147C57.828 50.5846 58.0587 50.2677 57.7578 50.2504C57.5244 50.2369 57.4448 50.7265 57.6377 51.3766C57.7244 51.6689 58.1454 52.0864 58.6116 52.1589C59.074 52.2309 59.3431 51.9255 59.3496 51.4936C59.3586 50.909 58.9663 50.8534 58.6382 51.0439C58.2047 51.2957 58.4582 51.9094 58.4582 51.9094Z" fill="#FFF9E1"/>
<mask id="mask0_411_828" style="mask-type:luminance" maskUnits="userSpaceOnUse" x="41" y="36" width="25" height="28">
<path d="M60.9978 38.3554C61.181 38.9784 61.4031 40.1066 61.4107 40.1487C61.4107 40.1487 61.4673 40.679 61.5533 41.1518C61.6373 41.6152 61.9 42.4465 61.9 42.4465C61.9 42.4465 61.1535 41.4222 60.6198 41.0171C60.1028 40.6245 59.4604 40.0052 59.4205 39.968C59.4565 40.0273 60.0366 40.9779 60.1397 41.4222C60.2465 41.8808 60.3797 42.8248 60.3797 42.8248C60.3797 42.8248 59.6862 41.7451 59.0191 41.0439C58.4124 40.4067 57.219 39.4416 57.1065 39.3518C57.202 39.5229 58.0079 41.364 58.3784 42.3394C58.9851 43.9331 58.1487 44.1681 59.4726 46.0349C60.6016 47.6286 61.266 50.0583 61.2859 50.1337C61.2264 50.0659 59.3148 47.88 57.1509 46.4391C53.1672 43.787 51.8688 40.3521 51.8688 40.3521C51.8688 40.3521 51.7442 42.3117 52.6957 43.9579C53.3665 45.1178 54.0318 45.7264 54.0724 45.7637C53.9892 45.7436 51.3275 45.0739 49.6984 43.4449C48.0449 41.79 47.6706 40.7476 45.4474 40.8557C43.2523 40.9618 43.2069 41.0353 43.2069 41.0353C43.2069 41.0353 45.8215 41.1614 46.995 42.1502C48.0798 43.0647 49.2543 44.9917 49.2543 44.9917C49.2543 44.9917 47.6536 44.7261 46.5198 44.1873C45.3859 43.6474 44.0913 43.2834 41.8641 44.1739C41.8641 44.1739 43.9533 43.8051 45.0211 44.5062C46.088 45.2076 46.6039 45.7828 47.1558 46.1247C47.7065 46.4669 48.4709 46.8079 48.4709 46.8079C48.2188 46.8594 46.7994 47.5723 45.8659 47.7881C44.4269 48.1206 41.4638 49.7312 41.25 54.4513C41.2512 54.4383 41.4681 51.1214 43.8381 49.6493C45.4375 48.6559 48.0755 48.3123 49.2 48.2072C48.0881 48.3454 45.478 48.9441 43.6511 51.5382C42.3309 53.4127 43.8958 55.3235 43.8958 55.3235C43.8958 55.3235 43.4375 53.2913 45.1495 51.544C47.287 49.3608 50.7661 50.2923 50.7661 50.2923C50.7661 50.2923 49.6635 50.3755 48.4709 50.5894C46.7485 50.8991 45.88 51.93 45.8281 51.9948C45.9085 51.9499 47.5799 51.0347 50.3391 51.5564C51.4427 51.7646 53.0066 52.6531 53.0066 52.6531C53.0066 52.6531 50.8011 52.8394 49.6719 53.4758C47.8048 54.5276 47.7509 56.646 47.7509 56.646C47.7509 56.646 48.6241 54.8688 50.1794 54.4197C51.9531 53.9077 53.5007 53.988 53.5007 53.988C53.5007 53.988 52.5804 54.5276 52.2544 55.6284C51.9794 56.5562 52.2195 57.8459 52.2195 57.8459C52.2195 57.8459 52.7571 55.9637 54.1679 56.0659C54.1679 56.0659 56.3686 56.0659 57.6356 58.1154C58.9027 60.1657 58.8896 61.124 58.8896 61.124L58.7564 61.3532C58.7564 61.3532 59.0501 62.4586 59.8373 63.0797C60.6244 63.6997 61.0912 64.0236 61.3975 63.9291C61.7045 63.8345 62.3849 63.0931 63.1048 62.5533C63.8259 62.0135 64.6394 61.4879 64.6394 61.4879L65.4388 58.4279C65.4143 58.4574 65.0182 58.9466 64.7859 59.1816C64.5458 59.4242 64.1188 59.7204 64.1188 59.7204C64.1188 59.7204 64.1857 58.3446 64.1329 57.9272C64.0791 57.5086 63.839 56.5513 63.839 56.5513C63.839 56.5513 64.1366 56.2742 64.0525 56.0794C63.8654 55.6476 63.5772 55.3379 63.599 54.8784C63.599 54.8784 63.6255 54.3929 64.5997 53.2732C65.6381 52.0789 66.0039 50.4041 65.9604 49.4297C65.9064 48.242 65.8497 47.4202 64.9994 45.1532C64.129 42.8304 63.7559 41.5913 63.7332 41.5159C63.7531 41.6276 64.2018 44.1395 64.3322 44.6276C64.4654 45.1263 64.7462 46.165 64.7462 46.165C64.7462 46.165 64.0394 45.3423 63.7059 44.6812C63.3723 44.021 62.7722 42.7254 62.5587 41.7279C62.3451 40.7296 62.4519 40.3378 61.7584 38.7328C61.1072 37.2279 60.3278 36.3986 60.2795 36.3488C60.3051 36.4168 60.8154 37.7382 60.9978 38.3554ZM55.2036 47.2483C54.8292 46.5041 54.4664 45.4054 54.4438 45.3366C54.5138 45.4264 56.17 47.5761 57.0848 48.3681C58.0183 49.1773 59.2458 50.1491 59.7125 51.0385C60.1793 51.929 61.3529 54.3978 61.5533 55.1392C61.7537 55.8816 60.9268 53.7367 60.4194 53.4939C59.9129 53.2512 59.4188 53.2236 58.7789 52.9808C58.4208 52.8453 57.2577 51.6864 57.2577 51.6864L57.5648 52.5768C57.5648 52.5768 56.8174 51.7809 56.6445 51.2276C56.4707 50.6745 56.2175 49.9332 56.2175 49.9332C56.2175 49.9332 55.2574 48.4359 54.6837 48.1121C54.1092 47.7881 53.8693 47.7881 53.5631 47.4109C53.2654 47.044 53.0557 46.527 53.0434 46.4956C53.0728 46.5232 53.6794 47.1185 54.0696 47.3162C54.4703 47.5188 55.0164 47.748 55.2298 47.9497C55.4378 48.1464 55.9226 48.4579 55.95 48.4751C55.9282 48.4475 55.5786 47.9936 55.2036 47.2483ZM62.3943 60.6835C62.1807 60.5612 61.7404 60.4265 61.7404 60.4265C61.7404 60.4265 61.7404 60.2516 61.7933 60.1571C61.8472 60.0624 62.0608 59.9679 62.0608 59.9679C62.0608 59.9679 62.207 60.0224 62.5671 60.2917C62.9272 60.5612 62.9272 60.9798 62.9272 60.9798C62.9272 60.9798 62.6069 60.8048 62.3943 60.6835ZM57.098 39.3441C57.098 39.3441 57.1008 39.3461 57.1055 39.3499C57.1017 39.3426 57.0992 39.3388 57.098 39.3388C57.0968 39.3388 57.0968 39.3406 57.098 39.3441ZM41.25 54.4513C41.25 54.4515 41.25 54.4511 41.25 54.4513V54.4513Z" fill="white"/>
</mask>
<g mask="url(#mask0_411_828)">
<mask id="mask1_411_828" style="mask-type:luminance" maskUnits="userSpaceOnUse" x="-4148" y="-3737" width="7658" height="7744">
<path d="M-4147.79 -3736.07H3509.28V4006.18H-4147.79V-3736.07Z" fill="url(#paint0_linear_411_828)"/>
</mask>
<g mask="url(#mask1_411_828)">
<path d="M60.9978 38.354C61.181 38.9769 61.4031 40.1051 61.4107 40.1472C61.4107 40.1472 61.4673 40.6775 61.5533 41.1503C61.6373 41.6138 61.9 42.445 61.9 42.445C61.9 42.445 61.1535 41.4207 60.6198 41.0156C60.1028 40.6231 59.4604 40.0038 59.4205 39.9666C59.4565 40.0259 60.0366 40.9764 60.1397 41.4207C60.2465 41.8794 60.3797 42.8233 60.3797 42.8233C60.3797 42.8233 59.6862 41.7436 59.0191 41.0425C58.4124 40.4052 57.219 39.4401 57.1065 39.3503C57.202 39.5214 58.0079 41.3625 58.3784 42.338C58.9851 43.9317 58.1487 44.1666 59.4726 46.0335C60.6016 47.6272 61.266 50.0568 61.2859 50.1322C61.2264 50.0644 59.3148 47.8786 57.1509 46.4376C53.1672 43.7855 51.8688 40.3506 51.8688 40.3506C51.8688 40.3506 51.7442 42.3102 52.6957 43.9565C53.3665 45.1164 54.0318 45.7249 54.0724 45.7622C53.9892 45.7422 51.3275 45.0724 49.6984 43.4434C48.0449 41.7885 47.6706 40.7462 45.4474 40.8543C43.2523 40.9604 43.2069 41.0338 43.2069 41.0338C43.2069 41.0338 45.8215 41.1599 46.995 42.1487C48.0798 43.0632 49.2543 44.9902 49.2543 44.9902C49.2543 44.9902 47.6536 44.7246 46.5198 44.1858C45.3859 43.6459 44.0913 43.2819 41.8641 44.1724C41.8641 44.1724 43.9533 43.8036 45.0211 44.5048C46.088 45.2062 46.6039 45.7814 47.1558 46.1233C47.7065 46.4654 48.4709 46.8065 48.4709 46.8065C48.2188 46.858 46.7994 47.5708 45.8659 47.7867C44.4269 48.1191 41.4638 49.7297 41.25 54.4498C41.2512 54.4368 41.4681 51.12 43.8381 49.6478C45.4375 48.6544 48.0755 48.3108 49.2 48.2057C48.0881 48.3439 45.478 48.9427 43.6511 51.5368C42.3309 53.4113 43.8958 55.322 43.8958 55.322C43.8958 55.322 43.4375 53.2898 45.1495 51.5425C47.287 49.3593 50.7661 50.2909 50.7661 50.2909C50.7661 50.2909 49.6635 50.374 48.4709 50.588C46.7485 50.8976 45.88 51.9285 45.8281 51.9934C45.9085 51.9485 47.5799 51.0332 50.3391 51.5549C51.4427 51.7631 53.0066 52.6516 53.0066 52.6516C53.0066 52.6516 50.8011 52.8379 49.6719 53.4744C47.8048 54.5261 47.7509 56.6445 47.7509 56.6445C47.7509 56.6445 48.6241 54.8673 50.1794 54.4183C51.9531 53.9063 53.5007 53.9865 53.5007 53.9865C53.5007 53.9865 52.5804 54.5261 52.2544 55.627C51.9794 56.5547 52.2195 57.8444 52.2195 57.8444C52.2195 57.8444 52.7571 55.9622 54.1679 56.0644C54.1679 56.0644 56.3686 56.0644 57.6356 58.1139C58.9027 60.1642 58.8896 61.1226 58.8896 61.1226L58.7564 61.3518C58.7564 61.3518 59.0501 62.4572 59.8373 63.0782C60.6244 63.6982 61.0912 64.0222 61.3975 63.9277C61.7045 63.833 62.3849 63.0916 63.1048 62.5518C63.8259 62.012 64.6394 61.4864 64.6394 61.4864L65.4388 58.4264C65.4143 58.4559 65.0182 58.9451 64.7859 59.1801C64.5458 59.4228 64.1188 59.719 64.1188 59.719C64.1188 59.719 64.1857 58.3431 64.1329 57.9257C64.0791 57.5072 63.839 56.5499 63.839 56.5499C63.839 56.5499 64.1366 56.2727 64.0525 56.0779C63.8654 55.6461 63.5772 55.3365 63.599 54.8769C63.599 54.8769 63.6255 54.3915 64.5997 53.2717C65.6381 52.0775 66.0039 50.4026 65.9604 49.4282C65.9064 48.2406 65.8497 47.4188 64.9994 45.1517C64.129 42.829 63.7559 41.5898 63.7332 41.5144C63.7531 41.6262 64.2018 44.1381 64.3322 44.6261C64.4654 45.1249 64.7462 46.1636 64.7462 46.1636C64.7462 46.1636 64.0394 45.3408 63.7059 44.6797C63.3723 44.0196 62.7722 42.7239 62.5587 41.7265C62.3451 40.7281 62.4519 40.3363 61.7584 38.7313C61.1072 37.2264 60.3278 36.3971 60.2795 36.3474C60.3051 36.4153 60.8154 37.7367 60.9978 38.354ZM55.2036 47.2469C54.8292 46.5026 54.4664 45.4039 54.4438 45.3352C54.5138 45.4249 56.17 47.5746 57.0848 48.3666C58.0183 49.1759 59.2458 50.1477 59.7125 51.037C60.1793 51.9276 61.3529 54.3963 61.5533 55.1378C61.7537 55.8801 60.9268 53.7352 60.4194 53.4924C59.9129 53.2498 59.4188 53.2221 58.7789 52.9793C58.4208 52.8438 57.2577 51.6849 57.2577 51.6849L57.5648 52.5753C57.5648 52.5753 56.8174 51.7794 56.6445 51.2262C56.4707 50.673 56.2175 49.9317 56.2175 49.9317C56.2175 49.9317 55.2574 48.4344 54.6837 48.1106C54.1092 47.7867 53.8693 47.7867 53.5631 47.4094C53.2654 47.0425 53.0557 46.5255 53.0434 46.4941C53.0728 46.5217 53.6794 47.1171 54.0696 47.3147C54.4703 47.5173 55.0164 47.7465 55.2298 47.9483C55.4378 48.145 55.9226 48.4564 55.95 48.4736C55.9282 48.446 55.5786 47.9921 55.2036 47.2469ZM62.3943 60.682C62.1807 60.5597 61.7404 60.4251 61.7404 60.4251C61.7404 60.4251 61.7404 60.2501 61.7933 60.1556C61.8472 60.061 62.0608 59.9664 62.0608 59.9664C62.0608 59.9664 62.207 60.0209 62.5671 60.2903C62.9272 60.5597 62.9272 60.9783 62.9272 60.9783C62.9272 60.9783 62.6069 60.8033 62.3943 60.682ZM57.098 39.3427C57.098 39.3427 57.1008 39.3447 57.1055 39.3485C57.1017 39.3411 57.0992 39.3374 57.098 39.3374C57.0968 39.3374 57.0968 39.3391 57.098 39.3427ZM41.25 54.4498C41.25 54.4501 41.25 54.4496 41.25 54.4498V54.4498Z" fill="url(#paint1_linear_411_828)"/>
</g>
</g>
<mask id="mask2_411_828" style="mask-type:luminance" maskUnits="userSpaceOnUse" x="37" y="68" width="31" height="32">
<path d="M40.7481 75.5119C43.1284 79.1789 47.6602 81.4345 47.7376 81.4727C47.6923 81.4317 46.2503 80.1169 45.5624 78.6914C44.8151 77.1446 45.1411 76.1692 45.1411 76.1692C45.1428 76.1692 46.5026 76.8169 48.2138 78.4976C49.8249 80.0797 50.8283 82.6517 50.8283 82.6517C50.8283 82.6517 51.4285 80.2508 50.6017 79.5428C50.7273 79.6393 52.7409 81.1976 53.5498 82.3823C54.4276 83.6663 54.813 85.26 54.813 85.26C54.813 85.26 54.8603 83.8727 54.4748 82.7961C54.1017 81.7527 53.479 81.1231 53.479 81.1231C53.479 81.1231 55.501 82.1071 57.0449 83.5288C58.5389 84.9046 59.3666 85.8485 59.3666 85.8485C59.3666 85.8485 59.669 87.166 59.9355 87.8491C60.2019 88.5333 60.682 89.9177 60.682 89.9177C60.682 89.9177 60.5762 88.0834 60.4863 87.7059C60.4004 87.3399 60.2312 86.7878 60.2208 86.7543C60.2605 86.8145 61.2092 88.2573 61.589 89.1629C61.7233 89.48 62.0265 90.1011 61.8914 91.8237C61.7261 93.9581 61.5636 94.5418 61.5636 94.5418C61.5636 94.5418 62.0842 93.9113 62.3723 92.5078C62.568 91.5543 62.5415 90.853 62.5415 90.853C62.5415 90.853 63.4618 92.3101 63.5149 94.6967C63.581 97.6642 62.9279 99.3504 62.9279 99.3504C62.9279 99.3504 64.1905 99.5751 65.9025 97.4759C65.9025 97.4759 67.6204 95.2385 67.3927 89.7917C67.1696 84.4775 64.1395 81.2135 57.3099 77.3287C48.2066 72.1513 37.3691 68.9662 37.3691 68.9662C37.3691 68.9662 37.9758 71.2431 40.7481 75.5119Z" fill="white"/>
</mask>
<g mask="url(#mask2_411_828)">
<mask id="mask3_411_828" style="mask-type:luminance" maskUnits="userSpaceOnUse" x="-4148" y="-3737" width="7658" height="7744">
<path d="M-4147.8 -3736.06H3509.27V4006.18H-4147.8V-3736.06Z" fill="url(#paint2_linear_411_828)"/>
</mask>
<g mask="url(#mask3_411_828)">
<path d="M40.7462 75.5109C43.1264 79.1779 47.6583 81.4335 47.7356 81.4717C47.6903 81.4307 46.2484 80.1159 45.5604 78.6905C44.8131 77.1437 45.1391 76.1682 45.1391 76.1682C45.1408 76.1682 46.5006 76.816 48.2119 78.4966C49.823 80.0787 50.8264 82.6507 50.8264 82.6507C50.8264 82.6507 51.4266 80.2498 50.5997 79.5418C50.7253 79.6383 52.7389 81.1967 53.5478 82.3814C54.4256 83.6653 54.8111 85.259 54.8111 85.259C54.8111 85.259 54.8584 83.8717 54.4728 82.7951C54.0998 81.7517 53.477 81.1221 53.477 81.1221C53.477 81.1221 55.499 82.1061 57.0429 83.5278C58.537 84.9036 59.3647 85.8476 59.3647 85.8476C59.3647 85.8476 59.667 87.1651 59.9336 87.8481C60.2 88.5323 60.68 89.9168 60.68 89.9168C60.68 89.9168 60.5742 88.0824 60.4844 87.705C60.3985 87.339 60.2293 86.7868 60.2189 86.7533C60.2586 86.8135 61.2072 88.2563 61.5871 89.162C61.7213 89.4791 62.0245 90.1001 61.8895 91.8227C61.7241 93.9571 61.5616 94.5408 61.5616 94.5408C61.5616 94.5408 62.0822 93.9103 62.3704 92.5068C62.5661 91.5533 62.5395 90.8521 62.5395 90.8521C62.5395 90.8521 63.4599 92.3091 63.5129 94.6957C63.5791 97.6633 62.9259 99.3495 62.9259 99.3495C62.9259 99.3495 64.1885 99.5742 65.9006 97.4749C65.9006 97.4749 67.6184 95.2375 67.3907 89.7907C67.1677 84.4766 64.1376 81.2125 57.3079 77.3277C48.2046 72.1503 37.3672 68.9653 37.3672 68.9653C37.3672 68.9653 37.9738 71.2422 40.7462 75.5109Z" fill="url(#paint3_linear_411_828)"/>
</g>
</g>
<mask id="mask4_411_828" style="mask-type:luminance" maskUnits="userSpaceOnUse" x="30" y="19" width="43" height="85">
<path d="M45.6467 27.6466C45.8782 31.5132 47.5498 34.0318 47.5498 34.0318C47.5498 34.0318 45.8962 33.6945 44.2416 33.1814C42.6655 32.6932 41.2707 32.1554 41.1433 32.1066C41.3218 32.2022 43.9856 33.6028 44.6687 34.0585C45.3613 34.521 46.3875 35.4774 46.4282 35.5146C46.3819 35.4954 44.7404 34.8018 42.2809 34.9489C39.7864 35.0971 37.9721 36.1223 37.9721 36.1223C37.9721 36.1223 39.8128 35.8118 41.4267 36.0678C43.0416 36.3247 44.0952 36.9992 44.0952 36.9992C44.0952 36.9992 39.673 36.8311 36.4509 39.2923C32.5787 42.2503 32.0949 47.4669 32.0505 47.6244C32.0958 47.5251 33.5197 44.0866 35.7091 42.0525C37.1094 40.7512 38.8415 40.284 38.8944 40.2631C38.8519 40.2984 35.9936 42.1605 34.3929 44.8939C32.3149 48.4414 32.553 48.9039 32.1374 49.9833C31.6393 51.278 31.404 51.1529 30.7368 52.7447C30.0783 54.3171 31.1196 56.7276 31.1196 56.7276C31.1196 56.7276 30.9666 55.8038 31.4305 54.1204C31.7509 52.9595 32.3386 52.8497 32.3386 52.8497C32.3386 52.8497 32.6494 54.3899 32.1865 55.8287C30.8418 60.0134 33.5112 63.4099 33.5689 63.4892C33.5593 63.4407 33.2487 61.9835 33.3676 60.7061C33.496 59.3216 33.7947 58.8947 33.7947 58.8947C33.7947 58.8947 33.8013 61.3138 34.9219 66.0078C35.7572 69.5104 39.1902 72.8419 39.1902 72.8419C39.1902 72.8419 37.5555 70.0253 37.0915 68.2741C36.5576 66.259 36.8118 65.6122 36.8118 65.6122C36.8118 65.6122 47.1453 68.876 56.7526 73.9746C63.6911 77.657 66.6123 81.1235 66.8353 86.4376C67.0631 91.8844 65.3452 94.1219 65.3452 94.1219C64.2927 95.9946 64.0734 96.2391 62.7401 97.2108C61.4059 98.1816 58.2935 99.5659 58.2935 99.5659C58.2935 99.5659 58.8264 99.5841 59.3961 99.5487C59.965 99.5124 60.3212 99.4589 60.3212 99.4589C60.3212 99.4589 56.7693 103.62 50.5385 101.257C46.2694 99.6386 45.7355 98.2082 45.2736 96.0415C44.4995 92.4165 48.6524 91.1496 48.6524 91.1496C48.6524 91.1496 48.4303 90.8984 47.5149 91.1133C47.1897 91.1907 46.534 91.5547 46.5141 91.5652C46.5348 91.5242 47.2257 90.1846 47.598 86.728C47.9541 83.4279 46.7107 81.9833 45.4994 80.9821C43.583 79.4 40.7814 79.6961 40.7814 79.6961C40.7814 79.6961 45.0372 80.8559 46.175 83.8052C47.0971 86.1938 45.6061 87.906 45.6061 87.906C45.6061 87.906 44.9389 86.7298 44.2095 85.4018C43.7427 84.5525 42.982 83.7699 42.982 83.7699C42.982 83.7699 43.3959 84.8486 43.4895 85.7257C43.583 86.6018 43.6361 87.4521 43.6361 87.4521C43.6361 87.4521 42.742 85.6579 39.5406 84.0127C36.3705 82.3827 31.1905 81.1531 31.1905 81.1531C31.1905 81.1531 37.6895 83.3697 40.6973 86.3592C43.3014 88.9475 43.5291 89.7051 43.4895 91.1878C43.4697 91.9245 42.7354 95.835 41.2273 93.3262C40.4838 92.0899 40.2475 89.2321 40.2475 89.2321C40.2475 89.2321 39.7542 92.5102 40.7681 94.6503C41.7819 96.7904 42.2979 97.3656 42.2979 97.3656C42.2979 97.3656 41.9776 97.3484 41.2482 97.3837C40.5187 97.4201 39.8969 97.6179 39.8969 97.6179C39.8969 97.6179 41.0053 97.5787 41.7347 97.7315C42.8281 97.9609 43.0368 98.17 43.0368 98.17C43.0368 98.17 46.3403 102.012 51.2321 103.145C54.9059 103.996 58.9963 103.778 62.4905 102.012C68.0402 99.2068 70.1746 93.3796 70.1746 93.3796C70.1746 93.3796 70.2815 94.2023 70.1746 95.1471C70.0716 96.0615 69.9309 96.6089 69.9223 96.6424C69.9563 96.5612 71.0582 93.9308 71.2415 91.3026C71.4285 88.6322 71.3219 87.3365 71.3219 87.3365C71.3219 87.3375 71.7215 87.5888 71.8113 88.6675C71.9124 89.9057 71.8822 91.5719 71.8822 91.5719C71.8822 91.5719 74.1329 84.7426 69.3252 79.1725C67.8096 77.4165 66.1843 76.2183 66.0842 76.1458C66.1682 76.1859 67.3417 76.7716 68.2934 77.3553C69.2496 77.9438 70.6065 78.8611 70.6906 78.9173C70.5687 78.7971 67.4213 75.7167 66.1588 74.726C64.065 73.0799 62.0503 72.0412 62.0503 72.0412C62.0503 72.0412 62.4283 71.5406 63.4857 71.7938C64.8104 72.1109 65.4209 71.7354 65.4209 71.7354C65.4209 71.7354 62.8063 71.2234 60.1387 70.3062C57.6055 69.4348 54.8606 67.9139 54.8606 67.9139C54.8606 67.9139 46.6389 65.8281 42.3962 58.2202C40.3193 54.4949 40.6888 51.0984 40.6888 51.0984C40.9024 46.3777 43.8655 44.7677 45.3046 44.4353C46.2382 44.2194 47.6575 43.5066 47.9097 43.4551C47.9097 43.4551 47.1453 43.114 46.5945 42.7719C46.0427 42.43 45.5267 41.8547 44.4599 41.1534C43.3921 40.4522 41.3029 40.821 41.3029 40.821C43.5301 39.9305 44.8247 40.2945 45.9586 40.8344C47.0924 41.3732 48.6931 41.6388 48.6931 41.6388C48.6931 41.6388 47.5186 39.7118 46.4338 38.7973C45.2602 37.8085 42.6457 37.6824 42.6457 37.6824C42.6457 37.6824 42.6911 37.6089 44.8861 37.5029C47.1093 37.3948 47.4837 38.4371 49.1372 40.092C50.7663 41.721 53.428 42.3907 53.5112 42.4108C53.4705 42.3735 52.8053 41.765 52.1345 40.6051C51.1829 38.9588 51.3076 36.9992 51.3076 36.9992C51.3076 36.9992 52.6059 40.4341 56.5897 43.0862C58.7536 44.5272 60.6652 46.713 60.7246 46.7808C60.7048 46.7054 60.0404 44.2758 58.9114 42.6821C57.5875 40.8152 58.4238 40.5803 57.8172 38.9866C57.4467 38.0111 56.6407 36.17 56.5453 35.9989C56.6578 36.0887 57.8512 37.0538 58.4578 37.691C59.125 38.3922 59.8184 39.4719 59.8184 39.4719C59.8184 39.4719 59.6853 38.5279 59.5785 38.0693C59.4754 37.625 58.8953 36.6745 58.8593 36.6152C58.8992 36.6524 59.5415 37.2717 60.0585 37.6642C60.5923 38.0693 61.3388 39.0936 61.3388 39.0936C61.3388 39.0936 61.0761 38.2624 60.9921 37.7989C60.9061 37.3261 60.8494 36.7958 60.8494 36.7958C60.8106 36.7432 59.5558 35.056 58.7158 33.3028C57.8616 31.5229 57.5224 31.0814 57.0479 29.459C55.7137 24.8999 56.568 21.5864 56.568 21.5864C56.568 21.5864 54.8294 22.9574 55.1449 28.2582C55.3764 32.1429 56.7815 34.9489 56.7815 34.9489C56.7815 34.9489 55.8469 34.2478 54.9673 33.1317C54.4089 32.4246 53.5793 30.9744 53.5793 30.9744C53.5916 31.0288 53.686 32.3588 54.3001 33.6534C54.6829 34.4617 55.6052 36.0057 55.6334 36.0534C55.5872 36.0181 54.1093 34.8668 53.1531 32.8805C52.537 31.6002 51.8453 29.9311 51.8453 29.9311C51.8453 29.9311 51.8189 31.4416 52.2223 32.6635C52.573 33.728 53.4696 35.1401 53.5064 35.1982C53.4289 35.1343 50.9419 33.0592 49.5425 30.7403C45.4001 23.8824 47.0169 19.4644 47.0169 19.4644C47.0169 19.4644 45.2736 21.4097 45.6467 27.6466ZM56.5368 35.9913C56.535 35.9826 56.5379 35.9845 56.5442 35.997C56.5396 35.9933 56.5368 35.9913 56.5368 35.9913Z" fill="white"/>
</mask>
<g mask="url(#mask4_411_828)">
<mask id="mask5_411_828" style="mask-type:luminance" maskUnits="userSpaceOnUse" x="-4149" y="-3740" width="7658" height="7743">
<path d="M-4148.35 -3739.41H3508.72V4002.83H-4148.35V-3739.41Z" fill="url(#paint4_linear_411_828)"/>
</mask>
<g mask="url(#mask5_411_828)">
<path d="M45.6497 27.6491C45.8811 31.5156 47.5527 34.0342 47.5527 34.0342C47.5527 34.0342 45.8991 33.697 44.2446 33.1839C42.6684 32.6956 41.2737 32.1578 41.1462 32.1091C41.3247 32.2046 43.9886 33.6053 44.6716 34.0609C45.3642 34.5235 46.3904 35.4798 46.4311 35.517C46.3848 35.4979 44.7433 34.8043 42.2839 34.9514C39.7893 35.0995 37.9751 36.1247 37.9751 36.1247C37.9751 36.1247 39.8157 35.8142 41.4296 36.0703C43.0445 36.3271 44.0982 37.0017 44.0982 37.0017C44.0982 37.0017 39.6759 36.8336 36.4538 39.2947C32.5816 42.2527 32.0978 47.4694 32.0534 47.6269C32.0987 47.5275 33.5227 44.0891 35.712 42.055C37.1123 40.7537 38.8445 40.2864 38.8973 40.2655C38.8549 40.3008 35.9965 42.1629 34.3958 44.8963C32.3178 48.4438 32.5559 48.9063 32.1403 49.9857C31.6423 51.2804 31.4069 51.1553 30.7398 52.7471C30.0813 54.3196 31.1226 56.7301 31.1226 56.7301C31.1226 56.7301 30.9695 55.8062 31.4335 54.1229C31.7538 52.9619 32.3415 52.8522 32.3415 52.8522C32.3415 52.8522 32.6523 54.3923 32.1894 55.8312C30.8447 60.0159 33.5141 63.4124 33.5719 63.4916C33.5623 63.4431 33.2516 61.986 33.3705 60.7085C33.499 59.3241 33.7976 58.8971 33.7976 58.8971C33.7976 58.8971 33.8043 61.3162 34.9249 66.0103C35.7601 69.5128 39.1931 72.8444 39.1931 72.8444C39.1931 72.8444 37.5584 70.0277 37.0944 68.2765C36.5605 66.2614 36.8147 65.6146 36.8147 65.6146C36.8147 65.6146 47.1483 68.8784 56.7555 73.9771C63.694 77.6595 66.6152 81.1259 66.8383 86.4401C67.066 91.8869 65.3481 94.1243 65.3481 94.1243C64.2956 95.997 64.0763 96.2416 62.743 97.2133C61.4089 98.184 58.2964 99.5684 58.2964 99.5684C58.2964 99.5684 58.8293 99.5866 59.399 99.5511C59.9679 99.5149 60.3241 99.4613 60.3241 99.4613C60.3241 99.4613 56.7722 103.622 50.5414 101.26C46.2723 99.641 45.7385 98.2106 45.2765 96.0439C44.5024 92.419 48.6554 91.152 48.6554 91.152C48.6554 91.152 48.4333 90.9009 47.5178 91.1158C47.1927 91.1931 46.5369 91.5571 46.5171 91.5676C46.5378 91.5267 47.2286 90.1871 47.6009 86.7304C47.957 83.4303 46.7136 81.9857 45.5023 80.9845C43.5859 79.4024 40.7844 79.6986 40.7844 79.6986C40.7844 79.6986 45.0401 80.8583 46.1779 83.8077C47.1 86.1962 45.609 87.9084 45.609 87.9084C45.609 87.9084 44.9419 86.7322 44.2124 85.4042C43.7457 84.5549 42.9849 83.7724 42.9849 83.7724C42.9849 83.7724 43.3989 84.8511 43.4925 85.7281C43.5859 86.6043 43.639 87.4545 43.639 87.4545C43.639 87.4545 42.7449 85.6603 39.5435 84.0151C36.3734 82.3852 31.1935 81.1556 31.1935 81.1556C31.1935 81.1556 37.6924 83.3721 40.7002 86.3616C43.3043 88.9499 43.5321 89.7075 43.4925 91.1902C43.4726 91.9269 42.7384 95.8374 41.2302 93.3286C40.4868 92.0923 40.2504 89.2345 40.2504 89.2345C40.2504 89.2345 39.7571 92.5126 40.771 94.6527C41.7848 96.7928 42.3008 97.368 42.3008 97.368C42.3008 97.368 41.9806 97.3508 41.2511 97.3861C40.5216 97.4225 39.8999 97.6204 39.8999 97.6204C39.8999 97.6204 41.0082 97.5812 41.7376 97.7339C42.831 97.9633 43.0397 98.1725 43.0397 98.1725C43.0397 98.1725 46.3432 102.014 51.2351 103.147C54.9089 103.999 58.9993 103.781 62.4935 102.014C68.0431 99.2092 70.1776 93.382 70.1776 93.382C70.1776 93.382 70.2845 94.2047 70.1776 95.1495C70.0745 96.0639 69.9338 96.6114 69.9253 96.6448C69.9593 96.5636 71.0611 93.9333 71.2444 91.305C71.4315 88.6346 71.3248 87.339 71.3248 87.339C71.3248 87.3399 71.7244 87.5912 71.8143 88.6699C71.9153 89.9081 71.8852 91.5744 71.8852 91.5744C71.8852 91.5744 74.1358 84.745 69.3281 79.175C67.8125 77.419 66.1872 76.2208 66.0871 76.1482C66.1711 76.1883 67.3447 76.774 68.2963 77.3578C69.2525 77.9462 70.6094 78.8636 70.6935 78.9198C70.5717 78.7995 67.4242 75.7192 66.1618 74.7285C64.0679 73.0823 62.0532 72.0436 62.0532 72.0436C62.0532 72.0436 62.4312 71.5431 63.4886 71.7962C64.8133 72.1133 65.4238 71.7379 65.4238 71.7379C65.4238 71.7379 62.8092 71.2259 60.1416 70.3086C57.6084 69.4372 54.8635 67.9163 54.8635 67.9163C54.8635 67.9163 46.6419 65.8306 42.3991 58.2226C40.3223 54.4974 40.6917 51.1009 40.6917 51.1009C40.9053 46.3801 43.8685 44.7701 45.3076 44.4377C46.2411 44.2219 47.6605 43.509 47.9126 43.4575C47.9126 43.4575 47.1482 43.1164 46.5975 42.7743C46.0456 42.4324 45.5297 41.8572 44.4628 41.1558C43.395 40.4546 41.3058 40.8235 41.3058 40.8235C43.533 39.9329 44.8276 40.2969 45.9615 40.8368C47.0953 41.3757 48.696 41.6412 48.696 41.6412C48.696 41.6412 47.5215 39.7143 46.4367 38.7997C45.2632 37.8109 42.6486 37.6849 42.6486 37.6849C42.6486 37.6849 42.694 37.6114 44.8891 37.5053C47.1123 37.3972 47.4866 38.4395 49.1401 40.0944C50.7692 41.7234 53.4309 42.3932 53.5141 42.4133C53.4735 42.3759 52.8082 41.7674 52.1374 40.6075C51.1859 38.9612 51.3105 37.0017 51.3105 37.0017C51.3105 37.0017 52.6089 40.4366 56.5926 43.0887C58.7565 44.5296 60.6681 46.7154 60.7276 46.7832C60.7077 46.7079 60.0433 44.2782 58.9143 42.6845C57.5904 40.8177 58.4268 40.5827 57.8201 38.989C57.4496 38.0135 56.6437 36.1724 56.5482 36.0014C56.6607 36.0912 57.8541 37.0562 58.4608 37.6935C59.1279 38.3946 59.8214 39.4743 59.8214 39.4743C59.8214 39.4743 59.6882 38.5304 59.5814 38.0718C59.4783 37.6274 58.8982 36.6769 58.8622 36.6176C58.9021 36.6548 59.5445 37.2741 60.0615 37.6667C60.5952 38.0718 61.3417 39.096 61.3417 39.096C61.3417 39.096 61.079 38.2648 60.995 37.8014C60.909 37.3286 60.8524 36.7982 60.8524 36.7982C60.8136 36.7457 59.5587 35.0584 58.7188 33.3052C57.8645 31.5253 57.5253 31.0838 57.0509 29.4614C55.7167 24.9023 56.5709 21.5889 56.5709 21.5889C56.5709 21.5889 54.8323 22.9599 55.1478 28.2607C55.3794 32.1453 56.7845 34.9514 56.7845 34.9514C56.7845 34.9514 55.8499 34.2502 54.9702 33.1341C54.4118 32.4271 53.5822 30.9768 53.5822 30.9768C53.5945 31.0313 53.6889 32.3613 54.303 33.6558C54.6858 34.4642 55.6081 36.0081 55.6363 36.0558C55.5901 36.0205 54.1122 34.8693 53.156 32.883C52.5399 31.6026 51.8482 29.9335 51.8482 29.9335C51.8482 29.9335 51.8218 31.444 52.2253 32.666C52.5759 33.7304 53.4725 35.1425 53.5093 35.2006C53.4319 35.1367 50.9448 33.0616 49.5455 30.7428C45.403 23.8848 47.0198 19.4669 47.0198 19.4669C47.0198 19.4669 45.2765 21.4121 45.6497 27.6491ZM56.5397 35.9937C56.5379 35.9851 56.5408 35.987 56.5472 35.9995C56.5425 35.9957 56.5397 35.9937 56.5397 35.9937Z" fill="url(#paint5_linear_411_828)"/>
</g>
</g>
<mask id="mask6_411_828" style="mask-type:luminance" maskUnits="userSpaceOnUse" x="41" y="48" width="21" height="25">
<path d="M49.2925 48.1964C49.5682 48.1733 49.7295 48.1664 49.7295 48.1664C49.726 48.1664 49.5657 48.1665 49.2925 48.1964ZM43.8333 49.65C41.5033 51.0261 41.2452 54.452 41.2452 54.452C41.2452 54.452 40.8757 57.8485 42.9525 61.5738C47.1953 69.1817 55.417 71.2674 55.417 71.2674C55.417 71.2674 56.0348 71.0609 57.9295 71.4117C59.4489 71.6926 61.6997 72.562 61.6997 72.562C61.6997 72.562 59.9411 70.5384 56.6027 69.9843C54.0921 69.5668 53.4647 69.883 49.1067 65.9437C46.6688 63.7415 45.8034 60.3679 45.7769 60.2638C45.811 60.3364 46.4771 61.7533 47.4523 63.0011C48.6618 64.5479 50.957 66.3757 50.957 66.3757C50.957 66.3757 48.0401 63.0307 46.9374 60.2972C45.3016 56.2433 47.4703 54.0029 47.4703 54.0029C47.4703 54.0029 46.5103 54.4338 45.9763 55.7293C45.7883 56.186 45.5048 57.3613 45.5048 57.3613C45.5048 57.3613 45.1344 55.9845 45.8185 54.5695C46.4054 53.3561 47.7556 52.2135 47.7556 52.2135C47.7556 52.2135 45.7628 52.1141 44.9001 53.4001C44.317 54.2695 43.891 55.3242 43.891 55.3242C43.891 55.3242 42.3261 53.4134 43.6462 51.5389C45.5287 48.8659 48.243 48.3115 49.2925 48.1964C48.2572 48.2836 45.6093 48.6012 43.8333 49.65Z" fill="white"/>
</mask>
<g mask="url(#mask6_411_828)">
<mask id="mask7_411_828" style="mask-type:luminance" maskUnits="userSpaceOnUse" x="-3984" y="-3648" width="7658" height="7743">
<path d="M-3983.52 -3647.25H3673.55V4095H-3983.52V-3647.25Z" fill="url(#paint6_linear_411_828)"/>
</mask>
<g mask="url(#mask7_411_828)">
<path d="M49.2915 48.1949C49.5673 48.1718 49.7285 48.1649 49.7285 48.1649C49.725 48.1649 49.5647 48.1651 49.2915 48.1949ZM43.8323 49.6485C41.5023 51.0246 41.2442 54.4505 41.2442 54.4505C41.2442 54.4505 40.8747 57.847 42.9516 61.5723C47.1944 69.1802 55.416 71.266 55.416 71.266C55.416 71.266 56.0339 71.0595 57.9285 71.4102C59.4479 71.6912 61.6987 72.5605 61.6987 72.5605C61.6987 72.5605 59.9401 70.5369 56.6017 69.9829C54.0912 69.5654 53.4637 69.8815 49.1057 65.9423C46.6679 63.74 45.8024 60.3665 45.7759 60.2624C45.81 60.3349 46.4761 61.7519 47.4513 62.9997C48.6608 64.5465 50.956 66.3742 50.956 66.3742C50.956 66.3742 48.0391 63.0292 46.9364 60.2957C45.3006 56.2419 47.4693 54.0015 47.4693 54.0015C47.4693 54.0015 46.5093 54.4323 45.9754 55.7278C45.7874 56.1846 45.5038 57.3598 45.5038 57.3598C45.5038 57.3598 45.1334 55.983 45.8175 54.5681C46.4044 53.3547 47.7546 52.212 47.7546 52.212C47.7546 52.212 45.7618 52.1127 44.8992 53.3986C44.316 54.268 43.89 55.3228 43.89 55.3228C43.89 55.3228 42.3251 53.412 43.6452 51.5375C45.5278 48.8644 48.2421 48.31 49.2915 48.1949C48.2562 48.2821 45.6084 48.5997 43.8323 49.6485Z" fill="url(#paint7_linear_411_828)"/>
</g>
</g>
<path d="M91.6184 25.3651C91.3701 26.6372 91.2274 27.0542 91.3204 27.5243C91.4197 28.0264 91.6355 28.5782 92.8433 28.9471C94.0066 29.3015 94.4879 30.4759 94.5079 30.5708C94.4809 30.5162 94.2277 30.0705 93.0903 29.7882C91.4769 29.3887 90.8084 28.4366 90.8014 28.3916C90.7861 28.4674 90.4144 30.3325 89.8751 31.4469C89.3415 32.5448 88.2417 34.1252 88.2417 34.1252C88.2417 34.1252 92.905 33.5111 95.5082 34.571C98.2238 35.676 100.359 39.0906 100.359 39.0906C100.359 39.0906 97.4874 35.8918 94.3778 35.1734C88.4024 33.7944 85.641 36.902 85.5436 36.9837C85.702 36.9197 89.5655 35.3594 93.1078 37.0478C97.1005 38.9519 93.9005 44.2018 93.7738 44.4069C93.8641 44.2089 96.3665 38.6685 91.6844 37.5504C87.4221 36.5333 84.7557 40.735 84.7557 40.735C84.8295 40.7434 86.2765 40.4825 89.2348 40.3959C93.836 40.262 91.8497 47.3591 91.8497 47.3591C91.8497 47.3591 92.0162 41.6682 89.9303 41.5342C87.5757 41.3824 86.7513 41.5673 86.7513 41.5673C86.7513 41.5673 88.5068 42.7921 88.7711 46.8233C89.2788 54.5674 83.6725 59.1425 83.6725 59.1425C83.6725 59.1425 87.1806 57.0242 88.9922 53.005C89.6663 51.5099 90.0533 50.4476 90.1436 49.9283C89.9911 51.7375 89.3662 53.8301 87.9767 56.1967C84.2022 62.6238 79.1531 63.9743 79.1531 63.9743C79.1531 63.9743 75.3516 65.9163 72.0519 66.4071C67.6056 67.0688 65.2311 70.4241 65.2311 70.4241C65.2311 70.4241 68.3689 68.7013 70.2744 68.201C71.9511 67.7611 72.4823 68.2924 72.4823 68.2924C72.4823 68.2924 69.9789 70.0375 68.5542 70.8378C67.4485 71.4579 64.2471 72.9581 64.2471 72.9581C64.2471 72.9581 67.5554 74.6846 69.6897 76.8428C73.9872 81.1881 74.5454 84.0186 74.5454 84.0186C74.5454 84.0186 75.2302 81.6007 77.2846 79.8642C79.7838 77.7514 81.5005 77.016 81.6155 76.9544C81.5721 76.9841 81.211 77.2615 80.6927 78.5585C80.1404 79.9422 80.2295 81.4158 80.2295 81.4158C80.2295 81.4158 81.1218 78.8408 82.1713 77.3978C83.2746 75.8802 85.3455 74.9175 85.3455 74.9175C85.3455 74.9175 86.2401 74.371 87.8547 73.3276C89.338 72.3672 90.4743 71.6168 90.4743 71.6168L86.8956 79.2272C86.9648 79.1904 89.168 77.9835 91.1544 75.1771C93.1137 72.41 92.3469 71.4176 95.569 68.8282C99.1372 65.9614 100.16 63.0922 100.16 63.0922C100.16 63.0922 100.977 63.7846 100.227 66.24C99.7563 67.7789 97.8204 71.3725 97.8204 71.3725C97.8204 71.3725 101.22 67.7789 102.765 64.3643C104.339 60.8857 104.637 56.563 104.637 56.563C104.637 56.563 105.157 57.1818 105.29 59.1014C105.378 60.3772 105.325 62.267 105.325 62.267C105.325 62.267 107.316 56.8866 106.434 52.8911C105.656 49.3675 106.034 48.9205 106.406 48.7427C106.778 48.5648 107.518 48.7759 108.261 49.6496C109.015 50.5353 109.894 52.3351 109.894 52.3351C109.894 52.3351 110.225 48.6977 109.033 45.819C107.675 42.5372 106.12 41.1547 106.12 41.1547C106.12 41.1547 105.899 39.1012 105.28 37.5398C103.998 34.2948 100.359 31.2905 100.359 31.2905C100.359 31.2905 101.285 30.7996 104.464 34.571C106.855 37.4082 108.796 38.0982 108.855 38.1183C108.806 38.0662 107.209 36.3921 105.943 34.9954C104.266 33.1423 101.142 28.2439 96.9156 26.0012C92.6891 23.7584 86.9611 23.7471 86.9611 23.7471C86.4966 25.4992 85.3941 26.905 83.6394 28.0432C85.5052 29.1758 88.142 28.177 91.6184 25.3651Z" fill="url(#paint8_linear_411_828)"/>
<path d="M82.4344 25.4514C81.7258 25.354 81.9723 24.4482 82.6131 23.1976C83.4199 21.6202 85.9939 18.4042 86.0335 18.3546C86.0157 18.4109 85.4232 20.2186 85.2814 21.2352C85.0905 22.6176 85.0263 23.3533 84.4565 24.2658C83.8877 25.1801 83.143 25.5499 82.4344 25.4514ZM76.3284 33.7149C75.6329 34.5069 75.1576 34.6865 74.9706 35.3113C74.7826 35.9362 74.6502 36.4598 74.4405 36.8057C74.2317 37.1524 73.7016 37.9111 73.7016 37.9111C73.7016 37.9111 74.5945 37.6435 74.9819 37.119C75.3675 36.5935 75.6773 36.1808 75.6773 36.1808C75.6773 36.1808 75.4997 37.9006 72.9834 38.6926C70.4662 39.4846 70.4889 39.5296 70.2791 39.9088C70.0702 40.2882 70.125 41.0028 69.5505 41.6276C68.9771 42.2525 67.7845 43.0675 67.7845 43.0675C67.7845 43.0675 67.7514 42.4427 68.0378 42.1187C68.325 41.7948 68.5575 41.5273 68.6454 41.2588C68.7342 40.9913 68.7559 40.4668 68.7559 40.4668C68.7559 40.4668 67.6078 41.0143 66.6591 40.8013C65.8134 40.6129 65.342 39.7522 65.3126 39.6987C65.3609 39.7464 66.6591 41.0353 68.6567 40.0818C70.693 39.111 71.0548 38.6334 71.7522 37.7047C72.3314 36.9337 72.7935 35.9286 73.094 35.4948C73.5569 34.8251 74.0049 34.4906 75.4119 33.4684C76.7715 32.4824 77.6683 30.9662 77.7279 30.8639C77.6863 30.9861 77.0011 32.9467 76.3284 33.7149ZM70.8206 34.5518C71.1956 33.6594 71.6256 33.3575 71.891 32.6658C72.1 32.1193 72.2993 30.7349 72.2993 30.7349C72.2993 30.7349 72.6745 31.9407 72.4543 32.7212C72.2331 33.5027 71.7805 34.0722 71.4716 34.6407C71.1759 35.1862 71.1408 36.2926 71.1408 36.2926C71.1408 36.2926 70.4454 35.4452 70.8206 34.5518ZM64.0843 48.8631C63.7838 48.4952 63.6817 48.1111 63.6817 48.1111L64.5624 47.9257C64.5624 47.9257 64.7759 48.2469 64.895 48.6499C65.0528 49.1745 65.1265 49.8137 65.1406 49.8547C65.1672 49.9312 64.5076 49.3818 64.0843 48.8631ZM86.8037 21.4491C87.5644 15.7234 89.7953 14.1325 91.3401 12.0402C93.0372 9.73953 92.0706 5.19555 91.8949 4.44561C92.0006 4.96908 92.355 7.351 90.7779 10.3328C90.0145 11.7755 87.7637 13.5135 86.2736 14.9857C84.7835 16.46 84.088 18.4348 83.5579 19.2059C83.0278 19.975 81.5717 21.4816 80.2469 23.123C78.9222 24.7635 78.326 25.8689 77.0683 27.71C75.8096 29.5511 74.4187 29.6189 74.4187 29.6189C74.4187 29.6189 76.0081 28.0789 76.6034 27.3078C77.2006 26.5387 77.4651 25.2651 78.0613 24.1607C78.6566 23.0562 80.6769 21.2141 80.6769 21.2141C83.7563 17.9332 83.128 11.4039 83.128 11.4039C82.0839 2.63701 77.3943 0.0764694 77.2468 3.05176e-05C77.3735 0.109901 81.4442 3.69944 81.704 10.5116C81.8835 15.2045 80.777 16.6491 79.6507 18.28C78.5244 19.9091 76.6261 20.9801 74.7722 22.9435C72.9172 24.9087 72.3871 26.918 72.3871 26.918C72.1444 24.1272 73.1572 22.655 74.2685 20.3103C75.6263 17.4469 75.6263 15.0536 75.6263 15.0536C76.0185 10.4962 73.4975 8.33226 73.2187 8.11051C73.4729 8.35612 75.6301 10.5708 74.8818 14.9533C74.5529 16.8803 73.6893 18.4692 71.4385 21.0135C69.1859 23.5578 68.2598 23.8263 66.5694 27.0403C64.8477 30.3174 65.3996 33.84 65.4412 34.0913C65.4166 34.0101 65.289 33.5581 65.0812 32.833C64.8487 32.0295 65.0141 30.6565 65.0141 30.6565C65.0141 30.6565 64.3857 32.3648 65.0472 34.9751C65.3958 36.3527 64.4179 36.7168 64.1863 37.5872C63.9539 38.4576 65.0141 39.7312 65.2786 40.3331C65.5441 40.9359 64.6493 43.7821 64.6493 43.7821C64.1532 45.9577 62.4307 47.9 62.4307 47.9C62.4307 47.9 62.8946 49.1392 63.5901 49.8767C64.2855 50.6125 65.7757 52.0847 65.7757 52.0847L65.9297 51.6614L67.9055 49.4851C67.9055 49.4851 68.1701 49.7306 68.7446 50.1328C69.3181 50.5341 70.2461 50.4337 70.2461 50.4337C70.2461 50.4337 69.9588 50.1997 69.6933 50.0096C69.4296 49.8194 69.2199 49.4297 69.0753 49.2175C68.9325 49.0045 68.6123 48.7484 68.6123 48.7484L70.1798 46.9455C70.1798 46.9455 70.4615 47.364 71.0577 47.4977C71.6048 47.6211 72.2993 47.0793 72.2993 47.0793C72.2993 47.0793 71.8362 46.9961 71.4215 46.8624C71.0076 46.7286 71.1569 46.2768 71.1569 46.2768C71.1569 46.2768 71.687 45.6567 72.1501 44.9372C72.613 44.2178 73.3264 42.8946 73.7564 42.2076C74.1873 41.5215 75.031 41.2034 76.3558 40.3331C77.6796 39.4626 78.2816 37.5212 78.2816 37.5212L78.2825 37.5231C78.2957 37.5824 78.6284 39.0652 78.2447 40.7124C77.8535 42.3929 76.284 42.5706 75.0783 44.1576C73.9028 45.7054 73.9226 46.5758 73.9226 46.5758C73.9226 46.5758 74.2997 46.3532 74.6361 46.1621C75.0584 45.9222 75.7388 46.0388 75.7388 46.0388C75.7388 46.0388 75.065 46.3436 74.7475 46.6532C74.4291 46.9636 74.0144 47.9162 73.2726 49.6532C72.5298 51.3882 70.883 52.9026 70.6486 52.9877C70.4142 53.0735 68.9903 52.1736 68.9903 52.1736L68.7503 52.2949C68.7503 52.2949 69.7377 53.9803 70.0646 54.3778C70.3915 54.7762 70.6146 54.6004 71.2051 54.5153C71.7948 54.4284 71.9194 54.6261 72.5346 54.8306C73.1498 55.0331 73.4681 55.0036 73.4681 55.0036C73.8962 55.1565 74.363 55.4536 74.3922 55.4707L73.8575 54.7408C73.8575 54.7408 74.21 54.6186 74.5463 54.4627C74.8629 54.3175 75.1491 53.8398 75.1831 53.7815C75.1558 53.8016 75.0131 53.9087 74.6171 53.9583C74.174 54.0146 74.0162 53.8828 74.0162 53.8828C74.0162 53.8828 76.1952 51.5994 77.3016 50.5646C78.3817 49.5557 79.4778 49.8299 79.5288 49.8433C79.4929 49.8213 78.9109 49.4774 78.1577 49.3942C77.3782 49.3063 76.7981 49.8701 75.9277 50.5197C75.0566 51.1704 74.621 50.7519 74.621 50.7519C74.621 50.7519 75.6424 49.7114 76.317 48.2764C77.347 46.0875 78.41 43.784 81.0549 43.3378C84.5765 42.7445 86.4446 41.0993 86.4446 41.0993C86.4446 41.0993 85.0736 41.3458 83.4558 41.45C82.7301 41.4967 81.3071 41.4719 81.3071 41.4719C81.3071 41.4719 83.2272 40.8013 83.7233 40.4668C84.2203 40.1314 85.0159 39.2286 85.6112 38.5913C86.1914 37.9712 87.5917 37.0961 87.6617 37.0531C87.6125 37.0617 86.8017 37.2318 85.7114 37.6206C84.5841 38.0229 83.3594 38.2244 83.3594 38.2244L86.7044 34.8758C89.3436 31.9751 90.862 26.8033 90.9094 26.6419C90.8659 26.7259 89.1348 28.077 87.4462 28.7801C85.2398 29.6983 82.2672 28.1448 82.2672 28.1448C82.2672 28.1448 83.2348 27.9031 84.4858 26.638C85.8767 25.2317 86.576 23.1575 86.8037 21.4491Z" fill="url(#paint9_linear_411_828)"/>
<path d="M92.8691 104.647C94.6827 105.147 95.3917 105.798 95.3917 105.798C95.3917 105.798 93.0925 105.987 92.2537 105.925C91.4149 105.863 90.6917 105.663 89.5993 106.083C88.5068 106.503 85.349 107.507 82.3033 107.44C73.2318 107.239 68.9941 104.521 68.9941 104.521C68.9941 104.521 70.8297 103.366 72.1424 101.5C73.8499 99.0718 74.0099 97.723 74.0099 97.723C74.0099 97.723 74.6912 102.809 82.9655 103.088C90.9114 103.356 87.5175 95.1484 87.5175 95.1484C87.5175 95.1484 88.4142 95.8719 88.9518 96.9427C89.4895 98.0137 89.6302 99.0142 89.6302 99.0142C89.6302 99.0142 90.0291 94.0909 91.0812 91.2666C92.8886 86.4148 96.3243 84.5674 96.3243 84.5674C96.3243 84.5674 95.3537 85.6418 95.0853 87.1619C94.8038 88.7569 95.1008 89.4951 95.1008 89.4951C95.1008 89.4951 97.1245 87.1746 98.9732 86.2665C102.452 84.5579 103.424 85.0933 107.062 83.1941C111.505 80.8745 112.637 77.2124 112.637 77.2124C112.637 77.2124 111.77 81.0621 108.791 83.8994C106.313 86.2601 102.661 88.3277 100.371 90.7793C97.6787 93.6624 96.4033 99.2706 96.4033 99.2706C96.4033 99.2706 98.0319 98.9637 99.8765 96.0732C101.884 92.9275 103.207 92.4829 104.496 91.8453C105.785 91.2077 111.228 89.7146 111.228 89.7146C111.228 89.7146 105.974 91.581 104.16 92.9568C102.506 94.2108 101.442 97.9448 98.2443 101.254C95.7014 103.885 92.8691 104.647 92.8691 104.647Z" fill="url(#paint10_linear_411_828)"/>
<mask id="mask8_411_828" style="mask-type:luminance" maskUnits="userSpaceOnUse" x="79" y="23" width="30" height="41">
<path d="M83.6401 28.0441C85.5052 29.1762 88.1425 28.1778 91.6188 25.366C91.3702 26.6378 91.2275 27.0553 91.3211 27.5254C91.4204 28.0269 91.6359 28.5793 92.8433 28.948C94.0065 29.3024 94.4885 30.4766 94.5084 30.5712C94.4808 30.5168 94.2276 30.0716 93.0909 29.7888C91.4771 29.3894 90.809 28.4379 90.8015 28.393C90.7862 28.4683 90.4149 30.3333 89.8753 31.4473C89.3415 32.5462 88.2417 34.1263 88.2417 34.1263C88.2417 34.1263 92.9058 33.5121 95.509 34.5717C98.1821 35.6598 100.292 38.9857 100.357 39.0887C100.258 38.98 97.4328 35.8805 94.3778 35.1745C88.4022 33.7949 85.6413 36.9029 85.544 36.985C85.7027 36.921 89.5655 35.3608 93.1079 37.049C97.0719 38.9397 93.9471 44.1267 93.7771 44.4019C93.9055 44.12 96.3292 38.6599 91.6848 37.5515C87.4224 36.5339 84.7559 40.7359 84.7559 40.7359C84.8296 40.7445 86.2772 40.4837 89.2357 40.3967C93.8365 40.263 91.8503 47.3598 91.8503 47.3598C91.8503 47.3598 92.0166 41.6694 89.9302 41.5348C87.5764 41.3828 86.7515 41.5681 86.7515 41.5681C86.7515 41.5681 88.5071 42.7931 88.7718 46.8239C89.2716 54.4529 83.8394 59.0055 83.6769 59.1402C83.8062 59.0618 87.2155 56.9485 88.9928 53.0055C89.6665 51.5113 90.054 50.4488 90.1438 49.9289C89.9917 51.7386 89.3669 53.8309 87.977 56.1975C84.2664 62.5147 79.3254 63.9268 79.1582 63.9736C79.4776 63.9183 96.83 60.8333 101.432 47.2232C105.221 36.0199 100.808 31.6958 100.391 31.3183C100.39 31.3183 100.389 31.3174 100.389 31.3164C100.384 31.3127 100.38 31.3088 100.376 31.3059C100.365 31.2964 100.359 31.2915 100.359 31.2915C100.359 31.2915 101.286 30.8007 104.465 34.5717C106.855 37.4092 108.796 38.099 108.856 38.1191C108.807 38.0675 107.21 36.3925 105.944 34.9967C104.266 33.1432 101.143 28.2448 96.916 26.0024C92.6894 23.7591 86.9613 23.7476 86.9613 23.7476C86.4973 25.4999 85.3946 26.9063 83.6401 28.0441Z" fill="white"/>
</mask>
<g mask="url(#mask8_411_828)">
<mask id="mask9_411_828" style="mask-type:luminance" maskUnits="userSpaceOnUse" x="-4148" y="-3737" width="7658" height="7744">
<path d="M-4147.79 -3736.06H3509.28V4006.19H-4147.79V-3736.06Z" fill="url(#paint11_linear_411_828)"/>
</mask>
<g mask="url(#mask9_411_828)">
<path d="M83.642 28.0461C85.5071 29.1782 88.1444 28.1798 91.6208 25.368C91.3721 26.6397 91.2295 27.0572 91.323 27.5273C91.4224 28.0288 91.6378 28.5812 92.8452 28.9499C94.0085 29.3044 94.4905 30.4785 94.5103 30.5732C94.4827 30.5187 94.2295 30.0736 93.0928 29.7907C91.479 29.3913 90.8109 28.4398 90.8035 28.3949C90.7882 28.4703 90.4168 30.3352 89.8773 31.4493C89.3434 32.5481 88.2436 34.1282 88.2436 34.1282C88.2436 34.1282 92.9077 33.514 95.5109 34.5736C98.1841 35.6618 100.294 38.9876 100.359 39.0907C100.26 38.982 97.4348 35.8825 94.3798 35.1765C88.4041 33.7968 85.6432 36.9048 85.5459 36.9869C85.7047 36.9229 89.5674 35.3628 93.1099 37.051C97.0739 38.9417 93.949 44.1287 93.779 44.4038C93.9074 44.122 96.3311 38.6618 91.6868 37.5534C87.4244 36.5359 84.7578 40.7379 84.7578 40.7379C84.8316 40.7465 86.2792 40.4856 89.2377 40.3987C93.8385 40.2649 91.8522 47.3618 91.8522 47.3618C91.8522 47.3618 92.0186 41.6714 89.9322 41.5367C87.5783 41.3848 86.7534 41.57 86.7534 41.57C86.7534 41.57 88.5091 42.795 88.7737 46.8258C89.2736 54.4549 83.8413 59.0075 83.6788 59.1422C83.8082 59.0637 87.2174 56.9504 88.9948 53.0074C89.6685 51.5132 90.0559 50.4508 90.1458 49.9309C89.9937 51.7405 89.3689 53.8329 87.979 56.1994C84.2684 62.5167 79.3274 63.9288 79.1602 63.9756C79.4796 63.9203 96.8319 60.8352 101.434 47.2251C105.223 36.0219 100.81 31.6977 100.393 31.3203C100.392 31.3203 100.391 31.3193 100.39 31.3184C100.386 31.3146 100.382 31.3107 100.378 31.3079C100.367 31.2983 100.361 31.2935 100.361 31.2935C100.361 31.2935 101.288 30.8026 104.467 34.5736C106.857 37.4112 108.798 38.101 108.858 38.1211C108.809 38.0695 107.212 36.3945 105.946 34.9987C104.268 33.1452 101.144 28.2468 96.9179 26.0044C92.6914 23.761 86.9633 23.7496 86.9633 23.7496C86.4992 25.5018 85.3966 26.9083 83.642 28.0461Z" fill="url(#paint12_linear_411_828)"/>
</g>
</g>
<mask id="mask10_411_828" style="mask-type:luminance" maskUnits="userSpaceOnUse" x="64" y="31" width="46" height="54">
<path d="M101.432 47.2228C96.8304 60.8329 79.4781 63.918 79.1586 63.9733C79.1558 63.9743 79.154 63.9743 79.154 63.9743C79.154 63.9743 75.3526 65.9167 72.0529 66.4078C67.6063 67.0689 65.2316 70.4244 65.2316 70.4244C65.2316 70.4244 68.3698 68.7017 70.2756 68.201C71.9519 67.7616 72.4829 68.2928 72.4829 68.2928C72.4829 68.2928 69.9797 70.0383 68.5549 70.838C67.4493 71.4581 64.248 72.9591 64.248 72.9591C64.248 72.9591 67.5561 74.6855 69.6907 76.8428C73.9881 81.1882 74.5465 84.019 74.5465 84.019C74.5465 84.019 75.2306 81.6009 77.2858 79.8649C79.7851 77.7514 81.501 77.0167 81.6164 76.9546C81.573 76.9842 81.2121 77.2622 80.6932 78.5589C80.1414 79.9423 80.2303 81.4166 80.2303 81.4166C80.2303 81.4166 81.1231 78.8415 82.1719 77.3979C83.2756 75.8808 85.3459 74.9177 85.3459 74.9177C85.3459 74.9177 86.2407 74.3712 87.8557 73.3278C89.3391 72.3677 90.475 71.6176 90.475 71.6176L86.8966 79.2276C86.9655 79.1913 89.1691 77.9837 91.1552 75.1776C93.115 72.4107 92.3477 71.418 95.5699 68.8288C99.1379 65.9616 100.16 63.0925 100.16 63.0925C100.16 63.0925 100.977 63.7851 100.227 66.2405C99.7567 67.7796 97.8217 71.3731 97.8217 71.3731C97.8217 71.3731 101.22 67.7796 102.766 64.3651C104.34 60.8863 104.637 56.5632 104.637 56.5632C104.637 56.5632 105.158 57.1822 105.29 59.1017C105.379 60.3772 105.326 62.268 105.326 62.268C105.326 62.268 107.317 56.887 106.435 52.8915C105.657 49.3678 106.035 48.9207 106.407 48.7431C106.778 48.5653 107.518 48.7765 108.262 49.6498C109.016 50.5355 109.896 52.3354 109.896 52.3354C109.896 52.3354 110.226 48.6982 109.033 45.8195C107.675 42.5376 106.121 41.1551 106.121 41.1551C106.121 41.1551 105.901 39.1018 105.281 37.5407C104.068 34.4737 100.752 31.622 100.392 31.318C100.809 31.6955 105.221 36.0196 101.432 47.2228Z" fill="white"/>
</mask>
<g mask="url(#mask10_411_828)">
<mask id="mask11_411_828" style="mask-type:luminance" maskUnits="userSpaceOnUse" x="-4148" y="-3737" width="7658" height="7744">
<path d="M-4147.8 -3736.06H3509.28V4006.19H-4147.8V-3736.06Z" fill="url(#paint13_linear_411_828)"/>
</mask>
<g mask="url(#mask11_411_828)">
<path d="M101.432 47.2253C96.8304 60.8354 79.4781 63.9205 79.1586 63.9758C79.1558 63.9767 79.154 63.9767 79.154 63.9767C79.154 63.9767 75.3526 65.9191 72.0529 66.4103C67.6063 67.0714 65.2316 70.4269 65.2316 70.4269C65.2316 70.4269 68.3698 68.7042 70.2756 68.2035C71.9519 67.764 72.4829 68.2953 72.4829 68.2953C72.4829 68.2953 69.9797 70.0408 68.5549 70.8405C67.4493 71.4606 64.248 72.9615 64.248 72.9615C64.248 72.9615 67.5561 74.6879 69.6907 76.8452C73.9881 81.1906 74.5465 84.0215 74.5465 84.0215C74.5465 84.0215 75.2306 81.6033 77.2858 79.8674C79.7851 77.7539 81.501 77.0191 81.6164 76.957C81.573 76.9867 81.2121 77.2646 80.6932 78.5613C80.1414 79.9447 80.2303 81.419 80.2303 81.419C80.2303 81.419 81.1231 78.8439 82.1719 77.4004C83.2756 75.8832 85.3459 74.9202 85.3459 74.9202C85.3459 74.9202 86.2407 74.3737 87.8557 73.3303C89.3391 72.3701 90.475 71.6201 90.475 71.6201L86.8966 79.23C86.9655 79.1937 89.1691 77.9861 91.1552 75.1801C93.115 72.4131 92.3477 71.4204 95.5699 68.8313C99.1379 65.964 100.16 63.0949 100.16 63.0949C100.16 63.0949 100.977 63.7876 100.227 66.243C99.7567 67.7821 97.8217 71.3755 97.8217 71.3755C97.8217 71.3755 101.22 67.7821 102.766 64.3675C104.34 60.8888 104.637 56.5656 104.637 56.5656C104.637 56.5656 105.158 57.1846 105.29 59.1042C105.379 60.3796 105.326 62.2704 105.326 62.2704C105.326 62.2704 107.317 56.8894 106.435 52.894C105.657 49.3702 106.035 48.9232 106.407 48.7455C106.778 48.5677 107.518 48.7789 108.262 49.6522C109.016 50.5379 109.896 52.3379 109.896 52.3379C109.896 52.3379 110.226 48.7006 109.033 45.8219C107.675 42.54 106.121 41.1575 106.121 41.1575C106.121 41.1575 105.901 39.1043 105.281 37.5432C104.068 34.4762 100.752 31.6244 100.392 31.3205C100.809 31.6979 105.221 36.022 101.432 47.2253Z" fill="url(#paint14_linear_411_828)"/>
</g>
</g>
<mask id="mask12_411_828" style="mask-type:luminance" maskUnits="userSpaceOnUse" x="62" y="23" width="29" height="33">
<path d="M72.7565 27.9608C71.0558 29.0433 70.708 30.8204 70.708 30.8204C70.708 30.8204 70.3357 29.2945 70.8119 28.1575C72.0044 25.3124 70.6117 23.777 70.6117 23.777C70.6117 23.777 70.7552 25.021 69.9814 26.8277C69.3323 28.3458 68.7009 27.7343 68.2834 29.9854C68.0066 31.4766 67.5388 32.1179 67.5388 32.1179C67.5388 32.1179 67.0341 31.3736 67.0739 29.7952C67.1173 28.0602 67.9743 26.4225 68.0008 26.372C67.9621 26.4063 67.0436 27.2414 66.4598 29.1751C66.1215 30.2978 66.3445 30.7794 66.0864 32.3309C65.9324 33.2585 65.4402 34.0907 65.4402 34.0907C65.4155 34.0095 65.2879 33.5577 65.0802 32.8325C64.8477 32.0289 65.013 30.656 65.013 30.656C65.013 30.656 64.3847 32.3643 65.0462 34.9745C65.3948 36.3522 64.4168 36.7162 64.1853 37.5867C63.9528 38.457 65.013 39.7305 65.2777 40.3326C65.5431 40.9354 64.6484 43.7815 64.6484 43.7815C64.5208 44.3415 64.3109 44.8871 64.0711 45.3867C63.3794 46.8294 62.4297 47.8994 62.4297 47.8994C62.4297 47.8994 62.8937 49.1386 63.5891 49.8761C64.0955 50.4122 65.0225 51.3379 65.4903 51.8022C65.664 51.9753 65.7746 52.0842 65.7746 52.0842L65.9287 51.6609L67.9044 49.4846C67.9044 49.4846 68.1691 49.7301 68.7436 50.1323C69.317 50.5335 70.245 50.4332 70.245 50.4332C70.245 50.4332 69.9577 50.1992 69.6922 50.009C69.4286 49.8188 69.2188 49.4291 69.0744 49.217C68.9316 49.0039 68.6113 48.7479 68.6113 48.7479L70.1788 46.9451C70.1788 46.9451 70.4604 47.3634 71.0566 47.4972C71.6038 47.6205 72.2983 47.0787 72.2983 47.0787C72.2983 47.0787 71.8353 46.9956 71.4205 46.8619C71.0066 46.728 71.1559 46.2762 71.1559 46.2762C71.1559 46.2762 71.686 45.656 72.149 44.9367C72.6119 44.2173 73.3255 42.8941 73.7553 42.2071C74.1863 41.5211 75.03 41.2028 76.3549 40.3326C77.6785 39.4621 78.2805 37.5208 78.2805 37.5208L78.2817 37.5226C78.2948 37.5819 78.6275 39.0647 78.2438 40.7119C77.8526 42.3925 76.2831 42.5701 75.0774 44.1571C73.9019 45.7048 73.9218 46.5753 73.9218 46.5753C73.9218 46.5753 74.2987 46.3526 74.6352 46.1616C75.0576 45.9219 75.738 46.0382 75.738 46.0382C75.738 46.0382 75.0641 46.343 74.7467 46.6527C74.4282 46.9631 74.0134 47.9157 73.2717 49.6526C72.5291 51.3877 70.8821 52.902 70.6476 52.9872C70.4133 53.0731 68.9894 52.1731 68.9894 52.1731L68.7493 52.2944C68.7493 52.2944 69.7367 53.9798 70.0636 54.3773C70.3907 54.7756 70.6136 54.5998 71.2042 54.5148C71.7938 54.4279 71.9186 54.6256 72.5337 54.83C73.1488 55.0326 73.4673 55.0031 73.4673 55.0031C73.8953 55.1558 74.362 55.453 74.3914 55.4702L73.8565 54.7402C73.8565 54.7402 74.2091 54.6181 74.5455 54.4623C74.862 54.3169 75.1484 53.8393 75.1823 53.7811C75.1549 53.8011 75.0121 53.9082 74.6163 53.9578C74.1731 54.014 74.0153 53.8823 74.0153 53.8823C74.0153 53.8823 76.1942 51.5988 77.3008 50.5641C78.3809 49.5552 79.4769 49.8294 79.5279 49.8428C79.492 49.8208 78.91 49.4769 78.1569 49.3937C77.3772 49.3058 76.7971 49.8696 75.927 50.5191C75.0557 51.17 74.62 50.7514 74.62 50.7514C74.62 50.7514 75.6414 49.7109 76.3162 48.2759C77.3462 46.087 78.4092 43.7835 81.0539 43.3373C84.5757 42.7439 86.4437 41.0988 86.4437 41.0988C86.4437 41.0988 85.0727 41.3453 83.455 41.4495C82.7293 41.4963 81.3063 41.4714 81.3063 41.4714C81.3063 41.4714 83.2263 40.8007 83.7224 40.4663C84.2193 40.131 85.015 39.2281 85.6103 38.5907C86.1905 37.9709 87.5907 37.0956 87.6607 37.0527C87.6116 37.0612 86.8009 37.2313 85.7106 37.6201C84.5833 38.0223 83.3587 38.2238 83.3587 38.2238L86.7036 34.8751C89.3427 31.9745 90.8612 26.8029 90.9084 26.6414C90.8649 26.7253 89.1338 28.0765 87.4453 28.7796C85.239 29.6978 82.2664 28.1443 82.2664 28.1443C82.2664 28.1443 82.2675 28.1443 82.27 28.1433C82.0953 28.0286 79.8397 26.6452 77.1505 29.3165C75.6651 30.7936 73.1036 30.4583 73.1036 30.4583C73.1036 30.4583 73.2102 29.4446 74.5444 28.3382C76.3634 26.8306 75.4128 23.777 75.4128 23.777C75.4128 23.777 74.8287 26.6424 72.7565 27.9608ZM70.8196 34.5513C71.1948 33.6589 71.6247 33.3571 71.8902 32.6652C72.099 32.1187 72.2984 30.7344 72.2984 30.7344C72.2984 30.7344 72.6735 31.9401 72.4535 32.7208C72.2323 33.5021 71.7797 34.0717 71.4707 34.6402C71.1749 35.1857 71.14 36.292 71.14 36.292C71.14 36.292 70.4445 35.4446 70.8196 34.5513ZM68.6558 40.0813C70.692 39.1105 71.054 38.6328 71.7514 37.7041C72.3305 36.9331 72.7926 35.9281 73.093 35.4943C73.5561 34.8246 74.0039 34.4901 75.411 33.4679C76.7706 32.4818 77.6674 30.9657 77.727 30.8633C77.6854 30.9858 77.0003 32.9462 76.3275 33.7143C75.6321 34.5064 75.1568 34.686 74.9697 35.3108C74.7816 35.9357 74.6494 36.4593 74.4396 36.8052C74.2308 37.152 73.7007 37.9105 73.7007 37.9105C73.7007 37.9105 74.5936 37.6429 74.9809 37.1185C75.3665 36.593 75.6765 36.1802 75.6765 36.1802C75.6765 36.1802 75.4988 37.9 72.9825 38.6921C70.4653 39.4841 70.488 39.529 70.2783 39.9083C70.0694 40.2877 70.1242 41.0023 69.5497 41.627C68.9761 42.252 67.7837 43.0669 67.7837 43.0669C67.7837 43.0669 67.7506 42.4422 68.0369 42.1181C68.3241 41.7943 68.5566 41.5269 68.6444 41.2583C68.7332 40.9909 68.7549 40.4663 68.7549 40.4663C68.7549 40.4663 67.607 41.0137 66.6582 40.8006C65.8125 40.6126 65.3411 39.7517 65.3118 39.6981C65.3469 39.7331 66.0509 40.4317 67.2077 40.4318C67.6329 40.4318 68.119 40.3375 68.6558 40.0813ZM64.0834 48.8625C63.7829 48.4947 63.6809 48.1106 63.6809 48.1106L64.5614 47.9254C64.5614 47.9254 64.775 48.2462 64.8942 48.6495C65.0519 49.174 65.1257 49.8131 65.1398 49.8544C65.1414 49.8591 65.1409 49.8614 65.1368 49.8614C65.084 49.8614 64.48 49.3486 64.0834 48.8625Z" fill="white"/>
</mask>
<g mask="url(#mask12_411_828)">
<mask id="mask13_411_828" style="mask-type:luminance" maskUnits="userSpaceOnUse" x="-4148" y="-3737" width="7658" height="7744">
<path d="M-4147.8 -3736.06H3509.28V4006.18H-4147.8V-3736.06Z" fill="url(#paint15_linear_411_828)"/>
</mask>
<g mask="url(#mask13_411_828)">
<path d="M72.7556 27.9613C71.0549 29.0438 70.707 30.8209 70.707 30.8209C70.707 30.8209 70.3348 29.295 70.8109 28.158C72.0035 25.3129 70.6108 23.7775 70.6108 23.7775C70.6108 23.7775 70.7542 25.0215 69.9804 26.8282C69.3314 28.3463 68.7 27.7348 68.2824 29.9859C68.0056 31.4771 67.5379 32.1184 67.5379 32.1184C67.5379 32.1184 67.0331 31.3741 67.073 29.7957C67.1163 28.0607 67.9733 26.423 67.9999 26.3725C67.9611 26.4068 67.0426 27.2418 66.4588 29.1755C66.1205 30.2983 66.3435 30.7799 66.0855 32.3314C65.9315 33.259 65.4392 34.0912 65.4392 34.0912C65.4146 34.01 65.287 33.5582 65.0792 32.833C64.8467 32.0294 65.012 30.6565 65.012 30.6565C65.012 30.6565 64.3837 32.3648 65.0452 34.975C65.3939 36.3527 64.4158 36.7167 64.1844 37.5872C63.9518 38.4575 65.012 39.731 65.2767 40.3331C65.5421 40.9359 64.6474 43.782 64.6474 43.782C64.5198 44.342 64.31 44.8876 64.0701 45.3872C63.3784 46.8299 62.4287 47.8999 62.4287 47.8999C62.4287 47.8999 62.8927 49.139 63.5881 49.8766C64.0945 50.4127 65.0215 51.3384 65.4893 51.8027C65.6631 51.9758 65.7736 52.0847 65.7736 52.0847L65.9277 51.6614L67.9035 49.4851C67.9035 49.4851 68.1681 49.7306 68.7426 50.1328C69.3161 50.534 70.244 50.4337 70.244 50.4337C70.244 50.4337 69.9567 50.1997 69.6912 50.0095C69.4276 49.8193 69.2178 49.4295 69.0734 49.2175C68.9306 49.0044 68.6103 48.7484 68.6103 48.7484L70.1779 46.9456C70.1779 46.9456 70.4594 47.3639 71.0557 47.4977C71.6028 47.621 72.2973 47.0792 72.2973 47.0792C72.2973 47.0792 71.8343 46.9961 71.4195 46.8624C71.0057 46.7285 71.1549 46.2766 71.1549 46.2766C71.1549 46.2766 71.685 45.6565 72.148 44.9372C72.6109 44.2178 73.3245 42.8946 73.7543 42.2076C74.1853 41.5216 75.029 41.2033 76.3539 40.3331C77.6776 39.4626 78.2795 37.5212 78.2795 37.5212L78.2807 37.5231C78.2938 37.5824 78.6265 39.0652 78.2428 40.7124C77.8517 42.3929 76.2821 42.5706 75.0765 44.1576C73.901 45.7053 73.9208 46.5758 73.9208 46.5758C73.9208 46.5758 74.2977 46.3531 74.6342 46.1621C75.0566 45.9223 75.737 46.0387 75.737 46.0387C75.737 46.0387 75.0631 46.3435 74.7457 46.6532C74.4272 46.9636 74.0124 47.9162 73.2707 49.6531C72.5281 51.3882 70.8811 52.9025 70.6466 52.9877C70.4123 53.0735 68.9884 52.1736 68.9884 52.1736L68.7483 52.2949C68.7483 52.2949 69.7357 53.9803 70.0626 54.3778C70.3897 54.776 70.6126 54.6003 71.2033 54.5153C71.7928 54.4284 71.9176 54.6261 72.5328 54.8305C73.1478 55.0331 73.4663 55.0036 73.4663 55.0036C73.8943 55.1563 74.3611 55.4535 74.3904 55.4707L73.8555 54.7407C73.8555 54.7407 74.2081 54.6186 74.5445 54.4627C74.861 54.3174 75.1474 53.8398 75.1813 53.7816C75.1539 53.8016 75.0112 53.9087 74.6153 53.9583C74.1721 54.0145 74.0143 53.8828 74.0143 53.8828C74.0143 53.8828 76.1932 51.5993 77.2998 50.5646C78.3799 49.5557 79.476 49.8299 79.5269 49.8433C79.491 49.8213 78.909 49.4774 78.1559 49.3942C77.3762 49.3063 76.7961 49.8701 75.926 50.5196C75.0547 51.1704 74.619 50.7519 74.619 50.7519C74.619 50.7519 75.6405 49.7114 76.3152 48.2764C77.3453 46.0875 78.4083 43.784 81.0529 43.3378C84.5747 42.7444 86.4427 41.0993 86.4427 41.0993C86.4427 41.0993 85.0717 41.3458 83.454 41.45C82.7283 41.4967 81.3053 41.4719 81.3053 41.4719C81.3053 41.4719 83.2253 40.8011 83.7214 40.4668C84.2183 40.1315 85.014 39.2286 85.6093 38.5912C86.1895 37.9713 87.5898 37.0961 87.6597 37.0532C87.6107 37.0617 86.7999 37.2318 85.7096 37.6206C84.5823 38.0227 83.3577 38.2243 83.3577 38.2243L86.7026 34.8756C89.3417 31.975 90.8602 26.8034 90.9074 26.6419C90.8639 26.7258 89.1329 28.077 87.4443 28.7801C85.238 29.6983 82.2654 28.1448 82.2654 28.1448C82.2654 28.1448 82.2666 28.1448 82.269 28.1438C82.0943 28.0291 79.8387 26.6457 77.1495 29.317C75.6642 30.794 73.1026 30.4588 73.1026 30.4588C73.1026 30.4588 73.2093 29.4451 74.5435 28.3386C76.3624 26.8311 75.4118 23.7775 75.4118 23.7775C75.4118 23.7775 74.8277 26.6429 72.7556 27.9613ZM70.8186 34.5518C71.1938 33.6594 71.6237 33.3575 71.8892 32.6657C72.098 32.1192 72.2975 30.7349 72.2975 30.7349C72.2975 30.7349 72.6725 31.9406 72.4525 32.7212C72.2313 33.5026 71.7787 34.0722 71.4698 34.6407C71.1739 35.1862 71.139 36.2925 71.139 36.2925C71.139 36.2925 70.4436 35.4451 70.8186 34.5518ZM68.6549 40.0818C70.691 39.111 71.053 38.6333 71.7504 37.7046C72.3296 36.9336 72.7917 35.9286 73.0921 35.4948C73.5551 34.8251 74.0029 34.4906 75.41 33.4684C76.7696 32.4823 77.6665 30.9662 77.726 30.8638C77.6844 30.9863 76.9993 32.9467 76.3265 33.7148C75.6311 34.5069 75.1558 34.6865 74.9687 35.3113C74.7806 35.9362 74.6484 36.4598 74.4386 36.8057C74.2299 37.1525 73.6998 37.911 73.6998 37.911C73.6998 37.911 74.5926 37.6434 74.98 37.119C75.3655 36.5935 75.6755 36.1807 75.6755 36.1807C75.6755 36.1807 75.4978 37.9005 72.9815 38.6926C70.4644 39.4846 70.487 39.5295 70.2773 39.9088C70.0684 40.2882 70.1232 41.0028 69.5487 41.6275C68.9751 42.2525 67.7828 43.0674 67.7828 43.0674C67.7828 43.0674 67.7496 42.4427 68.036 42.1186C68.3231 41.7948 68.5557 41.5273 68.6434 41.2588C68.7322 40.9913 68.7539 40.4668 68.7539 40.4668C68.7539 40.4668 67.606 41.0141 66.6572 40.8011C65.8116 40.6131 65.3401 39.7522 65.3108 39.6985C65.346 39.7336 66.0499 40.4322 67.2068 40.4323C67.6319 40.4323 68.118 40.338 68.6549 40.0818ZM64.0825 48.8629C63.782 48.4952 63.6799 48.1111 63.6799 48.1111L64.5605 47.9259C64.5605 47.9259 64.774 48.2467 64.8932 48.6499C65.0509 49.1745 65.1247 49.8136 65.1388 49.8548C65.1404 49.8596 65.14 49.8619 65.1359 49.8619C65.0831 49.8619 64.479 49.3491 64.0825 48.8629Z" fill="url(#paint16_linear_411_828)"/>
</g>
</g>
<mask id="mask14_411_828" style="mask-type:luminance" maskUnits="userSpaceOnUse" x="65" y="0" width="28" height="35">
<path d="M81.7017 10.5122C81.8812 15.2051 80.7748 16.6497 79.6485 18.2807C78.5221 19.9096 76.6238 20.9807 74.7699 22.9441C72.915 24.9093 72.3849 26.9186 72.3849 26.9186C72.1422 24.1277 73.155 22.6555 74.2663 20.3109C75.6241 17.4474 75.6241 15.0542 75.6241 15.0542C76.0163 10.4967 73.4953 8.33287 73.2165 8.11112C73.4707 8.35661 75.6278 10.5714 74.8796 14.9539C74.5508 16.8809 73.6871 18.4698 71.4362 21.014C69.1835 23.5583 68.2576 23.8268 66.5672 27.0409C64.8455 30.318 65.3974 33.8405 65.439 34.0918C65.439 34.0918 65.9312 33.2596 66.0852 32.332C66.3433 30.7805 66.1202 30.2989 66.4586 29.1761C67.0423 27.2424 67.9608 26.4074 67.9996 26.3731C67.9731 26.4236 67.1161 28.0613 67.0727 29.7963C67.0329 31.3747 67.5376 32.119 67.5376 32.119C67.5376 32.119 68.0053 31.4777 68.2821 29.9865C68.6997 27.7354 69.3311 28.3469 69.9802 26.8288C70.754 25.0221 70.6105 23.7781 70.6105 23.7781C70.6105 23.7781 72.0032 25.3135 70.8106 28.1586C70.3345 29.2956 70.7068 30.8215 70.7068 30.8215C70.7068 30.8215 71.0546 29.0444 72.7553 27.9619C74.8275 26.6435 75.4114 23.7781 75.4114 23.7781C75.4114 23.7781 76.362 26.8317 74.5431 28.3393C73.2089 29.4457 73.1022 30.4594 73.1022 30.4594C73.1022 30.4594 75.6638 30.7947 77.1492 29.3176C79.8384 26.6463 82.094 28.0297 82.2686 28.1444C82.332 28.1272 83.276 27.8597 84.4835 26.6386C85.8745 25.2322 86.5738 23.158 86.8015 21.4497C87.562 15.7239 89.793 14.1332 91.3379 12.0407C93.035 9.74015 92.0684 5.19616 91.8926 4.4461C91.9986 4.96969 92.3528 7.35149 90.7757 10.3334C90.0122 11.7762 87.7615 13.5141 86.2714 14.9863C84.7812 16.4606 84.0858 18.4353 83.5556 19.2064C83.0256 19.9756 81.5696 21.4822 80.2447 23.1236C78.9199 24.7641 78.3237 25.8696 77.066 27.7106C75.8074 29.5518 74.4165 29.6195 74.4165 29.6195C74.4165 29.6195 76.0058 28.0793 76.6012 27.3084C77.1984 26.5393 77.4629 25.2657 78.0593 24.1613C78.6544 23.0568 80.6747 21.2148 80.6747 21.2148C83.7541 17.9338 83.1257 11.4045 83.1257 11.4045C82.0816 2.63751 77.3921 0.0769577 77.2447 0.000522614C77.3713 0.11039 81.442 3.69992 81.7017 10.5122ZM82.4322 25.452C81.7235 25.3546 81.9701 24.4488 82.6109 23.1982C83.4176 21.6208 85.9917 18.4048 86.0313 18.3551C86.0134 18.4115 85.4208 20.2192 85.2792 21.2357C85.0883 22.6181 85.0242 23.3539 84.4543 24.2663C83.9448 25.0853 83.2943 25.4674 82.6548 25.4674C82.5804 25.4674 82.5062 25.4623 82.4322 25.452Z" fill="white"/>
</mask>
<g mask="url(#mask14_411_828)">
<mask id="mask15_411_828" style="mask-type:luminance" maskUnits="userSpaceOnUse" x="-4148" y="-3737" width="7658" height="7744">
<path d="M-4147.8 -3736.06H3509.28V4006.19H-4147.8V-3736.06Z" fill="url(#paint17_linear_411_828)"/>
</mask>
<g mask="url(#mask15_411_828)">
<path d="M81.7037 10.5141C81.8832 15.2071 80.7768 16.6517 79.6505 18.2826C78.524 19.9115 76.6257 20.9827 74.7718 22.946C72.917 24.9113 72.3869 26.9206 72.3869 26.9206C72.1441 24.1297 73.157 22.6574 74.2682 20.3128C75.626 17.4494 75.626 15.0561 75.626 15.0561C76.0183 10.4987 73.4972 8.33482 73.2184 8.11307C73.4727 8.35857 75.6298 10.5733 74.8815 14.9558C74.5527 16.8829 73.6891 18.4717 71.4382 21.016C69.1855 23.5602 68.2596 23.8288 66.5691 27.0429C64.8475 30.3199 65.3993 33.8425 65.4409 34.0938C65.4409 34.0938 65.9332 33.2616 66.0872 32.334C66.3453 30.7824 66.1222 30.3009 66.4605 29.1781C67.0443 27.2444 67.9628 26.4094 68.0016 26.375C67.975 26.4256 67.118 28.0632 67.0747 29.7982C67.0348 31.3767 67.5396 32.1209 67.5396 32.1209C67.5396 32.1209 68.0073 31.4797 68.2841 29.9884C68.7017 27.7374 69.3331 28.3489 69.9821 26.8308C70.7559 25.0241 70.6125 23.7801 70.6125 23.7801C70.6125 23.7801 72.0052 25.3154 70.8126 28.1606C70.3365 29.2975 70.7087 30.8234 70.7087 30.8234C70.7087 30.8234 71.0566 29.0464 72.7573 27.9639C74.8294 26.6454 75.4134 23.7801 75.4134 23.7801C75.4134 23.7801 76.364 26.8336 74.545 28.3412C73.2108 29.4477 73.1042 30.4613 73.1042 30.4613C73.1042 30.4613 75.6658 30.7966 77.1511 29.3195C79.8403 26.6483 82.0959 28.0317 82.2706 28.1464C82.3339 28.1291 83.278 27.8617 84.4855 26.6406C85.8765 25.2341 86.5758 23.16 86.8035 21.4517C87.564 15.7258 89.7949 14.1351 91.3399 12.0426C93.037 9.7421 92.0704 5.19811 91.8945 4.44805C92.0005 4.97164 92.3548 7.35344 90.7777 10.3354C90.0141 11.7781 87.7634 13.5161 86.2734 14.9883C84.7832 16.4626 84.0878 18.4373 83.5576 19.2083C83.0276 19.9776 81.5715 21.4842 80.2467 23.1256C78.9219 24.7661 78.3256 25.8715 77.068 27.7126C75.8094 29.5538 74.4185 29.6215 74.4185 29.6215C74.4185 29.6215 76.0078 28.0813 76.6032 27.3103C77.2003 26.5412 77.4649 25.2677 78.0612 24.1632C78.6564 23.0587 80.6767 21.2167 80.6767 21.2167C83.7561 17.9358 83.1276 11.4064 83.1276 11.4064C82.0835 2.63946 77.3941 0.0789108 77.2466 0.00247574C77.3733 0.112343 81.4439 3.70187 81.7037 10.5141ZM82.4342 25.454C81.7254 25.3565 81.9721 24.4508 82.6128 23.2001C83.4196 21.6228 85.9937 18.4068 86.0333 18.357C86.0154 18.4135 85.4228 20.2212 85.2812 21.2376C85.0903 22.6201 85.0261 23.3559 84.4563 24.2682C83.9467 25.0873 83.2962 25.4694 82.6567 25.4694C82.5823 25.4694 82.5081 25.4643 82.4342 25.454Z" fill="url(#paint18_linear_411_828)"/>
</g>
</g>
<mask id="mask16_411_828" style="mask-type:luminance" maskUnits="userSpaceOnUse" x="68" y="95" width="22" height="12">
<path d="M82.9675 103.088C74.693 102.81 74.0117 97.723 74.0117 97.723C74.0117 97.723 73.8519 99.0719 72.1446 101.5C70.8312 103.367 68.9961 104.522 68.9961 104.522C68.9961 104.522 70.3672 105.401 73.218 106.196C73.218 106.196 73.2284 106.198 73.2492 106.203C73.2529 106.204 73.2577 106.205 73.2613 106.206C73.8029 106.328 79.3212 107.498 84.3631 105.223C89.7038 102.812 89.6321 99.0146 89.6321 99.0146C89.6321 99.0146 89.4912 98.0143 88.9535 96.9434C88.4281 95.8962 87.5589 95.1816 87.5201 95.1499C87.5674 95.2665 90.8557 103.354 82.9675 103.088Z" fill="white"/>
</mask>
<g mask="url(#mask16_411_828)">
<mask id="mask17_411_828" style="mask-type:luminance" maskUnits="userSpaceOnUse" x="-4148" y="-3737" width="7658" height="7744">
<path d="M-4147.8 -3736.06H3509.28V4006.19H-4147.8V-3736.06Z" fill="url(#paint19_linear_411_828)"/>
</mask>
<g mask="url(#mask17_411_828)">
<path d="M82.9675 103.091C74.693 102.812 74.0117 97.7254 74.0117 97.7254C74.0117 97.7254 73.8519 99.0743 72.1446 101.502C70.8312 103.369 68.9961 104.524 68.9961 104.524C68.9961 104.524 70.3672 105.403 73.218 106.198C73.218 106.198 73.2284 106.201 73.2492 106.206C73.2529 106.207 73.2577 106.208 73.2613 106.209C73.8029 106.331 79.3212 107.5 84.3631 105.225C89.7038 102.815 89.6321 99.017 89.6321 99.017C89.6321 99.017 89.4912 98.0167 88.9535 96.9458C88.4281 95.8986 87.5589 95.184 87.5201 95.1523C87.5674 95.2689 90.8557 103.357 82.9675 103.091Z" fill="url(#paint20_linear_411_828)"/>
</g>
</g>
<path d="M104.498 91.8438C105.756 91.2218 110.977 89.783 111.222 89.7161C110.985 89.8001 105.934 91.6126 104.162 92.9559C102.509 94.2094 101.444 97.9441 98.2461 101.253C95.7033 103.884 92.8714 104.646 92.8714 104.646C94.6847 105.146 95.3933 105.797 95.3933 105.797C95.3933 105.797 93.0944 105.986 92.2553 105.924C91.4172 105.862 90.6934 105.661 89.601 106.081C88.5088 106.502 85.3509 107.506 82.3054 107.438C78.419 107.352 75.4199 106.804 73.2617 106.205C73.8032 106.327 79.3214 107.496 84.3635 105.222C89.7041 102.811 89.6322 99.0133 89.6322 99.0133C89.6322 99.0133 90.031 94.09 91.0827 91.2657C92.8903 86.4132 96.326 84.5664 96.326 84.5664C96.326 84.5664 95.3556 85.6403 95.0872 87.1612C94.8056 88.7559 95.1023 89.4945 95.1023 89.4945C95.1023 89.4945 97.1263 87.1737 98.9755 86.2651C102.454 84.5568 103.426 85.0918 107.064 83.1934C111.438 80.91 112.604 77.3252 112.639 77.2144C112.612 77.3319 111.725 81.1048 108.793 83.8986C106.315 86.2593 102.663 88.3269 100.373 90.7785C97.6809 93.661 96.4054 99.2693 96.4054 99.2693C96.4054 99.2693 98.0334 98.9626 99.8788 96.0724C101.886 92.9263 103.209 92.482 104.498 91.8438Z" fill="url(#paint21_linear_411_828)"/>
<path d="M89.3096 44.9453C89.3096 44.9453 89.3107 44.9477 89.3119 44.9512C89.3119 44.95 89.3107 44.9488 89.3096 44.9477V44.9453Z" fill="url(#paint22_linear_411_828)"/>
<path d="M90.188 49.4559C90.188 49.4559 90.202 49.6005 90.1445 49.9277C90.1609 49.7499 90.1715 49.5745 90.1774 49.4013L90.188 49.4559Z" fill="url(#paint23_linear_411_828)"/>
<path d="M82.284 28.1499C82.284 28.1499 82.2805 28.1473 82.2734 28.1437" stroke="#00ABEC" stroke-width="0.182025" stroke-miterlimit="10"/>
<path d="M68.0057 26.3688L68.002 26.3726" stroke="#00ABEC" stroke-width="0.182025" stroke-miterlimit="10"/>
</g>
<path d="M6.65487 62.4694V78.6332H9.16153C12.208 78.6332 14.1749 77.8891 15.0622 76.4011C15.9495 74.9131 16.3932 73.1594 16.3932 71.1399V70.2201C16.3932 67.7101 15.8423 65.7929 14.7405 64.4684C13.6462 63.1357 11.7495 62.4694 9.05062 62.4694H6.65487ZM10.8585 62.0156C13.8754 62.0156 16.1935 62.9272 17.8129 64.7504C19.4396 66.5655 20.253 68.4868 20.253 70.5145V71.0541C20.253 73.327 19.3805 75.2442 17.6354 76.8058C15.8903 78.3593 13.8347 79.136 11.4686 79.136H0V78.6577C1.43449 78.6577 2.35878 78.3797 2.77286 77.8237C3.19434 77.2678 3.40507 76.3889 3.40507 75.187V65.9646C3.40507 64.7627 3.19434 63.8838 2.77286 63.3278C2.35878 62.7719 1.43449 62.4939 0 62.4939V62.0156H10.8585Z" fill="white"/>
<path d="M28.5605 61.3901C30.2242 61.3901 31.6624 61.7335 32.875 62.4203C34.0877 63.0989 34.8493 63.4382 35.1599 63.4382C35.6849 63.4382 36.062 62.9763 36.2912 62.0524H36.746V67.9145H36.2912C35.7588 65.8215 34.7643 64.2885 33.3076 63.3156C31.8583 62.3345 30.3277 61.8439 28.7157 61.8439C27.3552 61.8439 26.3791 62.175 25.7876 62.8373C25.1961 63.4913 24.9003 64.1372 24.9003 64.775C24.9003 66.1567 26.3496 67.1623 29.2481 67.7919C32.265 68.5441 34.4685 69.3249 35.8586 70.1343C37.2562 70.9437 37.9549 72.2437 37.9549 74.0342C37.9549 75.4813 37.3967 76.6955 36.2801 77.6766C35.171 78.6495 33.7106 79.136 31.899 79.136C30.2722 79.136 28.945 78.8457 27.9172 78.2652C26.8894 77.6766 25.9836 77.3822 25.1998 77.3822C24.2829 77.3822 23.6137 77.9668 23.1922 79.136H22.8151V71.1767H23.2366C23.5323 73.4414 24.5749 75.2565 26.3644 76.6219C28.1612 77.9873 30.0061 78.6699 31.899 78.6699C33.193 78.6699 34.1543 78.3388 34.7828 77.6766C35.4113 77.0143 35.7255 76.3275 35.7255 75.6162C35.7255 74.4389 34.9713 73.5723 33.4629 73.0163C31.9544 72.4603 29.8803 71.794 27.2406 71.0173C25.4068 70.3877 24.172 69.7091 23.536 68.9815C22.9075 68.2456 22.5933 67.3177 22.5933 66.1976C22.5933 64.7668 23.1885 63.6099 24.379 62.7269C25.5769 61.8357 26.9707 61.3901 28.5605 61.3901Z" fill="white"/>
<path d="M46.7061 61.3901C48.3698 61.3901 49.808 61.7335 51.0206 62.4203C52.2333 63.0989 52.9949 63.4382 53.3055 63.4382C53.8305 63.4382 54.2076 62.9763 54.4368 62.0524H54.8916V67.9145H54.4368C53.9044 65.8215 52.9099 64.2885 51.4532 63.3156C50.0039 62.3345 48.4733 61.8439 46.8614 61.8439C45.5008 61.8439 44.5247 62.175 43.9332 62.8373C43.3417 63.4913 43.0459 64.1372 43.0459 64.775C43.0459 66.1567 44.4952 67.1623 47.3937 67.7919C50.4106 68.5441 52.6141 69.3249 54.0042 70.1343C55.4018 70.9437 56.1005 72.2437 56.1005 74.0342C56.1005 75.4813 55.5423 76.6955 54.4257 77.6766C53.3166 78.6495 51.8562 79.136 50.0446 79.136C48.4178 79.136 47.0906 78.8457 46.0628 78.2652C45.035 77.6766 44.1292 77.3822 43.3454 77.3822C42.4285 77.3822 41.7593 77.9668 41.3378 79.136H40.9607V71.1767H41.3822C41.6779 73.4414 42.7205 75.2565 44.51 76.6219C46.3068 77.9873 48.1517 78.6699 50.0446 78.6699C51.3386 78.6699 52.2999 78.3388 52.9284 77.6766C53.5569 77.0143 53.8711 76.3275 53.8711 75.6162C53.8711 74.4389 53.1169 73.5723 51.6085 73.0163C50.1001 72.4603 48.026 71.794 45.3862 71.0173C43.5524 70.3877 42.3176 69.7091 41.6816 68.9815C41.0531 68.2456 40.7389 67.3177 40.7389 66.1976C40.7389 64.7668 41.3341 63.6099 42.5246 62.7269C43.7225 61.8357 45.1163 61.3901 46.7061 61.3901Z" fill="white"/>
<path d="M58.2924 61.7039H62.7529V74.034H73.9042V78.966H58.2924V61.7039Z" fill="url(#paint24_linear_411_828)"/>
<path d="M79.4798 67.8689H89.5159L87.2857 72.801H79.4798V74.034H88.4008L92.8613 78.966H75.0193V61.7039H92.8613L88.4008 66.6359H79.4798V67.8689Z" fill="url(#paint25_linear_411_828)"/>
<path d="M97.3218 66.6359L96.2067 67.8689V70.3349H102.897V67.8689L101.782 66.6359H97.3218ZM91.7462 64.1699L93.9764 61.7039H105.128L107.358 64.1699V78.966H102.897V75.267H96.2067V81.432L91.7462 76.5V64.1699Z" fill="url(#paint26_linear_411_828)"/>
<path d="M112.934 66.6359V74.034H118.509L119.624 72.801V67.8689L118.509 66.6359H112.934ZM108.473 78.966V61.7039H121.855L124.085 64.1699V76.5L121.855 78.966H108.473Z" fill="url(#paint27_linear_411_828)"/>
<path d="M143.042 61.7039L138.582 66.6359H130.776L130.218 67.2524L130.776 67.8689H138.582L140.812 70.3349V76.5L138.582 78.966H127.43L122.97 74.034H135.236L135.794 73.4175L135.236 72.801H127.43L125.2 70.3349V64.1699L127.43 61.7039H143.042Z" fill="url(#paint28_linear_411_828)"/>
<defs>
<linearGradient id="paint0_linear_411_828" x1="51.0383" y1="61.1839" x2="57.9397" y2="35.711" gradientUnits="userSpaceOnUse">
<stop stop-color="white" stop-opacity="0.250004"/>
<stop offset="0.4" stop-color="white" stop-opacity="0"/>
<stop offset="1" stop-color="white" stop-opacity="0"/>
</linearGradient>
<linearGradient id="paint1_linear_411_828" x1="51.0372" y1="61.1862" x2="57.9386" y2="35.7132" gradientUnits="userSpaceOnUse">
<stop/>
<stop offset="0.4"/>
<stop offset="1"/>
</linearGradient>
<linearGradient id="paint2_linear_411_828" x1="67.4117" y1="84.1596" x2="37.3674" y2="84.1596" gradientUnits="userSpaceOnUse">
<stop stop-color="white" stop-opacity="0.170001"/>
<stop offset="0.809875" stop-color="white" stop-opacity="0"/>
<stop offset="1" stop-color="white" stop-opacity="0"/>
</linearGradient>
<linearGradient id="paint3_linear_411_828" x1="67.4115" y1="84.1609" x2="37.3672" y2="84.1609" gradientUnits="userSpaceOnUse">
<stop/>
<stop offset="0.809875"/>
<stop offset="1"/>
</linearGradient>
<linearGradient id="paint4_linear_411_828" x1="60.1021" y1="21.8008" x2="45.768" y2="102.199" gradientUnits="userSpaceOnUse">
<stop stop-color="white" stop-opacity="0.500008"/>
<stop offset="0.35" stop-color="white" stop-opacity="0"/>
<stop offset="1" stop-color="white" stop-opacity="0"/>
</linearGradient>
<linearGradient id="paint5_linear_411_828" x1="60.1009" y1="21.7991" x2="45.7668" y2="102.198" gradientUnits="userSpaceOnUse">
<stop/>
<stop offset="0.35"/>
<stop offset="1"/>
</linearGradient>
<linearGradient id="paint6_linear_411_828" x1="209.828" y1="143.376" x2="224.764" y2="158.148" gradientUnits="userSpaceOnUse">
<stop stop-color="white" stop-opacity="0.0999924"/>
<stop offset="0.45" stop-color="white" stop-opacity="0"/>
<stop offset="1" stop-color="white" stop-opacity="0"/>
</linearGradient>
<linearGradient id="paint7_linear_411_828" x1="45.5501" y1="54.5566" x2="60.4862" y2="69.3283" gradientUnits="userSpaceOnUse">
<stop/>
<stop offset="0.45"/>
<stop offset="1"/>
</linearGradient>
<linearGradient id="paint8_linear_411_828" x1="87.0918" y1="84.0186" x2="87.0918" y2="23.7471" gradientUnits="userSpaceOnUse">
<stop stop-color="#F00000"/>
<stop offset="1" stop-color="#8A0000"/>
</linearGradient>
<linearGradient id="paint9_linear_411_828" x1="77.3792" y1="55.4707" x2="77.3792" y2="3.05176e-05" gradientUnits="userSpaceOnUse">
<stop stop-color="#F00000"/>
<stop offset="1" stop-color="#8A0000"/>
</linearGradient>
<linearGradient id="paint10_linear_411_828" x1="90.8158" y1="107.443" x2="90.8158" y2="77.2124" gradientUnits="userSpaceOnUse">
<stop stop-color="#F00000"/>
<stop offset="1" stop-color="#8A0000"/>
</linearGradient>
<linearGradient id="paint11_linear_411_828" x1="79.162" y1="43.8646" x2="108.86" y2="43.8646" gradientUnits="userSpaceOnUse">
<stop stop-color="white" stop-opacity="0.500008"/>
<stop offset="0.8" stop-color="white" stop-opacity="0"/>
<stop offset="1" stop-color="white" stop-opacity="0"/>
</linearGradient>
<linearGradient id="paint12_linear_411_828" x1="79.1602" y1="43.8626" x2="108.858" y2="43.8626" gradientUnits="userSpaceOnUse">
<stop/>
<stop offset="0.8"/>
<stop offset="1"/>
</linearGradient>
<linearGradient id="paint13_linear_411_828" x1="75.0266" y1="84.3051" x2="104.541" y2="33.7463" gradientUnits="userSpaceOnUse">
<stop stop-color="white" stop-opacity="0.450004"/>
<stop offset="0.3" stop-color="white" stop-opacity="0"/>
<stop offset="1" stop-color="white" stop-opacity="0"/>
</linearGradient>
<linearGradient id="paint14_linear_411_828" x1="75.0274" y1="84.3022" x2="104.542" y2="33.7434" gradientUnits="userSpaceOnUse">
<stop/>
<stop offset="0.3"/>
<stop offset="1"/>
</linearGradient>
<linearGradient id="paint15_linear_411_828" x1="82.1887" y1="52.5996" x2="71.4655" y2="23.4618" gradientUnits="userSpaceOnUse">
<stop stop-color="white" stop-opacity="0.2"/>
<stop offset="0.4" stop-color="white" stop-opacity="0"/>
<stop offset="1" stop-color="white" stop-opacity="0"/>
</linearGradient>
<linearGradient id="paint16_linear_411_828" x1="82.1865" y1="52.6015" x2="71.4633" y2="23.4637" gradientUnits="userSpaceOnUse">
<stop/>
<stop offset="0.4"/>
<stop offset="1"/>
</linearGradient>
<linearGradient id="paint17_linear_411_828" x1="77.5371" y1="35.1671" x2="80.6212" y2="0.304221" gradientUnits="userSpaceOnUse">
<stop stop-color="white" stop-opacity="0"/>
<stop offset="0.2" stop-color="white" stop-opacity="0.2"/>
<stop offset="1" stop-color="white" stop-opacity="0.2"/>
</linearGradient>
<linearGradient id="paint18_linear_411_828" x1="77.5352" y1="35.1637" x2="80.6192" y2="0.300869" gradientUnits="userSpaceOnUse">
<stop/>
<stop offset="0.2"/>
<stop offset="1"/>
</linearGradient>
<linearGradient id="paint19_linear_411_828" x1="77.9703" y1="96.6547" x2="80.6187" y2="106.43" gradientUnits="userSpaceOnUse">
<stop stop-color="white" stop-opacity="0.299992"/>
<stop offset="0.8" stop-color="white" stop-opacity="0.299992"/>
<stop offset="1" stop-color="white" stop-opacity="0.0499886"/>
</linearGradient>
<linearGradient id="paint20_linear_411_828" x1="77.9729" y1="96.6521" x2="80.6212" y2="106.427" gradientUnits="userSpaceOnUse">
<stop/>
<stop offset="0.8"/>
<stop offset="1"/>
</linearGradient>
<linearGradient id="paint21_linear_411_828" x1="92.9503" y1="107.441" x2="92.9503" y2="77.2144" gradientUnits="userSpaceOnUse">
<stop stop-color="#F00000"/>
<stop offset="1" stop-color="#8A0000"/>
</linearGradient>
<linearGradient id="paint22_linear_411_828" x1="89.3107" y1="44.9512" x2="89.3107" y2="44.9453" gradientUnits="userSpaceOnUse">
<stop stop-color="#F00000"/>
<stop offset="1" stop-color="#8A0000"/>
</linearGradient>
<linearGradient id="paint23_linear_411_828" x1="90.167" y1="49.9277" x2="90.167" y2="49.4013" gradientUnits="userSpaceOnUse">
<stop stop-color="#F00000"/>
<stop offset="1" stop-color="#8A0000"/>
</linearGradient>
<linearGradient id="paint24_linear_411_828" x1="71.521" y1="61.3901" x2="71.521" y2="81.432" gradientUnits="userSpaceOnUse">
<stop stop-color="#F00000"/>
<stop offset="1" stop-color="#8A0000"/>
</linearGradient>
<linearGradient id="paint25_linear_411_828" x1="71.521" y1="61.3901" x2="71.521" y2="81.432" gradientUnits="userSpaceOnUse">
<stop stop-color="#F00000"/>
<stop offset="1" stop-color="#8A0000"/>
</linearGradient>
<linearGradient id="paint26_linear_411_828" x1="71.521" y1="61.3901" x2="71.521" y2="81.432" gradientUnits="userSpaceOnUse">
<stop stop-color="#F00000"/>
<stop offset="1" stop-color="#8A0000"/>
</linearGradient>
<linearGradient id="paint27_linear_411_828" x1="71.521" y1="61.3901" x2="71.521" y2="81.432" gradientUnits="userSpaceOnUse">
<stop stop-color="#F00000"/>
<stop offset="1" stop-color="#8A0000"/>
</linearGradient>
<linearGradient id="paint28_linear_411_828" x1="71.521" y1="61.3901" x2="71.521" y2="81.432" gradientUnits="userSpaceOnUse">
<stop stop-color="#F00000"/>
<stop offset="1" stop-color="#8A0000"/>
</linearGradient>
</defs>
</svg>
