<svg width="330" height="47" viewBox="0 0 330 47" fill="none" xmlns="http://www.w3.org/2000/svg">
<g filter="url(#filter0_d_448_4038)">
<path d="M18.0979 19.1061C19.9306 18.6132 21.7634 18.1346 23.5888 17.6561C22.5052 23.2703 21.4216 28.8918 20.3306 34.5132C18.5052 34.9989 16.6725 35.4918 14.8397 35.9918C15.247 33.9203 15.647 31.8418 16.0543 29.7632C14.3597 30.2275 12.6725 30.6989 10.9779 31.1775C10.5779 33.2561 10.1706 35.3346 9.77064 37.4132C7.93792 37.9346 6.10519 38.4632 4.27246 39.0061C5.36337 33.3561 6.44701 27.7061 7.53064 22.0561C9.36337 21.5275 11.1961 21.0061 13.0288 20.4989C12.6361 22.4989 12.2506 24.4918 11.8652 26.4918C13.5525 26.0203 15.247 25.5489 16.9343 25.0918C17.327 23.0989 17.7125 21.0989 18.0979 19.1061ZM37.7561 22.9489C37.7561 23.7203 37.6397 24.4846 37.4797 25.1846C34.5052 25.8775 31.5379 26.5989 28.5634 27.3418C28.7961 28.3346 29.6325 28.5346 31.007 28.1989C31.9597 27.9632 32.9634 27.4418 33.7779 26.6561C34.5052 27.5203 35.2397 28.3918 35.967 29.2632C34.2216 30.8418 32.3379 31.6846 30.4034 32.1632C26.2143 33.1989 23.3997 31.6989 23.3997 28.1561C23.3997 24.0418 26.5416 20.1489 31.2906 18.9846C35.3634 17.9846 37.7561 19.7275 37.7561 22.9489ZM31.0579 22.5632C29.8434 22.8561 29.1234 23.7489 28.7743 24.7918C30.1634 24.4489 31.5525 24.1061 32.9416 23.7703C32.9416 22.7203 32.1706 22.2846 31.0579 22.5632ZM49.1743 15.1203C50.927 14.7489 52.6797 14.3846 54.4325 14.0346C53.5888 18.3703 52.7379 22.7132 51.8943 27.0561C50.2434 27.3989 48.5925 27.7489 46.9343 28.1061C47.0143 27.7061 47.0943 27.3061 47.167 26.9132C46.2361 28.0061 45.1016 28.7346 43.727 29.0346C41.1888 29.5989 38.4906 28.1703 38.4906 24.4418C38.4906 20.3275 41.6106 16.5418 45.2616 15.7418C46.8179 15.3989 48.127 15.5489 48.8906 16.5061C48.9852 16.0489 49.0797 15.5846 49.1743 15.1203ZM43.8216 22.9846C43.8216 24.1489 44.5197 24.7918 45.7052 24.5346C47.0797 24.2346 48.0106 22.9132 48.0106 21.1775C48.0106 20.0132 47.3125 19.3632 46.1197 19.6203C44.7525 19.9203 43.8216 21.2489 43.8216 22.9846ZM66.4688 7.27034C68.2216 6.94891 69.9743 6.64177 71.727 6.34177C70.5779 12.1918 69.4288 18.0489 68.2797 23.9061C66.6288 24.1989 64.9779 24.4989 63.327 24.8061C63.407 24.4132 63.4797 24.0132 63.5597 23.6203C62.6506 24.6561 61.5088 25.3703 60.1416 25.6346C57.6034 26.1203 54.8979 24.6132 54.9052 20.8846C54.9052 16.7703 58.0179 13.0775 61.6761 12.3846C63.2325 12.0918 64.5125 12.2846 65.3052 13.2418C65.6906 11.2489 66.0834 9.25605 66.4688 7.27034ZM60.2288 19.5846C60.2288 20.7489 60.927 21.4132 62.1197 21.1918C63.487 20.9346 64.4179 19.6418 64.4179 17.9061C64.4179 16.7418 63.7197 16.0703 62.5343 16.2918C61.1597 16.5489 60.2288 17.8489 60.2288 19.5846ZM85.0579 21.4203C80.847 22.0346 78.1488 20.1918 78.1488 16.6918C78.1488 12.5775 81.4507 8.97748 86.0834 8.30605C90.2943 7.69891 92.9925 9.64177 92.9925 13.1346C92.9925 17.2489 89.6907 20.7418 85.0579 21.4203ZM85.3634 17.3061C86.7379 17.1061 87.6688 15.8561 87.6688 14.1132C87.6688 12.9489 86.9706 12.2489 85.7852 12.4203C84.4107 12.6203 83.4797 13.8775 83.4797 15.6203C83.4797 16.7846 84.1779 17.4775 85.3634 17.3061ZM101.414 7.19891C101.414 7.20605 101.414 7.2132 101.414 7.22034C102.331 7.1132 103.247 7.0132 104.163 6.90605C103.909 8.19177 103.647 9.47748 103.392 10.7632C102.534 10.8632 101.669 10.9632 100.811 11.0632C100.258 13.8132 99.7125 16.5561 99.1597 19.3061C97.407 19.5203 95.6543 19.7346 93.9016 19.9632C94.4397 17.2132 94.9852 14.4632 95.5307 11.7132C94.9488 11.7846 94.367 11.8561 93.7852 11.9346C94.0397 10.6418 94.2943 9.35605 94.5488 8.0632C95.1307 7.99177 95.7125 7.9132 96.2943 7.84177C96.3161 7.74177 96.3452 7.63462 96.367 7.53463C96.9706 4.47034 99.1379 2.10605 102.832 1.68463C104.091 1.54177 105.232 1.62748 106.069 1.94177C105.4 3.2132 104.738 4.48463 104.069 5.75605C103.72 5.60605 103.327 5.54177 102.883 5.59177C102.047 5.68463 101.625 6.17034 101.414 7.19891ZM119.632 17.5846C114.578 18.0061 111.276 15.4489 111.276 11.1918C111.276 5.57034 115.531 1.17748 121.56 0.698911C124.68 0.448911 127.24 1.42034 128.425 3.39891C127.109 4.49891 125.785 5.60605 124.469 6.7132C123.771 5.57748 122.702 4.97034 121.211 5.09177C118.629 5.29891 116.811 7.47748 116.811 10.3346C116.811 12.2061 118.142 13.3418 120.163 13.1775C121.443 13.0703 122.68 12.4489 123.792 11.0418C124.876 11.9703 125.952 12.9061 127.029 13.8489C125.051 16.3632 122.629 17.3418 119.632 17.5846ZM134.651 16.4132C130.44 16.6418 127.742 14.5561 127.742 11.0561C127.742 6.94177 131.043 3.64177 135.676 3.39177C139.887 3.17034 142.585 5.35605 142.585 8.84891C142.585 12.9632 139.283 16.1561 134.651 16.4132ZM134.956 12.3275C136.331 12.2489 137.254 11.0846 137.254 9.34891C137.262 8.17748 136.556 7.4132 135.371 7.47748C133.996 7.55605 133.072 8.72748 133.065 10.4632C133.065 11.6346 133.771 12.3918 134.956 12.3275ZM161.989 2.62034C163.123 2.6132 164.142 2.90605 164.905 3.49177C165.822 4.19891 166.389 5.32748 166.389 6.88462C166.389 7.3632 166.345 7.89177 166.229 8.44177C165.785 10.6203 165.349 12.7918 164.905 14.9703C164.883 15.0918 164.854 15.2203 164.832 15.3418C163.08 15.3418 161.327 15.3489 159.574 15.3703C159.996 13.2846 160.425 11.1989 160.854 9.1132C160.92 8.82034 160.942 8.57034 160.942 8.34177C160.942 7.39891 160.476 6.97034 159.807 6.97748C158.847 6.98463 158.083 7.59177 157.756 9.19177C157.334 11.2632 156.92 13.3346 156.498 15.4061C154.745 15.4346 152.992 15.4703 151.24 15.5132C151.669 13.4203 152.091 11.3346 152.52 9.24177C152.592 8.94177 152.614 8.69177 152.614 8.4632C152.614 7.52748 152.149 7.09891 151.472 7.12034C150.498 7.14177 149.749 7.77748 149.4 9.45605C148.992 11.5061 148.578 13.5489 148.171 15.5989C146.418 15.6489 144.658 15.7132 142.905 15.7846C143.756 11.5846 144.6 7.38462 145.443 3.18463C147.094 3.12748 148.752 3.07748 150.403 3.03463C150.316 3.43463 150.229 3.84177 150.149 4.24891C151.218 3.23463 152.498 2.74891 153.778 2.72034C155.312 2.69177 156.752 3.3132 157.523 4.64891C158.614 3.37748 160.178 2.62748 161.989 2.62034ZM186.2 3.02748C188.687 3.12034 190.592 4.63463 190.592 7.49177C190.592 7.97034 190.549 8.49177 190.432 9.03463C189.967 11.3132 189.502 13.5918 189.036 15.8775C187.283 15.7989 185.531 15.7275 183.778 15.6703C184.2 13.6061 184.629 11.5418 185.058 9.47748C185.123 9.17748 185.152 8.92748 185.145 8.69891C185.145 7.7632 184.687 7.3132 184.011 7.28463C183.051 7.25605 182.287 7.82748 181.96 9.4132C181.545 11.4632 181.123 13.5203 180.702 15.5703C178.949 15.5203 177.196 15.4775 175.443 15.4418C175.872 13.3703 176.294 11.2989 176.723 9.22748C176.796 8.93462 176.818 8.68462 176.818 8.45605C176.818 7.52034 176.352 7.07034 175.676 7.05605C174.702 7.04177 173.952 7.64177 173.603 9.30605C173.196 11.3346 172.782 13.3632 172.374 15.3918C170.622 15.3703 168.869 15.3561 167.109 15.3489C167.96 11.1846 168.803 7.02034 169.647 2.85605C171.298 2.87034 172.956 2.89891 174.607 2.92748C174.52 3.32748 174.432 3.72748 174.352 4.13463C175.422 3.17034 176.702 2.73463 177.982 2.77034C179.516 2.80605 180.963 3.48463 181.727 4.85605C182.825 3.63463 184.382 2.95605 186.2 3.02748ZM202.534 4.13463C204.287 4.25605 206.04 4.38463 207.792 4.52748C206.949 8.62748 206.105 12.7275 205.254 16.8346C203.603 16.7132 201.952 16.5989 200.302 16.4918C200.389 16.0775 200.469 15.6632 200.556 15.2489C199.436 16.2061 198.069 16.5775 196.789 16.4989C194.134 16.3489 192.272 14.8418 192.272 12.0061C192.272 11.5275 192.316 10.9989 192.432 10.4346C192.898 8.15605 193.363 5.88462 193.829 3.60605C195.582 3.69891 197.334 3.79891 199.087 3.9132C198.665 5.97748 198.236 8.04891 197.807 10.1203C197.763 10.3918 197.72 10.6632 197.72 10.8918C197.72 11.7561 198.156 12.2418 199 12.2918C200.163 12.3632 200.978 11.6632 201.298 10.0632C201.712 8.09177 202.12 6.1132 202.534 4.13463ZM218.622 5.25605C221.298 5.52034 223.182 7.14177 223.182 9.97748C223.182 10.4561 223.138 10.9775 223.022 11.5346C222.556 13.7846 222.091 16.0418 221.625 18.2918C219.872 18.1132 218.12 17.9346 216.367 17.7703C216.789 15.7132 217.218 13.6632 217.647 11.6061C217.691 11.3346 217.734 11.0918 217.734 10.8632C217.734 9.97034 217.298 9.47034 216.411 9.38463C215.225 9.27748 214.389 9.95605 214.062 11.5489C213.647 13.5132 213.24 15.4775 212.825 17.4489C211.072 17.2918 209.32 17.1489 207.567 17.0132C208.411 12.9061 209.262 8.8132 210.105 4.7132C211.756 4.84891 213.407 4.99177 215.058 5.14891C214.978 5.55605 214.891 5.97034 214.803 6.37748C215.923 5.45605 217.32 5.12748 218.622 5.25605ZM229.632 5.67748C227.792 5.45605 226.651 4.25605 226.651 2.88463C226.651 1.28463 227.982 0.22034 230.003 0.463197C231.843 0.684626 232.985 1.8132 232.985 3.17748C232.985 4.89891 231.654 5.9132 229.632 5.67748ZM223.909 18.5346C224.752 14.4561 225.596 10.3846 226.447 6.3132C228.192 6.50605 229.938 6.7132 231.683 6.92748C230.832 10.9918 229.989 15.0561 229.145 19.1275C227.4 18.9203 225.654 18.7203 223.909 18.5346ZM238.971 20.5989C234.782 20.0346 232.033 17.4203 232.033 13.9203C232.033 9.80605 235.363 7.14177 240.062 7.79177C243.087 8.20605 245.465 9.95605 246.374 12.3561C244.883 12.7989 243.392 13.2561 241.902 13.7132C241.458 12.4846 240.694 11.9489 239.807 11.8275C238.389 11.6275 237.363 12.6132 237.363 14.2846C237.363 15.4703 238.062 16.4061 239.363 16.5846C240.389 16.7275 241.131 16.3989 241.742 15.3132C243.022 16.2275 244.302 17.1418 245.582 18.0632C244.323 20.0703 241.974 21.0061 238.971 20.5989ZM256.92 10.6061C258.673 10.8989 260.425 11.2061 262.178 11.5203C261.334 15.5346 260.491 19.5561 259.647 23.5703C257.996 23.2846 256.338 23.0061 254.687 22.7346C254.767 22.3632 254.84 21.9989 254.92 21.6275C253.989 22.3703 252.847 22.6632 251.472 22.4418C248.942 22.0418 246.236 19.5775 246.243 15.8561C246.236 11.7418 249.356 9.13463 253.014 9.72748C254.571 9.98463 255.872 10.6346 256.643 11.8846C256.738 11.4561 256.833 11.0275 256.92 10.6061ZM251.567 16.4275C251.567 17.5918 252.265 18.4989 253.451 18.6918C254.825 18.9132 255.756 17.9489 255.756 16.2132C255.756 15.0489 255.058 14.1346 253.872 13.9346C252.498 13.7132 251.567 14.6846 251.567 16.4275ZM269.422 17.3132C269.211 18.3203 269.007 19.3203 268.796 20.3275C268.774 20.4561 268.745 20.5703 268.745 20.6846C268.745 21.2775 269.123 21.6203 269.727 21.7418C270.149 21.8203 270.491 21.7703 270.891 21.6632C271.094 22.8632 271.291 24.0632 271.494 25.2561C270.52 25.5918 269.283 25.5632 268.054 25.3275C265.211 24.7918 263.4 23.0703 263.4 20.5846C263.4 20.1918 263.443 19.7918 263.538 19.3703C263.756 18.3632 263.967 17.3489 264.185 16.3346C263.596 16.2275 263.007 16.1203 262.418 16.0203C262.672 14.8061 262.934 13.5918 263.189 12.3846C263.771 12.4918 264.352 12.5918 264.934 12.6989C265.174 11.5775 265.414 10.4561 265.654 9.33463C267.407 9.6632 269.16 9.99177 270.913 10.3346C270.672 11.4561 270.432 12.5703 270.193 13.6918C271.058 13.8561 271.931 14.0275 272.796 14.1989C272.542 15.4061 272.287 16.6132 272.033 17.8203C271.16 17.6489 270.294 17.4846 269.422 17.3132ZM278.382 13.6418C276.542 13.2632 275.407 11.9561 275.407 10.5846C275.407 8.98462 276.731 8.04177 278.753 8.4632C280.592 8.84891 281.734 10.0775 281.734 11.4489C281.734 13.1632 280.411 14.0632 278.382 13.6418ZM272.658 25.9918C273.502 21.9918 274.352 17.9918 275.196 13.9918C276.942 14.3489 278.687 14.7061 280.432 15.0775C279.589 19.0703 278.738 23.0561 277.894 27.0489C276.149 26.6918 274.403 26.3346 272.658 25.9918ZM287.698 29.3989C283.487 28.4489 280.782 25.5989 280.782 22.1061C280.782 17.9918 284.091 15.6203 288.723 16.6703C292.934 17.6275 295.632 20.5703 295.632 24.0632C295.632 28.1846 292.331 30.4418 287.698 29.3989ZM287.996 25.3989C289.371 25.7061 290.302 24.8061 290.302 23.0632C290.302 21.8989 289.603 20.9418 288.418 20.6703C287.043 20.3561 286.112 21.2703 286.112 23.0132C286.112 24.1775 286.811 25.1275 287.996 25.3989ZM307.007 21.1275C309.683 21.8275 311.567 23.7561 311.567 26.5918C311.567 27.0703 311.523 27.5846 311.407 28.1203C310.942 30.2989 310.476 32.4775 310.011 34.6489C308.258 34.1846 306.505 33.7275 304.753 33.2775C305.174 31.2918 305.603 29.3061 306.033 27.3203C306.076 27.0632 306.12 26.8203 306.127 26.5918C306.127 25.6989 305.683 25.1275 304.796 24.8989C303.611 24.5989 302.774 25.1418 302.447 26.6775C302.033 28.5775 301.625 30.4775 301.211 32.3846C299.458 31.9418 297.705 31.5132 295.952 31.0918C296.796 27.1275 297.647 23.1632 298.491 19.2061C300.142 19.6132 301.792 20.0203 303.443 20.4418C303.363 20.8418 303.276 21.2346 303.189 21.6346C304.309 20.8918 305.705 20.7918 307.007 21.1275ZM317.603 36.9561C315.32 36.3132 313.131 35.2132 312.018 34.2775C312.622 33.2632 313.225 32.2561 313.829 31.2489C315.087 32.3418 316.832 33.2203 318.251 33.6203C319.414 33.9418 319.814 33.8061 319.814 33.4632C319.814 32.3775 313.385 31.7346 313.385 27.5632C313.385 24.3418 316.578 23.6918 320.556 24.8275C322.418 25.3632 324.207 26.2275 325.538 27.2132C324.934 28.2061 324.323 29.2061 323.72 30.1989C322.396 29.0561 321 28.4775 319.931 28.1703C318.716 27.8275 318.323 28.0346 318.323 28.3346C318.323 29.4632 324.723 30.1132 324.723 34.3061C324.723 37.4418 321.509 38.0489 317.603 36.9561Z" fill="white"/>
</g>
<defs>
<filter id="filter0_d_448_4038" x="0.272461" y="0.428711" width="329.266" height="46.5771" filterUnits="userSpaceOnUse" color-interpolation-filters="sRGB">
<feFlood flood-opacity="0" result="BackgroundImageFix"/>
<feColorMatrix in="SourceAlpha" type="matrix" values="0 0 0 0 0 0 0 0 0 0 0 0 0 0 0 0 0 0 127 0" result="hardAlpha"/>
<feOffset dy="4"/>
<feGaussianBlur stdDeviation="2"/>
<feComposite in2="hardAlpha" operator="out"/>
<feColorMatrix type="matrix" values="0 0 0 0 0 0 0 0 0 0 0 0 0 0 0 0 0 0 0.25 0"/>
<feBlend mode="normal" in2="BackgroundImageFix" result="effect1_dropShadow_448_4038"/>
<feBlend mode="normal" in="SourceGraphic" in2="effect1_dropShadow_448_4038" result="shape"/>
</filter>
</defs>
</svg>
