<svg width="206" height="36" viewBox="0 0 206 36" fill="none" xmlns="http://www.w3.org/2000/svg">
<g filter="url(#filter0_d_448_4107)">
<path d="M13.4823 25.3241C8.26176 26.2143 4.87891 23.8254 4.93012 19.3557C4.99772 13.4561 9.4553 8.45681 15.6776 7.41803C18.9039 6.88496 21.535 7.67516 22.7325 9.64901C21.3579 10.9133 19.9831 12.1977 18.6083 13.482C17.9013 12.3438 16.8075 11.8013 15.2644 12.0636C12.5991 12.5031 10.701 14.9515 10.6666 17.9513C10.644 19.9212 11.9918 20.9967 14.086 20.6407C15.4087 20.4158 16.6874 19.6604 17.8657 18.0738C18.9656 18.9565 20.0655 19.8491 21.1653 20.7418C19.093 23.5482 16.5886 24.7896 13.4823 25.3241ZM38.1328 8.83541C35.4289 9.16445 32.7347 9.51361 30.0303 9.88264C29.8925 10.5611 29.7649 11.2297 29.6271 11.9082C32.001 11.5753 34.3648 11.2624 36.7383 10.9696C36.4523 12.3664 36.1663 13.7632 35.8803 15.15C33.4967 15.4527 31.113 15.7654 28.739 16.0983C28.5803 16.8565 28.4316 17.6148 28.2829 18.3732C31.0877 17.9753 33.9022 17.5975 36.7162 17.2597C36.4095 18.7163 36.1028 20.1729 35.8061 21.6296C31.1391 22.2162 26.4712 22.8727 21.8127 23.5894C22.999 17.8126 24.1851 12.0458 25.3713 6.27903C29.9292 5.61121 34.4865 5.00338 39.043 4.46555C38.7463 5.92225 38.4396 7.37883 38.1328 8.83541ZM47.4476 20.6929C42.2111 21.233 38.9516 18.5454 39.0023 14.1257C39.0701 8.20611 43.544 3.52706 49.7213 2.9278C54.9575 2.41776 58.2151 5.26528 58.1645 9.67499C58.0966 15.6046 53.6252 20.0637 47.4476 20.6929ZM47.9807 16.0587C50.7741 15.7807 52.403 13.2692 52.4346 10.5094C52.4569 8.55952 51.2507 7.35562 49.1883 7.552C46.3949 7.83001 44.7556 10.3814 44.7239 13.1412C44.7016 15.0911 45.9181 16.2751 47.9807 16.0587ZM83.8542 9.84934C83.2378 11.2824 82.4526 12.6035 81.4992 13.7626C81.9245 14.1775 82.3398 14.5923 82.7549 15.0171C81.552 16.1434 80.3489 17.2797 79.1456 18.426C78.6908 17.9707 78.246 17.5156 77.7912 17.0603C76.1194 18.0813 74.2422 18.6998 72.2309 18.7968C68.5785 18.9849 65.7354 17.5022 65.7679 14.6624C65.7958 12.2226 67.566 10.4728 70.0312 9.16092C69.5097 8.41489 69.2588 7.62197 69.2693 6.70203C69.3073 3.39224 72.3512 1.31699 75.7632 1.16607C78.7648 1.04045 81.0107 2.28627 80.9822 4.7761C80.9582 6.86597 79.4316 8.30857 77.2281 9.4734C77.7026 9.95887 78.1772 10.4343 78.6517 10.9098C79.0694 10.2445 79.4381 9.48872 79.7573 8.68233C81.123 9.068 82.4887 9.45367 83.8542 9.84934ZM75.5129 4.68343C74.7925 4.71518 74.2269 5.19873 74.2186 5.91868C74.2147 6.25866 74.3613 6.56036 74.8055 7.06548C76.1335 6.38065 76.4094 5.86378 76.4149 5.38381C76.4201 4.93384 76.0632 4.65974 75.5129 4.68343ZM73.2377 14.718C73.8081 14.6946 74.4098 14.5414 75.0132 14.2483C74.1529 13.3984 73.2927 12.5385 72.4324 11.6886C71.707 12.1603 71.2203 12.7348 71.2123 13.4347C71.2038 14.1747 71.8168 14.7917 73.2377 14.718ZM107.717 5.35247C106.198 5.31505 104.678 5.29764 103.168 5.28033C102.018 5.26716 100.868 5.25398 99.728 5.25092C99.517 6.20856 99.316 7.16632 99.115 8.12408C100.455 8.12944 101.795 8.14479 103.135 8.16015C104.125 8.17149 105.125 8.18295 106.125 8.1944C105.818 9.62099 105.512 11.0376 105.206 12.4542C104.496 12.446 103.796 12.438 103.086 12.4299C101.466 12.4113 99.846 12.4027 98.226 12.3942C97.8454 14.1899 97.4649 15.9757 97.0843 17.7715C95.1942 17.7698 93.3039 17.7881 91.4236 17.8066C92.608 12.1898 93.7923 6.583 94.9766 0.976199C97.7169 0.967596 100.467 0.969107 103.217 1.00062C105.017 1.02124 106.827 1.05198 108.626 1.0926C108.32 2.50918 108.024 3.93588 107.717 5.35247ZM114.159 18.2971C109.821 18.1474 107.069 15.7057 107.101 12.0358C107.16 7.71624 110.597 4.5554 115.375 4.73016C119.713 4.88988 122.474 7.44169 122.432 11.1114C122.383 15.4312 118.938 18.4619 114.159 18.2971ZM114.518 14.041C115.938 14.0872 116.911 12.9483 116.932 11.1284C116.946 9.8985 116.236 9.03031 115.016 8.98633C113.597 8.94006 112.623 10.089 112.603 11.9089C112.589 13.1288 113.299 13.997 114.518 14.041ZM134.391 6.02813C136.19 6.16875 137.998 6.30948 139.807 6.47021C138.887 10.77 137.968 15.0697 137.039 19.3793C135.34 19.2399 133.641 19.1104 131.933 18.9908C132.028 18.5519 132.123 18.1229 132.218 17.684C131.046 18.6806 129.632 19.0645 128.312 18.9893C125.574 18.818 123.672 17.2261 123.706 14.2463C123.712 13.7463 123.768 13.1969 123.895 12.6083C124.403 10.214 124.91 7.82962 125.418 5.43528C127.226 5.53601 129.035 5.64674 130.834 5.77736C130.369 7.94218 129.904 10.117 129.439 12.2818C129.396 12.5713 129.343 12.8607 129.34 13.1007C129.33 14.0107 129.774 14.5158 130.643 14.5758C131.842 14.6595 132.691 13.9292 133.04 12.2431C133.494 10.1681 133.938 8.10307 134.391 6.02813ZM150.968 7.31815C153.724 7.61975 155.645 9.34187 155.611 12.3117C155.605 12.8216 155.549 13.361 155.422 13.9496C154.915 16.314 154.408 18.6683 153.901 21.0327C152.093 20.8219 150.295 20.6213 148.487 20.4306C148.952 18.2858 149.417 16.131 149.881 13.9761C149.934 13.6967 149.977 13.4372 149.98 13.1972C149.991 12.2573 149.547 11.7322 148.638 11.6317C147.409 11.5077 146.541 12.2078 146.182 13.8837C145.739 15.9388 145.285 18.0037 144.841 20.0688C143.033 19.8981 141.225 19.7273 139.426 19.5767C140.346 15.277 141.265 10.9772 142.184 6.67747C143.893 6.83705 145.591 6.99652 147.289 7.16599C147.204 7.60504 147.109 8.03398 147.014 8.46293C148.175 7.49617 149.619 7.17269 150.968 7.31815ZM169.323 5.21832C171.13 5.47904 172.937 5.75976 174.734 6.04037C173.488 11.7865 172.242 17.5426 170.986 23.2986C169.289 23.0491 167.581 22.7995 165.884 22.5601C165.968 22.171 166.053 21.7819 166.137 21.3929C165.188 22.1721 164.014 22.5386 162.596 22.3524C159.99 22.0025 157.228 19.5007 157.273 15.5909C157.323 11.2712 160.575 8.4383 164.34 8.96147C165.937 9.17979 167.25 9.82487 168.055 11.0942C168.478 9.1289 168.9 7.17361 169.323 5.21832ZM162.769 16.0239C162.755 17.2539 163.464 18.192 164.682 18.356C166.1 18.5523 167.072 17.5133 167.093 15.6835C167.107 14.4635 166.398 13.5253 165.169 13.3513C163.762 13.1551 162.79 14.2041 162.769 16.0239ZM188.85 18.7129C188.84 19.5329 188.712 20.2815 188.534 20.9395C185.48 20.3744 182.426 19.8294 179.362 19.3243C179.589 20.4669 180.452 21.0369 181.86 21.283C182.848 21.4543 183.879 21.3462 184.725 20.8758C185.46 22.1043 186.196 23.3328 186.932 24.5714C185.122 25.4607 183.181 25.5284 181.195 25.1857C176.883 24.4462 174.005 21.653 174.048 17.9333C174.097 13.6136 177.368 10.8909 182.259 11.737C186.451 12.465 188.888 15.3332 188.85 18.7129ZM181.977 15.384C180.73 15.1697 179.982 15.7911 179.612 16.737C181.039 16.9833 182.466 17.2297 183.893 17.4761C183.906 16.3761 183.125 15.5871 181.977 15.384ZM196.501 16.0004C197.641 15.1234 199.253 14.9719 201.119 15.3633C200.781 16.8995 200.444 18.4258 200.106 19.962C199.648 19.7967 199.319 19.703 198.93 19.6185C197.134 19.2479 196.028 19.7753 195.618 21.5407C195.195 23.486 194.763 25.4311 194.331 27.3763C192.525 27.0156 190.719 26.6649 188.922 26.3243C189.841 22.1145 190.759 17.9048 191.677 13.695C193.384 14.0246 195.08 14.364 196.776 14.7035C196.691 15.1325 196.596 15.5615 196.501 16.0004Z" fill="white"/>
</g>
<defs>
<filter id="filter0_d_448_4107" x="0.929688" y="0.97168" width="204.189" height="34.4048" filterUnits="userSpaceOnUse" color-interpolation-filters="sRGB">
<feFlood flood-opacity="0" result="BackgroundImageFix"/>
<feColorMatrix in="SourceAlpha" type="matrix" values="0 0 0 0 0 0 0 0 0 0 0 0 0 0 0 0 0 0 127 0" result="hardAlpha"/>
<feOffset dy="4"/>
<feGaussianBlur stdDeviation="2"/>
<feComposite in2="hardAlpha" operator="out"/>
<feColorMatrix type="matrix" values="0 0 0 0 0 0 0 0 0 0 0 0 0 0 0 0 0 0 0.25 0"/>
<feBlend mode="normal" in2="BackgroundImageFix" result="effect1_dropShadow_448_4107"/>
<feBlend mode="normal" in="SourceGraphic" in2="effect1_dropShadow_448_4107" result="shape"/>
</filter>
</defs>
</svg>
