<svg width="226" height="37" viewBox="0 0 226 37" fill="none" xmlns="http://www.w3.org/2000/svg">
<g filter="url(#filter0_d_448_4069)">
<path d="M18.25 9.40131C20.14 9.07131 22.03 8.75131 23.92 8.44131C22.8 14.2213 21.68 20.0113 20.56 25.8013C18.67 26.1213 16.78 26.4513 14.89 26.7913C15.31 24.6513 15.73 22.5113 16.14 20.3713C14.4 20.6813 12.65 21.0013 10.91 21.3313C10.49 23.4713 10.08 25.6113 9.66 27.7613C7.77 28.1113 5.89 28.4813 4 28.8613C5.12 23.0413 6.24 17.2213 7.36 11.4013C9.25 11.0313 11.13 10.6813 13.02 10.3313C12.62 12.3913 12.22 14.4513 11.82 16.5013C13.57 16.1813 15.31 15.8613 17.05 15.5613C17.45 13.5013 17.85 11.4513 18.25 9.40131ZM38.53 15.4713C38.53 16.2813 38.41 17.0713 38.24 17.7913C35.18 18.2113 32.11 18.6513 29.05 19.1213C29.29 20.1913 30.15 20.4913 31.57 20.2813C32.55 20.1313 33.58 19.6913 34.42 18.9513C35.18 19.9413 35.93 20.9213 36.68 21.9213C34.88 23.3913 32.94 24.0813 30.94 24.3813C26.62 25.0313 23.72 23.1613 23.72 19.4413C23.72 15.1213 26.96 11.3613 31.86 10.6413C36.06 10.0113 38.53 12.0913 38.53 15.4713ZM31.62 14.3713C30.37 14.5513 29.62 15.4113 29.26 16.4713C30.7 16.2613 32.13 16.0413 33.56 15.8313C33.56 14.7313 32.77 14.2013 31.62 14.3713ZM50.3 8.45131C52.11 8.24131 53.91 8.04131 55.72 7.85131C54.85 12.3213 53.98 16.7913 53.11 21.2613C51.4 21.4513 49.7 21.6413 47.99 21.8413C48.07 21.4313 48.15 21.0213 48.23 20.6213C47.27 21.6613 46.1 22.3113 44.68 22.4913C42.07 22.8113 39.28 21.0313 39.28 17.1213C39.28 12.8013 42.5 9.14131 46.27 8.68131C47.87 8.49131 49.22 8.79131 50.01 9.87131C50.11 9.40131 50.2 8.92131 50.3 8.45131ZM44.78 16.1413C44.78 17.3613 45.5 18.1113 46.72 17.9613C48.14 17.7913 49.1 16.5113 49.1 14.6813C49.1 13.4613 48.38 12.7013 47.15 12.8513C45.74 13.0213 44.78 14.3213 44.78 16.1413ZM68.13 2.01131C69.94 1.87131 71.75 1.73131 73.56 1.60131C72.37 7.62131 71.19 13.6413 70.01 19.6713C68.3 19.8013 66.6 19.9513 64.89 20.1013C64.97 19.6913 65.05 19.2813 65.13 18.8813C64.2 19.8713 63.02 20.5013 61.61 20.6313C58.99 20.8813 56.21 19.0113 56.21 15.1013C56.21 10.7813 59.42 7.22131 63.19 6.88131C64.8 6.73131 66.12 7.08131 66.93 8.16131C67.33 6.11131 67.73 4.06131 68.13 2.01131ZM61.7 14.2913C61.7 15.5113 62.42 16.2913 63.65 16.1813C65.06 16.0513 66.02 14.7913 66.02 12.9713C66.02 11.7413 65.3 10.9613 64.08 11.0713C62.66 11.2013 61.7 12.4713 61.7 14.2913ZM87.31 18.8313C82.96 19.0313 80.18 16.8113 80.18 13.1413C80.18 8.82131 83.59 5.39131 88.36 5.17131C92.71 4.98131 95.49 7.31131 95.49 10.9813C95.49 15.3013 92.08 18.6113 87.31 18.8313ZM87.62 14.5413C89.04 14.4813 90 13.2613 90 11.4413C90 10.2213 89.28 9.41131 88.05 9.46131C86.64 9.52131 85.68 10.7513 85.68 12.5713C85.68 13.8013 86.4 14.6013 87.62 14.5413ZM104.17 5.64131C104.17 5.64131 104.17 5.65131 104.17 5.66131C105.12 5.64131 106.06 5.63131 107.01 5.62131C106.74 6.95131 106.48 8.27131 106.21 9.59131C105.33 9.60131 104.44 9.61131 103.55 9.63131C102.98 12.4513 102.41 15.2813 101.85 18.1113C100.04 18.1413 98.23 18.1913 96.42 18.2413C96.98 15.4113 97.54 12.5813 98.1 9.75131C97.5 9.76131 96.9 9.78131 96.3 9.80131C96.57 8.47131 96.83 7.14131 97.09 5.82131C97.69 5.80131 98.29 5.78131 98.89 5.77131C98.92 5.66131 98.94 5.56131 98.97 5.45131C99.59 2.29131 101.82 0.051306 105.64 0.001306C106.93 -0.018694 108.11 0.191306 108.97 0.611306C108.29 1.87131 107.6 3.14131 106.91 4.40131C106.55 4.21131 106.14 4.10131 105.69 4.10131C104.82 4.11131 104.39 4.58131 104.17 5.64131ZM126.2 18.1713C126.01 17.1913 125.83 16.2113 125.64 15.2313C123.51 15.1813 121.37 15.1413 119.24 15.1213C118.68 16.0813 118.12 17.0513 117.56 18.0313C115.9 18.0113 114.24 18.0013 112.58 18.0013C112.24 18.0013 111.91 18.0013 111.58 18.0013C111.91 17.4813 112.24 16.9613 112.58 16.4413C115.81 11.3613 119.05 6.31131 122.28 1.29131C124.14 1.32131 126 1.37131 127.85 1.42131C129.18 7.05131 130.51 12.7013 131.84 18.3413C129.96 18.2813 128.08 18.2213 126.2 18.1713ZM121.56 11.0713C122.66 11.0913 123.76 11.1113 124.85 11.1313C124.58 9.69131 124.31 8.26131 124.04 6.82131C123.21 8.23131 122.39 9.65131 121.56 11.0713ZM140.81 6.30131C140.81 6.31131 140.81 6.32131 140.81 6.33131C141.75 6.38131 142.7 6.43131 143.64 6.48131C143.37 7.79131 143.11 9.09131 142.85 10.4013C141.96 10.3513 141.07 10.3013 140.18 10.2613C139.62 13.0413 139.05 15.8313 138.48 18.6213C136.67 18.5313 134.86 18.4613 133.05 18.3913C133.61 15.5913 134.18 12.8013 134.74 10.0113C134.13 9.98131 133.54 9.96131 132.94 9.94131C133.2 8.63131 133.46 7.32131 133.73 6.01131C134.33 6.03131 134.93 6.05131 135.53 6.08131C135.55 5.98131 135.57 5.87131 135.6 5.77131C136.22 2.65131 138.46 0.561306 142.27 0.771306C143.57 0.841306 144.74 1.12131 145.61 1.61131C144.92 2.82131 144.23 4.04131 143.54 5.25131C143.18 5.04131 142.78 4.90131 142.32 4.87131C141.46 4.83131 141.02 5.26131 140.81 6.30131ZM161.11 0.471306C163 0.641306 164.18 1.78131 164.18 3.22131C164.18 5.02131 162.81 6.14131 160.72 5.95131C158.83 5.79131 157.65 4.56131 157.65 3.12131C157.65 1.44131 159.02 0.281306 161.11 0.471306ZM151.03 6.93131C151.03 6.94131 151.03 6.95131 151.03 6.96131C151.97 7.02131 152.91 7.09131 153.86 7.16131C153.59 8.46131 153.33 9.76131 153.07 11.0613C152.18 11.0013 151.29 10.9313 150.4 10.8713C149.83 13.6513 149.27 16.4313 148.7 19.2013C146.89 19.0813 145.08 18.9713 143.27 18.8713C143.83 16.0913 144.39 13.3013 144.95 10.5213C144.35 10.4813 143.75 10.4513 143.15 10.4213C143.42 9.11131 143.68 7.81131 143.95 6.50131C144.55 6.54131 145.15 6.57131 145.75 6.61131C145.77 6.51131 145.79 6.40131 145.82 6.30131C146.44 3.20131 148.67 1.14131 152.49 1.42131C153.79 1.52131 154.96 1.82131 155.83 2.33131C155.14 3.53131 154.45 4.73131 153.76 5.93131C153.4 5.71131 152.99 5.56131 152.54 5.53131C151.67 5.47131 151.24 5.89131 151.03 6.93131ZM154.82 19.6513C155.69 15.3413 156.56 11.0313 157.43 6.73131C159.23 6.88131 161.03 7.03131 162.83 7.20131C161.96 11.5013 161.09 15.7913 160.22 20.0913C158.42 19.9313 156.62 19.7913 154.82 19.6513ZM162.62 20.3113C163.8 14.4813 164.99 8.66131 166.17 2.84131C167.98 3.02131 169.79 3.21131 171.6 3.40131C170.41 9.21131 169.23 15.0213 168.04 20.8413C166.23 20.6513 164.43 20.4813 162.62 20.3113ZM176.35 7.56131C174.46 7.34131 173.28 6.08131 173.28 4.64131C173.28 2.96131 174.65 1.84131 176.74 2.09131C178.63 2.31131 179.81 3.49131 179.81 4.93131C179.81 6.73131 178.44 7.81131 176.35 7.56131ZM170.45 21.0913C171.32 16.8013 172.19 12.5213 173.06 8.24131C174.86 8.44131 176.66 8.65131 178.46 8.87131C177.59 13.1413 176.72 17.4213 175.85 21.6913C174.05 21.4813 172.25 21.2813 170.45 21.0913ZM189.87 10.3813C191.68 10.6313 193.48 10.9013 195.29 11.1813C194.42 15.4213 193.55 19.6613 192.68 23.9113C190.97 23.6613 189.27 23.4213 187.56 23.1813C187.64 22.7913 187.72 22.4013 187.8 22.0113C186.84 22.8213 185.67 23.1613 184.25 22.9713C181.64 22.6313 178.85 20.1313 178.85 16.2213C178.85 11.9013 182.07 9.07131 185.84 9.58131C187.44 9.79131 188.79 10.4413 189.58 11.7313C189.68 11.2813 189.77 10.8313 189.87 10.3813ZM184.35 16.6513C184.35 17.8713 185.07 18.8113 186.29 18.9813C187.71 19.1713 188.67 18.1313 188.67 16.3013C188.67 15.0813 187.95 14.1413 186.72 13.9713C185.31 13.7813 184.35 14.8313 184.35 16.6513ZM202.76 17.0513C202.55 18.1113 202.33 19.1713 202.11 20.2313C202.09 20.3713 202.06 20.4813 202.07 20.6013C202.06 21.2313 202.45 21.5813 203.07 21.6813C203.51 21.7513 203.86 21.6913 204.27 21.5713C204.48 22.8213 204.69 24.0713 204.9 25.3213C203.89 25.7013 202.62 25.7113 201.35 25.5013C198.42 25.0213 196.54 23.2713 196.55 20.6613C196.55 20.2513 196.59 19.8213 196.69 19.3813C196.91 18.3113 197.14 17.2413 197.36 16.1813C196.75 16.0813 196.15 15.9913 195.54 15.8913C195.8 14.6113 196.06 13.3313 196.33 12.0513C196.93 12.1513 197.53 12.2413 198.13 12.3413C198.38 11.1513 198.62 9.97131 198.87 8.78131C200.68 9.07131 202.49 9.37131 204.3 9.67131C204.05 10.8513 203.8 12.0313 203.55 13.2213C204.45 13.3713 205.35 13.5213 206.24 13.6713C205.98 14.9513 205.71 16.2213 205.45 17.5013C204.55 17.3513 203.66 17.1913 202.76 17.0513ZM221.15 21.2813C221.15 22.0913 221.03 22.8413 220.86 23.5013C217.8 22.8913 214.74 22.3013 211.67 21.7413C211.91 22.8913 212.78 23.4813 214.19 23.7413C215.18 23.9313 216.21 23.8413 217.05 23.3713C217.8 24.6213 218.55 25.8613 219.3 27.1013C217.5 27.9713 215.56 28.0113 213.57 27.6413C209.25 26.8313 206.34 23.9913 206.34 20.2713C206.34 15.9513 209.58 13.2813 214.48 14.2013C218.68 14.9913 221.15 17.8913 221.15 21.2813ZM214.24 17.8513C212.99 17.6213 212.25 18.2213 211.89 19.1713C213.32 19.4313 214.75 19.7013 216.18 19.9713C216.18 18.8713 215.39 18.0713 214.24 17.8513Z" fill="white"/>
</g>
<defs>
<filter id="filter0_d_448_4069" x="0" y="0" width="225.15" height="36.8613" filterUnits="userSpaceOnUse" color-interpolation-filters="sRGB">
<feFlood flood-opacity="0" result="BackgroundImageFix"/>
<feColorMatrix in="SourceAlpha" type="matrix" values="0 0 0 0 0 0 0 0 0 0 0 0 0 0 0 0 0 0 127 0" result="hardAlpha"/>
<feOffset dy="4"/>
<feGaussianBlur stdDeviation="2"/>
<feComposite in2="hardAlpha" operator="out"/>
<feColorMatrix type="matrix" values="0 0 0 0 0 0 0 0 0 0 0 0 0 0 0 0 0 0 0.25 0"/>
<feBlend mode="normal" in2="BackgroundImageFix" result="effect1_dropShadow_448_4069"/>
<feBlend mode="normal" in="SourceGraphic" in2="effect1_dropShadow_448_4069" result="shape"/>
</filter>
</defs>
</svg>
