<svg width="155" height="32" viewBox="0 0 155 32" fill="none" xmlns="http://www.w3.org/2000/svg">
<g filter="url(#filter0_d_448_4147)">
<path d="M12.62 23.1602C7.41 24.0802 4 21.7402 4 17.2702C4 11.3702 8.4 6.31021 14.61 5.25021C17.83 4.70021 20.47 5.49021 21.69 7.47021C20.33 8.74021 18.97 10.0102 17.61 11.3002C16.89 10.1702 15.79 9.63021 14.25 9.89021C11.59 10.3502 9.72 12.8202 9.72 15.8102C9.72 17.7802 11.08 18.8502 13.17 18.4802C14.49 18.2502 15.76 17.4802 16.92 15.9002C18.03 16.7802 19.14 17.6702 20.25 18.5602C18.21 21.3702 15.72 22.6202 12.62 23.1602ZM39.58 2.21021C41.18 2.05021 42.79 1.89021 44.4 1.75021C43.3 7.45021 42.19 13.1502 41.09 18.8602C39.37 19.0302 37.65 19.2102 35.93 19.4102C36.42 16.8002 36.92 14.1902 37.42 11.5802C35.84 13.8002 34.26 16.0302 32.69 18.2702C31.86 18.3702 31.02 18.4802 30.19 18.5902C29.33 16.6802 28.46 14.7802 27.6 12.8802C27.1 15.4702 26.59 18.0602 26.09 20.6502C24.37 20.8902 22.65 21.1402 20.93 21.4102C22.05 15.6302 23.17 9.87021 24.29 4.10021C25.82 3.88021 27.36 3.67021 28.9 3.47021C30.11 6.28021 31.33 9.10021 32.54 11.9302C34.89 8.67021 37.23 5.43021 39.58 2.21021ZM53.28 18.2402C48.05 18.5902 44.76 15.8102 44.76 11.3902C44.76 5.46021 49.18 0.910208 55.35 0.540208C60.58 0.230208 63.87 3.23021 63.87 7.64021C63.87 13.5802 59.45 17.8402 53.28 18.2402ZM53.76 13.6202C56.55 13.4502 58.15 10.9902 58.15 8.23021C58.15 6.29021 56.93 5.03021 54.87 5.16021C52.08 5.33021 50.47 7.83021 50.47 10.5902C50.47 12.5302 51.7 13.7602 53.76 13.6202ZM89.56 9.16021C88.96 10.5602 88.19 11.8302 87.25 12.9302C87.68 13.3702 88.1 13.8202 88.52 14.2602C87.33 15.3202 86.14 16.3902 84.95 17.4602C84.49 16.9802 84.04 16.5002 83.58 16.0202C81.92 16.9502 80.05 17.4602 78.04 17.4502C77.8 17.4502 77.56 17.4402 77.33 17.4302C74.03 17.2302 71.53 15.6302 71.53 12.9902C71.53 10.5402 73.28 8.87021 75.73 7.69021C75.2 6.92021 74.94 6.11021 74.94 5.20021C74.94 3.34021 75.89 1.92021 77.33 1.04021C78.45 0.340208 79.88 -0.00979164 81.37 0.00020836C84.37 0.0302084 86.63 1.42021 86.63 3.91021C86.63 6.00021 85.12 7.35021 82.93 8.40021C83.41 8.90021 83.89 9.41021 84.37 9.91021C84.78 9.27021 85.14 8.53021 85.45 7.75021C86.82 8.21021 88.19 8.68021 89.56 9.16021ZM81.16 3.50021C80.44 3.50021 79.88 3.95021 79.88 4.67021C79.88 5.00021 80.03 5.32021 80.48 5.85021C81.8 5.24021 82.07 4.74021 82.07 4.26021C82.07 3.80021 81.71 3.51021 81.16 3.50021ZM79 13.4202C79.57 13.4302 80.17 13.3102 80.77 13.0502C79.9 12.1502 79.03 11.2502 78.16 10.3502C77.82 10.5502 77.54 10.7802 77.33 11.0302C77.09 11.3302 76.96 11.6602 76.96 12.0302C76.96 12.3502 77.08 12.6602 77.33 12.9002C77.65 13.2102 78.2 13.4202 79 13.4202ZM106.77 18.6302C101.56 18.2202 98.15 15.0002 98.15 10.5302C98.15 4.63021 102.54 0.700208 108.76 1.23021C111.98 1.51021 114.62 2.98021 115.84 5.27021C114.48 6.19021 113.12 7.12021 111.76 8.05021C111.04 6.74021 109.94 5.91021 108.4 5.78021C105.74 5.56021 103.86 7.54021 103.86 10.5402C103.86 12.5102 105.23 13.9202 107.32 14.0902C108.64 14.2002 109.91 13.7602 111.06 12.4802C112.18 13.6402 113.29 14.8102 114.4 15.9902C112.36 18.2802 109.86 18.8802 106.77 18.6302ZM121.51 20.1102C118.51 19.7502 115.85 18.7502 114.24 17.6102C114.97 16.2902 115.7 14.9702 116.42 13.6602C118.3 14.9402 120.22 15.6302 122.09 15.8602C123.55 16.0402 124.32 15.7602 124.32 15.1602C124.32 13.3602 116.33 13.4502 116.33 8.27021C116.33 4.46021 119.52 2.28021 124.83 2.96021C127.32 3.28021 129.55 4.10021 131.11 5.27021C130.43 6.54021 129.75 7.82021 129.07 9.10021C127.73 8.07021 126.1 7.44021 124.46 7.23021C122.81 7.02021 121.99 7.48021 121.99 8.05021C121.99 9.87021 130.01 9.76021 130.01 14.9702C130.01 18.7202 126.75 20.7502 121.51 20.1102ZM140.07 22.8202C134.84 21.9302 131.55 18.3702 131.55 13.9502C131.55 8.03021 135.97 4.52021 142.14 5.61021C147.37 6.54021 150.65 10.3202 150.65 14.7302C150.65 20.6602 146.24 23.8802 140.07 22.8202ZM140.55 18.3202C143.34 18.8002 144.94 16.7302 144.94 13.9702C144.94 12.0202 143.72 10.4702 141.65 10.1102C138.87 9.62021 137.26 11.7402 137.26 14.5002C137.26 16.4502 138.49 17.9602 140.55 18.3202Z" fill="white"/>
</g>
<defs>
<filter id="filter0_d_448_4147" x="0" y="0" width="154.65" height="31.3584" filterUnits="userSpaceOnUse" color-interpolation-filters="sRGB">
<feFlood flood-opacity="0" result="BackgroundImageFix"/>
<feColorMatrix in="SourceAlpha" type="matrix" values="0 0 0 0 0 0 0 0 0 0 0 0 0 0 0 0 0 0 127 0" result="hardAlpha"/>
<feOffset dy="4"/>
<feGaussianBlur stdDeviation="2"/>
<feComposite in2="hardAlpha" operator="out"/>
<feColorMatrix type="matrix" values="0 0 0 0 0 0 0 0 0 0 0 0 0 0 0 0 0 0 0.25 0"/>
<feBlend mode="normal" in2="BackgroundImageFix" result="effect1_dropShadow_448_4147"/>
<feBlend mode="normal" in="SourceGraphic" in2="effect1_dropShadow_448_4147" result="shape"/>
</filter>
</defs>
</svg>
