<svg width="337" height="53" viewBox="0 0 337 53" fill="none" xmlns="http://www.w3.org/2000/svg">
<g filter="url(#filter0_d_448_4181)">
<path d="M18.25 23.2021C20.14 22.6821 22.03 22.1721 23.92 21.6821C22.8 27.5721 21.68 33.4721 20.56 39.3721C18.67 39.8821 16.78 40.4021 14.89 40.9321C15.31 38.7521 15.73 36.5721 16.14 34.3921C14.4 34.8721 12.65 35.3721 10.91 35.8721C10.49 38.0521 10.08 40.2421 9.66 42.4221C7.77 42.9721 5.89 43.5221 4 44.0921C5.12 38.1521 6.24 32.2221 7.36 26.2921C9.25 25.7421 11.13 25.1921 13.02 24.6621C12.62 26.7521 12.22 28.8521 11.82 30.9521C13.57 30.4521 15.31 29.9621 17.05 29.4821C17.45 27.3921 17.85 25.2921 18.25 23.2021ZM38.53 27.2421C38.53 28.0521 38.41 28.8521 38.24 29.5821C35.18 30.3121 32.11 31.0721 29.05 31.8421C29.29 32.8921 30.15 33.1021 31.57 32.7521C32.55 32.5021 33.58 31.9621 34.42 31.1321C35.18 32.0421 35.93 32.9521 36.68 33.8721C34.88 35.5321 32.94 36.4121 30.94 36.9121C26.62 37.9921 23.72 36.4221 23.72 32.7021C23.72 28.3821 26.96 24.2921 31.86 23.0721C36.06 22.0321 38.53 23.8521 38.53 27.2421ZM31.62 26.8321C30.37 27.1421 29.62 28.0721 29.26 29.1721C30.7 28.8121 32.13 28.4521 33.56 28.1021C33.56 27.0021 32.77 26.5421 31.62 26.8321ZM50.3 19.0321C52.11 18.6421 53.91 18.2621 55.72 17.8921C54.85 22.4421 53.98 27.0021 53.11 31.5621C51.4 31.9221 49.7 32.2821 47.99 32.6621C48.07 32.2421 48.15 31.8221 48.23 31.4121C47.27 32.5521 46.1 33.3221 44.68 33.6421C42.07 34.2221 39.28 32.7221 39.28 28.8121C39.28 24.4921 42.5 20.5121 46.27 19.6721C47.87 19.3121 49.22 19.4821 50.01 20.4821C50.11 20.0021 50.2 19.5121 50.3 19.0321ZM44.78 27.2821C44.78 28.5021 45.5 29.1821 46.72 28.9121C48.14 28.5921 49.1 27.2121 49.1 25.3921C49.1 24.1621 48.38 23.4821 47.15 23.7521C45.74 24.0621 44.78 25.4521 44.78 27.2821ZM68.13 10.8021C69.94 10.4721 71.75 10.1421 73.56 9.83209C72.37 15.9721 71.19 22.1221 70.01 28.2721C68.3 28.5721 66.6 28.8921 64.89 29.2121C64.97 28.7921 65.05 28.3821 65.13 27.9621C64.2 29.0521 63.02 29.8021 61.61 30.0821C58.99 30.5921 56.21 29.0021 56.21 25.0821C56.21 20.7721 59.42 16.8921 63.19 16.1621C64.8 15.8621 66.12 16.0621 66.93 17.0721C67.33 14.9821 67.73 12.8921 68.13 10.8021ZM61.7 23.7221C61.7 24.9521 62.42 25.6521 63.65 25.4121C65.06 25.1421 66.02 23.7921 66.02 21.9621C66.02 20.7421 65.3 20.0321 64.08 20.2721C62.66 20.5421 61.7 21.9021 61.7 23.7221ZM87.31 25.6721C82.96 26.3221 80.18 24.3821 80.18 20.7021C80.18 16.3921 83.59 12.6121 88.36 11.9121C92.71 11.2821 95.49 13.3221 95.49 16.9921C95.49 21.3121 92.08 24.9721 87.31 25.6721ZM87.62 21.3621C89.04 21.1521 90 19.8421 90 18.0121C90 16.7921 89.28 16.0521 88.05 16.2321C86.64 16.4421 85.68 17.7621 85.68 19.5821C85.68 20.8121 86.4 21.5421 87.62 21.3621ZM104.17 10.7721C104.17 10.7821 104.17 10.7821 104.17 10.7921C105.12 10.6821 106.06 10.5721 107.01 10.4721C106.74 11.8221 106.48 13.1721 106.21 14.5221C105.33 14.6221 104.44 14.7221 103.55 14.8321C102.98 17.7121 102.41 20.5921 101.85 23.4821C100.04 23.7021 98.23 23.9321 96.42 24.1621C96.98 21.2721 97.54 18.3821 98.1 15.5021C97.5 15.5721 96.9 15.6521 96.3 15.7321C96.57 14.3821 96.83 13.0221 97.09 11.6721C97.69 11.5921 98.29 11.5121 98.89 11.4421C98.92 11.3321 98.94 11.2221 98.97 11.1221C99.59 7.89209 101.82 5.42209 105.64 4.98209C106.93 4.84209 108.11 4.92209 108.97 5.26209C108.29 6.59209 107.6 7.92209 106.91 9.26209C106.55 9.10209 106.14 9.03209 105.69 9.08209C104.82 9.18209 104.39 9.69209 104.17 10.7721ZM117.05 21.8421C117.88 17.6321 118.7 13.4221 119.52 9.21209C117.88 9.36209 116.24 9.51209 114.6 9.67209C114.9 8.18209 115.2 6.69209 115.49 5.19209C120.66 4.69209 125.83 4.27209 131 3.92209C130.7 5.40209 130.4 6.89209 130.11 8.37209C128.47 8.49209 126.83 8.61209 125.19 8.74209C124.36 12.9421 123.54 17.1421 122.72 21.3421C120.83 21.5021 118.94 21.6721 117.05 21.8421ZM136.17 8.61209C137.3 7.44209 138.91 6.87209 140.78 6.77209C140.46 8.39209 140.14 10.0021 139.82 11.6221C139.36 11.5721 139.03 11.5721 138.64 11.5921C136.84 11.6821 135.74 12.5021 135.35 14.3721C134.95 16.4221 134.54 18.4621 134.13 20.5121C132.32 20.6321 130.51 20.7521 128.7 20.8821C129.58 16.4421 130.45 12.0021 131.32 7.57209C133.02 7.45209 134.73 7.35209 136.43 7.25209C136.34 7.70209 136.26 8.15209 136.17 8.61209ZM151.15 6.59209C152.96 6.53209 154.76 6.49209 156.57 6.45209C155.7 10.8421 154.83 15.2421 153.96 19.6421C152.25 19.6821 150.55 19.7321 148.85 19.7921C148.92 19.3921 149.01 18.9921 149.08 18.5921C148.12 19.5621 146.95 20.1021 145.53 20.1621C142.92 20.2721 140.13 18.2521 140.13 14.3421C140.13 10.0221 143.35 6.63209 147.12 6.49209C148.73 6.43209 150.07 6.84209 150.86 7.99209C150.96 7.52209 151.05 7.06209 151.15 6.59209ZM145.63 13.8221C145.63 15.0521 146.35 15.8621 147.57 15.8121C148.99 15.7621 149.95 14.5521 149.95 12.7221C149.95 11.5021 149.23 10.6821 148 10.7321C146.59 10.7821 145.63 12.0021 145.63 13.8221ZM164.69 7.03209C164.69 7.04209 164.69 7.05209 164.69 7.05209C165.63 7.05209 166.58 7.04209 167.52 7.04209C167.26 8.36209 166.99 9.68209 166.73 11.0021C165.84 11.0121 164.95 11.0121 164.07 11.0221C163.5 13.8421 162.93 16.6621 162.36 19.4821C160.55 19.5021 158.75 19.5321 156.94 19.5721C157.5 16.7421 158.06 13.9121 158.62 11.0921C158.02 11.1021 157.42 11.1121 156.82 11.1221C157.08 9.80209 157.35 8.47209 157.61 7.15209C158.21 7.13209 158.81 7.12209 159.41 7.11209C159.43 7.01209 159.46 6.90209 159.48 6.80209C160.11 3.65209 162.34 1.42209 166.15 1.41209C166.91 1.40209 167.63 1.48209 168.27 1.62209C168.72 1.73209 169.13 1.87209 169.49 2.05209C169.08 2.80209 168.67 3.54209 168.27 4.29209C167.99 4.80209 167.71 5.31209 167.43 5.82209C167.07 5.63209 166.66 5.51209 166.2 5.51209C165.34 5.51209 164.91 5.97209 164.69 7.03209ZM184.99 0.00208761C186.88 0.0620876 188.06 1.14209 188.06 2.58209C188.06 4.38209 186.69 5.57209 184.6 5.51209C182.71 5.45209 181.53 4.30209 181.53 2.86209C181.53 1.18209 182.9 -0.0579124 184.99 0.00208761ZM174.91 7.06209C174.91 7.07209 174.91 7.07209 174.91 7.08209C175.85 7.09209 176.8 7.11209 177.74 7.12209C177.48 8.44209 177.21 9.75209 176.95 11.0721C176.06 11.0621 175.17 11.0421 174.28 11.0321C173.72 13.8421 173.15 16.6621 172.58 19.4721C171.14 19.4621 169.7 19.4521 168.27 19.4521C167.9 19.4521 167.53 19.4521 167.16 19.4521C167.53 17.5921 167.9 15.7321 168.27 13.8821C168.46 12.9221 168.65 11.9621 168.84 11.0021C168.65 11.0021 168.46 11.0021 168.27 11.0021C167.86 11.0021 167.45 11.0021 167.04 11.0021C167.3 9.68209 167.56 8.36209 167.83 7.04209C167.97 7.04209 168.12 7.04209 168.27 7.04209C168.72 7.04209 169.17 7.04209 169.63 7.04209C169.65 6.94209 169.68 6.84209 169.7 6.73209C170.33 3.59209 172.56 1.41209 176.37 1.46209C177.67 1.48209 178.85 1.72209 179.71 2.17209C179.02 3.41209 178.33 4.65209 177.65 5.90209C177.28 5.70209 176.88 5.57209 176.42 5.57209C175.56 5.55209 175.13 6.00209 174.91 7.06209ZM178.7 19.5521C179.57 15.1921 180.44 10.8321 181.32 6.48209C183.12 6.52209 184.92 6.57209 186.72 6.63209C185.84 10.9821 184.97 15.3321 184.1 19.6821C182.3 19.6321 180.5 19.5821 178.7 19.5521ZM194.23 20.3121C189.91 20.1021 187.08 17.6221 187.08 13.9421C187.08 9.62209 190.51 6.51209 195.36 6.75209C198.48 6.91209 200.93 8.52209 201.86 10.9521C200.33 11.5621 198.79 12.1821 197.25 12.8021C196.8 11.5521 196.01 11.0621 195.09 11.0121C193.63 10.9421 192.57 12.0721 192.57 13.8221C192.57 15.0721 193.29 15.9921 194.64 16.0521C195.69 16.1021 196.46 15.6921 197.09 14.5021C198.41 15.3321 199.73 16.1821 201.05 17.0221C199.75 19.2521 197.33 20.4521 194.23 20.3121ZM221.4 22.0321C221.22 21.0321 221.03 20.0421 220.85 19.0521C218.71 18.8421 216.58 18.6521 214.44 18.4721C213.88 19.4021 213.32 20.3321 212.76 21.2621C210.77 21.1021 208.78 20.9421 206.78 20.8021C210.35 15.4621 213.92 10.1421 217.49 4.86209C219.34 5.03209 221.2 5.21209 223.05 5.39209C224.38 11.1221 225.71 16.8621 227.04 22.6021C225.16 22.4021 223.28 22.2121 221.4 22.0321ZM216.77 14.5921C217.86 14.6921 218.96 14.7921 220.05 14.8921C219.78 13.4321 219.51 11.9821 219.24 10.5221C218.41 11.8721 217.59 13.2321 216.77 14.5921ZM239.18 10.6721C241.94 11.0321 243.88 12.7921 243.88 15.7721C243.88 16.2721 243.83 16.8221 243.71 17.4021C243.23 19.7521 242.75 22.1021 242.27 24.4521C240.46 24.2121 238.66 23.9721 236.85 23.7421C237.29 21.6021 237.73 19.4621 238.17 17.3121C238.22 17.0321 238.26 16.7721 238.26 16.5321C238.26 15.6021 237.81 15.0621 236.89 14.9421C235.67 14.7921 234.81 15.4821 234.47 17.1421C234.05 19.1921 233.62 21.2521 233.2 23.3021C231.39 23.0921 229.58 22.8821 227.77 22.6821C228.65 18.4021 229.52 14.1221 230.39 9.85209C232.09 10.0421 233.8 10.2421 235.5 10.4521C235.42 10.8821 235.33 11.3121 235.24 11.7421C236.39 10.8021 237.83 10.5021 239.18 10.6721ZM256.48 13.4321C258.28 13.7221 260.09 14.0221 261.9 14.3321C261.03 18.5521 260.16 22.7821 259.29 27.0121C257.58 26.7321 255.88 26.4621 254.17 26.1921C254.25 25.8021 254.33 25.4121 254.41 25.0321C253.45 25.8121 252.28 26.1321 250.86 25.9221C248.24 25.5221 245.46 22.9721 245.46 19.0621C245.46 14.7421 248.68 11.9721 252.44 12.5521C254.05 12.8021 255.4 13.4721 256.19 14.7721C256.29 14.3221 256.38 13.8821 256.48 13.4321ZM250.96 19.6021C250.96 20.8221 251.68 21.7721 252.9 21.9621C254.32 22.1821 255.28 21.1621 255.28 19.3321C255.28 18.1121 254.56 17.1521 253.33 16.9621C251.92 16.7421 250.96 17.7721 250.96 19.6021ZM261.67 27.4221C262.85 21.6821 264.03 15.9521 265.22 10.2321C267.03 10.5521 268.83 10.8721 270.64 11.2121C269.46 16.9321 268.27 22.6521 267.09 28.3721C265.28 28.0421 263.47 27.7221 261.67 27.4221ZM281.45 18.0221C283.21 18.3821 284.98 18.7621 286.75 19.1421C284.06 23.0221 281.37 26.9321 278.69 30.8521C276.53 34.0121 274.68 34.6821 271.65 34.1121C270.21 33.8321 268.65 33.0921 267.79 32.2621C268.57 31.1521 269.36 30.0421 270.14 28.9321C270.67 29.4321 271.37 29.8521 272.11 29.9921C272.69 30.1021 273.09 29.9921 273.45 29.7021C272.49 25.0921 271.53 20.4821 270.57 15.8821C272.37 16.2221 274.17 16.5621 275.97 16.9221C276.42 19.3621 276.87 21.8021 277.32 24.2421C278.69 22.1621 280.07 20.0921 281.45 18.0221ZM293 25.2121C292.78 26.2521 292.56 27.3021 292.35 28.3521C292.32 28.4921 292.3 28.6021 292.3 28.7221C292.3 29.3521 292.68 29.7221 293.31 29.8621C293.74 29.9621 294.1 29.9221 294.51 29.8321C294.72 31.0921 294.92 32.3521 295.13 33.6221C294.12 33.9421 292.85 33.8621 291.58 33.5821C288.65 32.9221 286.78 31.0521 286.78 28.4421C286.78 28.0321 286.83 27.6121 286.92 27.1721C287.15 26.1221 287.37 25.0621 287.59 24.0021C286.99 23.8721 286.38 23.7421 285.77 23.6121C286.04 22.3521 286.3 21.0821 286.56 19.8221C287.16 19.9521 287.76 20.0821 288.36 20.2121C288.61 19.0421 288.86 17.8721 289.11 16.7021C290.91 17.1021 292.72 17.5121 294.53 17.9321C294.28 19.0921 294.04 20.2621 293.79 21.4321C294.68 21.6321 295.58 21.8421 296.47 22.0521C296.21 23.3121 295.95 24.5721 295.68 25.8321C294.79 25.6221 293.89 25.4121 293 25.2121ZM302.23 21.6521C300.34 21.1921 299.16 19.7821 299.16 18.3421C299.16 16.6621 300.53 15.7221 302.62 16.2321C304.51 16.6921 305.69 18.0221 305.69 19.4621C305.69 21.2621 304.32 22.1721 302.23 21.6521ZM296.33 34.4321C297.2 30.2521 298.07 26.0821 298.95 21.9221C300.75 22.3521 302.55 22.7821 304.35 23.2321C303.47 27.3921 302.6 31.5521 301.73 35.7221C299.93 35.2821 298.13 34.8521 296.33 34.4321ZM311.86 38.5221C307.54 37.3921 304.71 34.2921 304.71 30.6221C304.71 26.3021 308.14 23.9321 312.99 25.2121C316.11 26.0321 318.56 28.1721 319.5 30.8121C317.96 31.0921 316.42 31.3721 314.89 31.6621C314.43 30.3221 313.64 29.6521 312.73 29.4121C311.26 29.0221 310.21 29.9321 310.21 31.6821C310.21 32.9321 310.93 34.0021 312.27 34.3521C313.33 34.6321 314.09 34.3821 314.72 33.3221C316.04 34.4421 317.36 35.5721 318.68 36.7021C317.38 38.6521 314.96 39.3321 311.86 38.5221ZM324.35 41.9421C322 41.2621 319.74 40.1121 318.59 39.1221C319.21 38.0621 319.84 37.0021 320.46 35.9521C321.76 37.1021 323.56 38.0121 325.02 38.4321C326.22 38.7821 326.63 38.6321 326.63 38.2721C326.63 37.1321 320 36.4521 320 32.0721C320.01 28.6921 323.29 28.0121 327.4 29.2121C329.32 29.7621 331.16 30.6721 332.53 31.7121C331.91 32.7521 331.29 33.8021 330.66 34.8421C329.29 33.6521 327.85 33.0321 326.75 32.7121C325.5 32.3521 325.09 32.5721 325.09 32.8821C325.09 34.0721 331.69 34.7521 331.69 39.1621C331.69 42.4521 328.38 43.0821 324.35 41.9421Z" fill="white"/>
</g>
<defs>
<filter id="filter0_d_448_4181" x="0" y="0" width="336.529" height="52.0923" filterUnits="userSpaceOnUse" color-interpolation-filters="sRGB">
<feFlood flood-opacity="0" result="BackgroundImageFix"/>
<feColorMatrix in="SourceAlpha" type="matrix" values="0 0 0 0 0 0 0 0 0 0 0 0 0 0 0 0 0 0 127 0" result="hardAlpha"/>
<feOffset dy="4"/>
<feGaussianBlur stdDeviation="2"/>
<feComposite in2="hardAlpha" operator="out"/>
<feColorMatrix type="matrix" values="0 0 0 0 0 0 0 0 0 0 0 0 0 0 0 0 0 0 0.25 0"/>
<feBlend mode="normal" in2="BackgroundImageFix" result="effect1_dropShadow_448_4181"/>
<feBlend mode="normal" in="SourceGraphic" in2="effect1_dropShadow_448_4181" result="shape"/>
</filter>
</defs>
</svg>
