<svg width="99" height="193" viewBox="0 0 99 193" fill="none" xmlns="http://www.w3.org/2000/svg">
<path d="M36.651 0.812904C38.325 2.05956 40.2306 4.23232 41.5485 6.41397C43.6857 9.92242 45.0481 13.8316 45.8317 18.7381C46.4996 22.9055 46.0009 28.6846 44.6385 32.5048C43.7658 34.9447 42.8842 36.3516 41.1122 38.1058C37.5058 41.6855 37.0517 42.3088 35.805 45.4522C34.8077 47.9722 34.5316 48.373 32.0383 50.9197C30.5156 52.4869 30.4978 52.5047 30.8451 52.4513C31.4061 52.3623 32.4925 51.8102 33.2137 51.2581C34.1843 50.519 34.7988 49.7354 36.8914 46.6098C39.7943 42.2821 40.3642 41.543 44.0241 37.3667C45.2351 35.9865 46.4105 34.6063 46.6242 34.3124C46.8379 34.0186 47.3455 33.1459 47.7462 32.3801C49.7587 28.5422 50.4622 27.6339 53.748 24.6775C58.4764 20.4122 59.3045 19.4683 60.3375 17.1441C61.4773 14.5974 62.0828 11.739 61.967 9.52171L61.9225 8.72028L62.0294 9.25457C62.3499 10.7238 62.4746 12.202 62.4746 14.3748C62.4657 16.8414 62.3678 17.6072 61.8424 19.1833C61.3793 20.5725 61.1211 20.9732 59.2956 23.1637C56.6598 26.3338 55.6269 27.9099 54.6474 30.2341C53.7035 32.5048 53.1692 34.5885 52.5904 38.3284C52.2965 40.2073 51.6732 42.2109 50.8985 43.7603C49.5895 46.3694 47.0695 48.8983 44.9056 49.7799L44.398 49.9847L44.9323 50.2162C46.3126 50.8307 47.9866 51.3293 49.3224 51.5163C50.4176 51.6677 52.252 51.5786 53.0356 51.3293C54.4515 50.893 57.1229 49.4059 59.0552 47.9901C59.4915 47.6784 59.8477 47.4291 59.8477 47.4469C59.8477 47.5804 58.8415 50.3676 58.4052 51.454C56.829 55.3721 55.0392 58.6134 53.1692 60.9286C52.7863 61.4094 51.1033 63.1548 49.4203 64.811L46.366 67.8297L46.7934 67.7674C47.5948 67.6427 49.358 67.1797 50.8362 66.6899C52.4123 66.1824 53.5699 65.844 53.7836 65.844C53.8549 65.844 53.4363 66.1735 52.8486 66.5653C51.3348 67.5982 51.1923 67.7229 49.1175 69.8244L47.2476 71.7122L46.2235 72.1931C45.6625 72.4602 44.6652 72.8698 44.0151 73.1102L42.8397 73.5466L44.3713 73.5733C46.1523 73.6089 47.9866 73.4842 50.1594 73.1904C51.0053 73.0746 51.7088 72.9945 51.7266 73.0123C51.7711 73.0568 50.6848 73.8048 49.9724 74.2144C47.9777 75.3631 45.5468 76.2358 42.7507 76.7879C41.1924 77.0906 40.667 77.2598 39.7587 77.714C37.675 78.7647 36.1612 80.6436 34.2645 84.5439C33.098 86.9214 32.35 88.1147 30.9965 89.7264L30.7204 90.0559L30.9163 90.1628C31.1924 90.3052 31.9582 90.2251 32.4301 89.9936C32.6438 89.8867 33.285 89.4593 33.846 89.0319C35.2618 87.9811 35.7694 87.7318 36.6064 87.6783C37.3366 87.6338 38.3607 87.8564 38.9929 88.1948L39.3224 88.364L38.6545 88.3729C37.8709 88.3818 37.0784 88.6222 36.3037 89.0853C35.4488 89.5928 29.5272 95.4878 29.7053 95.657C29.8032 95.7549 31.0143 95.7104 31.2992 95.5946C31.4417 95.5412 31.5753 95.5056 31.5931 95.5234C31.6109 95.5501 31.4239 95.7905 31.1746 96.0577C30.8095 96.4584 30.5868 96.6098 30.0169 96.8413C29.5628 97.0283 29.3313 97.1619 29.3847 97.2242C29.4203 97.2776 29.6162 97.5537 29.821 97.8297L30.1861 98.3284L29.4203 97.9366C28.9306 97.6872 28.5299 97.5448 28.3251 97.5448C27.9065 97.5448 26.9181 97.2776 26.2057 96.9749C25.431 96.6454 25.0125 96.6098 24.0241 96.7879C23.187 96.9392 23.1603 96.9392 22.8754 96.77C22.5637 96.592 22.0205 95.8261 20.8629 93.9383L20.1505 92.7807L20.3642 92.665C20.5601 92.5581 20.6492 92.5937 21.415 93.0479C22.4925 93.6801 23.1425 93.9829 23.4364 93.9829C23.8727 93.9829 25.5735 92.2821 26.7667 90.6436C27.6038 89.4949 27.9421 88.8627 29.0285 86.3783C30.4355 83.1815 30.7738 82.6828 32.0205 82.0417C32.3322 81.8725 32.5637 81.7122 32.5459 81.6766C32.4835 81.5786 31.7979 81.5875 31.2903 81.6944C31.0588 81.7478 30.5601 81.9615 30.195 82.1752C29.5539 82.5581 29.5272 82.5581 29.5005 82.3711C29.4559 82.0595 29.9902 80.697 30.4711 79.8956C31.5486 78.1147 32.2787 77.3311 34.3892 75.7193C35.9831 74.5083 36.3927 74.0898 36.829 73.1904C37.3277 72.1752 37.4524 71.3471 37.4435 69.1833C37.4435 68.1503 37.3989 67.153 37.3455 66.9571L37.2476 66.6009L37.1407 66.8947C36.642 68.2126 35.618 69.8689 34.7542 70.7238C34.1843 71.3026 33.8905 71.4985 31.1746 73.1548C29.7231 74.0363 29.3402 74.4727 28.0579 76.7077C26.838 78.836 25.7427 80.5279 24.9947 81.4629C24.6207 81.9259 24.496 82.1574 24.496 82.3711C24.496 82.9677 24.6563 83.0924 25.7605 83.3417C26.1345 83.4308 26.4194 83.5466 26.3927 83.5911C26.3037 83.7336 25.2707 84.1788 24.8878 84.2411C24.3803 84.3124 23.7747 84.1075 23.187 83.6534L22.7151 83.3061L21.3349 84.8734L19.9457 86.4495L20.3108 86.7968C20.5067 86.9927 20.8807 87.4557 21.1479 87.8386C21.4862 88.3106 21.8157 88.6579 22.2164 88.9428C22.537 89.1743 22.8041 89.388 22.8041 89.4148C22.8041 89.4415 22.4301 89.4504 21.976 89.4237C20.9609 89.3702 20.5067 89.1832 19.4203 88.3551L18.6634 87.7852L16.8825 89.7264C15.5735 91.1423 15.0659 91.7656 14.9769 92.0327L14.8611 92.3978L13.1247 90.6792C12.1719 89.7264 11.139 88.6668 10.8362 88.3195C10.2307 87.616 9.5094 86.4495 9.1354 85.5857L8.89497 85.0158L9.59845 84.0897C10.7026 82.6294 11.7623 80.8128 12.3055 79.4415C12.5815 78.7469 13.5878 75.1939 13.8104 74.1254C13.9172 73.6089 14.0241 72.8698 14.0508 72.478C14.1042 71.6677 14.0686 71.5519 13.2761 70.2874C12.3589 68.8271 12.0205 67.9722 12.0205 67.1352C12.0205 66.6009 12.1897 66.2002 12.8041 65.3275C13.7926 63.8939 13.8727 63.4219 13.4631 61.4362C12.9911 59.1387 12.9288 57.0461 13.2939 55.3186L13.4097 54.7576L13.4631 56.316C13.5165 57.8119 13.5343 57.9277 13.8816 59.0764L14.2467 60.2785L14.1844 59.6107C14.0953 58.6134 14.1309 55.942 14.2467 54.9802C14.6029 52.1218 15.342 49.8155 16.6688 47.3934C18.1737 44.6508 19.0731 43.4932 22.0918 40.4211C25.5735 36.8681 27.2031 34.9714 28.6812 32.7363C30.7827 29.584 31.6376 26.5564 31.504 22.7897C31.3883 19.7799 30.6136 17.4291 29.0285 15.2831L28.5833 14.6864L29.0018 15.1317C30.8006 17.0462 32.0383 19.6998 32.4746 22.5671C32.724 24.2234 32.6349 27.34 32.2876 29.397C31.8157 32.1664 31.0054 34.3837 29.0819 38.2394C27.2031 41.9972 26.7222 43.698 26.7222 46.5653C26.7222 47.1975 26.7578 47.6784 26.7934 47.6339C26.838 47.5804 26.9626 47.2866 27.0784 46.966C27.5147 45.7283 28.5566 43.8494 29.5272 42.5671C30.8184 40.8485 32.0561 39.6374 35.3152 36.9126C38.3607 34.3658 39.5806 33.0212 41.1656 30.4745C42.3678 28.5422 43.0534 26.4674 43.3918 23.7247C43.5432 22.5137 43.5432 18.1415 43.3918 16.8236C42.6616 10.519 40.3464 5.21183 36.464 0.94648C36.0989 0.545761 35.805 0.216293 35.8228 0.216293C35.8406 0.216293 36.2146 0.483429 36.651 0.812904ZM50.3909 33.6089C46.3838 38.7024 44.3802 41.9794 44.0419 43.9562C43.9083 44.7665 44.4782 45.2563 45.4399 45.1494C46.8201 45.007 47.9956 44.0186 48.8504 42.291C49.3134 41.356 49.5183 40.5546 49.8299 38.4175C50.0793 36.7434 50.3108 35.7461 50.8629 33.9028C51.0499 33.2617 51.2102 32.7007 51.2102 32.665C51.2102 32.576 51.1834 32.6027 50.3909 33.6089ZM26.464 55.6125C26.0989 57.6249 25.903 58.1325 25.0036 59.4682C24.7186 59.8956 24.3268 60.5635 24.1487 60.9375C23.8638 61.5341 23.8282 61.6944 23.8282 62.291C23.8282 62.8965 23.8727 63.039 24.1844 63.6712L24.5316 64.3747L24.6029 63.8404C24.7365 62.8342 24.9591 61.8814 25.1372 61.5252C25.2351 61.3293 25.5824 60.7327 25.903 60.2073C26.2146 59.6819 26.5975 58.9339 26.7489 58.5599C26.9982 57.9455 27.025 57.7763 27.025 56.9393C27.025 56.3605 26.9626 55.7193 26.8558 55.2652C26.7667 54.8645 26.6866 54.5439 26.6688 54.5528C26.6599 54.5706 26.5619 55.0426 26.464 55.6125ZM34.8611 56.8591C34.0686 57.8387 33.0713 58.7202 31.2547 60.0737C28.9484 61.7924 28.3696 62.4068 27.2743 64.3391C25.342 67.7407 24.1309 69.0052 21.3705 70.4655C20.0793 71.1423 19.1265 71.4985 18.236 71.6231C16.9626 71.8012 15.5646 71.4451 14.5406 70.6792C14.0953 70.3498 14.2022 70.5635 14.7988 71.2135C15.9831 72.5136 17.4613 72.754 19.6341 72.015C19.9724 71.9081 20.2752 71.8101 20.293 71.8101C20.3197 71.8101 20.3108 72.0773 20.2752 72.3979C20.204 73.128 19.9813 73.5911 19.4114 74.2678C18.8237 74.9446 18.6011 75.4344 18.6367 75.9508L18.6634 76.3426L19.643 75.6125C20.9698 74.624 22.0294 73.5911 22.3144 73.0212C22.439 72.763 22.6438 72.1841 22.7596 71.7211C23.0357 70.706 23.2405 70.3587 23.7391 70.0648C23.9528 69.9402 25.2173 69.4771 26.553 69.0408C27.9778 68.5777 29.26 68.0969 29.6429 67.8921C30.9787 67.1708 31.8424 66.307 32.3945 65.1583C32.8665 64.1699 32.7329 64.1076 32.065 65.007C31.3259 66.0132 30.9252 66.3872 30.2039 66.7612C29.1354 67.3222 29.1265 67.3044 29.821 66.2714C30.6314 65.0604 30.8362 64.6508 31.1746 63.4842C31.5842 62.104 31.7623 61.8102 32.8754 60.7772C33.9706 59.7443 34.594 58.8894 35.2618 57.4647C35.6536 56.6365 36.3393 55.007 36.3393 54.909C36.3393 54.8912 36.1167 55.1851 35.8406 55.568C35.5646 55.9598 35.1193 56.5386 34.8611 56.8591ZM11.8602 85.1316C11.513 85.2117 11.228 85.3097 11.228 85.3631C11.228 85.5946 11.7623 86.4851 12.1986 86.966C12.7062 87.527 13.7124 88.4085 13.7748 88.3462C13.9083 88.2215 13.3295 85.9686 13 85.3275C12.8041 84.9357 12.7507 84.9268 11.8602 85.1316Z" fill="url(#paint0_linear_480_455)"/>
<path d="M54.8624 42.1664C59.6531 42.4958 64.1144 43.3863 67.7742 44.7576C71.9238 46.2982 75.6103 48.9339 79.4572 53.0835C81.0956 54.8556 81.9327 55.844 84.426 58.9428C86.67 61.73 88.1749 63.413 91.0956 66.3961C91.6121 66.9215 92.0039 67.3756 91.9772 67.4023C91.897 67.4825 90.6326 66.7968 89.6798 66.1557C87.881 64.9446 86.1357 63.324 84.0253 60.9019C81.0689 57.5003 78.4331 55.3453 77.3378 55.4433L77.0173 55.47L78.2639 56.6187C81.8971 59.9491 84.7466 63.7692 85.8953 66.868C86.3316 68.0346 86.857 70.1183 87.0974 71.6766L87.3022 72.9232L87.8365 73.502C88.9763 74.722 90.2051 76.5475 91.2915 78.6223C92.8231 81.5519 93.4999 83.7068 93.9095 86.966C94.0698 88.2393 94.1855 91.6053 94.0965 92.2376L94.0253 92.665L93.4286 91.5697C91.8525 88.6668 90.6771 87.2331 89.377 86.592C88.8605 86.3337 88.727 86.307 88.2461 86.3426C87.7653 86.3783 87.6584 86.4228 87.4447 86.6543C86.8035 87.3845 86.8659 89.023 87.7207 93.2705C88.1927 95.6124 88.3173 97.2242 88.1838 99.2723C87.979 102.309 87.4091 105.345 86.4117 108.631C85.8507 110.492 85.8775 110.572 85.824 107.108C85.7617 103.386 85.6014 102.255 84.9425 100.848L84.6664 100.261L84.5952 100.75C84.5507 101.018 84.4171 101.979 84.2924 102.888C83.5979 107.928 82.2621 112.353 80.4011 115.755C78.8338 118.631 75.5569 123.11 73.1259 125.684L72.5827 126.262L73.8739 123.725C76.5453 118.444 77.2488 116.494 77.2577 114.286C77.2577 113.208 77.1063 112.505 76.7768 112.068L76.6166 111.855L76.109 112.87C74.5952 115.897 71.7813 119.228 68.4866 121.899C66.4474 123.555 65.1117 124.945 64.239 126.298C64.0609 126.574 63.5623 127.536 63.1259 128.444C61.808 131.213 61.3183 132.059 60.1785 133.609C58.3886 136.031 55.8419 138.498 53.6602 139.922C53.2773 140.172 52.9478 140.368 52.93 140.341C52.9122 140.323 54.3192 137.331 56.0467 133.689C57.7831 130.047 59.19 127.055 59.1811 127.037C59.1722 127.028 57.8454 127.865 56.2337 128.907C52.7341 131.16 50.3299 132.647 48.9674 133.413C46.7502 134.642 45.0583 136.12 43.9719 137.75C43.2417 138.854 42.2889 140.75 41.4786 142.692L40.8731 144.161L40.9176 143.137C40.9888 141.347 41.4252 139.735 42.2889 138.008C42.4848 137.616 42.7965 137.099 42.9746 136.859L43.304 136.432L42.2889 136.966C39.5374 138.417 36.1892 140.866 34.3815 142.754C33.0191 144.179 31.719 146.236 30.9532 148.168C30.8196 148.506 30.695 148.809 30.6861 148.818C30.6683 148.836 30.5881 148.631 30.4991 148.355C30.41 148.079 30.3121 147.856 30.2765 147.856C30.1607 147.856 28.3352 150.928 27.8722 151.908C27.3201 153.083 26.8036 154.624 26.5454 155.88L26.3495 156.806L28.1928 161.57C30.2587 166.895 30.321 167.082 30.2141 166.957C29.9915 166.708 27.2132 162.923 26.8125 162.318C26.5543 161.935 26.3139 161.579 26.2782 161.543C26.1981 161.445 26.4118 162.968 26.5899 163.751C26.7769 164.535 29.1723 172.879 29.3593 173.386C29.5107 173.805 29.662 173.885 29.662 173.564C29.6709 173.457 29.8045 173.733 29.9648 174.179C30.3032 175.114 30.8018 176.075 31.2649 176.681C31.8437 177.456 33.5356 178.31 35.0939 178.631C35.7439 178.756 36.1803 178.774 38.1215 178.729L40.3922 178.676L39.4127 178.987C38.8695 179.148 38.1927 179.335 37.8989 179.388C36.7235 179.602 34.6754 179.441 33.7671 179.058C33.4643 178.934 33.4643 178.934 33.6246 179.112C34.15 179.691 36.7146 181.026 38.3174 181.552C41.1936 182.496 45.4234 182.968 48.1571 182.665C52.6362 182.166 54.987 179.798 55.1918 175.55C55.272 173.751 54.9603 171.668 54.2836 169.682C54.1233 169.192 54.0164 168.782 54.0609 168.782C54.0966 168.782 54.3637 169.041 54.6576 169.352C56.1268 170.911 56.955 172.433 57.4892 174.526C57.605 174.962 57.7119 175.265 57.7386 175.194C57.7653 175.123 57.8632 174.277 57.9701 173.324C58.4153 169.228 59.1811 165.274 60.0449 162.638C61.621 157.803 64.8 153.368 68.6736 150.599C69.0743 150.314 69.4305 150.083 69.475 150.083C69.5195 150.083 69.3681 150.332 69.1455 150.635C68.6825 151.276 68.0502 152.531 67.7742 153.377C67.3468 154.704 67.1509 157.322 67.418 158.275L67.5249 158.667L68.3352 157.812C70.2675 155.782 72.4937 153.983 74.1945 153.083C75.9487 152.157 78.0502 151.374 81.4429 150.394C84.9425 149.379 86.2425 148.889 88.8338 147.563C92.9834 145.434 96.3939 142.148 98.2639 138.462C98.7359 137.527 98.7804 137.571 98.4064 138.622C97.4091 141.463 95.9131 144.214 94.1945 146.369C92.3512 148.693 90.5791 150.216 84.8267 154.446C78.2372 159.29 76.3939 161.044 74.3904 164.41C73.1882 166.414 71.7546 169.664 70.8552 172.424C70.3833 173.849 69.8045 175.915 69.8579 175.969C69.9113 176.022 70.7395 175.666 71.247 175.372C72.9122 174.392 74.426 172.772 76.3227 169.931C77.9523 167.509 79.3503 165.924 80.9086 164.749C82.182 163.787 84.5863 162.629 86.9193 161.855C89.1722 161.107 95.4589 159.245 95.7172 159.254C95.7528 159.254 95.0582 159.53 94.1766 159.869C90.9264 161.107 88.6379 162.086 86.4563 163.181C83.117 164.873 82.5293 165.497 79.662 170.385C75.8062 176.966 72.8053 180.448 68.7003 183.083C67.5338 183.831 65.5213 184.847 64.4794 185.203C64.1144 185.336 63.7493 185.461 63.678 185.488C63.6068 185.514 64.0164 185.692 64.5952 185.879C65.7172 186.245 67.2933 186.975 67.7208 187.331L67.9879 187.545L67.32 187.607C65.0404 187.803 63.0369 187.839 61.5409 187.705C59.5997 187.527 59.0476 187.589 57.1331 188.248C52.1731 189.949 47.9523 190.608 43.2239 190.412C38.1304 190.207 33.5356 189.593 29.3771 188.542C28.8072 188.4 28.3174 188.284 28.2907 188.284C28.264 188.284 28.4688 188.613 28.7449 189.014C29.0209 189.424 29.3237 189.931 29.4216 190.154C29.6442 190.679 30.2052 192.318 30.1607 192.353C30.1518 192.371 29.6353 191.632 29.0298 190.715C28.3085 189.619 27.703 188.827 27.2845 188.408C26.7057 187.83 26.5899 187.749 25.9043 187.527C25.2364 187.304 22.9212 186.423 21.7814 185.951C20.8108 185.55 18.6736 184.286 17.2667 183.288C15.0138 181.668 12.7431 179.566 11.1937 177.643C10.1162 176.325 10.1429 176.343 10.2409 176.663C10.3032 176.886 10.8286 178.408 11.9506 181.605C12.0485 181.872 12.0841 182.05 12.0396 182.006C11.8704 181.819 7.94345 175.648 7.72084 175.212C7.28451 174.357 7.02627 173.279 6.98174 172.122L6.93723 171.053L6.42075 169.94C5.12066 167.135 4.41719 164.401 4.21238 161.347L4.15005 160.457L3.84729 160.902C3.06367 162.033 2.42254 162.629 0.899834 163.618C0.169647 164.099 0.0895004 164.125 0.329926 163.876C0.472404 163.707 0.99778 163.128 1.48754 162.594C2.84106 161.107 3.16163 160.679 3.6692 159.655L4.14114 158.72L4.21238 157.447C4.41719 153.814 5.02271 149.931 5.83304 147.144C5.9577 146.734 6.04675 146.378 6.02895 146.369C6.01113 146.351 4.92476 148.097 3.60686 150.252C2.28896 152.407 1.20259 154.161 1.19369 154.152C1.14916 154.099 3.44658 146.289 3.74934 145.497C4.89804 142.451 6.44746 139.735 8.47774 137.215C8.94968 136.628 10.0539 135.399 10.9354 134.481C12.3513 133.003 13.313 131.801 14.0966 130.537C14.1411 130.465 13.8295 130.243 13.2328 129.913C12.7164 129.62 12.3246 129.361 12.3602 129.326C12.4047 129.29 13.2774 128.854 14.3103 128.364C19.6353 125.862 20.7395 125.247 24.711 122.629C26.7858 121.258 26.9906 121.098 26.8482 120.991C26.2693 120.572 24.6042 120.537 23.126 120.911C21.3628 121.365 18.9853 122.335 15.833 123.921C14.8624 124.401 14.0966 124.74 14.1411 124.669C14.337 124.321 15.5659 123.066 16.4385 122.318C19.4038 119.78 22.3691 118.408 26.4118 117.714C28.3174 117.384 29.7155 117.028 31.8081 116.334C33.8473 115.657 35.7529 114.909 37.6317 114.045C38.3174 113.725 39.2168 113.351 39.6353 113.199C41.7813 112.433 44.4528 110.884 46.7591 109.05C47.9701 108.088 50.6771 105.354 51.719 104.036C54.524 100.501 56.6522 96.592 57.7564 92.9677C58.077 91.8992 58.451 90.145 58.5578 89.2634C58.6023 88.827 58.5667 88.8894 58.2194 89.8867C56.5453 94.6774 54.3815 98.2839 51.3717 101.303C50.2052 102.46 48.1838 104.152 47.4269 104.597C47.3735 104.624 47.7653 104.214 48.2907 103.68C52.4225 99.4593 55.1384 94.0096 55.9933 88.2393C56.2159 86.7077 56.2159 82.7719 55.9933 81.3382C55.4946 78.1592 54.4349 75.6036 53.0013 74.1165L52.5917 73.698L53.0814 73.6356C53.8027 73.5466 57.6673 73.5733 58.2818 73.6801C59.2702 73.8404 59.9024 74.4192 60.4723 75.6748C61.0868 77.0194 61.5231 79.5038 61.621 82.1841L61.6745 83.876L61.8258 83.2527C62.3512 81.071 62.556 78.4887 62.3423 76.8057C61.9683 73.9206 60.7217 72.2732 58.54 71.7567C58.0413 71.6321 57.6139 71.6232 56.109 71.6677C54.239 71.7211 51.5587 71.9081 49.9113 72.1129L48.9853 72.2198L49.1366 71.9971C49.4483 71.5074 50.5703 70.2429 51.2114 69.6641C53.3575 67.714 55.5658 66.6454 58.0146 66.3694C60.223 66.12 62.8054 66.7701 64.3013 67.9455C66.4385 69.6196 66.9906 72.7006 65.8597 76.6187C65.6994 77.1797 65.4768 77.8386 65.3788 78.0791C64.9959 78.9606 65.272 78.551 65.8419 77.4023C67.6228 73.787 67.979 70.6793 66.8837 68.4531C66.1001 66.8591 64.7288 65.844 62.3156 65.0426C60.873 64.5706 59.8846 64.4103 57.9701 64.3569C55.5391 64.2857 53.4999 64.5528 51.3806 65.2207C50.9265 65.3631 50.5347 65.47 50.5169 65.4522C50.508 65.4344 50.7395 65.2207 51.0511 64.9802C54.8 61.9972 59.8668 61.0711 65.7261 62.2821C69.003 62.9678 72.5204 65.0604 75.9576 68.3729C76.9282 69.3079 76.9371 69.2367 76.0199 68.0257C74.1945 65.5947 72.2176 63.6534 70.312 62.4068C68.4599 61.2046 66.9371 60.706 64.1054 60.3587C62.1731 60.1183 56.8659 60.1895 55.4679 60.4655C55.2364 60.5101 55.2631 60.4566 55.8953 59.5038C56.768 58.2038 57.8187 56.4406 58.2016 55.6392C58.6023 54.8022 59.1277 53.1815 59.5017 51.6677L59.7956 50.4478L60.2586 50.8841C61.2203 51.7924 62.2711 52.3445 63.9719 52.8342C65.0137 53.137 65.6371 53.413 66.0734 53.7781C66.4385 54.0898 66.4207 53.9651 66.0111 53.324C65.3521 52.3088 64.5329 51.6677 63.4287 51.2937C62.0039 50.8039 61.1669 50.1539 60.8819 49.308C60.6682 48.6935 60.7038 47.8654 61.0066 46.3872C61.158 45.657 61.2648 45.0515 61.247 45.0426C61.2292 45.0248 60.8196 45.3186 60.3298 45.6837C57.0707 48.177 54.3637 49.6552 51.9683 50.2697C50.8196 50.5635 49.288 50.5635 48.3619 50.2697C47.9968 50.1539 47.5427 49.9847 47.3557 49.8867L47.0173 49.7176L47.8009 49.1655C48.8072 48.4442 50.2853 47.0284 50.9799 46.0934C51.6656 45.194 52.2978 44.0096 52.6807 42.9233L52.9746 42.1129L53.3575 42.104C53.5712 42.0951 54.2479 42.1218 54.8624 42.1664Z" fill="url(#paint1_linear_480_455)"/>
<defs>
<linearGradient id="paint0_linear_480_455" x1="35.6848" y1="98.3284" x2="35.6848" y2="0.216293" gradientUnits="userSpaceOnUse">
<stop stop-color="#F00000"/>
<stop offset="1" stop-color="#8A0000"/>
</linearGradient>
<linearGradient id="paint1_linear_480_455" x1="49.4323" y1="192.354" x2="49.4323" y2="42.1023" gradientUnits="userSpaceOnUse">
<stop stop-color="#F00000"/>
<stop offset="1" stop-color="#8A0000"/>
</linearGradient>
</defs>
</svg>
