<svg width="30" height="30" viewBox="0 0 30 30" fill="none" xmlns="http://www.w3.org/2000/svg">
<path fill-rule="evenodd" clip-rule="evenodd" d="M0 15C0 23.2843 6.71573 30 15 30C23.2843 30 30 23.2843 30 15C30 6.71573 23.2843 0 15 0C6.71573 0 0 6.71573 0 15ZM12.2503 21.875L12.5055 18.0514L12.5053 18.0512L19.4608 11.7744C19.7661 11.5034 19.3942 11.3713 18.9889 11.6171L10.4048 17.0327L6.69694 15.8754C5.8962 15.6302 5.89045 15.08 6.87672 14.6844L21.3255 9.11303C21.9854 8.81343 22.6223 9.27153 22.3704 10.2816L19.9098 21.8769C19.7379 22.7009 19.2401 22.898 18.5503 22.5174L14.802 19.7481L13.0003 21.5C12.9946 21.5055 12.9889 21.511 12.9833 21.5165C12.7818 21.7127 12.6151 21.875 12.2503 21.875Z" fill="white"/>
</svg>
