<svg width="230" height="400" viewBox="0 0 230 400" fill="none" xmlns="http://www.w3.org/2000/svg">
<path d="M188.881 287.776C182.737 279.135 175.858 273.006 175.463 272.643C175.821 272.841 180.944 276.046 185.005 279.091C189.114 282.195 194.894 286.921 195.241 287.225C194.76 286.638 181.743 271.276 176.427 266.219C167.616 257.85 158.854 252.234 158.854 252.234C158.854 252.234 160.785 250.164 165.528 251.768C171.414 253.81 174.412 252.385 174.412 252.385C174.412 252.385 162.689 248.899 150.939 243.524C139.754 238.421 127.902 230.288 127.902 230.288C127.902 230.288 130.82 229.663 139.31 232.072C146.118 234.044 156.028 238.966 156.028 238.966C156.028 238.966 148.881 229.039 133.924 225.014C122.639 222.003 119.619 223.103 101.489 203.351C91.3275 192.315 88.9009 176.661 88.8421 176.17C88.9702 176.506 91.373 183.212 95.2376 189.31C100.09 196.853 109.723 206.166 109.723 206.166C109.723 206.166 97.8894 189.736 94.1083 176.857C88.4634 157.811 99.3987 148.663 99.3987 148.663C99.3987 148.663 94.8319 150.147 91.7922 155.772C90.731 157.768 88.9237 162.922 88.9237 162.922C88.9237 162.922 87.8388 156.509 91.62 150.474C94.8358 145.244 101.536 140.739 101.536 140.739C101.536 140.739 92.4546 139.402 87.985 144.776C84.9234 148.459 82.5291 153.016 82.5291 153.016C82.5291 153.016 81.3634 143.631 89.9408 136.511C100.689 127.614 116.169 133.415 116.169 133.415C116.169 133.415 111.116 133.288 105.578 133.706C97.5966 134.311 93.132 138.554 92.8866 138.853C93.2814 138.677 101.321 135.329 113.679 138.932C118.599 140.393 125.349 145.108 125.349 145.108C125.349 145.108 115.18 144.956 109.77 147.326C100.76 151.223 99.594 160.753 99.594 160.753C99.594 160.753 104.394 153.149 111.692 151.829C120.031 150.343 127.042 151.366 127.042 151.366C127.042 151.366 122.583 153.4 120.594 158.213C118.893 162.3 119.433 168.228 119.433 168.228C119.433 168.228 122.734 159.989 129.147 161.06C129.147 161.06 139.178 162.06 144.074 171.87C148.91 181.729 148.426 186.046 148.426 186.046L147.738 187.001C147.738 187.001 148.572 192.149 151.923 195.286C155.221 198.417 157.207 200.123 158.69 199.84C160.12 199.552 163.603 196.504 167.097 194.428C170.65 192.303 174.566 190.323 174.566 190.323L179.572 176.865C179.449 177.015 177.417 179.021 176.243 179.982C175.011 180.991 172.957 182.133 172.957 182.133C172.957 182.133 173.895 175.976 173.819 174.028C173.739 172.134 173.103 167.706 173.103 167.706C173.103 167.706 174.559 166.612 174.276 165.668C173.619 163.608 172.424 162.088 172.738 160.018C172.738 160.018 173.063 157.841 178.05 153.219C180.013 151.367 181.576 149.206 182.77 146.954C184.818 143.17 185.804 139.227 185.974 136.442C186.244 131.026 183.72 126.625 181.824 122.934C180.789 120.891 179.993 119.141 179.203 117.338C178.717 116.265 178.29 115.145 177.868 113.971C176.619 110.829 174.483 104.688 173.97 100.111C173.462 95.4798 174.117 93.7669 171.693 86.1965C169.381 79.1223 166.237 74.9829 165.991 74.7429C166.066 75.0737 167.818 81.2837 168.342 84.138C168.913 87.051 169.422 92.2209 169.4 92.4343C169.262 92.2049 164.26 84.0004 161.211 75.6672C158.12 67.222 156.769 65.0936 155.31 57.5656C151.282 36.3636 156.667 21.8123 156.667 21.8123C156.667 21.8123 148.099 27.2088 147.151 51.3094C146.467 68.97 151.609 82.2538 151.609 82.2538C151.609 82.2538 147.655 78.6802 144.158 73.2123C141.916 69.7555 138.783 62.815 138.783 62.815C138.809 63.0871 138.64 69.1055 140.883 75.2567C142.282 79.0605 145.8 86.4705 145.885 86.6945C145.688 86.5132 139.481 80.6672 136.005 71.2138C133.752 65.1693 131.359 57.2788 131.359 57.2788C131.359 57.2788 130.572 64.0977 131.838 69.7743C132.96 74.736 136.43 81.5484 136.563 81.8312C136.216 81.5271 125.841 71.0085 120.481 59.9122C104.626 27.0768 114.032 7.86117 114.032 7.86117C114.032 7.86117 105.204 15.8721 104.102 44.2144C103.43 61.7683 109.926 73.894 109.926 73.894C109.926 73.894 102.504 71.5912 95.2095 68.5466C88.2245 65.6407 82.1199 62.5532 81.5543 62.2812C82.312 62.7879 93.844 70.3504 96.7899 72.6919C99.7304 75.0867 103.995 79.8767 104.192 80.0581C103.989 79.9301 96.8282 76.0905 85.5062 75.6081C74.0188 75.1631 65.2911 78.9271 65.2911 78.9271C65.2911 78.9271 73.8596 78.3805 81.1111 80.2352C88.3571 82.1433 92.8559 85.6635 92.8559 85.6635C92.8559 85.6635 72.7619 82.9052 56.9289 92.5348C37.9378 104.113 33.345 127.473 33.0624 128.145C33.3184 127.739 41.3762 112.862 52.2743 104.626C59.2623 99.3956 67.3718 98.0488 67.6439 98.022C67.4146 98.1608 53.555 105.293 45.0161 116.889C33.9225 131.949 34.8355 134.142 32.4251 138.859C29.5455 144.499 28.537 143.806 24.7774 150.706C21.0818 157.504 24.7451 168.862 24.7451 168.862C24.7451 168.862 24.4664 164.631 27.3615 157.214C29.3236 152.129 32.098 151.867 32.098 151.867C32.098 151.867 32.8469 158.947 30.0635 165.243C22.044 183.519 32.6769 200.099 32.9117 200.446C32.8796 200.227 32.1469 193.526 33.2604 187.763C34.4698 181.579 36.0486 179.797 36.0486 179.797C36.0486 179.797 35.0113 190.74 37.9678 212.428C40.1811 228.599 54.3674 245.21 54.3674 245.21C54.3674 245.21 48.1639 231.766 46.8224 223.603C45.2779 214.235 46.7389 211.471 46.7389 211.471C46.7389 211.471 48.4866 222.045 59.2113 242.567C68.4465 260.193 88.1323 272.449 88.4312 272.694C88.2337 272.513 82.2669 265.882 79.7574 259.166C77.0396 251.836 78.9698 247.609 78.9698 247.609C78.9698 247.609 84.9199 251.166 91.9543 259.52C98.6045 267.404 102.033 279.493 102.033 279.493C102.033 279.493 105.834 268.933 102.419 265.359C102.963 265.845 111.438 273.803 114.588 279.506C118.009 285.72 119.052 293.099 119.052 293.099C119.052 293.099 119.888 286.878 118.617 281.793C117.377 276.928 114.837 273.765 114.837 273.765C114.837 273.765 123.626 279.114 130.025 286.272C136.237 293.142 139.6 297.789 139.6 297.789C139.6 297.789 140.391 303.903 141.315 307.067C142.234 310.284 143.799 316.744 143.799 316.744C143.799 316.744 144.143 308.426 143.887 306.676C143.678 304.985 143.128 302.398 143.091 302.232C143.224 302.515 146.95 309.461 148.248 313.739C148.691 315.238 149.802 318.151 148.438 325.883C146.728 335.466 145.72 338.006 145.72 338.006C145.72 338.006 148.403 335.417 150.317 329.196C151.655 324.964 151.809 321.8 151.809 321.8C151.809 321.8 155.369 328.783 154.508 339.583C153.493 353.007 149.744 360.339 149.744 360.339C149.744 360.339 155.405 361.927 164.196 353.212C158.548 361.217 157.428 362.183 150.909 365.951C144.39 369.72 129.521 374.542 129.521 374.542C129.521 374.542 131.965 374.894 134.542 374.989C137.172 375.09 138.8 374.982 138.8 374.982C138.8 374.982 120.707 392.146 93.3319 378.639C74.5858 369.387 72.7752 362.686 71.6146 352.709C69.7266 335.978 89.2373 332.158 89.2373 332.158C89.2373 332.158 88.3353 330.936 84.0777 331.481C82.5465 331.706 79.399 333.009 79.287 333.051C79.4096 332.902 83.1641 327.133 86.4252 311.724C89.5103 296.997 84.509 289.87 79.4069 284.835C71.3695 276.812 58.4311 276.869 58.4311 276.869C58.4311 276.869 77.3312 284.035 81.23 297.896C84.3703 309.094 76.7693 316.149 76.7693 316.149C76.7693 316.149 74.26 310.51 71.4945 304.199C69.7434 300.145 66.6264 296.278 66.6264 296.278C66.6264 296.278 68.0097 301.319 68.0375 305.363C68.0706 309.354 67.9542 313.223 67.9542 313.223C67.9542 313.223 64.6546 304.703 50.7746 295.828C37.0493 287.023 13.9126 279.112 13.9126 279.112C13.9126 279.112 42.5782 292.101 54.998 306.973C65.7312 319.845 66.4045 323.36 65.574 330.067C65.1374 333.365 60.0147 350.69 54.2598 338.693C51.4037 332.75 51.6242 319.731 51.6242 319.731C51.6242 319.731 47.9094 334.287 51.583 344.461C55.262 354.581 57.3488 357.43 57.3488 357.43C57.3488 357.43 55.9135 357.233 52.5361 357.058C49.2121 356.888 46.2405 357.508 46.2405 357.508C46.2405 357.508 51.3253 357.853 54.5642 358.877C59.4786 360.391 60.2899 361.441 60.2899 361.441C60.2899 361.441 73.6604 380.288 95.4525 387.634C111.823 393.146 130.647 394.054 147.399 387.641C174.004 377.523 186.396 352.139 186.396 352.139C186.396 352.139 186.504 355.922 185.598 360.142C184.708 364.203 183.818 366.647 183.749 366.801C183.946 366.444 190.148 355.046 192.183 343.286C194.239 331.312 194.344 325.395 194.344 325.395C194.344 325.395 196.046 326.697 195.984 331.648C195.905 337.298 194.995 344.805 194.995 344.805C194.995 344.805 208.304 315.094 188.881 287.776ZM180.135 129.07C180.135 129.07 180.952 130.606 181.304 132.474C181.817 134.896 181.85 137.809 181.882 138.028C181.957 138.359 179.214 135.606 177.527 133.067C176.305 131.275 176.053 129.471 176.053 129.471L180.135 129.07ZM161.983 183.033C162.292 182.632 163.295 182.301 163.295 182.301C163.295 182.301 163.962 182.637 165.445 183.971C166.977 185.363 166.791 187.23 166.791 187.23C166.791 187.23 165.43 186.286 164.469 185.652C163.562 185.022 161.599 184.18 161.599 184.18C161.599 184.18 161.727 183.438 161.983 183.033ZM132.498 121.518C134.221 122.605 136.623 123.923 137.493 124.925C138.363 125.928 140.412 127.534 140.567 127.603C140.471 127.486 139.077 125.245 137.705 121.713C136.333 118.182 135.174 113.055 135.099 112.724C135.376 113.183 141.985 123.649 145.79 127.639C149.697 131.693 154.857 136.68 156.593 140.895C158.328 145.109 162.551 156.793 163.177 160.25C163.749 163.702 160.929 153.613 158.741 152.317C156.558 150.968 154.275 150.632 151.5 149.278C149.904 148.526 145.149 142.717 145.149 142.717L146.137 146.857C146.137 146.857 143.079 142.942 142.528 140.354C141.978 137.767 141.139 134.288 141.139 134.288C141.139 134.288 137.44 127.076 134.969 125.374C132.498 123.673 131.378 123.561 130.161 121.716C128.992 119.928 128.266 117.485 128.223 117.373C128.319 117.49 130.822 120.488 132.498 121.518Z" fill="white"/>
<path d="M150.491 144.274C150.491 144.274 148.836 142.492 148.617 140.908C148.205 138.01 149.416 136.676 148.039 136.431C146.978 136.271 146.386 138.422 147 141.447C147.241 142.818 148.975 144.877 151.078 145.41C153.18 145.943 154.546 144.678 154.737 142.757C155.051 140.148 153.264 139.7 151.685 140.405C149.647 141.387 150.491 144.274 150.491 144.274Z" fill="white"/>
</svg>
