<svg width="30" height="30" viewBox="0 0 30 30" fill="none" xmlns="http://www.w3.org/2000/svg">
<path fill-rule="evenodd" clip-rule="evenodd" d="M15 0C6.71573 0 0 6.71573 0 15C0 23.2843 6.71573 30 15 30C23.2843 30 30 23.2843 30 15C30 6.71573 23.2843 0 15 0ZM21.2511 9.84345C21.9396 10.0324 22.4818 10.589 22.6658 11.2959C23.0001 12.577 23.0001 15.2501 23.0001 15.2501C23.0001 15.2501 23.0001 17.9231 22.6658 19.2044C22.4818 19.9112 21.9396 20.4679 21.2511 20.6569C20.0035 21.0001 15.0001 21.0001 15.0001 21.0001C15.0001 21.0001 9.99676 21.0001 8.74903 20.6569C8.06058 20.4679 7.51839 19.9112 7.33439 19.2044C7.00012 17.9231 7.00012 15.2501 7.00012 15.2501C7.00012 15.2501 7.00012 12.577 7.33439 11.2959C7.51839 10.589 8.06058 10.0324 8.74903 9.84345C9.99676 9.50012 15.0001 9.50012 15.0001 9.50012C15.0001 9.50012 20.0035 9.50012 21.2511 9.84345Z" fill="white"/>
<path d="M13.5 18V13L17.5 15.5001L13.5 18Z" fill="white"/>
</svg>
