<svg width="110" height="79" fill="none" xmlns="http://www.w3.org/2000/svg">
  <g opacity=".4">
    <path d="M41.578 34.602c.308.148.728.316.892.463.16.144.533.372.554.384a5.817 5.817 0 0 1-.574-.897c-.288-.544-.567-1.347-.585-1.398.054.066 1.328 1.638 2.031 2.217.718.592 1.662 1.302 2.021 1.953.36.651 1.262 2.457 1.416 2.999.154.543-.482-1.026-.872-1.203-.39-.178-.77-.198-1.262-.376-.275-.099-1.17-.946-1.17-.946l.236.65s-.574-.581-.707-.986a47.796 47.796 0 0 0-.329-.946s-.738-1.095-1.179-1.332c-.442-.237-.626-.237-.862-.513a2.931 2.931 0 0 1-.4-.67c.023.021.49.456.79.6Zm5.94 9.39c.04-.069.205-.138.205-.138s.112.04.39.237a.664.664 0 0 1 .276.503s-.246-.128-.41-.217c-.164-.09-.502-.188-.502-.188s0-.128.04-.197Zm2.13-8.945s.164.235.255.53c.122.383.178.85.19.88.02.056-.487-.345-.813-.725-.231-.269-.31-.55-.31-.55l.678-.135ZM53.74 60.35a16.264 16.264 0 0 0-2.492-2.214c.064.03.967.458 1.698.885.736.43 1.78 1.101 1.844 1.142-.094-.088-2.514-2.34-3.485-3.065-1.61-1.204-3.16-1.963-3.16-1.963s.291-.366 1.104-.181c1.019.232 1.488-.043 1.488-.043s-2.01-.374-4.062-1.045c-1.948-.637-4.059-1.75-4.059-1.75s.476-.15 1.933.106c1.168.206 2.899.841 2.899.841s-1.352-1.48-3.92-1.885c-1.93-.305-2.413-.074-5.764-2.954-1.875-1.61-2.54-4.078-2.56-4.154.026.053.538 1.09 1.288 2.002.93 1.13 2.695 2.467 2.695 2.467s-2.243-2.446-3.091-4.445c-1.258-2.964.41-4.603.41-4.603s-.739.315-1.15 1.263c-.144.334-.362 1.193-.362 1.193s-.285-1.007.241-2.041c.452-.888 1.49-1.723 1.49-1.723s-1.533-.073-2.196.867c-.448.636-.776 1.408-.776 1.408s-.352-1.486.964-2.764c1.644-1.597 4.32-.916 4.32-.916s-.849.061-1.766.218c-1.324.226-1.992.98-2.032 1.027.062-.033 1.347-.702 3.469-.32.849.152 2.051.802 2.051.802s-1.696.136-2.564.601c-1.436.77-1.477 2.319-1.477 2.319s.671-1.3 1.867-1.628c1.364-.375 2.554-.316 2.554-.316s-.708.395-.958 1.2c-.212.678-.027 1.621-.027 1.621s.413-1.376 1.498-1.301c0 0 1.693 0 2.667 1.498.974 1.5.964 2.2.964 2.2l-.102.168s.226.808.831 1.263c.605.453.964.69 1.2.62.236-.069.76-.61 1.313-1.005.554-.395 1.18-.78 1.18-.78l.615-2.237c-.02.021-.324.379-.503.55-.184.178-.512.395-.512.395s.051-1.006.01-1.312c-.041-.305-.226-1.006-.226-1.006s.23-.202.165-.345c-.144-.316-.366-.542-.35-.878 0 0 .021-.355.77-1.174.297-.325.523-.698.687-1.076.278-.638.38-1.287.36-1.735-.042-.868-.542-1.535-.92-2.1a14.288 14.288 0 0 1-.814-1.372c-.257-.483-.718-1.43-.882-2.16-.164-.73-.082-1.016-.616-2.19-.5-1.1-1.1-1.707-1.137-1.743.02.05.412 1.015.552 1.467.141.456.312 1.28.318 1.311-.03-.038-.995-1.272-1.64-2.554-.658-1.302-.919-1.625-1.283-2.81-1.026-3.335-.37-5.758-.37-5.758s-1.337 1.003-1.094 4.879c.178 2.84 1.259 4.893 1.259 4.893s-.719-.513-1.395-1.33c-.43-.516-1.068-1.577-1.068-1.577.01.04.082 1.013.555 1.96.294.59 1.003 1.72 1.025 1.755-.036-.026-1.172-.868-1.908-2.32-.473-.937-1.005-2.158-1.005-2.158s-.02 1.105.29 1.998c.27.779.959 1.811.987 1.854-.06-.047-1.972-1.564-3.048-3.26-3.186-5.015-1.942-8.246-1.942-8.246s-1.341 1.423-1.054 5.984c.178 2.827 1.464 4.669 1.464 4.669s-1.272-.247-2.544-.622c-1.212-.357-2.285-.75-2.383-.786.137.07 2.186 1.094 2.711 1.427.533.339 1.322 1.038 1.353 1.065-.036-.014-1.298-.52-3.19-.413-1.918.108-3.313.858-3.313.858s1.416-.227 2.657-.04c1.242.188 2.052.681 2.052.681s-3.4-.123-5.879 1.677c-2.977 2.163-3.35 5.978-3.384 6.093.035-.072 1.13-2.587 2.814-4.074 1.077-.952 2.409-1.294 2.45-1.31-.033.027-2.231 1.388-3.462 3.387-1.598 2.595-1.415 2.933-1.735 3.722-.383.947-.564.856-1.077 2.02-.506 1.15.295 2.912.295 2.912s-.118-.675.239-1.906c.246-.85.698-.93.698-.93s.24 1.127-.117 2.179c-1.034 3.06 1.019 5.544 1.063 5.602-.007-.036-.246-1.101-.155-2.035.1-1.013.329-1.325.329-1.325s.005 1.769.867 5.202c.642 2.561 3.282 4.997 3.282 4.997s-1.257-2.06-1.614-3.34c-.41-1.474-.215-1.947-.215-1.947s.466 1.666 2.598 4.787c1.83 2.682 5.316 4.331 5.375 4.36-.035-.03-1.143-.992-1.672-2.035-.575-1.13-.325-1.844-.325-1.844.002 0 1.048.474 2.364 1.703 1.238 1.157 2.01 3.037 2.01 3.037s.462-1.755-.174-2.273c.096.07 1.645 1.21 2.267 2.077.675.939.971 2.104.971 2.104s.037-1.015-.26-1.802a3.602 3.602 0 0 0-.766-1.223s1.555.72 2.743 1.759c1.149 1.006 1.785 1.696 1.785 1.696s.233.964.438 1.463c.205.5.574 1.513.574 1.513s-.082-1.341-.15-1.617a12.92 12.92 0 0 0-.205-.696c.03.044.76 1.099 1.052 1.761.103.232.337.686.233 1.946-.127 1.56-.252 1.988-.252 1.988s.4-.461.621-1.488c.151-.697.13-1.21.13-1.21s.708 1.066.749 2.81c.05 2.171-.451 3.404-.451 3.404s.97.164 2.287-1.37c-.81 1.369-.978 1.548-2.003 2.258-1.026.71-3.42 1.722-3.42 1.722s.41.014.848-.012c.438-.027.712-.066.712-.066s-2.732 3.043-7.523 1.315c-3.283-1.183-3.694-2.23-4.049-3.814-.595-2.65 2.598-3.577 2.598-3.577s-.17-.184-.874-.027c-.25.057-.755.323-.77.33.016-.03.547-1.009.834-3.537.273-2.413-.683-3.47-1.614-4.202-1.474-1.157-3.628-.94-3.628-.94s3.272.848 4.147 3.005c.71 1.747-.437 2.999-.437 2.999s-.513-.86-1.074-1.832c-.36-.62-.944-1.193-.944-1.193s.318.789.39 1.43c.072.641.113 1.263.113 1.263s-.688-1.312-3.15-2.516c-2.437-1.192-6.42-2.09-6.42-2.09s4.997 1.62 7.31 3.807c2.002 1.892 2.178 2.446 2.147 3.53-.015.54-.58 3.4-1.74 1.564-.571-.904-.753-2.993-.753-2.993s-.38 2.397.4 3.962c.78 1.565 1.177 1.985 1.177 1.985s-.247-.012-.807.014c-.561.026-1.04.17-1.04.17s.853-.028 1.414.084c.84.168 1.001.32 1.001.32s2.54 2.81 6.302 3.639c2.825.622 5.971.463 8.658-.829 4.268-2.051 5.91-6.313 5.91-6.313s.081.602 0 1.293c-.08.669-.188 1.069-.195 1.094.026-.06.873-1.983 1.014-3.906.144-1.952.062-2.9.062-2.9 0 .001.308.185.377.974.077.905.054 2.124.054 2.124s1.731-4.995-1.966-9.068Z" fill="#FFF9E1"/>
    <path d="M44.958 37.96s-.309-.258-.37-.507c-.114-.461.063-.693-.168-.706-.18-.01-.24.349-.093.824.067.214.39.519.75.572.355.053.562-.17.567-.486.007-.428-.295-.469-.547-.33-.333.185-.139.634-.139.634Z" fill="#FFF9E1"/>
    <mask id="a" style="mask-type:luminance" maskUnits="userSpaceOnUse" x="31" y="26" width="20" height="21">
      <path d="M46.908 28.05c.14.455.311 1.28.317 1.31 0 0 .044.388.11.734.065.34.267.947.267.947s-.574-.75-.985-1.045c-.398-.287-.891-.74-.922-.767.028.043.474.738.553 1.063.082.335.184 1.026.184 1.026s-.533-.79-1.046-1.303c-.466-.466-1.384-1.172-1.47-1.237.073.125.693 1.471.978 2.185.466 1.165-.177 1.337.841 2.702.868 1.166 1.38 2.942 1.394 2.998-.045-.05-1.515-1.648-3.18-2.702-3.063-1.94-4.061-4.452-4.061-4.452s-.096 1.433.636 2.637c.515.849 1.027 1.294 1.058 1.32-.064-.014-2.11-.504-3.363-1.695-1.272-1.21-1.56-1.972-3.27-1.893-1.688.077-1.722.131-1.722.131s2.01.092 2.913.815c.834.669 1.737 2.078 1.737 2.078s-1.23-.194-2.103-.588c-.872-.395-1.867-.661-3.58-.01 0 0 1.606-.27 2.428.243.82.513 1.217.934 1.641 1.184.424.25 1.012.5 1.012.5-.194.037-1.286.558-2.004.716-1.106.243-3.385 1.421-3.55 4.873.002-.01.168-2.435 1.99-3.512 1.23-.726 3.26-.977 4.124-1.054-.855.1-2.862.539-4.267 2.436-1.015 1.37.188 2.768.188 2.768s-.352-1.486.964-2.764c1.644-1.597 4.32-.916 4.32-.916s-.848.061-1.765.218c-1.325.226-1.993.98-2.033 1.028.062-.033 1.347-.703 3.47-.321.848.152 2.05.802 2.05.802s-1.696.136-2.564.602c-1.436.769-1.477 2.318-1.477 2.318s.671-1.3 1.867-1.628c1.364-.375 2.555-.316 2.555-.316s-.708.395-.959 1.2c-.211.678-.027 1.621-.027 1.621s.414-1.376 1.499-1.301c0 0 1.692 0 2.666 1.498.975 1.5.965 2.2.965 2.2l-.103.168s.226.809.831 1.263c.606.453.965.69 1.2.621.236-.07.76-.611 1.313-1.006.555-.395 1.18-.78 1.18-.78l.615-2.237c-.019.022-.324.38-.502.551-.185.178-.513.394-.513.394s.051-1.006.01-1.311c-.04-.306-.225-1.006-.225-1.006s.229-.203.164-.346c-.144-.315-.366-.542-.349-.878 0 0 .02-.355.77-1.174.798-.873 1.08-2.098 1.046-2.81-.041-.869-.085-1.47-.739-3.128-.67-1.698-.956-2.605-.974-2.66.016.082.36 1.92.461 2.276.102.365.318 1.124.318 1.124s-.543-.601-.8-1.085c-.256-.483-.718-1.43-.882-2.16-.164-.73-.082-1.016-.615-2.19-.501-1.1-1.1-1.707-1.138-1.743.02.05.413 1.016.553 1.467Zm-4.456 6.503c-.288-.545-.567-1.348-.584-1.398.054.065 1.327 1.637 2.03 2.216.719.592 1.662 1.303 2.021 1.953.36.651 1.262 2.457 1.416 2.999.154.543-.482-1.026-.872-1.203-.39-.178-.77-.198-1.261-.375-.276-.1-1.17-.947-1.17-.947l.236.651s-.575-.582-.708-.986a47.982 47.982 0 0 0-.328-.947s-.739-1.095-1.18-1.332c-.441-.237-.626-.237-.861-.513a2.934 2.934 0 0 1-.4-.669c.022.02.489.456.789.6.308.148.728.316.892.463.16.144.533.372.554.385a5.811 5.811 0 0 1-.574-.898Zm5.53 9.825c-.164-.09-.503-.188-.503-.188s0-.128.04-.197c.042-.07.206-.139.206-.139s.113.04.39.237a.664.664 0 0 1 .277.503s-.247-.128-.41-.217Zm-4.073-15.606.006.005-.006-.009v.004ZM31.722 39.82Z" fill="#fff"/>
    </mask>
    <g mask="url(#a)">
      <mask id="c" style="mask-type:luminance" maskUnits="userSpaceOnUse" x="-3190" y="-2733" width="5889" height="5663">
        <path d="M-3189.67-2732.14h5888.33v5661.82h-5888.33v-5661.82Z" fill="url(#b)"/>
      </mask>
      <g mask="url(#c)">
        <path d="M46.909 28.05c.14.455.312 1.28.317 1.31 0 0 .044.389.11.734.065.34.267.947.267.947s-.575-.749-.985-1.045c-.398-.287-.892-.74-.922-.767.028.043.474.738.553 1.063.082.335.184 1.026.184 1.026s-.533-.79-1.046-1.303c-.466-.466-1.384-1.171-1.47-1.237.073.125.693 1.472.977 2.185.467 1.165-.176 1.337.842 2.702.868 1.166 1.38 2.943 1.394 2.998-.045-.05-1.515-1.648-3.18-2.702-3.063-1.94-4.061-4.451-4.061-4.451s-.096 1.433.636 2.637c.515.848 1.027 1.293 1.058 1.32-.064-.015-2.11-.504-3.364-1.696-1.271-1.21-1.559-1.972-3.269-1.893-1.688.078-1.722.131-1.722.131s2.01.092 2.913.816c.834.668 1.737 2.078 1.737 2.078s-1.23-.195-2.103-.589c-.872-.395-1.867-.66-3.58-.01 0 0 1.606-.27 2.428.243.82.513 1.217.934 1.641 1.184.424.25 1.012.5 1.012.5-.194.037-1.286.559-2.004.716-1.106.244-3.385 1.421-3.55 4.873.002-.01.168-2.435 1.99-3.511 1.23-.727 3.26-.978 4.124-1.055-.855.101-2.862.539-4.267 2.436-1.015 1.37.188 2.768.188 2.768s-.352-1.486.964-2.764c1.644-1.596 4.32-.915 4.32-.915s-.848.06-1.765.217c-1.325.226-1.993.98-2.033 1.028.062-.033 1.347-.702 3.47-.32.848.151 2.05.801 2.05.801s-1.695.136-2.564.602c-1.436.769-1.477 2.318-1.477 2.318s.671-1.3 1.867-1.628c1.364-.374 2.555-.316 2.555-.316s-.708.395-.959 1.2c-.211.678-.027 1.622-.027 1.622s.414-1.377 1.499-1.302c0 0 1.692 0 2.666 1.499.975 1.5.965 2.2.965 2.2l-.103.167s.226.809.831 1.263c.606.453.965.69 1.2.621.236-.069.76-.611 1.313-1.006.555-.395 1.18-.779 1.18-.779l.615-2.238c-.019.022-.323.38-.502.551-.185.178-.513.394-.513.394s.051-1.006.01-1.31c-.04-.307-.225-1.007-.225-1.007s.229-.203.164-.345c-.144-.316-.366-.542-.349-.879 0 0 .02-.354.77-1.173.798-.874 1.08-2.099 1.046-2.811-.041-.869-.085-1.47-.739-3.127-.67-1.699-.956-2.605-.974-2.66.016.081.36 1.918.461 2.275.102.365.318 1.124.318 1.124s-.543-.601-.8-1.085c-.256-.482-.718-1.43-.882-2.16-.164-.73-.082-1.016-.615-2.19-.501-1.1-1.1-1.707-1.138-1.743.02.05.413 1.016.553 1.467Zm-4.456 6.503c-.288-.544-.567-1.348-.584-1.398.053.065 1.327 1.637 2.03 2.217.719.591 1.663 1.302 2.021 1.952.36.652 1.262 2.457 1.416 3 .154.542-.482-1.026-.872-1.204-.39-.177-.77-.198-1.261-.375-.276-.1-1.17-.947-1.17-.947l.236.651s-.575-.582-.708-.986c-.134-.405-.328-.947-.328-.947s-.739-1.095-1.18-1.332c-.441-.236-.626-.236-.861-.512a2.931 2.931 0 0 1-.4-.67c.022.02.489.456.789.6.308.149.728.316.892.464.16.143.533.371.554.384a5.813 5.813 0 0 1-.574-.897Zm5.53 9.825c-.164-.09-.503-.188-.503-.188s0-.128.04-.197c.042-.07.206-.139.206-.139s.113.04.39.237c.277.197.277.503.277.503s-.247-.128-.41-.216ZM43.91 28.773s.002 0 .006.004c-.003-.006-.005-.008-.006-.008v.004ZM31.723 39.82Z" fill="url(#d)"/>
      </g>
    </g>
    <mask id="e" style="mask-type:luminance" maskUnits="userSpaceOnUse" x="28" y="50" width="24" height="23">
      <path d="M31.337 55.22c1.83 2.682 5.315 4.332 5.375 4.36-.035-.03-1.144-.992-1.673-2.034-.575-1.131-.324-1.845-.324-1.845.001 0 1.047.474 2.363 1.703 1.239 1.157 2.01 3.038 2.01 3.038s.462-1.756-.174-2.274c.097.071 1.645 1.21 2.267 2.077.675.939.972 2.104.972 2.104s.036-1.014-.26-1.801a3.598 3.598 0 0 0-.766-1.224s1.555.72 2.742 1.76c1.149 1.005 1.785 1.696 1.785 1.696s.233.963.438 1.463c.205.5.574 1.513.574 1.513s-.081-1.342-.15-1.618a12.736 12.736 0 0 0-.205-.696c.03.044.76 1.1 1.053 1.762.103.232.336.686.232 1.945-.127 1.561-.252 1.988-.252 1.988s.4-.461.622-1.487c.15-.698.13-1.21.13-1.21s.708 1.065.748 2.81c.051 2.17-.45 3.404-.45 3.404s.97.164 2.287-1.371c0 0 1.32-1.636 1.146-5.62-.172-3.886-2.502-6.273-7.754-9.114-7-3.786-15.335-6.115-15.335-6.115s.467 1.665 2.599 4.787Z" fill="#fff"/>
    </mask>
    <g mask="url(#e)">
      <mask id="g" style="mask-type:luminance" maskUnits="userSpaceOnUse" x="-3190" y="-2733" width="5889" height="5663">
        <path d="M-3189.68-2732.14h5888.33v5661.82h-5888.33v-5661.82Z" fill="url(#f)"/>
      </mask>
      <g mask="url(#g)">
        <path d="M31.337 55.22c1.83 2.683 5.315 4.332 5.375 4.36-.035-.03-1.144-.991-1.673-2.034-.575-1.131-.324-1.844-.324-1.844.001 0 1.047.473 2.363 1.702 1.239 1.157 2.01 3.038 2.01 3.038s.462-1.756-.174-2.273c.097.07 1.645 1.21 2.267 2.076.675.94.972 2.105.972 2.105s.036-1.015-.26-1.802a3.598 3.598 0 0 0-.766-1.224s1.555.72 2.742 1.76c1.149 1.006 1.785 1.696 1.785 1.696s.233.963.438 1.463c.205.5.574 1.513.574 1.513s-.081-1.342-.15-1.618a12.793 12.793 0 0 0-.205-.696c.03.044.76 1.1 1.053 1.762.103.232.336.686.232 1.946-.127 1.56-.252 1.987-.252 1.987s.4-.46.622-1.487c.15-.697.13-1.21.13-1.21s.708 1.065.748 2.81c.051 2.17-.45 3.404-.45 3.404s.97.164 2.287-1.371c0 0 1.32-1.636 1.146-5.62-.172-3.886-2.502-6.272-7.754-9.113-7-3.787-15.335-6.116-15.335-6.116s.467 1.665 2.599 4.787Z" fill="url(#h)"/>
      </g>
    </g>
    <mask id="i" style="mask-type:luminance" maskUnits="userSpaceOnUse" x="23" y="14" width="33" height="62">
      <path d="M35.1 20.218c.178 2.827 1.464 4.669 1.464 4.669s-1.272-.247-2.544-.622c-1.212-.357-2.285-.75-2.383-.786.137.07 2.186 1.094 2.711 1.428.533.338 1.322 1.037 1.353 1.064-.035-.014-1.297-.521-3.189-.413-1.918.108-3.313.858-3.313.858s1.415-.227 2.656-.04c1.242.188 2.052.681 2.052.681s-3.4-.123-5.878 1.677c-2.978 2.163-3.35 5.978-3.384 6.093.035-.073 1.13-2.587 2.813-4.075 1.077-.951 2.41-1.293 2.45-1.308-.033.026-2.23 1.387-3.462 3.386-1.598 2.595-1.415 2.933-1.734 3.722-.383.947-.564.855-1.077 2.02-.507 1.15.294 2.912.294 2.912s-.118-.675.24-1.907c.245-.849.697-.929.697-.929s.24 1.127-.117 2.179c-1.034 3.06 1.02 5.544 1.064 5.602-.008-.036-.247-1.101-.155-2.035.098-1.013.328-1.325.328-1.325s.005 1.769.867 5.202c.642 2.561 3.282 4.997 3.282 4.997s-1.257-2.06-1.614-3.34c-.41-1.474-.215-1.947-.215-1.947s7.947 2.387 15.335 6.116c5.336 2.693 7.582 5.228 7.754 9.114.175 3.983-1.146 5.62-1.146 5.62-.81 1.369-.978 1.547-2.004 2.258-1.026.71-3.42 1.722-3.42 1.722s.41.014.849-.012c.437-.027.711-.066.711-.066s-2.731 3.043-7.523 1.315c-3.283-1.183-3.693-2.23-4.049-3.814-.595-2.651 2.599-3.577 2.599-3.577s-.171-.184-.875-.027c-.25.057-.754.323-.77.33.016-.03.548-1.01.834-3.537.274-2.413-.682-3.47-1.614-4.202-1.474-1.157-3.628-.94-3.628-.94s3.273.848 4.148 3.005c.709 1.746-.438 2.998-.438 2.998s-.513-.86-1.074-1.83c-.359-.622-.944-1.194-.944-1.194s.319.789.39 1.43c.072.64.113 1.263.113 1.263s-.687-1.313-3.15-2.516c-2.437-1.192-6.42-2.09-6.42-2.09s4.997 1.62 7.31 3.806c2.003 1.893 2.178 2.447 2.147 3.532-.015.538-.58 3.398-1.74 1.563-.57-.904-.753-2.994-.753-2.994s-.379 2.398.4 3.963c.78 1.565 1.177 1.985 1.177 1.985s-.246-.012-.807.014a4.806 4.806 0 0 0-1.04.17s.853-.028 1.414.084c.84.168 1.001.32 1.001.32s2.54 2.81 6.303 3.639c2.825.622 5.97.463 8.657-.829 4.268-2.051 5.91-6.313 5.91-6.313s.082.602 0 1.293c-.08.669-.188 1.069-.194 1.093.026-.059.873-1.983 1.014-3.905.144-1.952.062-2.9.062-2.9s.307.185.376.973c.078.906.055 2.124.055 2.124s1.73-4.994-1.967-9.067a16.26 16.26 0 0 0-2.492-2.214c.065.03.967.458 1.699.885.735.43 1.779 1.101 1.843 1.142-.093-.088-2.514-2.34-3.485-3.065-1.61-1.204-3.16-1.963-3.16-1.963s.291-.366 1.105-.181c1.018.232 1.488-.043 1.488-.043s-2.01-.374-4.062-1.045c-1.948-.637-4.06-1.75-4.06-1.75s-6.322-1.525-9.584-7.088c-1.597-2.725-1.313-5.208-1.313-5.208.164-3.453 2.443-4.63 3.55-4.873.717-.158 1.809-.68 2.003-.717 0 0-.588-.25-1.012-.5-.424-.25-.82-.67-1.641-1.183-.821-.513-2.428-.243-2.428-.243 1.713-.651 2.708-.385 3.58.01.872.394 2.103.588 2.103.588s-.903-1.41-1.737-2.078c-.903-.723-2.913-.815-2.913-.815s.035-.054 1.723-.132c1.71-.079 1.997.683 3.269 1.894 1.252 1.191 3.3 1.68 3.363 1.695-.031-.027-.543-.472-1.059-1.32-.731-1.204-.635-2.637-.635-2.637s.998 2.512 4.062 4.451c1.664 1.054 3.134 2.652 3.18 2.702-.016-.055-.527-1.832-1.395-2.997-1.018-1.365-.375-1.537-.841-2.703a38.813 38.813 0 0 0-.979-2.184c.087.065 1.005.77 1.471 1.237.513.513 1.047 1.302 1.047 1.302s-.103-.69-.185-1.025c-.08-.325-.525-1.02-.553-1.064.03.027.525.48.922.767.41.297.985 1.046.985 1.046s-.202-.608-.267-.947c-.066-.346-.11-.734-.11-.734-.03-.038-.994-1.272-1.64-2.554-.657-1.302-.918-1.625-1.283-2.811-1.026-3.334-.37-5.757-.37-5.757s-1.336 1.002-1.093 4.879c.178 2.84 1.258 4.893 1.258 4.893s-.718-.513-1.395-1.33c-.43-.516-1.067-1.577-1.067-1.577.01.04.082 1.012.554 1.96.294.59 1.003 1.72 1.025 1.754-.035-.025-1.172-.867-1.907-2.32-.474-.936-1.006-2.157-1.006-2.157s-.02 1.105.29 1.998c.27.779.96 1.811.988 1.854-.06-.047-1.973-1.564-3.049-3.26-3.185-5.015-1.942-8.246-1.942-8.246s-1.34 1.422-1.054 5.984Zm8.375 6.102c-.001-.006 0-.005.006.004l-.006-.004Z" fill="#fff"/>
    </mask>
    <g mask="url(#i)">
      <mask id="k" style="mask-type:luminance" maskUnits="userSpaceOnUse" x="-3191" y="-2735" width="5890" height="5663">
        <path d="M-3190.11-2734.59h5888.33v5661.82h-5888.33v-5661.82Z" fill="url(#j)"/>
      </mask>
      <g mask="url(#k)">
        <path d="M35.101 20.22c.178 2.827 1.464 4.67 1.464 4.67s-1.272-.248-2.544-.623c-1.212-.357-2.285-.75-2.383-.786.137.07 2.186 1.094 2.711 1.428.533.338 1.322 1.037 1.353 1.065-.035-.015-1.298-.522-3.189-.414-1.918.108-3.313.858-3.313.858s1.415-.227 2.656-.04c1.242.188 2.052.681 2.052.681s-3.4-.123-5.878 1.677c-2.978 2.163-3.35 5.978-3.384 6.093.035-.072 1.13-2.587 2.813-4.074 1.077-.952 2.41-1.294 2.45-1.309-.033.026-2.23 1.387-3.462 3.386-1.598 2.595-1.415 2.933-1.734 3.722-.383.947-.564.856-1.077 2.02-.507 1.15.294 2.912.294 2.912s-.118-.675.24-1.906c.245-.85.697-.93.697-.93s.24 1.127-.117 2.179c-1.034 3.06 1.02 5.544 1.064 5.602-.008-.035-.247-1.101-.155-2.035.099-1.013.328-1.325.328-1.325s.005 1.77.867 5.202c.642 2.561 3.282 4.998 3.282 4.998s-1.257-2.06-1.614-3.34c-.41-1.474-.215-1.947-.215-1.947s7.947 2.386 15.335 6.115c5.336 2.693 7.582 5.228 7.754 9.114.175 3.983-1.146 5.62-1.146 5.62-.81 1.369-.978 1.548-2.004 2.258s-3.42 1.723-3.42 1.723.41.013.849-.013c.437-.027.711-.066.711-.066s-2.731 3.043-7.523 1.315c-3.283-1.183-3.693-2.23-4.049-3.814-.595-2.65 2.599-3.577 2.599-3.577s-.171-.184-.875-.027c-.25.057-.754.323-.77.33.016-.03.548-1.009.834-3.537.274-2.413-.682-3.47-1.614-4.202-1.474-1.157-3.628-.94-3.628-.94s3.273.848 4.148 3.005c.709 1.747-.438 2.999-.438 2.999s-.513-.86-1.074-1.832c-.359-.62-.944-1.193-.944-1.193s.319.789.39 1.43c.072.641.113 1.263.113 1.263s-.687-1.312-3.15-2.515c-2.437-1.192-6.42-2.091-6.42-2.091s4.997 1.62 7.31 3.807c2.003 1.892 2.178 2.446 2.148 3.53-.016.54-.58 3.4-1.74 1.564-.572-.904-.754-2.993-.754-2.993s-.379 2.397.4 3.962c.78 1.565 1.177 1.986 1.177 1.986s-.246-.013-.807.013a4.806 4.806 0 0 0-1.04.171s.853-.029 1.414.083c.84.168 1.001.32 1.001.32s2.54 2.81 6.303 3.639c2.825.622 5.97.463 8.657-.829 4.268-2.051 5.91-6.313 5.91-6.313s.082.602 0 1.293c-.08.669-.188 1.07-.194 1.094.026-.06.873-1.983 1.014-3.905.144-1.953.062-2.9.062-2.9s.307.184.376.973c.078.905.055 2.124.055 2.124s1.73-4.995-1.967-9.068a16.265 16.265 0 0 0-2.492-2.213c.065.029.967.457 1.699.884.735.43 1.779 1.101 1.843 1.142-.093-.087-2.514-2.34-3.485-3.065-1.61-1.203-3.16-1.963-3.16-1.963s.291-.366 1.105-.18c1.018.23 1.488-.044 1.488-.044s-2.01-.374-4.062-1.045c-1.948-.637-4.06-1.75-4.06-1.75s-6.322-1.525-9.584-7.088c-1.597-2.724-1.313-5.208-1.313-5.208.164-3.453 2.443-4.63 3.55-4.873.717-.158 1.809-.68 2.003-.717 0 0-.588-.25-1.012-.5-.424-.25-.82-.67-1.641-1.183-.821-.513-2.428-.243-2.428-.243 1.713-.651 2.708-.385 3.58.01.872.394 2.103.588 2.103.588s-.903-1.41-1.737-2.078c-.903-.723-2.913-.815-2.913-.815s.035-.054 1.723-.132c1.71-.079 1.997.684 3.269 1.894 1.252 1.191 3.3 1.68 3.363 1.696-.031-.028-.543-.473-1.059-1.32-.731-1.205-.635-2.638-.635-2.638s.998 2.512 4.062 4.451c1.664 1.054 3.134 2.653 3.18 2.702-.016-.055-.527-1.832-1.395-2.997-1.018-1.365-.375-1.537-.841-2.703a38.888 38.888 0 0 0-.978-2.184c.086.065 1.004.771 1.47 1.237.513.513 1.046 1.302 1.046 1.302s-.102-.69-.184-1.025c-.08-.325-.525-1.02-.553-1.064.03.027.525.48.922.768.41.296.985 1.045.985 1.045s-.202-.608-.267-.947c-.066-.346-.11-.734-.11-.734-.03-.038-.995-1.272-1.64-2.554-.657-1.302-.918-1.625-1.283-2.81-1.026-3.335-.37-5.758-.37-5.758s-1.336 1.003-1.093 4.879c.178 2.84 1.258 4.893 1.258 4.893s-.719-.513-1.395-1.33c-.43-.516-1.067-1.577-1.067-1.577.009.04.082 1.013.554 1.96.294.59 1.004 1.72 1.025 1.755-.035-.026-1.172-.868-1.907-2.32-.474-.937-1.006-2.158-1.006-2.158s-.02 1.105.29 1.998c.27.779.96 1.812.987 1.854-.059-.047-1.972-1.564-3.048-3.26-3.185-5.015-1.942-8.246-1.942-8.246s-1.34 1.423-1.054 5.984Zm8.375 6.102c-.002-.006 0-.005.006.004a.108.108 0 0 0-.006-.004Z" fill="url(#l)"/>
      </g>
    </g>
    <mask id="m" style="mask-type:luminance" maskUnits="userSpaceOnUse" x="31" y="35" width="17" height="19">
      <path d="M37.908 35.245c.212-.017.336-.021.336-.021-.002 0-.126 0-.336.021Zm-4.198 1.063c-1.792 1.007-1.99 3.512-1.99 3.512s-.284 2.484 1.313 5.208c3.262 5.564 9.585 7.089 9.585 7.089s.475-.151 1.932.105c1.169.206 2.9.842 2.9.842s-1.353-1.48-3.92-1.885c-1.93-.306-2.413-.074-5.765-2.955-1.874-1.61-2.54-4.078-2.56-4.154.026.053.538 1.09 1.288 2.002.93 1.131 2.695 2.468 2.695 2.468s-2.243-2.447-3.09-4.445c-1.259-2.965.409-4.603.409-4.603s-.738.315-1.149 1.262c-.144.334-.363 1.194-.363 1.194s-.284-1.007.242-2.042c.451-.887 1.49-1.723 1.49-1.723s-1.533-.073-2.196.868c-.449.636-.777 1.407-.777 1.407s-1.203-1.397-.188-2.768c1.448-1.955 3.535-2.36 4.342-2.445-.796.064-2.832.296-4.198 1.063Z" fill="#fff"/>
    </mask>
    <g mask="url(#m)">
      <mask id="o" style="mask-type:luminance" maskUnits="userSpaceOnUse" x="-3064" y="-2668" width="5889" height="5663">
        <path d="M-3063.35-2667.19h5888.33v5661.82h-5888.33v-5661.82Z" fill="url(#n)"/>
      </mask>
      <g mask="url(#o)">
        <path d="M37.91 35.243c.211-.017.335-.022.335-.022-.002 0-.126 0-.336.023Zm-4.199 1.063c-1.792 1.007-1.99 3.512-1.99 3.512s-.284 2.484 1.313 5.208c3.262 5.564 9.585 7.09 9.585 7.09s.475-.152 1.932.105c1.168.205 2.9.84 2.9.84s-1.353-1.48-3.92-1.884c-1.93-.306-2.413-.074-5.765-2.955-1.874-1.61-2.54-4.078-2.56-4.154.026.053.538 1.09 1.288 2.002.93 1.131 2.695 2.468 2.695 2.468s-2.243-2.446-3.09-4.445c-1.259-2.965.409-4.603.409-4.603s-.738.315-1.149 1.262c-.145.334-.363 1.194-.363 1.194s-.284-1.007.242-2.042c.451-.887 1.49-1.723 1.49-1.723s-1.533-.072-2.197.868c-.448.636-.776 1.407-.776 1.407s-1.203-1.397-.188-2.768c1.448-1.955 3.535-2.36 4.342-2.445-.796.064-2.832.296-4.198 1.063Z" fill="url(#p)"/>
      </g>
    </g>
    <path d="M70.454 18.549c-.191.93-.3 1.235-.23 1.579.077.367.243.77 1.172 1.04.894.26 1.265 1.118 1.28 1.188-.02-.04-.215-.366-1.09-.573-1.24-.292-1.755-.988-1.76-1.02-.012.055-.298 1.418-.713 2.233-.41.803-1.256 1.96-1.256 1.96s3.586-.45 5.588.325c2.089.808 3.73 3.305 3.73 3.305s-2.208-2.34-4.6-2.864c-4.594-1.009-6.718 1.264-6.793 1.323.122-.046 3.093-1.187 5.817.047 3.07 1.393.61 5.232.513 5.382.069-.145 1.993-4.196-1.607-5.014-3.278-.744-5.328 2.329-5.328 2.329.056.006 1.169-.185 3.444-.248 3.538-.098 2.01 5.092 2.01 5.092s.129-4.162-1.475-4.26c-1.81-.11-2.445.024-2.445.024s1.35.896 1.553 3.844c.39 5.663-3.92 9.009-3.92 9.009s2.697-1.55 4.09-4.488c.519-1.094.816-1.87.886-2.25-.117 1.323-.598 2.853-1.666 4.584-2.903 4.7-6.786 5.687-6.786 5.687s-2.923 1.42-5.46 1.78c-3.42.483-5.246 2.937-5.246 2.937s2.413-1.26 3.878-1.626c1.29-.321 1.698.067 1.698.067s-1.925 1.276-3.02 1.862c-.85.453-3.313 1.55-3.313 1.55s2.544 1.263 4.186 2.841c3.304 3.178 3.734 5.247 3.734 5.247s.526-1.768 2.106-3.038c1.922-1.545 3.242-2.082 3.33-2.127-.033.021-.31.224-.709 1.173-.425 1.012-.356 2.09-.356 2.09s.686-1.884 1.493-2.94c.848-1.109 2.441-1.813 2.441-1.813s.688-.4 1.93-1.163c1.14-.702 2.014-1.25 2.014-1.25l-2.752 5.565c.053-.027 1.748-.91 3.275-2.962 1.507-2.024.917-2.75 3.395-4.643 2.744-2.096 3.53-4.195 3.53-4.195s.629.507.052 2.302c-.362 1.126-1.85 3.754-1.85 3.754s2.614-2.628 3.802-5.125c1.21-2.544 1.439-5.705 1.439-5.705s.4.452.502 1.856c.068.933.027 2.315.027 2.315s1.531-3.935.853-6.857c-.598-2.576-.307-2.903-.021-3.033.286-.13.855.024 1.426.663.58.648 1.256 1.964 1.256 1.964s.255-2.66-.662-4.765c-1.045-2.4-2.24-3.411-2.24-3.411s-.17-1.502-.646-2.644c-.986-2.373-3.784-4.57-3.784-4.57s.712-.359 3.156 2.399c1.839 2.075 3.331 2.58 3.377 2.594-.038-.038-1.266-1.262-2.24-2.284-1.289-1.355-3.691-4.937-6.941-6.577-3.25-1.64-7.656-1.648-7.656-1.648-.357 1.28-1.205 2.309-2.554 3.141 1.435.829 3.463.098 6.136-1.958Z" fill="url(#q)"/>
    <path d="M63.392 18.612c-.545-.071-.356-.733.137-1.648.62-1.153 2.6-3.505 2.63-3.542-.013.042-.469 1.364-.578 2.107-.147 1.011-.196 1.549-.634 2.216-.438.669-1.01.94-1.555.867Zm-4.696 6.043c-.535.58-.9.71-1.044 1.168-.145.457-.246.84-.408 1.093-.16.253-.568.808-.568.808s.687-.196.985-.58c.296-.384.535-.685.535-.685s-.137 1.257-2.072 1.836c-1.936.58-1.918.612-2.08.89-.16.277-.118.8-.56 1.257-.441.457-1.358 1.053-1.358 1.053s-.026-.457.195-.694c.22-.237.4-.433.467-.629.068-.195.085-.58.085-.58s-.883.401-1.612.245c-.65-.137-1.013-.767-1.036-.806.037.035 1.035.978 2.572.28 1.566-.71 1.844-1.059 2.38-1.738.446-.564.8-1.299 1.032-1.616.356-.49.7-.735 1.782-1.482 1.046-.721 1.736-1.83 1.781-1.905-.032.09-.558 1.523-1.076 2.085Zm-4.235.612c.288-.652.619-.873.823-1.379.16-.4.314-1.412.314-1.412s.288.882.119 1.453c-.17.571-.518.988-.756 1.403-.227.4-.254 1.208-.254 1.208s-.535-.62-.246-1.273Zm-5.18 10.466c-.232-.27-.31-.55-.31-.55l.677-.136s.164.235.256.53c.121.384.178.851.189.881.02.056-.487-.346-.813-.725Zm17.47-20.048c.586-4.187 2.301-5.35 3.49-6.88 1.304-1.683.561-5.006.426-5.554.081.383.354 2.125-.859 4.305-.587 1.055-2.318 2.326-3.464 3.403-1.146 1.078-1.68 2.522-2.088 3.086-.408.562-1.528 1.664-2.546 2.865-1.02 1.2-1.478 2.008-2.445 3.354-.968 1.346-2.037 1.396-2.037 1.396s1.222-1.126 1.68-1.69c.459-.563.662-1.494 1.12-2.302.459-.807 2.012-2.154 2.012-2.154 2.368-2.4 1.885-7.175 1.885-7.175-.803-6.41-4.41-8.283-4.522-8.34.097.081 3.227 2.706 3.427 7.688.138 3.432-.713 4.488-1.579 5.68-.866 1.192-2.326 1.975-3.752 3.411-1.426 1.437-1.834 2.907-1.834 2.907-.186-2.041.593-3.118 1.447-4.832 1.044-2.094 1.044-3.845 1.044-3.845.302-3.332-1.637-4.915-1.851-5.077.195.18 1.854 1.8 1.279 5.004-.253 1.41-.917 2.571-2.648 4.432-1.732 1.86-2.445 2.057-3.745 4.407-1.324 2.397-.9 4.973-.867 5.156-.019-.059-.117-.39-.277-.92-.179-.587-.051-1.591-.051-1.591s-.484 1.249.025 3.158c.268 1.007-.484 1.274-.662 1.91-.179.637.636 1.568.84 2.008.204.44-.484 2.522-.484 2.522-.382 1.591-1.706 3.012-1.706 3.012s.357.906.891 1.445c.535.538 1.681 1.615 1.681 1.615l.118-.31 1.52-1.591s.203.18.645.473c.441.294 1.155.22 1.155.22s-.221-.17-.425-.31c-.203-.139-.364-.424-.475-.579-.11-.156-.356-.343-.356-.343l1.205-1.318s.216.306.675.403c.42.09.955-.306.955-.306s-.356-.06-.675-.158c-.319-.098-.204-.428-.204-.428s.408-.454.764-.98c.356-.526.905-1.494 1.235-1.996.332-.502.98-.735 2-1.37 1.017-.637 1.48-2.057 1.48-2.057v.001c.011.044.267 1.128-.028 2.332-.301 1.23-1.508 1.36-2.435 2.52-.904 1.132-.889 1.768-.889 1.768s.29-.163.549-.302c.325-.176.848-.09.848-.09s-.518.223-.763.449c-.244.227-.563.924-1.134 2.194-.57 1.269-1.837 2.376-2.018 2.438-.18.063-1.275-.595-1.275-.595l-.184.089s.759 1.232 1.01 1.523c.252.291.423.163.877.1s.55.081 1.023.231c.473.148.718.127.718.127.329.111.688.329.71.341l-.411-.534s.271-.09.53-.203c.243-.106.463-.456.49-.498-.022.014-.131.093-.436.129-.34.041-.462-.055-.462-.055s1.676-1.67 2.527-2.427c.83-.737 1.673-.537 1.712-.527a2.93 2.93 0 0 0-1.054-.329c-.6-.064-1.046.348-1.715.823-.67.476-1.005.17-1.005.17s.786-.76 1.304-1.81c.793-1.6 1.61-3.285 3.644-3.612 2.708-.433 4.145-1.637 4.145-1.637s-1.055.18-2.299.257c-.558.034-1.652.016-1.652.016s1.476-.49 1.858-.735c.382-.245.994-.906 1.452-1.372.446-.453 1.523-1.093 1.577-1.125-.038.007-.662.131-1.5.416-.867.294-1.809.441-1.809.441l2.572-2.449c2.03-2.121 3.198-5.903 3.234-6.021-.033.061-1.365 1.05-2.663 1.564-1.697.671-3.983-.465-3.983-.465s.744-.177 1.706-1.102c1.07-1.028 1.608-2.545 1.783-3.795Z" fill="url(#r)"/>
    <path d="M71.417 76.527c1.394.365 1.94.841 1.94.841s-1.769.138-2.414.093c-.645-.045-1.2-.192-2.04.115-.841.308-3.27 1.042-5.612.993-6.976-.147-10.234-2.134-10.234-2.134s1.411-.845 2.42-2.21c1.314-1.775 1.437-2.762 1.437-2.762s.524 3.72 6.887 3.923c6.11.196 3.5-5.805 3.5-5.805s.69.529 1.103 1.312c.414.783.522 1.514.522 1.514s.307-3.6 1.116-5.665c1.39-3.548 4.032-4.9 4.032-4.9s-.747.786-.953 1.898c-.217 1.166.012 1.706.012 1.706s1.556-1.697 2.978-2.36c2.675-1.25 3.422-.859 6.22-2.248 3.417-1.696 4.287-4.374 4.287-4.374s-.667 2.815-2.957 4.89c-1.906 1.727-4.714 3.239-6.475 5.031-2.07 2.109-3.052 6.21-3.052 6.21s1.253-.224 2.671-2.338c1.544-2.3 2.561-2.626 3.552-3.092.992-.466 5.178-1.558 5.178-1.558s-4.04 1.365-5.436 2.37c-1.271.918-2.09 3.648-4.549 6.068-1.955 1.925-4.133 2.482-4.133 2.482Z" fill="url(#s)"/>
    <mask id="t" style="mask-type:luminance" maskUnits="userSpaceOnUse" x="60" y="17" width="24" height="30">
      <path d="M64.318 20.508c1.434.828 3.462.098 6.135-1.959-.19.93-.3 1.236-.229 1.58.077.366.242.77 1.171 1.04.895.259 1.265 1.118 1.28 1.187-.02-.04-.215-.366-1.09-.572-1.24-.293-1.754-.988-1.76-1.021-.012.055-.297 1.419-.712 2.233-.41.804-1.257 1.96-1.257 1.96s3.587-.45 5.589.325c2.056.796 3.678 3.228 3.728 3.303-.076-.079-2.249-2.346-4.598-2.862-4.595-1.009-6.718 1.264-6.793 1.324.122-.047 3.092-1.188 5.817.047 3.048 1.383.645 5.176.514 5.377.099-.206 1.963-4.2-1.609-5.01-3.278-.744-5.328 2.33-5.328 2.33.056.005 1.17-.185 3.445-.249 3.538-.098 2.01 5.092 2.01 5.092s.128-4.161-1.476-4.26c-1.81-.11-2.445.025-2.445.025s1.35.896 1.554 3.843c.384 5.58-3.793 8.909-3.918 9.007.1-.057 2.721-1.603 4.088-4.486.518-1.093.816-1.87.885-2.25-.117 1.323-.597 2.853-1.666 4.584-2.854 4.62-6.653 5.652-6.782 5.687.246-.04 13.59-2.297 17.128-12.25 2.914-8.193-.479-11.355-.8-11.63l-.002-.002-.01-.008-.012-.01s.713-.36 3.157 2.398c1.838 2.075 3.33 2.58 3.377 2.595a151.98 151.98 0 0 1-2.24-2.284c-1.29-1.355-3.692-4.938-6.942-6.577-3.25-1.64-7.655-1.65-7.655-1.65-.357 1.282-1.205 2.31-2.554 3.143Z" fill="#fff"/>
    </mask>
    <g mask="url(#t)">
      <mask id="v" style="mask-type:luminance" maskUnits="userSpaceOnUse" x="-3190" y="-2733" width="5889" height="5663">
        <path d="M-3189.67-2732.14h5888.32v5661.82h-5888.32v-5661.82Z" fill="url(#u)"/>
      </mask>
      <g mask="url(#v)">
        <path d="M64.32 20.508c1.434.828 3.462.098 6.135-1.958-.19.93-.3 1.235-.229 1.58.077.366.242.77 1.17 1.04.895.259 1.266 1.117 1.281 1.186-.02-.04-.216-.365-1.09-.572-1.24-.292-1.754-.988-1.76-1.02-.012.055-.297 1.419-.712 2.233-.411.804-1.257 1.96-1.257 1.96s3.587-.45 5.589.325c2.056.796 3.678 3.228 3.728 3.303-.076-.08-2.249-2.346-4.598-2.862-4.595-1.01-6.718 1.264-6.793 1.324.122-.047 3.092-1.188 5.816.047 3.049 1.382.646 5.175.515 5.377.099-.206 1.963-4.2-1.609-5.01-3.278-.744-5.328 2.329-5.328 2.329.056.006 1.17-.185 3.445-.248 3.538-.098 2.01 5.092 2.01 5.092s.128-4.162-1.476-4.26c-1.81-.111-2.445.024-2.445.024s1.35.896 1.554 3.844c.384 5.579-3.793 8.908-3.918 9.007.1-.058 2.721-1.603 4.088-4.487.518-1.092.816-1.87.885-2.25-.117 1.324-.597 2.854-1.666 4.585-2.854 4.62-6.653 5.652-6.782 5.686.246-.04 13.59-2.296 17.128-12.25 2.914-8.192-.48-11.354-.8-11.63L77.2 22.9l-.01-.007-.012-.01s.712-.36 3.157 2.398c1.838 2.075 3.33 2.58 3.377 2.594-.038-.038-1.266-1.262-2.24-2.283-1.29-1.356-3.692-4.938-6.942-6.578-3.25-1.64-7.655-1.649-7.655-1.649-.357 1.282-1.205 2.31-2.554 3.142Z" fill="url(#w)"/>
      </g>
    </g>
    <mask id="x" style="mask-type:luminance" maskUnits="userSpaceOnUse" x="49" y="22" width="36" height="40">
      <path d="M78 34.533c-3.539 9.953-16.883 12.21-17.128 12.25h-.004s-2.923 1.42-5.46 1.78c-3.42.483-5.246 2.937-5.246 2.937s2.413-1.26 3.879-1.626c1.289-.321 1.697.067 1.697.067s-1.925 1.277-3.02 1.862c-.85.453-3.313 1.55-3.313 1.55s2.544 1.263 4.186 2.84c3.304 3.179 3.734 5.249 3.734 5.249s.526-1.769 2.106-3.038c1.922-1.546 3.242-2.083 3.33-2.128-.033.021-.31.225-.71 1.173-.424 1.012-.355 2.09-.355 2.09s.686-1.883 1.493-2.94c.848-1.109 2.44-1.813 2.44-1.813s.689-.4 1.93-1.163c1.141-.702 2.015-1.25 2.015-1.25l-2.752 5.565c.053-.027 1.748-.91 3.275-2.962 1.507-2.023.917-2.75 3.395-4.643 2.744-2.096 3.53-4.195 3.53-4.195s.628.507.051 2.303c-.361 1.125-1.85 3.753-1.85 3.753s2.614-2.628 3.803-5.125c1.21-2.544 1.439-5.705 1.439-5.705s.4.452.502 1.856c.068.933.028 2.316.028 2.316s1.53-3.936.852-6.858c-.598-2.576-.307-2.903-.021-3.033.285-.13.854.024 1.426.663.58.648 1.257 1.964 1.257 1.964s.254-2.66-.664-4.765c-1.044-2.4-2.24-3.411-2.24-3.411s-.169-1.502-.645-2.643c-.933-2.243-3.483-4.329-3.76-4.55.32.275 3.714 3.437.8 11.63Z" fill="#fff"/>
    </mask>
    <g mask="url(#x)">
      <mask id="z" style="mask-type:luminance" maskUnits="userSpaceOnUse" x="-3190" y="-2733" width="5889" height="5663">
        <path d="M-3189.68-2732.14h5888.33v5661.82h-5888.33v-5661.82Z" fill="url(#y)"/>
      </mask>
      <g mask="url(#z)">
        <path d="M78 34.535c-3.539 9.953-16.883 12.209-17.128 12.25h-.004s-2.923 1.42-5.46 1.78c-3.42.483-5.246 2.937-5.246 2.937s2.413-1.26 3.879-1.626c1.289-.321 1.697.067 1.697.067s-1.925 1.276-3.02 1.861c-.85.454-3.313 1.551-3.313 1.551s2.544 1.263 4.186 2.84c3.304 3.178 3.734 5.248 3.734 5.248s.526-1.768 2.106-3.037c1.922-1.546 3.242-2.083 3.33-2.129-.033.022-.31.225-.71 1.173-.424 1.012-.355 2.09-.355 2.09s.686-1.883 1.493-2.938c.848-1.11 2.44-1.814 2.44-1.814s.689-.4 1.93-1.163c1.141-.702 2.015-1.25 2.015-1.25l-2.752 5.565c.053-.027 1.748-.91 3.275-2.962 1.507-2.024.917-2.75 3.395-4.643 2.744-2.097 3.53-4.195 3.53-4.195s.628.507.051 2.302c-.361 1.126-1.85 3.754-1.85 3.754s2.614-2.628 3.803-5.125c1.21-2.544 1.439-5.706 1.439-5.706s.4.453.502 1.857c.068.932.028 2.315.028 2.315s1.53-3.935.852-6.857c-.598-2.577-.307-2.904-.021-3.033.285-.13.854.024 1.426.663.58.647 1.257 1.964 1.257 1.964s.254-2.66-.664-4.766c-1.044-2.4-2.24-3.41-2.24-3.41s-.169-1.502-.645-2.644c-.933-2.242-3.483-4.328-3.76-4.55.32.276 3.714 3.438.8 11.63Z" fill="url(#A)"/>
      </g>
    </g>
    <mask id="B" style="mask-type:luminance" maskUnits="userSpaceOnUse" x="48" y="17" width="22" height="24">
      <path d="M55.95 20.448c-1.308.791-1.575 2.09-1.575 2.09s-.286-1.115.08-1.946c.917-2.081-.154-3.204-.154-3.204s.11.91-.485 2.231c-.499 1.11-.985.663-1.306 2.31-.213 1.09-.572 1.559-.572 1.559s-.388-.544-.358-1.699c.034-1.269.693-2.466.713-2.503-.03.025-.736.636-1.185 2.05-.26.82-.089 1.173-.287 2.308-.119.678-.497 1.287-.497 1.287-.02-.06-.117-.39-.277-.92-.179-.588-.052-1.592-.052-1.592s-.483 1.249.026 3.158c.268 1.007-.484 1.273-.662 1.91-.179.637.636 1.568.84 2.008.204.44-.484 2.522-.484 2.522-.098.41-.26.809-.444 1.174-.532 1.055-1.262 1.838-1.262 1.838s.357.906.891 1.445a79.508 79.508 0 0 0 1.681 1.615l.118-.31 1.52-1.591s.203.18.645.473c.441.294 1.155.22 1.155.22s-.221-.17-.425-.31c-.203-.139-.364-.424-.475-.579-.11-.156-.356-.343-.356-.343l1.205-1.318s.216.306.675.403c.42.09.955-.306.955-.306s-.356-.06-.675-.158c-.319-.098-.204-.428-.204-.428s.408-.454.764-.98c.356-.526.905-1.494 1.235-1.996.332-.502.98-.735 2-1.37 1.017-.637 1.48-2.057 1.48-2.057l.001.001c.01.044.266 1.128-.03 2.332-.3 1.23-1.507 1.36-2.434 2.52-.904 1.132-.889 1.768-.889 1.768s.29-.163.549-.302c.325-.175.848-.09.848-.09s-.518.222-.762.449c-.245.227-.564.924-1.135 2.194-.57 1.269-1.837 2.376-2.018 2.438-.18.063-1.275-.595-1.275-.595l-.184.089s.759 1.232 1.01 1.523c.252.291.423.163.878.1.453-.063.549.081 1.022.23.473.15.718.128.718.128.329.111.688.328.71.341l-.41-.534s.27-.09.529-.203c.243-.106.463-.456.49-.498-.022.014-.131.093-.436.129-.34.041-.462-.055-.462-.055s1.676-1.67 2.527-2.427c.83-.737 1.673-.537 1.712-.527a2.93 2.93 0 0 0-1.054-.329c-.6-.064-1.046.348-1.715.823-.67.476-1.005.17-1.005.17s.786-.76 1.305-1.81c.792-1.6 1.61-3.285 3.643-3.612 2.708-.433 4.145-1.637 4.145-1.637s-1.055.18-2.299.257c-.558.034-1.652.016-1.652.016s1.476-.49 1.858-.735c.382-.245.994-.906 1.452-1.372.446-.453 1.523-1.093 1.577-1.125-.038.007-.662.131-1.5.416-.867.294-1.809.44-1.809.44l2.573-2.448c2.029-2.121 3.197-5.903 3.233-6.021-.033.061-1.365 1.05-2.663 1.564-1.697.671-3.983-.465-3.983-.465h.003c-.134-.085-1.869-1.096-3.937.857-1.142 1.08-3.112.835-3.112.835s.082-.741 1.108-1.55c1.399-1.103.668-3.336.668-3.336s-.45 2.096-2.043 3.06Zm-1.49 4.82c.29-.653.62-.874.824-1.38.16-.4.314-1.412.314-1.412s.288.882.12 1.453c-.171.571-.519.988-.757 1.403-.227.4-.254 1.208-.254 1.208s-.535-.62-.246-1.273Zm-1.663 4.043c1.566-.71 1.844-1.059 2.38-1.738.446-.564.8-1.299 1.032-1.616.356-.49.7-.734 1.782-1.482 1.046-.721 1.736-1.83 1.782-1.905-.033.09-.56 1.523-1.077 2.085-.535.58-.9.71-1.044 1.168-.145.457-.246.84-.407 1.093-.161.253-.569.808-.569.808s.687-.196.985-.58c.296-.384.535-.685.535-.685s-.137 1.257-2.072 1.836c-1.936.58-1.918.612-2.08.89-.16.277-.118.8-.56 1.257-.441.457-1.358 1.053-1.358 1.053s-.025-.457.195-.694c.22-.237.4-.433.467-.629.068-.195.085-.58.085-.58s-.883.401-1.612.245c-.65-.137-1.013-.767-1.036-.806.027.026.569.537 1.458.537.327 0 .7-.07 1.114-.257Zm-3.516 6.422a1.603 1.603 0 0 1-.31-.55l.677-.135s.164.234.256.53c.121.383.178.85.189.88.001.004 0 .005-.002.005-.041 0-.505-.375-.81-.73Z" fill="#fff"/>
    </mask>
    <g mask="url(#B)">
      <mask id="D" style="mask-type:luminance" maskUnits="userSpaceOnUse" x="-3190" y="-2733" width="5889" height="5663">
        <path d="M-3189.67-2732.14h5888.32v5661.82h-5888.32v-5661.82Z" fill="url(#C)"/>
      </mask>
      <g mask="url(#D)">
        <path d="M55.951 20.448c-1.308.791-1.575 2.09-1.575 2.09s-.286-1.115.08-1.946c.917-2.081-.154-3.204-.154-3.204s.11.91-.485 2.231c-.5 1.11-.985.663-1.306 2.31-.213 1.09-.572 1.559-.572 1.559s-.388-.544-.358-1.699c.034-1.269.693-2.466.713-2.503-.03.025-.736.636-1.185 2.05-.26.82-.089 1.173-.287 2.308-.119.678-.497 1.287-.497 1.287-.02-.06-.117-.39-.277-.92-.179-.588-.052-1.592-.052-1.592s-.483 1.249.026 3.158c.268 1.007-.484 1.273-.662 1.91-.179.637.636 1.568.84 2.008.204.44-.484 2.522-.484 2.522-.098.41-.26.809-.444 1.174-.532 1.055-1.262 1.838-1.262 1.838s.357.906.891 1.445a79.19 79.19 0 0 0 1.681 1.615l.118-.31 1.52-1.591s.203.18.645.473c.441.294 1.155.22 1.155.22s-.221-.17-.425-.31c-.203-.139-.364-.424-.475-.579-.11-.156-.356-.343-.356-.343l1.205-1.318s.216.306.675.403c.42.09.955-.306.955-.306s-.356-.06-.675-.158c-.319-.098-.204-.428-.204-.428s.408-.454.764-.98c.356-.526.905-1.494 1.235-1.996.332-.502.98-.735 2-1.37 1.017-.637 1.48-2.057 1.48-2.057l.001.001c.01.044.266 1.128-.03 2.332-.3 1.23-1.507 1.36-2.434 2.52-.904 1.132-.889 1.768-.889 1.768s.29-.163.549-.302c.325-.175.848-.09.848-.09s-.518.222-.762.449c-.245.227-.564.924-1.135 2.194-.57 1.269-1.837 2.376-2.018 2.438-.18.063-1.275-.595-1.275-.595l-.184.089s.759 1.232 1.01 1.523c.252.291.423.163.877.1s.55.081 1.023.23c.473.15.718.128.718.128.329.111.688.328.71.341l-.411-.534s.271-.09.53-.203c.243-.106.464-.456.49-.498-.022.014-.131.093-.436.129-.34.041-.462-.055-.462-.055s1.676-1.67 2.527-2.427c.83-.737 1.673-.537 1.712-.527a2.93 2.93 0 0 0-1.054-.329c-.6-.064-1.046.348-1.715.823-.67.476-1.005.17-1.005.17s.786-.76 1.305-1.81c.792-1.6 1.61-3.285 3.643-3.612 2.708-.433 4.145-1.637 4.145-1.637s-1.055.18-2.299.257c-.558.034-1.652.016-1.652.016s1.476-.49 1.858-.735c.382-.245.994-.906 1.452-1.372.446-.453 1.523-1.093 1.576-1.125-.037.007-.66.131-1.5.416-.866.294-1.808.44-1.808.44l2.573-2.448c2.029-2.121 3.197-5.903 3.233-6.021-.033.061-1.365 1.05-2.663 1.564-1.697.671-3.983-.465-3.983-.465h.003c-.134-.085-1.869-1.096-3.937.857-1.142 1.08-3.112.835-3.112.835s.082-.741 1.108-1.55c1.399-1.103.668-3.336.668-3.336s-.45 2.096-2.043 3.06Zm-1.49 4.82c.29-.653.62-.874.824-1.38.16-.4.314-1.412.314-1.412s.288.882.12 1.453c-.171.571-.52.988-.757 1.403-.227.4-.254 1.208-.254 1.208s-.535-.62-.246-1.273Zm-1.663 4.043c1.566-.71 1.844-1.059 2.38-1.738.446-.564.8-1.299 1.032-1.616.356-.49.7-.734 1.782-1.482 1.046-.721 1.736-1.83 1.782-1.905-.032.09-.56 1.523-1.077 2.085-.535.58-.9.71-1.044 1.168-.145.457-.246.84-.407 1.093-.161.253-.569.808-.569.808s.687-.196.985-.58c.296-.384.535-.685.535-.685s-.137 1.257-2.072 1.836c-1.936.58-1.918.612-2.08.89-.16.277-.118.8-.56 1.257-.441.457-1.358 1.053-1.358 1.053s-.026-.457.195-.694c.22-.237.4-.433.467-.629.068-.195.085-.58.085-.58s-.883.401-1.613.245c-.65-.137-1.012-.767-1.035-.806.027.026.569.537 1.458.537.327 0 .7-.07 1.114-.257Zm-3.517 6.422c-.23-.27-.309-.55-.309-.55l.677-.135s.164.234.256.53c.121.383.178.85.189.88.001.004 0 .005-.002.005-.041 0-.505-.375-.81-.73Z" fill="url(#E)"/>
      </g>
    </g>
    <mask id="F" style="mask-type:luminance" maskUnits="userSpaceOnUse" x="50" y="0" width="21" height="25">
      <path d="M62.83 7.687c.137 3.432-.713 4.488-1.58 5.681-.866 1.191-2.326 1.975-3.751 3.41-1.427 1.438-1.834 2.907-1.834 2.907-.187-2.041.592-3.118 1.446-4.832 1.045-2.094 1.045-3.845 1.045-3.845.301-3.332-1.637-4.915-1.852-5.077.196.18 1.854 1.8 1.279 5.004-.253 1.41-.917 2.571-2.648 4.432-1.732 1.86-2.444 2.057-3.744 4.407-1.324 2.397-.9 4.973-.868 5.156 0 0 .379-.608.497-1.286.199-1.135.027-1.487.287-2.308.45-1.414 1.156-2.025 1.185-2.05-.02.037-.68 1.234-.712 2.503-.031 1.155.357 1.699.357 1.699s.36-.47.573-1.56c.32-1.646.806-1.199 1.305-2.309.595-1.321.485-2.23.485-2.23s1.071 1.122.154 3.203c-.366.831-.08 1.947-.08 1.947s.268-1.3 1.575-2.091c1.594-.964 2.043-3.06 2.043-3.06s.731 2.233-.668 3.336c-1.026.809-1.108 1.55-1.108 1.55s1.97.245 3.112-.835c2.068-1.953 3.803-.942 3.937-.858.049-.012.775-.208 1.704-1.1 1.07-1.03 1.607-2.546 1.782-3.796.585-4.187 2.3-5.35 3.489-6.88 1.305-1.683.561-5.006.426-5.554.082.383.354 2.125-.859 4.305-.587 1.055-2.318 2.326-3.464 3.403-1.145 1.078-1.68 2.522-2.088 3.086-.408.563-1.527 1.664-2.546 2.865-1.019 1.2-1.478 2.008-2.445 3.354-.968 1.346-2.037 1.396-2.037 1.396s1.222-1.126 1.68-1.69c.46-.563.663-1.494 1.121-2.302.458-.807 2.011-2.154 2.011-2.154 2.369-2.4 1.885-7.174 1.885-7.174C63.121 1.928 59.515.056 59.402 0c.097.08 3.227 2.705 3.427 7.687Zm.561 10.925c-.545-.07-.355-.733.137-1.648.62-1.153 2.6-3.505 2.63-3.542-.013.042-.469 1.364-.578 2.107-.146 1.011-.196 1.549-.634 2.216-.392.6-.892.879-1.384.879-.057 0-.114-.004-.171-.012Z" fill="#fff"/>
    </mask>
    <g mask="url(#F)">
      <mask id="H" style="mask-type:luminance" maskUnits="userSpaceOnUse" x="-3190" y="-2733" width="5889" height="5663">
        <path d="M-3189.67-2732.14h5888.32v5661.82h-5888.32v-5661.82Z" fill="url(#G)"/>
      </mask>
      <g mask="url(#H)">
        <path d="M62.83 7.688c.138 3.432-.712 4.489-1.579 5.681-.866 1.191-2.326 1.975-3.751 3.41-1.427 1.438-1.834 2.907-1.834 2.907-.187-2.04.592-3.117 1.446-4.832 1.044-2.094 1.044-3.844 1.044-3.844.302-3.333-1.636-4.915-1.85-5.078.195.18 1.853 1.8 1.278 5.004-.253 1.41-.917 2.572-2.648 4.432-1.732 1.86-2.444 2.057-3.744 4.408-1.324 2.396-.9 4.972-.868 5.156 0 0 .379-.609.497-1.287.199-1.135.027-1.487.287-2.308.45-1.414 1.155-2.025 1.185-2.05-.02.037-.68 1.235-.712 2.504-.031 1.154.357 1.698.357 1.698s.36-.469.572-1.56c.322-1.646.807-1.198 1.306-2.309.595-1.32.485-2.23.485-2.23s1.071 1.122.154 3.203c-.366.831-.08 1.947-.08 1.947s.268-1.3 1.575-2.091c1.594-.964 2.043-3.06 2.043-3.06s.731 2.233-.668 3.336c-1.026.81-1.108 1.55-1.108 1.55s1.97.246 3.112-.835c2.068-1.953 3.803-.941 3.937-.858.049-.012.775-.208 1.703-1.1 1.07-1.03 1.608-2.546 1.783-3.795.585-4.188 2.3-5.35 3.489-6.881 1.305-1.682.561-5.005.426-5.554.082.383.354 2.125-.859 4.306-.587 1.055-2.318 2.326-3.464 3.402-1.146 1.078-1.68 2.522-2.088 3.086-.408.563-1.527 1.665-2.546 2.865-1.019 1.2-1.477 2.008-2.445 3.354-.968 1.347-2.037 1.396-2.037 1.396s1.222-1.126 1.68-1.69c.46-.562.663-1.494 1.121-2.301.458-.808 2.011-2.155 2.011-2.155 2.369-2.4 1.885-7.174 1.885-7.174C63.122 1.93 59.516.057 59.403 0c.097.08 3.227 2.706 3.427 7.687Zm.562 10.926c-.545-.072-.355-.734.137-1.649.62-1.153 2.6-3.505 2.63-3.541-.013.041-.469 1.363-.578 2.106-.146 1.011-.196 1.55-.634 2.217-.392.598-.892.878-1.384.878-.057 0-.114-.004-.171-.011Z" fill="url(#I)"/>
      </g>
    </g>
    <mask id="J" style="mask-type:luminance" maskUnits="userSpaceOnUse" x="53" y="69" width="16" height="9">
      <path d="M63.802 75.387c-6.364-.204-6.887-3.924-6.887-3.924s-.123.987-1.436 2.762c-1.01 1.365-2.421 2.21-2.421 2.21s1.054.643 3.246 1.224l.024.006.01.002c.416.09 4.66.945 8.537-.72 4.107-1.762 4.052-4.54 4.052-4.54s-.109-.73-.522-1.514c-.404-.766-1.073-1.288-1.102-1.311.036.085 2.565 6-3.501 5.805Z" fill="#fff"/>
    </mask>
    <g mask="url(#J)">
      <mask id="L" style="mask-type:luminance" maskUnits="userSpaceOnUse" x="-3190" y="-2733" width="5889" height="5663">
        <path d="M-3189.68-2732.14h5888.33v5661.82h-5888.33v-5661.82Z" fill="url(#K)"/>
      </mask>
      <g mask="url(#L)">
        <path d="M63.803 75.388c-6.363-.204-6.887-3.923-6.887-3.923s-.123.986-1.436 2.761c-1.01 1.366-2.421 2.21-2.421 2.21s1.054.643 3.246 1.225l.024.005.01.002c.416.09 4.66.945 8.537-.719 4.107-1.763 4.052-4.54 4.052-4.54s-.109-.731-.522-1.514c-.404-.766-1.073-1.289-1.102-1.312.036.085 2.565 6-3.501 5.805Z" fill="url(#M)"/>
      </g>
    </g>
    <path d="M80.36 67.164c.968-.455 4.983-1.507 5.171-1.556-.181.062-4.066 1.387-5.429 2.37-1.271.916-2.09 3.647-4.55 6.067-1.955 1.924-4.132 2.482-4.132 2.482 1.394.365 1.94.84 1.94.84s-1.769.14-2.414.094c-.644-.046-1.201-.192-2.041.115-.84.308-3.269 1.042-5.61.992-2.99-.063-5.296-.464-6.955-.902.416.09 4.66.945 8.537-.719 4.107-1.762 4.052-4.54 4.052-4.54s.306-3.6 1.115-5.665c1.39-3.55 4.032-4.9 4.032-4.9s-.746.786-.952 1.898c-.217 1.166.011 1.706.011 1.706s1.557-1.697 2.979-2.361c2.675-1.25 3.422-.858 6.22-2.247 3.364-1.67 4.26-4.291 4.287-4.372-.02.086-.703 2.845-2.957 4.888-1.906 1.727-4.715 3.238-6.475 5.031-2.07 2.108-3.052 6.21-3.052 6.21s1.252-.225 2.671-2.338c1.544-2.301 2.561-2.626 3.552-3.093Z" fill="url(#N)"/>
    <path d="m68.682 32.869.001.003-.001-.002v-.001Z" fill="url(#O)"/>
    <path d="M69.357 36.166s.01.106-.034.346c.013-.13.02-.259.026-.386l.008.04Z" fill="url(#P)"/>
    <path d="m63.277 20.586-.008-.005M52.298 19.284l-.001.002" stroke="#00ABEC" stroke-width=".14" stroke-miterlimit="10"/>
  </g>
  <path d="M5.118 51.572V63.97h1.927c2.343 0 3.855-.57 4.538-1.712.682-1.142 1.023-2.487 1.023-4.036v-.705c0-1.925-.423-3.396-1.27-4.412-.842-1.022-2.3-1.533-4.376-1.533H5.118Zm3.232-.348c2.32 0 4.103.699 5.348 2.098 1.251 1.392 1.877 2.865 1.877 4.42v.415c0 1.743-.671 3.214-2.013 4.411-1.342 1.192-2.923 1.788-4.743 1.788H0v-.367c1.103 0 1.814-.213 2.132-.64.324-.426.487-1.1.487-2.022v-7.074c0-.922-.163-1.596-.487-2.023-.318-.426-1.029-.64-2.132-.64v-.366h8.35ZM21.963 50.744c1.28 0 2.386.263 3.318.79.933.52 1.518.78 1.757.78.404 0 .694-.353.87-1.062h.35v4.496h-.35c-.41-1.605-1.174-2.78-2.294-3.527-1.115-.753-2.292-1.129-3.532-1.129-1.046 0-1.796.254-2.251.762-.455.502-.683.997-.683 1.486 0 1.06 1.115 1.831 3.344 2.314 2.32.577 4.014 1.176 5.084 1.797 1.074.62 1.611 1.618 1.611 2.991 0 1.11-.429 2.042-1.287 2.794-.853.747-1.976 1.12-3.37 1.12-1.25 0-2.271-.223-3.062-.668-.79-.452-1.486-.678-2.09-.678-.704 0-1.219.449-1.543 1.346h-.29V58.25h.324c.227 1.737 1.03 3.129 2.405 4.176 1.382 1.047 2.8 1.571 4.256 1.571.996 0 1.735-.254 2.218-.762.483-.508.725-1.035.725-1.58 0-.903-.58-1.568-1.74-1.994-1.16-.427-2.755-.938-4.785-1.534-1.41-.483-2.36-1.003-2.849-1.561-.483-.565-.725-1.276-.725-2.136 0-1.097.458-1.984 1.374-2.662.92-.683 1.993-1.025 3.215-1.025ZM35.917 50.744c1.28 0 2.386.263 3.318.79.933.52 1.518.78 1.757.78.404 0 .694-.353.87-1.062h.35v4.496h-.35c-.41-1.605-1.174-2.78-2.294-3.527-1.115-.753-2.292-1.129-3.531-1.129-1.047 0-1.797.254-2.252.762-.455.502-.682.997-.682 1.486 0 1.06 1.114 1.831 3.343 2.314 2.32.577 4.015 1.176 5.084 1.797 1.074.62 1.612 1.618 1.612 2.991 0 1.11-.43 2.042-1.288 2.794-.853.747-1.976 1.12-3.37 1.12-1.25 0-2.271-.223-3.062-.668-.79-.452-1.486-.678-2.09-.678-.704 0-1.219.449-1.543 1.346h-.29V58.25h.324c.227 1.737 1.03 3.129 2.405 4.176 1.382 1.047 2.8 1.571 4.256 1.571.996 0 1.735-.254 2.218-.762.483-.508.725-1.035.725-1.58 0-.903-.58-1.568-1.74-1.994-1.16-.427-2.755-.938-4.785-1.534-1.41-.483-2.36-1.003-2.849-1.561-.483-.565-.725-1.276-.725-2.136 0-1.097.458-1.984 1.374-2.662.92-.683 1.993-1.025 3.215-1.025Z" fill="#fff"/>
  <path d="M44.827 50.985h3.43v9.457h8.576v3.783H44.827v-13.24Z" fill="url(#Q)"/>
  <path d="M61.12 55.713h7.718l-1.715 3.783H61.12v.946h6.86l3.43 3.783H57.69v-13.24h13.72l-3.43 3.783h-6.86v.945Z" fill="url(#R)"/>
  <path d="m74.84 54.768-.857.945v1.892h5.146v-1.892l-.858-.945h-3.43Zm-4.287-1.892 1.715-1.891h8.576l1.715 1.891v11.35h-3.43v-2.838h-5.146v4.729l-3.43-3.783v-9.458Z" fill="url(#S)"/>
  <path d="M86.847 54.768v5.674h4.287l.858-.946v-3.783l-.858-.945h-4.287Zm-3.43 9.457v-13.24h10.29l1.715 1.891v9.458l-1.715 1.891h-10.29Z" fill="url(#T)"/>
  <path d="m110 50.985-3.43 3.783h-6.003l-.429.473.429.472h6.003l1.715 1.892v4.729l-1.715 1.891h-8.575l-3.43-3.783h9.432l.429-.473-.429-.473h-6.002l-1.716-1.891v-4.729l1.716-1.891H110Z" fill="url(#U)"/>
  <defs>
    <linearGradient id="b" x1="39.251" y1="44.747" x2="44.082" y2="25.996" gradientUnits="userSpaceOnUse">
      <stop stop-color="#fff" stop-opacity=".25"/>
      <stop offset=".4" stop-color="#fff" stop-opacity="0"/>
      <stop offset="1" stop-color="#fff" stop-opacity="0"/>
    </linearGradient>
    <linearGradient id="d" x1="39.249" y1="44.746" x2="44.08" y2="25.996" gradientUnits="userSpaceOnUse">
      <stop/>
      <stop offset=".4"/>
      <stop offset="1"/>
    </linearGradient>
    <linearGradient id="f" x1="51.842" y1="61.547" x2="28.738" y2="61.547" gradientUnits="userSpaceOnUse">
      <stop stop-color="#fff" stop-opacity=".17"/>
      <stop offset=".81" stop-color="#fff" stop-opacity="0"/>
      <stop offset="1" stop-color="#fff" stop-opacity="0"/>
    </linearGradient>
    <linearGradient id="h" x1="51.843" y1="61.547" x2="28.738" y2="61.547" gradientUnits="userSpaceOnUse">
      <stop/>
      <stop offset=".81"/>
      <stop offset="1"/>
    </linearGradient>
    <linearGradient id="j" x1="46.216" y1="15.942" x2="36.219" y2="74.911" gradientUnits="userSpaceOnUse">
      <stop stop-color="#fff" stop-opacity=".5"/>
      <stop offset=".35" stop-color="#fff" stop-opacity="0"/>
      <stop offset="1" stop-color="#fff" stop-opacity="0"/>
    </linearGradient>
    <linearGradient id="l" x1="46.215" y1="15.942" x2="36.217" y2="74.91" gradientUnits="userSpaceOnUse">
      <stop/>
      <stop offset=".35"/>
      <stop offset="1"/>
    </linearGradient>
    <linearGradient id="n" x1="161.362" y1="104.847" x2="172.277" y2="116.199" gradientUnits="userSpaceOnUse">
      <stop stop-color="#fff" stop-opacity=".1"/>
      <stop offset=".45" stop-color="#fff" stop-opacity="0"/>
      <stop offset="1" stop-color="#fff" stop-opacity="0"/>
    </linearGradient>
    <linearGradient id="p" x1="35.032" y1="39.896" x2="45.947" y2="51.247" gradientUnits="userSpaceOnUse">
      <stop/>
      <stop offset=".45"/>
      <stop offset="1"/>
    </linearGradient>
    <linearGradient id="q" x1="66.973" y1="61.441" x2="66.973" y2="17.366" gradientUnits="userSpaceOnUse">
      <stop stop-color="#F00000"/>
      <stop offset="1" stop-color="#8A0000"/>
    </linearGradient>
    <linearGradient id="r" x1="59.504" y1="40.565" x2="59.504" y2="0" gradientUnits="userSpaceOnUse">
      <stop stop-color="#F00000"/>
      <stop offset="1" stop-color="#8A0000"/>
    </linearGradient>
    <linearGradient id="s" x1="69.838" y1="78.571" x2="69.838" y2="56.464" gradientUnits="userSpaceOnUse">
      <stop stop-color="#F00000"/>
      <stop offset="1" stop-color="#8A0000"/>
    </linearGradient>
    <linearGradient id="u" x1="60.874" y1="32.075" x2="83.712" y2="32.075" gradientUnits="userSpaceOnUse">
      <stop stop-color="#fff" stop-opacity=".5"/>
      <stop offset=".8" stop-color="#fff" stop-opacity="0"/>
      <stop offset="1" stop-color="#fff" stop-opacity="0"/>
    </linearGradient>
    <linearGradient id="w" x1="60.873" y1="32.075" x2="83.711" y2="32.075" gradientUnits="userSpaceOnUse">
      <stop/>
      <stop offset=".8"/>
      <stop offset="1"/>
    </linearGradient>
    <linearGradient id="y" x1="57.695" y1="61.65" x2="78.732" y2="23.755" gradientUnits="userSpaceOnUse">
      <stop stop-color="#fff" stop-opacity=".45"/>
      <stop offset=".3" stop-color="#fff" stop-opacity="0"/>
      <stop offset="1" stop-color="#fff" stop-opacity="0"/>
    </linearGradient>
    <linearGradient id="A" x1="57.695" y1="61.649" x2="78.731" y2="23.754" gradientUnits="userSpaceOnUse">
      <stop/>
      <stop offset=".3"/>
      <stop offset="1"/>
    </linearGradient>
    <linearGradient id="C" x1="63.206" y1="38.466" x2="55.663" y2="16.912" gradientUnits="userSpaceOnUse">
      <stop stop-color="#fff" stop-opacity=".2"/>
      <stop offset=".4" stop-color="#fff" stop-opacity="0"/>
      <stop offset="1" stop-color="#fff" stop-opacity="0"/>
    </linearGradient>
    <linearGradient id="E" x1="63.204" y1="38.467" x2="55.66" y2="16.913" gradientUnits="userSpaceOnUse">
      <stop/>
      <stop offset=".4"/>
      <stop offset="1"/>
    </linearGradient>
    <linearGradient id="G" x1="59.627" y1="25.715" x2="61.773" y2=".201" gradientUnits="userSpaceOnUse">
      <stop stop-color="#fff" stop-opacity="0"/>
      <stop offset=".2" stop-color="#fff" stop-opacity=".2"/>
      <stop offset="1" stop-color="#fff" stop-opacity=".2"/>
    </linearGradient>
    <linearGradient id="I" x1="59.625" y1="25.714" x2="61.771" y2=".2" gradientUnits="userSpaceOnUse">
      <stop/>
      <stop offset=".2"/>
      <stop offset="1"/>
    </linearGradient>
    <linearGradient id="K" x1="59.96" y1="70.68" x2="61.814" y2="77.876" gradientUnits="userSpaceOnUse">
      <stop stop-color="#fff" stop-opacity=".3"/>
      <stop offset=".8" stop-color="#fff" stop-opacity=".3"/>
      <stop offset="1" stop-color="#fff" stop-opacity=".05"/>
    </linearGradient>
    <linearGradient id="M" x1="59.962" y1="70.68" x2="61.816" y2="77.875" gradientUnits="userSpaceOnUse">
      <stop/>
      <stop offset=".8"/>
      <stop offset="1"/>
    </linearGradient>
    <linearGradient id="N" x1="71.481" y1="78.571" x2="71.481" y2="56.466" gradientUnits="userSpaceOnUse">
      <stop stop-color="#F00000"/>
      <stop offset="1" stop-color="#8A0000"/>
    </linearGradient>
    <linearGradient id="O" x1="68.682" y1="32.872" x2="68.682" y2="32.869" gradientUnits="userSpaceOnUse">
      <stop stop-color="#F00000"/>
      <stop offset="1" stop-color="#8A0000"/>
    </linearGradient>
    <linearGradient id="P" x1="69.341" y1="36.511" x2="69.341" y2="36.127" gradientUnits="userSpaceOnUse">
      <stop stop-color="#F00000"/>
      <stop offset="1" stop-color="#8A0000"/>
    </linearGradient>
    <linearGradient id="Q" x1="55" y1="50.744" x2="55" y2="66.117" gradientUnits="userSpaceOnUse">
      <stop stop-color="#F00000"/>
      <stop offset="1" stop-color="#8A0000"/>
    </linearGradient>
    <linearGradient id="R" x1="55" y1="50.744" x2="55" y2="66.117" gradientUnits="userSpaceOnUse">
      <stop stop-color="#F00000"/>
      <stop offset="1" stop-color="#8A0000"/>
    </linearGradient>
    <linearGradient id="S" x1="55" y1="50.744" x2="55" y2="66.117" gradientUnits="userSpaceOnUse">
      <stop stop-color="#F00000"/>
      <stop offset="1" stop-color="#8A0000"/>
    </linearGradient>
    <linearGradient id="T" x1="55" y1="50.744" x2="55" y2="66.117" gradientUnits="userSpaceOnUse">
      <stop stop-color="#F00000"/>
      <stop offset="1" stop-color="#8A0000"/>
    </linearGradient>
    <linearGradient id="U" x1="55" y1="50.744" x2="55" y2="66.117" gradientUnits="userSpaceOnUse">
      <stop stop-color="#F00000"/>
      <stop offset="1" stop-color="#8A0000"/>
    </linearGradient>
  </defs>
</svg>
