<svg width="80" height="37" viewBox="0 0 80 37" fill="none" xmlns="http://www.w3.org/2000/svg">
<g filter="url(#filter0_iiiii_1837_4864)">
<path d="M20.15 36.7C8.95 36.7 0.7 29 0.7 18.5C0.7 8 8.95 0.299998 20.15 0.299998C31.35 0.299998 39.6 8 39.6 18.5C39.6 29 31.35 36.7 20.15 36.7ZM20.15 28.5C25.45 28.5 29.6 24.55 29.6 18.5C29.6 12.45 25.45 8.5 20.15 8.5C14.85 8.5 10.7 12.45 10.7 18.5C10.7 24.55 14.85 28.5 20.15 28.5ZM68.9352 36L62.5852 26.7H57.1852V36H47.2852V0.999998H63.2852C72.8352 0.999998 78.8352 5.95 78.8352 13.95C78.8352 19.1 76.3352 22.9 71.9852 25L79.5352 36H68.9352ZM68.8352 13.95C68.8352 10.7 66.7852 8.8 62.6852 8.8H57.1852V19.05H62.6852C66.7852 19.05 68.8352 17.15 68.8352 13.95Z" fill="white"/>
</g>
<defs>
<filter id="filter0_iiiii_1837_4864" x="0.700195" y="-13.7002" width="78.835" height="50.4004" filterUnits="userSpaceOnUse" color-interpolation-filters="sRGB">
<feFlood flood-opacity="0" result="BackgroundImageFix"/>
<feBlend mode="normal" in="SourceGraphic" in2="BackgroundImageFix" result="shape"/>
<feColorMatrix in="SourceAlpha" type="matrix" values="0 0 0 0 0 0 0 0 0 0 0 0 0 0 0 0 0 0 127 0" result="hardAlpha"/>
<feOffset dy="-2"/>
<feGaussianBlur stdDeviation="2"/>
<feComposite in2="hardAlpha" operator="arithmetic" k2="-1" k3="1"/>
<feColorMatrix type="matrix" values="0 0 0 0 0 0 0 0 0 0 0 0 0 0 0 0 0 0 0.59 0"/>
<feBlend mode="normal" in2="shape" result="effect1_innerShadow_1837_4864"/>
<feColorMatrix in="SourceAlpha" type="matrix" values="0 0 0 0 0 0 0 0 0 0 0 0 0 0 0 0 0 0 127 0" result="hardAlpha"/>
<feOffset dy="-8"/>
<feGaussianBlur stdDeviation="4"/>
<feComposite in2="hardAlpha" operator="arithmetic" k2="-1" k3="1"/>
<feColorMatrix type="matrix" values="0 0 0 0 0 0 0 0 0 0 0 0 0 0 0 0 0 0 0.51 0"/>
<feBlend mode="normal" in2="effect1_innerShadow_1837_4864" result="effect2_innerShadow_1837_4864"/>
<feColorMatrix in="SourceAlpha" type="matrix" values="0 0 0 0 0 0 0 0 0 0 0 0 0 0 0 0 0 0 127 0" result="hardAlpha"/>
<feOffset dy="-18"/>
<feGaussianBlur stdDeviation="5.5"/>
<feComposite in2="hardAlpha" operator="arithmetic" k2="-1" k3="1"/>
<feColorMatrix type="matrix" values="0 0 0 0 0 0 0 0 0 0 0 0 0 0 0 0 0 0 0.3 0"/>
<feBlend mode="normal" in2="effect2_innerShadow_1837_4864" result="effect3_innerShadow_1837_4864"/>
<feColorMatrix in="SourceAlpha" type="matrix" values="0 0 0 0 0 0 0 0 0 0 0 0 0 0 0 0 0 0 127 0" result="hardAlpha"/>
<feOffset dy="-32"/>
<feGaussianBlur stdDeviation="6.5"/>
<feComposite in2="hardAlpha" operator="arithmetic" k2="-1" k3="1"/>
<feColorMatrix type="matrix" values="0 0 0 0 0 0 0 0 0 0 0 0 0 0 0 0 0 0 0.09 0"/>
<feBlend mode="normal" in2="effect3_innerShadow_1837_4864" result="effect4_innerShadow_1837_4864"/>
<feColorMatrix in="SourceAlpha" type="matrix" values="0 0 0 0 0 0 0 0 0 0 0 0 0 0 0 0 0 0 127 0" result="hardAlpha"/>
<feOffset dy="-50"/>
<feGaussianBlur stdDeviation="7"/>
<feComposite in2="hardAlpha" operator="arithmetic" k2="-1" k3="1"/>
<feColorMatrix type="matrix" values="0 0 0 0 0 0 0 0 0 0 0 0 0 0 0 0 0 0 0.01 0"/>
<feBlend mode="normal" in2="effect4_innerShadow_1837_4864" result="effect5_innerShadow_1837_4864"/>
</filter>
</defs>
</svg>
