<svg width="167" height="35" viewBox="0 0 167 35" fill="none" xmlns="http://www.w3.org/2000/svg">
<g filter="url(#filter0_iiiii_1837_4866)">
<path d="M30.7 35L27.95 28.2H13.15L10.4 35H0.3L15.75 -2.38419e-06L25.5 -2.38419e-06L41 35H30.7ZM16.05 20.9H25.05L20.55 9.7L16.05 20.9ZM46.3066 35V-2.38419e-06L56.2066 -2.38419e-06V27.15L72.9066 27.15V35L46.3066 35ZM79.3242 35V-2.38419e-06L89.2242 -2.38419e-06V35H79.3242ZM124.37 -2.38419e-06H134.17L119.17 35H109.42L94.4699 -2.38419e-06H105.17L114.67 22.8L124.37 -2.38419e-06ZM148.519 27.35H166.819V35H138.719V-2.38419e-06L166.169 -2.38419e-06V7.65L148.519 7.65V13.55L164.069 13.55V20.95H148.519V27.35Z" fill="white"/>
</g>
<defs>
<filter id="filter0_iiiii_1837_4866" x="0.299805" y="-13" width="166.519" height="48" filterUnits="userSpaceOnUse" color-interpolation-filters="sRGB">
<feFlood flood-opacity="0" result="BackgroundImageFix"/>
<feBlend mode="normal" in="SourceGraphic" in2="BackgroundImageFix" result="shape"/>
<feColorMatrix in="SourceAlpha" type="matrix" values="0 0 0 0 0 0 0 0 0 0 0 0 0 0 0 0 0 0 127 0" result="hardAlpha"/>
<feOffset dy="-2"/>
<feGaussianBlur stdDeviation="2"/>
<feComposite in2="hardAlpha" operator="arithmetic" k2="-1" k3="1"/>
<feColorMatrix type="matrix" values="0 0 0 0 0 0 0 0 0 0 0 0 0 0 0 0 0 0 0.59 0"/>
<feBlend mode="normal" in2="shape" result="effect1_innerShadow_1837_4866"/>
<feColorMatrix in="SourceAlpha" type="matrix" values="0 0 0 0 0 0 0 0 0 0 0 0 0 0 0 0 0 0 127 0" result="hardAlpha"/>
<feOffset dy="-8"/>
<feGaussianBlur stdDeviation="4"/>
<feComposite in2="hardAlpha" operator="arithmetic" k2="-1" k3="1"/>
<feColorMatrix type="matrix" values="0 0 0 0 0 0 0 0 0 0 0 0 0 0 0 0 0 0 0.51 0"/>
<feBlend mode="normal" in2="effect1_innerShadow_1837_4866" result="effect2_innerShadow_1837_4866"/>
<feColorMatrix in="SourceAlpha" type="matrix" values="0 0 0 0 0 0 0 0 0 0 0 0 0 0 0 0 0 0 127 0" result="hardAlpha"/>
<feOffset dy="-18"/>
<feGaussianBlur stdDeviation="5.5"/>
<feComposite in2="hardAlpha" operator="arithmetic" k2="-1" k3="1"/>
<feColorMatrix type="matrix" values="0 0 0 0 0 0 0 0 0 0 0 0 0 0 0 0 0 0 0.3 0"/>
<feBlend mode="normal" in2="effect2_innerShadow_1837_4866" result="effect3_innerShadow_1837_4866"/>
<feColorMatrix in="SourceAlpha" type="matrix" values="0 0 0 0 0 0 0 0 0 0 0 0 0 0 0 0 0 0 127 0" result="hardAlpha"/>
<feOffset dy="-32"/>
<feGaussianBlur stdDeviation="6.5"/>
<feComposite in2="hardAlpha" operator="arithmetic" k2="-1" k3="1"/>
<feColorMatrix type="matrix" values="0 0 0 0 0 0 0 0 0 0 0 0 0 0 0 0 0 0 0.09 0"/>
<feBlend mode="normal" in2="effect3_innerShadow_1837_4866" result="effect4_innerShadow_1837_4866"/>
<feColorMatrix in="SourceAlpha" type="matrix" values="0 0 0 0 0 0 0 0 0 0 0 0 0 0 0 0 0 0 127 0" result="hardAlpha"/>
<feOffset dy="-50"/>
<feGaussianBlur stdDeviation="7"/>
<feComposite in2="hardAlpha" operator="arithmetic" k2="-1" k3="1"/>
<feColorMatrix type="matrix" values="0 0 0 0 0 0 0 0 0 0 0 0 0 0 0 0 0 0 0.01 0"/>
<feBlend mode="normal" in2="effect4_innerShadow_1837_4866" result="effect5_innerShadow_1837_4866"/>
</filter>
</defs>
</svg>
